<?xml version="1.0" encoding="UTF-8" standalone="no"?>
<svg width="125px" height="80px" viewBox="0 0 125 80" version="1.1" xmlns="http://www.w3.org/2000/svg" xmlns:xlink="http://www.w3.org/1999/xlink">
    <!-- Generator: Sketch 40.3 (33839) - http://www.bohemiancoding.com/sketch -->
    <title>ants</title>
    <desc>Created with Sketch.</desc>
    <defs></defs>
    <g id="Page-1" stroke="none" stroke-width="1" fill="none" fill-rule="evenodd">
        <g id="ants" fill="#666666">
            <g id="Group-2" transform="translate(8.000000, 5.000000)">
                <ellipse id="Oval-4" cx="4.44537044" cy="2.28275779" rx="1.90897289" ry="1.26819877"></ellipse>
                <ellipse id="Oval-4" cx="7.22205828" cy="2.28275779" rx="1.90897289" ry="1.26819877"></ellipse>
                <ellipse id="Oval-4" cx="1.90897289" cy="2.28275779" rx="0.894413873" ry="1.26819877"></ellipse>
                <polygon id="Path-25" points="1.03350769 0 0 1.17822354 0.10861429 1.35984595 0.945947484 0.369684897 1.65522233 1.40121103 1.75027531 1.35984595"></polygon>
                <polygon id="Path-25" points="1.33495552 0 0.50727951 1.17822354 0.594262358 1.35984595 1.26483366 0.369684897 1.8328505 1.40121103 1.90897289 1.35984595"></polygon>
                <polygon id="Path-25" points="2.78667219 3.04367706 2.02911804 5.70955721 2.11610089 5.89117962 2.95237046 3.32722599 3.87562289 3.45033045 3.87562289 3.16963"></polygon>
                <polygon id="Path-25" points="2.27939268 2.02911804 1.52183853 4.69499819 1.60882138 4.8766206 2.44509095 2.31266697 3.36834338 2.43577143 3.36834338 2.15507098"></polygon>
                <polygon id="Path-25" points="5.32306974 2.53639755 4.56551559 5.2022777 4.65249844 5.38390011 5.48876801 2.81994648 6.41202043 2.94305094 6.41202043 2.66235049"></polygon>
                <polygon id="Path-25" transform="translate(9.547004, 3.960149) scale(-1, 1) translate(-9.547004, -3.960149) " points="9.38130582 2.53639755 8.62375167 5.2022777 8.71073451 5.38390011 9.54700409 2.81994648 10.4702565 2.94305094 10.4702565 2.66235049"></polygon>
                <polygon id="Path-25" transform="translate(8.532445, 3.452869) scale(-1, 1) translate(-8.532445, -3.452869) " points="8.3667468 2.02911804 7.60919265 4.69499819 7.69617549 4.8766206 8.53244507 2.31266697 9.45569749 2.43577143 9.45569749 2.15507098"></polygon>
                <polygon id="Path-25" transform="translate(6.503327, 3.960149) scale(-1, 1) translate(-6.503327, -3.960149) " points="6.33762876 2.53639755 5.58007461 5.2022777 5.66705746 5.38390011 6.50332703 2.81994648 7.42657945 2.94305094 7.42657945 2.66235049"></polygon>
            </g>
            <g id="Group-2" transform="translate(30.000000, 5.000000)">
                <ellipse id="Oval-4" cx="4.95264995" cy="2.28275779" rx="1.90897289" ry="1.26819877"></ellipse>
                <ellipse id="Oval-4" cx="7.72933779" cy="2.28275779" rx="1.90897289" ry="1.26819877"></ellipse>
                <ellipse id="Oval-4" cx="2.4162524" cy="2.28275779" rx="0.894413873" ry="1.26819877"></ellipse>
                <polygon id="Path-25" points="1.5407872 0 0.478423034 0.86519889 0.610444508 1.02335219 1.45322699 0.369684897 2.16250184 1.40121103 2.25755482 1.35984595"></polygon>
                <polygon id="Path-25" points="1.84223503 0.295376375 1.01455902 1.17822354 1.10154187 1.35984595 1.84223503 0.529200524 2.34013001 1.40121103 2.4162524 1.35984595"></polygon>
                <polygon id="Path-25" points="3.2939517 3.04367706 1.52183853 5.70955721 1.60882138 5.89117962 3.45964997 3.32722599 4.3829024 3.45033045 4.3829024 3.16963"></polygon>
                <polygon id="Path-25" points="3.37682693 3.8522157 3.94386288 5.32129518 4.10195426 5.32129518 3.5708341 3.75381883 3.87562289 2.43577143 3.87562289 2.15507098"></polygon>
                <polygon id="Path-25" points="6.13534504 3.96497888 6.73117554 5.39356022 6.91929994 5.39356022 6.29764723 3.96497888 6.91929994 2.94305094 6.91929994 2.66235049"></polygon>
                <polygon id="Path-25" points="8.1217887 2.53639755 7.5467246 5.2022777 7.61275383 5.38390011 8.24757129 2.81994648 8.94841798 2.94305094 8.94841798 2.66235049"></polygon>
                <polygon id="Path-25" transform="translate(8.469977, 3.960149) scale(-1, 1) translate(-8.469977, -3.960149) " points="8.30427875 2.53639755 7.5467246 5.2022777 7.63370745 5.38390011 8.46997702 2.81994648 9.39322945 2.94305094 9.39322945 2.66235049"></polygon>
                <polygon id="Path-25" points="5.83034925 2.53639755 5.0727951 5.2022777 5.15977795 5.38390011 5.99604752 2.81994648 6.91929994 2.94305094 6.91929994 2.66235049"></polygon>
            </g>
            <g id="Group-2" transform="translate(55.000000, 5.000000)">
                <ellipse id="Oval-4" cx="4.95264995" cy="2.28275779" rx="1.90897289" ry="1.26819877"></ellipse>
                <ellipse id="Oval-4" cx="7.72933779" cy="2.28275779" rx="1.90897289" ry="1.26819877"></ellipse>
                <ellipse id="Oval-4" cx="2.4162524" cy="2.28275779" rx="0.894413873" ry="1.26819877"></ellipse>
                <polygon id="Path-25" points="1.46319672 0.403309503 0.440649535 0.730019304 0.440649535 0.902260266 1.46319672 0.63447093 2.16250184 1.40121103 2.25755482 1.35984595"></polygon>
                <polygon id="Path-25" points="1.84223503 0.38058348 1.22429482 1.26553605 1.32052436 1.35984595 1.84223503 0.563568215 2.34013001 1.40121103 2.4162524 1.35984595"></polygon>
                <polygon id="Path-25" points="3.2939517 3.04367706 2.55361236 5.21881134 2.7235931 5.21881134 3.45964997 3.32722599 4.3829024 3.45033045 4.3829024 3.16963"></polygon>
                <polygon id="Path-25" points="2.36511641 3.73818308 1.97029046 4.71772421 2.17946895 4.57653802 2.48023269 3.80521556 3.87562289 2.43577143 3.87562289 2.15507098"></polygon>
                <polygon id="Path-25" points="5.62806553 3.96497888 6.22389603 5.39356022 6.41202043 5.39356022 5.79036772 3.96497888 6.41202043 2.94305094 6.41202043 2.66235049"></polygon>
                <polygon id="Path-25" points="7.69204665 3.88936996 8.09393191 5.25299326 8.28391403 5.35139013 7.85168612 3.96014883 8.09393191 3.14535589 7.93844132 3.06076802"></polygon>
                <polygon id="Path-25" transform="translate(9.285717, 3.572011) scale(-1, 1) translate(-9.285717, -3.572011) " points="8.99962894 3.28028778 8.62375167 4.48167081 8.77373103 4.48167081 9.10688091 3.42054511 9.94768183 2.94305094 9.94768183 2.66235049"></polygon>
                <polygon id="Path-25" points="5.83034925 2.53639755 4.67022868 4.80466518 4.81463491 4.80466518 5.83034925 2.66235049 6.91929994 2.94305094 6.91929994 2.66235049"></polygon>
            </g>
            <g id="Group-2" transform="translate(77.000000, 5.000000)">
                <ellipse id="Oval-4" cx="4.44537044" cy="2.28275779" rx="1.90897289" ry="1.26819877"></ellipse>
                <ellipse id="Oval-4" cx="7.22205828" cy="2.28275779" rx="1.90897289" ry="1.26819877"></ellipse>
                <ellipse id="Oval-4" cx="1.90897289" cy="2.28275779" rx="0.894413873" ry="1.26819877"></ellipse>
                <polygon id="Path-25" points="1.03350769 0 0 1.17822354 0.10861429 1.35984595 0.945947484 0.369684897 1.65522233 1.40121103 1.75027531 1.35984595"></polygon>
                <polygon id="Path-25" points="1.33495552 0 0.50727951 1.17822354 0.594262358 1.35984595 1.26483366 0.369684897 1.8328505 1.40121103 1.90897289 1.35984595"></polygon>
                <polygon id="Path-25" points="2.78667219 3.04367706 2.02911804 5.70955721 2.11610089 5.89117962 2.95237046 3.32722599 3.87562289 3.45033045 3.87562289 3.16963"></polygon>
                <polygon id="Path-25" points="2.27939268 2.02911804 1.52183853 4.69499819 1.60882138 4.8766206 2.44509095 2.31266697 3.36834338 2.43577143 3.36834338 2.15507098"></polygon>
                <polygon id="Path-25" points="5.32306974 2.53639755 4.56551559 5.2022777 4.65249844 5.38390011 5.48876801 2.81994648 6.41202043 2.94305094 6.41202043 2.66235049"></polygon>
                <polygon id="Path-25" transform="translate(9.547004, 3.960149) scale(-1, 1) translate(-9.547004, -3.960149) " points="9.38130582 2.53639755 8.62375167 5.2022777 8.71073451 5.38390011 9.54700409 2.81994648 10.4702565 2.94305094 10.4702565 2.66235049"></polygon>
                <polygon id="Path-25" transform="translate(8.532445, 3.452869) scale(-1, 1) translate(-8.532445, -3.452869) " points="8.3667468 2.02911804 7.60919265 4.69499819 7.69617549 4.8766206 8.53244507 2.31266697 9.45569749 2.43577143 9.45569749 2.15507098"></polygon>
                <polygon id="Path-25" transform="translate(6.503327, 3.960149) scale(-1, 1) translate(-6.503327, -3.960149) " points="6.33762876 2.53639755 5.58007461 5.2022777 5.66705746 5.38390011 6.50332703 2.81994648 7.42657945 2.94305094 7.42657945 2.66235049"></polygon>
            </g>
            <g id="Group-2" transform="translate(99.000000, 5.000000)">
                <ellipse id="Oval-4" cx="4.95264995" cy="2.28275779" rx="1.90897289" ry="1.26819877"></ellipse>
                <ellipse id="Oval-4" cx="7.72933779" cy="2.28275779" rx="1.90897289" ry="1.26819877"></ellipse>
                <ellipse id="Oval-4" cx="2.4162524" cy="2.28275779" rx="0.894413873" ry="1.26819877"></ellipse>
                <polygon id="Path-25" points="1.5407872 0 0.478423034 0.86519889 0.610444508 1.02335219 1.45322699 0.369684897 2.16250184 1.40121103 2.25755482 1.35984595"></polygon>
                <polygon id="Path-25" points="1.84223503 0.295376375 1.01455902 1.17822354 1.10154187 1.35984595 1.84223503 0.529200524 2.34013001 1.40121103 2.4162524 1.35984595"></polygon>
                <polygon id="Path-25" points="3.2939517 3.04367706 1.52183853 5.70955721 1.60882138 5.89117962 3.45964997 3.32722599 4.3829024 3.45033045 4.3829024 3.16963"></polygon>
                <polygon id="Path-25" points="3.37682693 3.8522157 3.94386288 5.32129518 4.10195426 5.32129518 3.5708341 3.75381883 3.87562289 2.43577143 3.87562289 2.15507098"></polygon>
                <polygon id="Path-25" points="6.13534504 3.96497888 6.73117554 5.39356022 6.91929994 5.39356022 6.29764723 3.96497888 6.91929994 2.94305094 6.91929994 2.66235049"></polygon>
                <polygon id="Path-25" points="8.1217887 2.53639755 7.5467246 5.2022777 7.61275383 5.38390011 8.24757129 2.81994648 8.94841798 2.94305094 8.94841798 2.66235049"></polygon>
                <polygon id="Path-25" transform="translate(8.469977, 3.960149) scale(-1, 1) translate(-8.469977, -3.960149) " points="8.30427875 2.53639755 7.5467246 5.2022777 7.63370745 5.38390011 8.46997702 2.81994648 9.39322945 2.94305094 9.39322945 2.66235049"></polygon>
                <polygon id="Path-25" points="5.83034925 2.53639755 5.0727951 5.2022777 5.15977795 5.38390011 5.99604752 2.81994648 6.91929994 2.94305094 6.91929994 2.66235049"></polygon>
            </g>
            <g id="Group-2" transform="translate(119.228525, 11.437674) rotate(28.000000) translate(-119.228525, -11.437674) translate(114.228525, 7.937674)">
                <ellipse id="Oval-4" cx="4.95264995" cy="2.60323607" rx="1.90897289" ry="1.44624226"></ellipse>
                <ellipse id="Oval-4" cx="7.72933779" cy="2.60323607" rx="1.90897289" ry="1.44624226"></ellipse>
                <ellipse id="Oval-4" cx="2.4162524" cy="2.60323607" rx="0.894413873" ry="1.44624226"></ellipse>
                <polygon id="Path-25" points="1.46319672 0.459930461 0.440649535 0.832507325 0.440649535 1.02892934 1.46319672 0.723544834 2.16250184 1.59792822 2.25755482 1.55075586"></polygon>
                <polygon id="Path-25" points="1.84223503 0.434013913 1.22429482 1.44320572 1.32052436 1.55075586 1.84223503 0.642688028 2.34013001 1.59792822 2.4162524 1.55075586"></polygon>
                <polygon id="Path-25" points="3.2939517 3.47098143 2.55361236 5.95148463 2.7235931 5.95148463 3.45964997 3.79433803 4.3829024 3.93472522 4.3829024 3.61461701"></polygon>
                <polygon id="Path-25" points="2.36511641 4.26298973 1.97029046 5.38004946 2.17946895 5.21904202 2.48023269 4.33943296 3.87562289 2.77773141 3.87562289 2.4576232"></polygon>
                <polygon id="Path-25" points="5.62806553 4.52162558 6.22389603 6.15076665 6.41202043 6.15076665 5.79036772 4.52162558 6.41202043 3.35622832 6.41202043 3.03612011"></polygon>
                <polygon id="Path-25" points="7.69204665 4.43540186 8.09393191 5.99046538 8.28391403 6.10267627 7.85168612 4.51611744 8.09393191 3.58693503 7.93844132 3.4904718"></polygon>
                <polygon id="Path-25" transform="translate(9.285717, 4.073488) scale(-1, 1) translate(-9.285717, -4.073488) " points="8.99962894 3.74081012 8.62375167 5.11085632 8.77373103 5.11085632 9.10688091 3.9007583 9.94768183 3.35622832 9.94768183 3.03612011"></polygon>
                <polygon id="Path-25" points="5.83034925 2.89248452 4.67022868 5.47919614 4.81463491 5.47919614 5.83034925 3.03612011 6.91929994 3.35622832 6.91929994 3.03612011"></polygon>
            </g>
            <g id="Group-2" transform="translate(26.000000, 25.059371)">
                <ellipse id="Oval-4" cx="4.44537044" cy="2.28275779" rx="1.90897289" ry="1.26819877"></ellipse>
                <ellipse id="Oval-4" cx="7.22205828" cy="2.28275779" rx="1.90897289" ry="1.26819877"></ellipse>
                <ellipse id="Oval-4" cx="1.90897289" cy="2.28275779" rx="0.894413873" ry="1.26819877"></ellipse>
                <polygon id="Path-25" points="1.03350769 0 0 1.17822354 0.10861429 1.35984595 0.945947484 0.369684897 1.65522233 1.40121103 1.75027531 1.35984595"></polygon>
                <polygon id="Path-25" points="1.33495552 0 0.50727951 1.17822354 0.594262358 1.35984595 1.26483366 0.369684897 1.8328505 1.40121103 1.90897289 1.35984595"></polygon>
                <polygon id="Path-25" points="2.78667219 3.04367706 2.02911804 5.70955721 2.11610089 5.89117962 2.95237046 3.32722599 3.87562289 3.45033045 3.87562289 3.16963"></polygon>
                <polygon id="Path-25" points="2.27939268 2.02911804 1.52183853 4.69499819 1.60882138 4.8766206 2.44509095 2.31266697 3.36834338 2.43577143 3.36834338 2.15507098"></polygon>
                <polygon id="Path-25" points="5.32306974 2.53639755 4.56551559 5.2022777 4.65249844 5.38390011 5.48876801 2.81994648 6.41202043 2.94305094 6.41202043 2.66235049"></polygon>
                <polygon id="Path-25" transform="translate(9.547004, 3.960149) scale(-1, 1) translate(-9.547004, -3.960149) " points="9.38130582 2.53639755 8.62375167 5.2022777 8.71073451 5.38390011 9.54700409 2.81994648 10.4702565 2.94305094 10.4702565 2.66235049"></polygon>
                <polygon id="Path-25" transform="translate(8.532445, 3.452869) scale(-1, 1) translate(-8.532445, -3.452869) " points="8.3667468 2.02911804 7.60919265 4.69499819 7.69617549 4.8766206 8.53244507 2.31266697 9.45569749 2.43577143 9.45569749 2.15507098"></polygon>
                <polygon id="Path-25" transform="translate(6.503327, 3.960149) scale(-1, 1) translate(-6.503327, -3.960149) " points="6.33762876 2.53639755 5.58007461 5.2022777 5.66705746 5.38390011 6.50332703 2.81994648 7.42657945 2.94305094 7.42657945 2.66235049"></polygon>
            </g>
            <g id="Group-2" transform="translate(50.000000, 25.000000)">
                <ellipse id="Oval-4" cx="4.95264995" cy="2.28275779" rx="1.90897289" ry="1.26819877"></ellipse>
                <ellipse id="Oval-4" cx="7.72933779" cy="2.28275779" rx="1.90897289" ry="1.26819877"></ellipse>
                <ellipse id="Oval-4" cx="2.4162524" cy="2.28275779" rx="0.894413873" ry="1.26819877"></ellipse>
                <polygon id="Path-25" points="1.5407872 0 0.478423034 0.86519889 0.610444508 1.02335219 1.45322699 0.369684897 2.16250184 1.40121103 2.25755482 1.35984595"></polygon>
                <polygon id="Path-25" points="1.84223503 0.295376375 1.01455902 1.17822354 1.10154187 1.35984595 1.84223503 0.529200524 2.34013001 1.40121103 2.4162524 1.35984595"></polygon>
                <polygon id="Path-25" points="3.2939517 3.04367706 1.52183853 5.70955721 1.60882138 5.89117962 3.45964997 3.32722599 4.3829024 3.45033045 4.3829024 3.16963"></polygon>
                <polygon id="Path-25" points="3.37682693 3.8522157 3.94386288 5.32129518 4.10195426 5.32129518 3.5708341 3.75381883 3.87562289 2.43577143 3.87562289 2.15507098"></polygon>
                <polygon id="Path-25" points="6.13534504 3.96497888 6.73117554 5.39356022 6.91929994 5.39356022 6.29764723 3.96497888 6.91929994 2.94305094 6.91929994 2.66235049"></polygon>
                <polygon id="Path-25" points="8.1217887 2.53639755 7.5467246 5.2022777 7.61275383 5.38390011 8.24757129 2.81994648 8.94841798 2.94305094 8.94841798 2.66235049"></polygon>
                <polygon id="Path-25" transform="translate(8.469977, 3.960149) scale(-1, 1) translate(-8.469977, -3.960149) " points="8.30427875 2.53639755 7.5467246 5.2022777 7.63370745 5.38390011 8.46997702 2.81994648 9.39322945 2.94305094 9.39322945 2.66235049"></polygon>
                <polygon id="Path-25" points="5.83034925 2.53639755 5.0727951 5.2022777 5.15977795 5.38390011 5.99604752 2.81994648 6.91929994 2.94305094 6.91929994 2.66235049"></polygon>
            </g>
            <g id="Group-2" transform="translate(72.000000, 25.000000)">
                <ellipse id="Oval-4" cx="4.95264995" cy="2.28275779" rx="1.90897289" ry="1.26819877"></ellipse>
                <ellipse id="Oval-4" cx="7.72933779" cy="2.28275779" rx="1.90897289" ry="1.26819877"></ellipse>
                <ellipse id="Oval-4" cx="2.4162524" cy="2.28275779" rx="0.894413873" ry="1.26819877"></ellipse>
                <polygon id="Path-25" points="1.46319672 0.403309503 0.440649535 0.730019304 0.440649535 0.902260266 1.46319672 0.63447093 2.16250184 1.40121103 2.25755482 1.35984595"></polygon>
                <polygon id="Path-25" points="1.84223503 0.38058348 1.22429482 1.26553605 1.32052436 1.35984595 1.84223503 0.563568215 2.34013001 1.40121103 2.4162524 1.35984595"></polygon>
                <polygon id="Path-25" points="3.2939517 3.04367706 2.55361236 5.21881134 2.7235931 5.21881134 3.45964997 3.32722599 4.3829024 3.45033045 4.3829024 3.16963"></polygon>
                <polygon id="Path-25" points="2.36511641 3.73818308 1.97029046 4.71772421 2.17946895 4.57653802 2.48023269 3.80521556 3.87562289 2.43577143 3.87562289 2.15507098"></polygon>
                <polygon id="Path-25" points="5.62806553 3.96497888 6.22389603 5.39356022 6.41202043 5.39356022 5.79036772 3.96497888 6.41202043 2.94305094 6.41202043 2.66235049"></polygon>
                <polygon id="Path-25" points="7.69204665 3.88936996 8.09393191 5.25299326 8.28391403 5.35139013 7.85168612 3.96014883 8.09393191 3.14535589 7.93844132 3.06076802"></polygon>
                <polygon id="Path-25" transform="translate(9.285717, 3.572011) scale(-1, 1) translate(-9.285717, -3.572011) " points="8.99962894 3.28028778 8.62375167 4.48167081 8.77373103 4.48167081 9.10688091 3.42054511 9.94768183 2.94305094 9.94768183 2.66235049"></polygon>
                <polygon id="Path-25" points="5.83034925 2.53639755 4.67022868 4.80466518 4.81463491 4.80466518 5.83034925 2.66235049 6.91929994 2.94305094 6.91929994 2.66235049"></polygon>
            </g>
            <g id="Group-2" transform="translate(92.000000, 25.000000)">
                <ellipse id="Oval-4" cx="4.44537044" cy="2.28275779" rx="1.90897289" ry="1.26819877"></ellipse>
                <ellipse id="Oval-4" cx="7.22205828" cy="2.28275779" rx="1.90897289" ry="1.26819877"></ellipse>
                <ellipse id="Oval-4" cx="1.90897289" cy="2.28275779" rx="0.894413873" ry="1.26819877"></ellipse>
                <polygon id="Path-25" points="1.03350769 0 0 1.17822354 0.10861429 1.35984595 0.945947484 0.369684897 1.65522233 1.40121103 1.75027531 1.35984595"></polygon>
                <polygon id="Path-25" points="1.33495552 0 0.50727951 1.17822354 0.594262358 1.35984595 1.26483366 0.369684897 1.8328505 1.40121103 1.90897289 1.35984595"></polygon>
                <polygon id="Path-25" points="2.78667219 3.04367706 2.02911804 5.70955721 2.11610089 5.89117962 2.95237046 3.32722599 3.87562289 3.45033045 3.87562289 3.16963"></polygon>
                <polygon id="Path-25" points="2.27939268 2.02911804 1.52183853 4.69499819 1.60882138 4.8766206 2.44509095 2.31266697 3.36834338 2.43577143 3.36834338 2.15507098"></polygon>
                <polygon id="Path-25" points="5.32306974 2.53639755 4.56551559 5.2022777 4.65249844 5.38390011 5.48876801 2.81994648 6.41202043 2.94305094 6.41202043 2.66235049"></polygon>
                <polygon id="Path-25" transform="translate(9.547004, 3.960149) scale(-1, 1) translate(-9.547004, -3.960149) " points="9.38130582 2.53639755 8.62375167 5.2022777 8.71073451 5.38390011 9.54700409 2.81994648 10.4702565 2.94305094 10.4702565 2.66235049"></polygon>
                <polygon id="Path-25" transform="translate(8.532445, 3.452869) scale(-1, 1) translate(-8.532445, -3.452869) " points="8.3667468 2.02911804 7.60919265 4.69499819 7.69617549 4.8766206 8.53244507 2.31266697 9.45569749 2.43577143 9.45569749 2.15507098"></polygon>
                <polygon id="Path-25" transform="translate(6.503327, 3.960149) scale(-1, 1) translate(-6.503327, -3.960149) " points="6.33762876 2.53639755 5.58007461 5.2022777 5.66705746 5.38390011 6.50332703 2.81994648 7.42657945 2.94305094 7.42657945 2.66235049"></polygon>
            </g>
            <g id="Group-2" transform="translate(114.922190, 29.059371) rotate(21.000000) translate(-114.922190, -29.059371) translate(109.922190, 25.559371)">
                <ellipse id="Oval-4" cx="4.95264995" cy="2.43027108" rx="1.90897289" ry="1.3501506"></ellipse>
                <ellipse id="Oval-4" cx="7.72933779" cy="2.43027108" rx="1.90897289" ry="1.3501506"></ellipse>
                <ellipse id="Oval-4" cx="2.4162524" cy="2.43027108" rx="0.894413873" ry="1.3501506"></ellipse>
                <polygon id="Path-25" points="1.5407872 -3.19744231e-14 0.478423034 0.921108604 0.610444508 1.08948188 1.45322699 0.393574174 2.16250184 1.49175819 2.25755482 1.44772008"></polygon>
                <polygon id="Path-25" points="1.84223503 0.314463787 1.01455902 1.25436111 1.10154187 1.44772008 1.84223503 0.563397805 2.34013001 1.49175819 2.4162524 1.44772008"></polygon>
                <polygon id="Path-25" points="3.2939517 3.24036144 1.52183853 6.07851249 1.60882138 6.27187146 3.45964997 3.54223349 4.3829024 3.67329303 4.3829024 3.37445355"></polygon>
                <polygon id="Path-25" points="3.37682693 4.10114838 3.94386288 5.66516072 4.10195426 5.66516072 3.5708341 3.99639304 3.87562289 2.59317255 3.87562289 2.29433307"></polygon>
                <polygon id="Path-25" points="6.13534504 4.22119839 6.73117554 5.74209557 6.91929994 5.74209557 6.29764723 4.22119839 6.91929994 3.13323279 6.91929994 2.83439331"></polygon>
                <polygon id="Path-25" points="8.1217887 2.7003012 7.5467246 5.53845225 7.61275383 5.73181122 8.24757129 3.00217325 8.94841798 3.13323279 8.94841798 2.83439331"></polygon>
                <polygon id="Path-25" transform="translate(8.469977, 4.216056) scale(-1, 1) translate(-8.469977, -4.216056) " points="8.30427875 2.7003012 7.5467246 5.53845225 7.63370745 5.73181122 8.46997702 3.00217325 9.39322945 3.13323279 9.39322945 2.83439331"></polygon>
                <polygon id="Path-25" points="5.83034925 2.7003012 5.0727951 5.53845225 5.15977795 5.73181122 5.99604752 3.00217325 6.91929994 3.13323279 6.91929994 2.83439331"></polygon>
            </g>
            <g id="Group-2" transform="translate(3.000000, 25.000000)">
                <ellipse id="Oval-4" cx="4.95264995" cy="2.28275779" rx="1.90897289" ry="1.26819877"></ellipse>
                <ellipse id="Oval-4" cx="7.72933779" cy="2.28275779" rx="1.90897289" ry="1.26819877"></ellipse>
                <ellipse id="Oval-4" cx="2.4162524" cy="2.28275779" rx="0.894413873" ry="1.26819877"></ellipse>
                <polygon id="Path-25" points="1.46319672 0.403309503 0.440649535 0.730019304 0.440649535 0.902260266 1.46319672 0.63447093 2.16250184 1.40121103 2.25755482 1.35984595"></polygon>
                <polygon id="Path-25" points="1.84223503 0.38058348 1.22429482 1.26553605 1.32052436 1.35984595 1.84223503 0.563568215 2.34013001 1.40121103 2.4162524 1.35984595"></polygon>
                <polygon id="Path-25" points="3.2939517 3.04367706 2.55361236 5.21881134 2.7235931 5.21881134 3.45964997 3.32722599 4.3829024 3.45033045 4.3829024 3.16963"></polygon>
                <polygon id="Path-25" points="2.36511641 3.73818308 1.97029046 4.71772421 2.17946895 4.57653802 2.48023269 3.80521556 3.87562289 2.43577143 3.87562289 2.15507098"></polygon>
                <polygon id="Path-25" points="5.62806553 3.96497888 6.22389603 5.39356022 6.41202043 5.39356022 5.79036772 3.96497888 6.41202043 2.94305094 6.41202043 2.66235049"></polygon>
                <polygon id="Path-25" points="7.69204665 3.88936996 8.09393191 5.25299326 8.28391403 5.35139013 7.85168612 3.96014883 8.09393191 3.14535589 7.93844132 3.06076802"></polygon>
                <polygon id="Path-25" transform="translate(9.285717, 3.572011) scale(-1, 1) translate(-9.285717, -3.572011) " points="8.99962894 3.28028778 8.62375167 4.48167081 8.77373103 4.48167081 9.10688091 3.42054511 9.94768183 2.94305094 9.94768183 2.66235049"></polygon>
                <polygon id="Path-25" points="5.83034925 2.53639755 4.67022868 4.80466518 4.81463491 4.80466518 5.83034925 2.66235049 6.91929994 2.94305094 6.91929994 2.66235049"></polygon>
            </g>
            <g id="Group-2" transform="translate(43.000000, 45.000000)">
                <ellipse id="Oval-4" cx="4.44537044" cy="2.28275779" rx="1.90897289" ry="1.26819877"></ellipse>
                <ellipse id="Oval-4" cx="7.22205828" cy="2.28275779" rx="1.90897289" ry="1.26819877"></ellipse>
                <ellipse id="Oval-4" cx="1.90897289" cy="2.28275779" rx="0.894413873" ry="1.26819877"></ellipse>
                <polygon id="Path-25" points="1.03350769 0 0 1.17822354 0.10861429 1.35984595 0.945947484 0.369684897 1.65522233 1.40121103 1.75027531 1.35984595"></polygon>
                <polygon id="Path-25" points="1.33495552 0 0.50727951 1.17822354 0.594262358 1.35984595 1.26483366 0.369684897 1.8328505 1.40121103 1.90897289 1.35984595"></polygon>
                <polygon id="Path-25" points="2.78667219 3.04367706 2.02911804 5.70955721 2.11610089 5.89117962 2.95237046 3.32722599 3.87562289 3.45033045 3.87562289 3.16963"></polygon>
                <polygon id="Path-25" points="2.27939268 2.02911804 1.52183853 4.69499819 1.60882138 4.8766206 2.44509095 2.31266697 3.36834338 2.43577143 3.36834338 2.15507098"></polygon>
                <polygon id="Path-25" points="5.32306974 2.53639755 4.56551559 5.2022777 4.65249844 5.38390011 5.48876801 2.81994648 6.41202043 2.94305094 6.41202043 2.66235049"></polygon>
                <polygon id="Path-25" transform="translate(9.547004, 3.960149) scale(-1, 1) translate(-9.547004, -3.960149) " points="9.38130582 2.53639755 8.62375167 5.2022777 8.71073451 5.38390011 9.54700409 2.81994648 10.4702565 2.94305094 10.4702565 2.66235049"></polygon>
                <polygon id="Path-25" transform="translate(8.532445, 3.452869) scale(-1, 1) translate(-8.532445, -3.452869) " points="8.3667468 2.02911804 7.60919265 4.69499819 7.69617549 4.8766206 8.53244507 2.31266697 9.45569749 2.43577143 9.45569749 2.15507098"></polygon>
                <polygon id="Path-25" transform="translate(6.503327, 3.960149) scale(-1, 1) translate(-6.503327, -3.960149) " points="6.33762876 2.53639755 5.58007461 5.2022777 5.66705746 5.38390011 6.50332703 2.81994648 7.42657945 2.94305094 7.42657945 2.66235049"></polygon>
            </g>
            <g id="Group-2" transform="translate(64.000000, 45.000000)">
                <ellipse id="Oval-4" cx="4.95264995" cy="2.28275779" rx="1.90897289" ry="1.26819877"></ellipse>
                <ellipse id="Oval-4" cx="7.72933779" cy="2.28275779" rx="1.90897289" ry="1.26819877"></ellipse>
                <ellipse id="Oval-4" cx="2.4162524" cy="2.28275779" rx="0.894413873" ry="1.26819877"></ellipse>
                <polygon id="Path-25" points="1.5407872 0 0.478423034 0.86519889 0.610444508 1.02335219 1.45322699 0.369684897 2.16250184 1.40121103 2.25755482 1.35984595"></polygon>
                <polygon id="Path-25" points="1.84223503 0.295376375 1.01455902 1.17822354 1.10154187 1.35984595 1.84223503 0.529200524 2.34013001 1.40121103 2.4162524 1.35984595"></polygon>
                <polygon id="Path-25" points="3.2939517 3.04367706 1.52183853 5.70955721 1.60882138 5.89117962 3.45964997 3.32722599 4.3829024 3.45033045 4.3829024 3.16963"></polygon>
                <polygon id="Path-25" points="3.37682693 3.8522157 3.94386288 5.32129518 4.10195426 5.32129518 3.5708341 3.75381883 3.87562289 2.43577143 3.87562289 2.15507098"></polygon>
                <polygon id="Path-25" points="6.13534504 3.96497888 6.73117554 5.39356022 6.91929994 5.39356022 6.29764723 3.96497888 6.91929994 2.94305094 6.91929994 2.66235049"></polygon>
                <polygon id="Path-25" points="8.1217887 2.53639755 7.5467246 5.2022777 7.61275383 5.38390011 8.24757129 2.81994648 8.94841798 2.94305094 8.94841798 2.66235049"></polygon>
                <polygon id="Path-25" transform="translate(8.469977, 3.960149) scale(-1, 1) translate(-8.469977, -3.960149) " points="8.30427875 2.53639755 7.5467246 5.2022777 7.63370745 5.38390011 8.46997702 2.81994648 9.39322945 2.94305094 9.39322945 2.66235049"></polygon>
                <polygon id="Path-25" points="5.83034925 2.53639755 5.0727951 5.2022777 5.15977795 5.38390011 5.99604752 2.81994648 6.91929994 2.94305094 6.91929994 2.66235049"></polygon>
            </g>
            <g id="Group-2" transform="translate(85.000000, 45.000000)">
                <ellipse id="Oval-4" cx="4.95264995" cy="2.28275779" rx="1.90897289" ry="1.26819877"></ellipse>
                <ellipse id="Oval-4" cx="7.72933779" cy="2.28275779" rx="1.90897289" ry="1.26819877"></ellipse>
                <ellipse id="Oval-4" cx="2.4162524" cy="2.28275779" rx="0.894413873" ry="1.26819877"></ellipse>
                <polygon id="Path-25" points="1.46319672 0.403309503 0.440649535 0.730019304 0.440649535 0.902260266 1.46319672 0.63447093 2.16250184 1.40121103 2.25755482 1.35984595"></polygon>
                <polygon id="Path-25" points="1.84223503 0.38058348 1.22429482 1.26553605 1.32052436 1.35984595 1.84223503 0.563568215 2.34013001 1.40121103 2.4162524 1.35984595"></polygon>
                <polygon id="Path-25" points="3.2939517 3.04367706 2.55361236 5.21881134 2.7235931 5.21881134 3.45964997 3.32722599 4.3829024 3.45033045 4.3829024 3.16963"></polygon>
                <polygon id="Path-25" points="2.36511641 3.73818308 1.97029046 4.71772421 2.17946895 4.57653802 2.48023269 3.80521556 3.87562289 2.43577143 3.87562289 2.15507098"></polygon>
                <polygon id="Path-25" points="5.62806553 3.96497888 6.22389603 5.39356022 6.41202043 5.39356022 5.79036772 3.96497888 6.41202043 2.94305094 6.41202043 2.66235049"></polygon>
                <polygon id="Path-25" points="7.69204665 3.88936996 8.09393191 5.25299326 8.28391403 5.35139013 7.85168612 3.96014883 8.09393191 3.14535589 7.93844132 3.06076802"></polygon>
                <polygon id="Path-25" transform="translate(9.285717, 3.572011) scale(-1, 1) translate(-9.285717, -3.572011) " points="8.99962894 3.28028778 8.62375167 4.48167081 8.77373103 4.48167081 9.10688091 3.42054511 9.94768183 2.94305094 9.94768183 2.66235049"></polygon>
                <polygon id="Path-25" points="5.83034925 2.53639755 4.67022868 4.80466518 4.81463491 4.80466518 5.83034925 2.66235049 6.91929994 2.94305094 6.91929994 2.66235049"></polygon>
            </g>
            <g id="Group-2" transform="translate(20.000000, 45.000000)">
                <ellipse id="Oval-4" cx="4.95264995" cy="2.28275779" rx="1.90897289" ry="1.26819877"></ellipse>
                <ellipse id="Oval-4" cx="7.72933779" cy="2.28275779" rx="1.90897289" ry="1.26819877"></ellipse>
                <ellipse id="Oval-4" cx="2.4162524" cy="2.28275779" rx="0.894413873" ry="1.26819877"></ellipse>
                <polygon id="Path-25" points="1.46319672 0.403309503 0.440649535 0.730019304 0.440649535 0.902260266 1.46319672 0.63447093 2.16250184 1.40121103 2.25755482 1.35984595"></polygon>
                <polygon id="Path-25" points="1.84223503 0.38058348 1.22429482 1.26553605 1.32052436 1.35984595 1.84223503 0.563568215 2.34013001 1.40121103 2.4162524 1.35984595"></polygon>
                <polygon id="Path-25" points="3.2939517 3.04367706 2.55361236 5.21881134 2.7235931 5.21881134 3.45964997 3.32722599 4.3829024 3.45033045 4.3829024 3.16963"></polygon>
                <polygon id="Path-25" points="2.36511641 3.73818308 1.97029046 4.71772421 2.17946895 4.57653802 2.48023269 3.80521556 3.87562289 2.43577143 3.87562289 2.15507098"></polygon>
                <polygon id="Path-25" points="5.62806553 3.96497888 6.22389603 5.39356022 6.41202043 5.39356022 5.79036772 3.96497888 6.41202043 2.94305094 6.41202043 2.66235049"></polygon>
                <polygon id="Path-25" points="7.69204665 3.88936996 8.09393191 5.25299326 8.28391403 5.35139013 7.85168612 3.96014883 8.09393191 3.14535589 7.93844132 3.06076802"></polygon>
                <polygon id="Path-25" transform="translate(9.285717, 3.572011) scale(-1, 1) translate(-9.285717, -3.572011) " points="8.99962894 3.28028778 8.62375167 4.48167081 8.77373103 4.48167081 9.10688091 3.42054511 9.94768183 2.94305094 9.94768183 2.66235049"></polygon>
                <polygon id="Path-25" points="5.83034925 2.53639755 4.67022868 4.80466518 4.81463491 4.80466518 5.83034925 2.66235049 6.91929994 2.94305094 6.91929994 2.66235049"></polygon>
            </g>
            <g id="Group-2" transform="translate(105.000000, 45.000000)">
                <ellipse id="Oval-4" cx="4.44537044" cy="2.28275779" rx="1.90897289" ry="1.26819877"></ellipse>
                <ellipse id="Oval-4" cx="7.22205828" cy="2.28275779" rx="1.90897289" ry="1.26819877"></ellipse>
                <ellipse id="Oval-4" cx="1.90897289" cy="2.28275779" rx="0.894413873" ry="1.26819877"></ellipse>
                <polygon id="Path-25" points="1.03350769 0 0 1.17822354 0.10861429 1.35984595 0.945947484 0.369684897 1.65522233 1.40121103 1.75027531 1.35984595"></polygon>
                <polygon id="Path-25" points="1.33495552 0 0.50727951 1.17822354 0.594262358 1.35984595 1.26483366 0.369684897 1.8328505 1.40121103 1.90897289 1.35984595"></polygon>
                <polygon id="Path-25" points="2.78667219 3.04367706 2.02911804 5.70955721 2.11610089 5.89117962 2.95237046 3.32722599 3.87562289 3.45033045 3.87562289 3.16963"></polygon>
                <polygon id="Path-25" points="2.27939268 2.02911804 1.52183853 4.69499819 1.60882138 4.8766206 2.44509095 2.31266697 3.36834338 2.43577143 3.36834338 2.15507098"></polygon>
                <polygon id="Path-25" points="5.32306974 2.53639755 4.56551559 5.2022777 4.65249844 5.38390011 5.48876801 2.81994648 6.41202043 2.94305094 6.41202043 2.66235049"></polygon>
                <polygon id="Path-25" transform="translate(9.547004, 3.960149) scale(-1, 1) translate(-9.547004, -3.960149) " points="9.38130582 2.53639755 8.62375167 5.2022777 8.71073451 5.38390011 9.54700409 2.81994648 10.4702565 2.94305094 10.4702565 2.66235049"></polygon>
                <polygon id="Path-25" transform="translate(8.532445, 3.452869) scale(-1, 1) translate(-8.532445, -3.452869) " points="8.3667468 2.02911804 7.60919265 4.69499819 7.69617549 4.8766206 8.53244507 2.31266697 9.45569749 2.43577143 9.45569749 2.15507098"></polygon>
                <polygon id="Path-25" transform="translate(6.503327, 3.960149) scale(-1, 1) translate(-6.503327, -3.960149) " points="6.33762876 2.53639755 5.58007461 5.2022777 5.66705746 5.38390011 6.50332703 2.81994648 7.42657945 2.94305094 7.42657945 2.66235049"></polygon>
            </g>
            <g id="Group-2" transform="translate(37.000000, 65.000000)">
                <ellipse id="Oval-4" cx="4.44537044" cy="2.28275779" rx="1.90897289" ry="1.26819877"></ellipse>
                <ellipse id="Oval-4" cx="7.22205828" cy="2.28275779" rx="1.90897289" ry="1.26819877"></ellipse>
                <ellipse id="Oval-4" cx="1.90897289" cy="2.28275779" rx="0.894413873" ry="1.26819877"></ellipse>
                <polygon id="Path-25" points="1.03350769 0 0 1.17822354 0.10861429 1.35984595 0.945947484 0.369684897 1.65522233 1.40121103 1.75027531 1.35984595"></polygon>
                <polygon id="Path-25" points="1.33495552 0 0.50727951 1.17822354 0.594262358 1.35984595 1.26483366 0.369684897 1.8328505 1.40121103 1.90897289 1.35984595"></polygon>
                <polygon id="Path-25" points="2.78667219 3.04367706 2.02911804 5.70955721 2.11610089 5.89117962 2.95237046 3.32722599 3.87562289 3.45033045 3.87562289 3.16963"></polygon>
                <polygon id="Path-25" points="2.27939268 2.02911804 1.52183853 4.69499819 1.60882138 4.8766206 2.44509095 2.31266697 3.36834338 2.43577143 3.36834338 2.15507098"></polygon>
                <polygon id="Path-25" points="5.32306974 2.53639755 4.56551559 5.2022777 4.65249844 5.38390011 5.48876801 2.81994648 6.41202043 2.94305094 6.41202043 2.66235049"></polygon>
                <polygon id="Path-25" transform="translate(9.547004, 3.960149) scale(-1, 1) translate(-9.547004, -3.960149) " points="9.38130582 2.53639755 8.62375167 5.2022777 8.71073451 5.38390011 9.54700409 2.81994648 10.4702565 2.94305094 10.4702565 2.66235049"></polygon>
                <polygon id="Path-25" transform="translate(8.532445, 3.452869) scale(-1, 1) translate(-8.532445, -3.452869) " points="8.3667468 2.02911804 7.60919265 4.69499819 7.69617549 4.8766206 8.53244507 2.31266697 9.45569749 2.43577143 9.45569749 2.15507098"></polygon>
                <polygon id="Path-25" transform="translate(6.503327, 3.960149) scale(-1, 1) translate(-6.503327, -3.960149) " points="6.33762876 2.53639755 5.58007461 5.2022777 5.66705746 5.38390011 6.50332703 2.81994648 7.42657945 2.94305094 7.42657945 2.66235049"></polygon>
            </g>
            <g id="Group-2" transform="translate(58.000000, 65.000000)">
                <ellipse id="Oval-4" cx="4.95264995" cy="2.28275779" rx="1.90897289" ry="1.26819877"></ellipse>
                <ellipse id="Oval-4" cx="7.72933779" cy="2.28275779" rx="1.90897289" ry="1.26819877"></ellipse>
                <ellipse id="Oval-4" cx="2.4162524" cy="2.28275779" rx="0.894413873" ry="1.26819877"></ellipse>
                <polygon id="Path-25" points="1.5407872 0 0.478423034 0.86519889 0.610444508 1.02335219 1.45322699 0.369684897 2.16250184 1.40121103 2.25755482 1.35984595"></polygon>
                <polygon id="Path-25" points="1.84223503 0.295376375 1.01455902 1.17822354 1.10154187 1.35984595 1.84223503 0.529200524 2.34013001 1.40121103 2.4162524 1.35984595"></polygon>
                <polygon id="Path-25" points="3.2939517 3.04367706 1.52183853 5.70955721 1.60882138 5.89117962 3.45964997 3.32722599 4.3829024 3.45033045 4.3829024 3.16963"></polygon>
                <polygon id="Path-25" points="3.37682693 3.8522157 3.94386288 5.32129518 4.10195426 5.32129518 3.5708341 3.75381883 3.87562289 2.43577143 3.87562289 2.15507098"></polygon>
                <polygon id="Path-25" points="6.13534504 3.96497888 6.73117554 5.39356022 6.91929994 5.39356022 6.29764723 3.96497888 6.91929994 2.94305094 6.91929994 2.66235049"></polygon>
                <polygon id="Path-25" points="8.1217887 2.53639755 7.5467246 5.2022777 7.61275383 5.38390011 8.24757129 2.81994648 8.94841798 2.94305094 8.94841798 2.66235049"></polygon>
                <polygon id="Path-25" transform="translate(8.469977, 3.960149) scale(-1, 1) translate(-8.469977, -3.960149) " points="8.30427875 2.53639755 7.5467246 5.2022777 7.63370745 5.38390011 8.46997702 2.81994648 9.39322945 2.94305094 9.39322945 2.66235049"></polygon>
                <polygon id="Path-25" points="5.83034925 2.53639755 5.0727951 5.2022777 5.15977795 5.38390011 5.99604752 2.81994648 6.91929994 2.94305094 6.91929994 2.66235049"></polygon>
            </g>
            <g id="Group-2" transform="translate(79.000000, 65.000000)">
                <ellipse id="Oval-4" cx="4.95264995" cy="2.28275779" rx="1.90897289" ry="1.26819877"></ellipse>
                <ellipse id="Oval-4" cx="7.72933779" cy="2.28275779" rx="1.90897289" ry="1.26819877"></ellipse>
                <ellipse id="Oval-4" cx="2.4162524" cy="2.28275779" rx="0.894413873" ry="1.26819877"></ellipse>
                <polygon id="Path-25" points="1.46319672 0.403309503 0.440649535 0.730019304 0.440649535 0.902260266 1.46319672 0.63447093 2.16250184 1.40121103 2.25755482 1.35984595"></polygon>
                <polygon id="Path-25" points="1.84223503 0.38058348 1.22429482 1.26553605 1.32052436 1.35984595 1.84223503 0.563568215 2.34013001 1.40121103 2.4162524 1.35984595"></polygon>
                <polygon id="Path-25" points="3.2939517 3.04367706 2.55361236 5.21881134 2.7235931 5.21881134 3.45964997 3.32722599 4.3829024 3.45033045 4.3829024 3.16963"></polygon>
                <polygon id="Path-25" points="2.36511641 3.73818308 1.97029046 4.71772421 2.17946895 4.57653802 2.48023269 3.80521556 3.87562289 2.43577143 3.87562289 2.15507098"></polygon>
                <polygon id="Path-25" points="5.62806553 3.96497888 6.22389603 5.39356022 6.41202043 5.39356022 5.79036772 3.96497888 6.41202043 2.94305094 6.41202043 2.66235049"></polygon>
                <polygon id="Path-25" points="7.69204665 3.88936996 8.09393191 5.25299326 8.28391403 5.35139013 7.85168612 3.96014883 8.09393191 3.14535589 7.93844132 3.06076802"></polygon>
                <polygon id="Path-25" transform="translate(9.285717, 3.572011) scale(-1, 1) translate(-9.285717, -3.572011) " points="8.99962894 3.28028778 8.62375167 4.48167081 8.77373103 4.48167081 9.10688091 3.42054511 9.94768183 2.94305094 9.94768183 2.66235049"></polygon>
                <polygon id="Path-25" points="5.83034925 2.53639755 4.67022868 4.80466518 4.81463491 4.80466518 5.83034925 2.66235049 6.91929994 2.94305094 6.91929994 2.66235049"></polygon>
            </g>
            <g id="Group-2" transform="translate(15.000000, 65.000000)">
                <ellipse id="Oval-4" cx="4.95264995" cy="2.28275779" rx="1.90897289" ry="1.26819877"></ellipse>
                <ellipse id="Oval-4" cx="7.72933779" cy="2.28275779" rx="1.90897289" ry="1.26819877"></ellipse>
                <ellipse id="Oval-4" cx="2.4162524" cy="2.28275779" rx="0.894413873" ry="1.26819877"></ellipse>
                <polygon id="Path-25" points="1.46319672 0.403309503 0.440649535 0.730019304 0.440649535 0.902260266 1.46319672 0.63447093 2.16250184 1.40121103 2.25755482 1.35984595"></polygon>
                <polygon id="Path-25" points="1.84223503 0.38058348 1.22429482 1.26553605 1.32052436 1.35984595 1.84223503 0.563568215 2.34013001 1.40121103 2.4162524 1.35984595"></polygon>
                <polygon id="Path-25" points="3.2939517 3.04367706 2.55361236 5.21881134 2.7235931 5.21881134 3.45964997 3.32722599 4.3829024 3.45033045 4.3829024 3.16963"></polygon>
                <polygon id="Path-25" points="2.36511641 3.73818308 1.97029046 4.71772421 2.17946895 4.57653802 2.48023269 3.80521556 3.87562289 2.43577143 3.87562289 2.15507098"></polygon>
                <polygon id="Path-25" points="5.62806553 3.96497888 6.22389603 5.39356022 6.41202043 5.39356022 5.79036772 3.96497888 6.41202043 2.94305094 6.41202043 2.66235049"></polygon>
                <polygon id="Path-25" points="7.69204665 3.88936996 8.09393191 5.25299326 8.28391403 5.35139013 7.85168612 3.96014883 8.09393191 3.14535589 7.93844132 3.06076802"></polygon>
                <polygon id="Path-25" transform="translate(9.285717, 3.572011) scale(-1, 1) translate(-9.285717, -3.572011) " points="8.99962894 3.28028778 8.62375167 4.48167081 8.77373103 4.48167081 9.10688091 3.42054511 9.94768183 2.94305094 9.94768183 2.66235049"></polygon>
                <polygon id="Path-25" points="5.83034925 2.53639755 4.67022868 4.80466518 4.81463491 4.80466518 5.83034925 2.66235049 6.91929994 2.94305094 6.91929994 2.66235049"></polygon>
            </g>
            <g id="Group-2" transform="translate(98.000000, 65.000000)">
                <ellipse id="Oval-4" cx="4.44537044" cy="2.28275779" rx="1.90897289" ry="1.26819877"></ellipse>
                <ellipse id="Oval-4" cx="7.22205828" cy="2.28275779" rx="1.90897289" ry="1.26819877"></ellipse>
                <ellipse id="Oval-4" cx="1.90897289" cy="2.28275779" rx="0.894413873" ry="1.26819877"></ellipse>
                <polygon id="Path-25" points="1.03350769 0 0 1.17822354 0.10861429 1.35984595 0.945947484 0.369684897 1.65522233 1.40121103 1.75027531 1.35984595"></polygon>
                <polygon id="Path-25" points="1.33495552 0 0.50727951 1.17822354 0.594262358 1.35984595 1.26483366 0.369684897 1.8328505 1.40121103 1.90897289 1.35984595"></polygon>
                <polygon id="Path-25" points="2.78667219 3.04367706 2.02911804 5.70955721 2.11610089 5.89117962 2.95237046 3.32722599 3.87562289 3.45033045 3.87562289 3.16963"></polygon>
                <polygon id="Path-25" points="2.27939268 2.02911804 1.52183853 4.69499819 1.60882138 4.8766206 2.44509095 2.31266697 3.36834338 2.43577143 3.36834338 2.15507098"></polygon>
                <polygon id="Path-25" points="5.32306974 2.53639755 4.56551559 5.2022777 4.65249844 5.38390011 5.48876801 2.81994648 6.41202043 2.94305094 6.41202043 2.66235049"></polygon>
                <polygon id="Path-25" transform="translate(9.547004, 3.960149) scale(-1, 1) translate(-9.547004, -3.960149) " points="9.38130582 2.53639755 8.62375167 5.2022777 8.71073451 5.38390011 9.54700409 2.81994648 10.4702565 2.94305094 10.4702565 2.66235049"></polygon>
                <polygon id="Path-25" transform="translate(8.532445, 3.452869) scale(-1, 1) translate(-8.532445, -3.452869) " points="8.3667468 2.02911804 7.60919265 4.69499819 7.69617549 4.8766206 8.53244507 2.31266697 9.45569749 2.43577143 9.45569749 2.15507098"></polygon>
                <polygon id="Path-25" transform="translate(6.503327, 3.960149) scale(-1, 1) translate(-6.503327, -3.960149) " points="6.33762876 2.53639755 5.58007461 5.2022777 5.66705746 5.38390011 6.50332703 2.81994648 7.42657945 2.94305094 7.42657945 2.66235049"></polygon>
            </g>
            <g id="Group-2" transform="translate(0.000000, 45.000000)">
                <ellipse id="Oval-4" cx="4.95264995" cy="2.28275779" rx="1.90897289" ry="1.26819877"></ellipse>
                <ellipse id="Oval-4" cx="7.72933779" cy="2.28275779" rx="1.90897289" ry="1.26819877"></ellipse>
                <ellipse id="Oval-4" cx="2.4162524" cy="2.28275779" rx="0.894413873" ry="1.26819877"></ellipse>
                <polygon id="Path-25" points="1.46319672 0.403309503 0.440649535 0.730019304 0.440649535 0.902260266 1.46319672 0.63447093 2.16250184 1.40121103 2.25755482 1.35984595"></polygon>
                <polygon id="Path-25" points="1.84223503 0.38058348 1.22429482 1.26553605 1.32052436 1.35984595 1.84223503 0.563568215 2.34013001 1.40121103 2.4162524 1.35984595"></polygon>
                <polygon id="Path-25" points="3.2939517 3.04367706 2.55361236 5.21881134 2.7235931 5.21881134 3.45964997 3.32722599 4.3829024 3.45033045 4.3829024 3.16963"></polygon>
                <polygon id="Path-25" points="2.36511641 3.73818308 1.97029046 4.71772421 2.17946895 4.57653802 2.48023269 3.80521556 3.87562289 2.43577143 3.87562289 2.15507098"></polygon>
                <polygon id="Path-25" points="5.62806553 3.96497888 6.22389603 5.39356022 6.41202043 5.39356022 5.79036772 3.96497888 6.41202043 2.94305094 6.41202043 2.66235049"></polygon>
                <polygon id="Path-25" points="7.69204665 3.88936996 8.09393191 5.25299326 8.28391403 5.35139013 7.85168612 3.96014883 8.09393191 3.14535589 7.93844132 3.06076802"></polygon>
                <polygon id="Path-25" transform="translate(9.285717, 3.572011) scale(-1, 1) translate(-9.285717, -3.572011) " points="8.99962894 3.28028778 8.62375167 4.48167081 8.77373103 4.48167081 9.10688091 3.42054511 9.94768183 2.94305094 9.94768183 2.66235049"></polygon>
                <polygon id="Path-25" points="5.83034925 2.53639755 4.67022868 4.80466518 4.81463491 4.80466518 5.83034925 2.66235049 6.91929994 2.94305094 6.91929994 2.66235049"></polygon>
            </g>
            <g id="Group-2" transform="translate(-5.000000, 65.000000)">
                <ellipse id="Oval-4" cx="4.95264995" cy="2.28275779" rx="1.90897289" ry="1.26819877"></ellipse>
                <ellipse id="Oval-4" cx="7.72933779" cy="2.28275779" rx="1.90897289" ry="1.26819877"></ellipse>
                <polygon id="Path-25" points="5.62806553 3.96497888 6.22389603 5.39356022 6.41202043 5.39356022 5.79036772 3.96497888 6.41202043 2.94305094 6.41202043 2.66235049"></polygon>
                <polygon id="Path-25" points="7.69204665 3.88936996 8.09393191 5.25299326 8.28391403 5.35139013 7.85168612 3.96014883 8.09393191 3.14535589 7.93844132 3.06076802"></polygon>
                <polygon id="Path-25" transform="translate(9.285717, 3.572011) scale(-1, 1) translate(-9.285717, -3.572011) " points="8.99962894 3.28028778 8.62375167 4.48167081 8.77373103 4.48167081 9.10688091 3.42054511 9.94768183 2.94305094 9.94768183 2.66235049"></polygon>
                <polygon id="Path-25" points="5.83034925 2.53639755 4.67022868 4.80466518 4.81463491 4.80466518 5.83034925 2.66235049 6.91929994 2.94305094 6.91929994 2.66235049"></polygon>
            </g>
            <g id="Group-2" transform="translate(120.057888, 75.437674) rotate(28.000000) translate(-120.057888, -75.437674) translate(115.057888, 71.937674)">
                <ellipse id="Oval-4" cx="4.95264995" cy="2.60323607" rx="1.90897289" ry="1.44624226"></ellipse>
                <ellipse id="Oval-4" cx="7.72933779" cy="2.60323607" rx="1.90897289" ry="1.44624226"></ellipse>
                <ellipse id="Oval-4" cx="2.4162524" cy="2.60323607" rx="0.894413873" ry="1.44624226"></ellipse>
                <polygon id="Path-25" points="1.46319672 0.459930461 0.440649535 0.832507325 0.440649535 1.02892934 1.46319672 0.723544834 2.16250184 1.59792822 2.25755482 1.55075586"></polygon>
                <polygon id="Path-25" points="1.84223503 0.434013913 1.22429482 1.44320572 1.32052436 1.55075586 1.84223503 0.642688028 2.34013001 1.59792822 2.4162524 1.55075586"></polygon>
                <polygon id="Path-25" points="3.2939517 3.47098143 2.55361236 5.95148463 2.7235931 5.95148463 3.45964997 3.79433803 4.3829024 3.93472522 4.3829024 3.61461701"></polygon>
                <polygon id="Path-25" points="2.36511641 4.26298973 1.97029046 5.38004946 2.17946895 5.21904202 2.48023269 4.33943296 3.87562289 2.77773141 3.87562289 2.4576232"></polygon>
                <polygon id="Path-25" points="5.62806553 4.52162558 6.22389603 6.15076665 6.41202043 6.15076665 5.79036772 4.52162558 6.41202043 3.35622832 6.41202043 3.03612011"></polygon>
                <polygon id="Path-25" points="7.69204665 4.43540186 8.09393191 5.99046538 8.28391403 6.10267627 7.85168612 4.51611744 8.09393191 3.58693503 7.93844132 3.4904718"></polygon>
                <polygon id="Path-25" transform="translate(9.285717, 4.073488) scale(-1, 1) translate(-9.285717, -4.073488) " points="8.99962894 3.74081012 8.62375167 5.11085632 8.77373103 5.11085632 9.10688091 3.9007583 9.94768183 3.35622832 9.94768183 3.03612011"></polygon>
                <polygon id="Path-25" points="5.83034925 2.89248452 4.67022868 5.47919614 4.81463491 5.47919614 5.83034925 3.03612011 6.91929994 3.35622832 6.91929994 3.03612011"></polygon>
            </g>
        </g>
    </g>
</svg>