<?xml version="1.0" encoding="UTF-8" standalone="no"?>
<svg width="50px" height="100px" viewBox="0 0 50 100" version="1.1" xmlns="http://www.w3.org/2000/svg" xmlns:xlink="http://www.w3.org/1999/xlink">
    <!-- Generator: Sketch 40.3 (33839) - http://www.bohemiancoding.com/sketch -->
    <title>big_leaf_hero</title>
    <desc>Created with Sketch.</desc>
    <defs></defs>
    <g id="Page-1" stroke="none" stroke-width="1" fill="none" fill-rule="evenodd">
        <g id="big_leaf_hero">
            <g id="Group-21" transform="translate(0.000000, 14.000000)">
                <g id="Group-9" transform="translate(11.588235, 55.248456)">
                    <path d="M0.294117647,1.46617449 C0.294117647,1.46617449 -0.299982472,-5.10211386e-15 14.4275019,3.55271368e-15 C29.1549862,7.71983222e-15 28.5294118,1.46617449 28.5294118,1.46617449 C28.5294118,1.46617449 28.600229,1.53089856 28.5294118,1.99100482 C28.5294118,12.1371819 25.5651786,22.9340602 22.7416335,28.4277269 C22.2725184,29.2123813 22.0588235,29.3234898 22.0588235,29.3234898 C22.0588235,29.3234898 18.0353081,29.9099596 14.3761489,29.9099596 C10.7169897,29.9099596 7.05882353,29.3234898 7.05882353,29.3234898 C7.05882353,29.3234898 6.59581801,28.9698325 6.41854949,28.5373707 C4.6586552,27.260809 0.604503272,11.2696833 0.294117647,1.84052149 C0.30373966,1.61701578 0.294117647,1.46617449 0.294117647,1.46617449 Z" id="Rectangle-29" fill="#D8D8D8"></path>
                    <path d="M0.294117647,1.46617449 C0.294117647,1.46617449 0.294117647,1.99680366 5,2.68743771 C4.99425551,2.96227383 5.07081724,2.79776496 5,3.25787122 C5,13.4040483 8.89576631,24.862253 10.8823529,28.5373707 C11.198156,29.3004377 11.4213293,29.7749399 11.4213293,29.7749399 L7.05882353,29.3234898 C7.05882353,29.3234898 6.59581801,28.9698325 6.41854949,28.5373707 C4.6586552,27.260809 0.604503272,11.2696833 0.294117647,1.84052149 C0.30373966,1.61701578 0.294117647,1.46617449 0.294117647,1.46617449 Z" id="Rectangle-29" fill="#CCCCCC"></path>
                    <ellipse id="Oval-2" fill="#5C3E23" cx="14.7058824" cy="1.46617449" rx="12.6470588" ry="0.879704695"></ellipse>
                </g>
                <g id="Group-10">
                    <path d="M47.6171836,33.8979064 C48.5859541,26.5187883 42.5010847,22.8063684 41.3281336,22.8063684 C40.0189654,22.8063684 37.8969526,22.7233234 35.9748478,25.396801 C34.052743,28.0702785 35.1637265,24.9626759 35.1637265,24.9626759 C35.1637265,24.9626759 35.7801097,20.9507414 32.3041217,19.2222591 C28.8281336,17.4937768 25.7559829,18.1558462 24.8431842,19.4731124 C24.6012908,19.8221904 24.0223063,20.8318439 23.3473761,22.246708 L25.0896226,22.1225355 C25.0896226,22.1225355 27.9388873,22.5552288 28.3065344,22.5552288 C28.6741814,22.5552288 29.7587403,23.6852141 29.7587403,23.94609 C29.7587403,24.206966 28.7181268,24.7035181 27.9388873,24.7035181 C27.1596479,24.7035181 28.1402315,24.1883524 26.8187127,23.6852141 C25.6989697,23.2588973 23.5527102,23.1779746 22.9234118,23.1632018 C22.214996,24.7427502 21.4593639,26.6796542 20.9021397,28.7138061 C21.449166,28.619328 22.8696912,28.3588121 24.1173685,28.0004061 C25.7014103,27.5453766 28.2789609,27.4199499 28.9754797,27.4199499 C29.6719985,27.4199499 28.9622674,29.4018672 28.2789609,28.8047976 C27.5956543,28.2077279 25.2530532,28.941106 23.7976879,28.941106 C22.5298431,28.941106 20.9328541,29.9216631 20.5423657,30.1743483 C20.1429559,32.0107466 19.9464082,33.8752389 20.1253063,35.585065 L20.1223662,35.4950778 C20.1223662,35.4950778 22.6436208,33.2551526 23.7006061,32.5200608 C24.7575914,31.784969 27.1607968,31.3296531 27.693885,31.3296531 C28.2269733,31.3296531 28.1502844,31.7085103 28.1502844,32.1635399 C28.1502844,32.6185694 27.9492274,32.8508092 27.1607968,32.8508092 C26.3723662,32.8508092 24.6289149,33.8181407 22.6436208,34.5787187 C21.1685424,35.14383 20.5183083,36.1321403 20.2815167,36.6028026 C20.3754921,37.058759 20.5011989,37.4998959 20.6623478,37.9222838 C21.2130888,39.3658332 21.71066,40.7451251 22.1510689,42.0158573 L22.8274443,40.3446217 C22.8274443,40.3446217 24.0329245,38.5127627 24.7874627,38.1015466 C25.5420008,37.6903304 26.907465,37.3369595 26.907465,37.6903304 C26.907465,38.0437014 27.2618997,38.5843532 26.907465,38.8867517 C26.5530302,39.1891502 26.559062,39.4445853 24.8802361,39.8263061 C23.4253361,40.1571121 22.5770207,42.1467183 22.376604,42.6715897 C23.7487413,46.6917078 24.5042596,49.472417 24.5042596,49.472417 L28.8281336,48.6436848 C28.8281336,48.6436848 29.640521,48.435237 30.9564872,47.9611807 C31.0680479,46.9608856 31.5465985,42.4783997 31.2586254,41.6610288 C30.934062,40.7398016 30.6686667,40.0138734 31.8123938,39.1788412 C32.9561208,38.343809 32.7699995,40.6221067 32.7699995,42.6077422 C32.7699995,44.4987097 32.1219016,47.2830716 32.0601036,47.5442702 C33.0455084,47.1549748 34.2017664,46.6529134 35.4500493,46.0234948 C35.6780268,45.1256798 35.9395439,43.388519 35.3685174,41.2498127 C34.5258014,38.0935284 33.4429659,38.1442145 33.7945284,36.8807845 C34.1460909,35.6173544 34.8156107,36.0245615 35.3202637,36.0245615 C35.8249167,36.0245615 36.6225385,37.1505377 36.6225385,38.2868229 C36.6225385,39.4231081 36.9287196,42.1541445 36.9287196,43.4940333 C36.9287196,44.247242 36.7764173,44.9370161 36.643044,45.3966568 C37.766103,44.7820912 38.9396364,44.0687819 40.1125904,43.2472791 C40.2939221,42.4562455 40.7785447,39.9999077 40.1252384,38.7767886 C39.3399673,37.3066051 38.988692,35.5723956 38.988692,35.5723956 C38.988692,35.5723956 39.2308221,34.2551294 39.9241814,34.9137625 C40.6175408,35.5723956 40.9268813,37.3807729 40.9268813,37.3807729 C40.9268813,37.3807729 41.3037196,40.1839725 40.9268813,41.8231098 C40.8109154,42.3275279 40.6834439,42.6801906 40.56253,42.92673 C42.8547178,41.2655676 45.11971,39.1859069 46.9755371,36.6170449 C47.1290372,36.1607151 47.2565804,35.7156415 47.3602065,35.2818318 C47.0641132,34.6759525 46.5172379,33.6348891 45.9995491,33.0647217 C45.2395537,32.227685 44.6464356,31.3431122 44.1929085,31.3431122 C43.7393813,31.3431122 43.3145767,31.467107 43.3145767,30.766665 C43.3145767,30.0662231 43.6078326,29.9522509 44.2308221,29.9522509 C44.8538115,29.9522509 46.1299489,30.6904927 46.5610725,31.4510707 C46.8501022,31.96097 47.3313512,33.1617602 47.6171836,33.8979064 Z" id="Combined-Shape" fill="#2A341D"></path>
                    <path d="M26.3601792,57.0788834 C26.3601792,57.0788834 26.2039292,33.9244946 31.8972886,28.5027989 C37.590648,23.0811033 42.0811121,26.1099563 42.0811121,26.1099563 L42.8784467,26.734226 L42.5691062,27.5111266 C42.5691062,27.5111266 41.8226103,25.3677055 37.9674862,26.0509657 C34.1123621,26.734226 32.4751838,29.865883 31.9676585,30.2447402 C31.4601333,30.6235974 28.9130285,39.9458327 28.9130285,42.8956497 C28.9130285,45.8454668 28.8079044,57.3546502 28.8079044,57.3546502 L26.3601792,57.0788834 Z" id="Path-54" fill="#2A341D"></path>
                    <path d="M25.0580876,25.4563491 C25.8615149,21.3220899 20.8151699,19.2421522 19.8424102,19.2421522 C18.756682,19.2421522 16.99684,19.195625 15.4027871,20.69348 C13.8087342,22.191335 14.7301025,20.450255 14.7301025,20.450255 C14.7301025,20.450255 15.2412856,18.2025099 12.3585558,17.2341023 C9.4758259,16.2656948 6.92800912,16.6366289 6.17100074,17.3746466 C5.97039211,17.5702226 5.49022474,18.1358958 4.93048707,18.9285942 L6.37537871,18.8590247 C6.37537871,18.8590247 8.73835014,19.1014475 9.04324968,19.1014475 C9.34814922,19.1014475 10.2476029,19.7345383 10.2476029,19.8806979 C10.2476029,20.0268575 9.38459424,20.3050581 8.73835014,20.3050581 C8.09210604,20.3050581 8.90533028,20.016429 7.80935935,19.7345383 C6.88072658,19.4956881 5.10077616,19.45035 4.57888215,19.4420733 C3.99137397,20.3270385 3.36470805,21.4122174 2.90258714,22.5518808 C3.35625067,22.4989481 4.53433021,22.3529902 5.56906235,22.152188 C6.8827506,21.897251 9.02038221,21.8269789 9.59802392,21.8269789 C10.1756656,21.8269789 9.58706659,22.9373771 9.02038221,22.6028601 C8.45369783,22.2683431 6.51091608,22.6792289 5.30394267,22.6792289 C4.25248509,22.6792289 2.92805943,23.2286004 2.60421689,23.370171 C2.27297573,24.3990401 2.10997346,25.4436493 2.25833842,26.4016044 L2.25590009,26.3511878 C2.25590009,26.3511878 4.34684396,25.0962368 5.22343014,24.6843909 C6.10001631,24.2725449 8.09305885,24.0174475 8.53516318,24.0174475 C8.97726751,24.0174475 8.91366737,24.2297078 8.91366737,24.4846448 C8.91366737,24.7395817 8.74692544,24.8696975 8.09305885,24.8696975 C7.43919226,24.8696975 5.99330147,25.4116592 4.34684396,25.8377842 C3.12352199,26.1543961 2.58426545,26.7081114 2.38788788,26.9718069 C2.46582422,27.2272631 2.57007623,27.4744165 2.70372129,27.7110656 C3.16046555,28.5198353 3.57311464,29.2926038 3.93835752,30.0045502 L4.49929373,29.0682159 C4.49929373,29.0682159 5.49903074,28.04189 6.1247894,27.8115001 C6.75054806,27.5811103 7.88296401,27.383129 7.88296401,27.5811103 C7.88296401,27.7790915 8.17690622,28.0819997 7.88296401,28.2514229 C7.5890218,28.4208461 7.59402405,28.5639573 6.20172889,28.777822 C4.99514135,28.9631609 4.29161077,30.077867 4.12539985,30.3719339 C5.26334996,32.624264 5.88992147,34.1821972 5.88992147,34.1821972 L9.4758259,33.7178878 C9.4758259,33.7178878 10.1495604,33.6011018 11.2409264,33.3355048 C11.3334467,32.7750749 11.7303215,30.2636963 11.4914977,29.8057523 C11.2223286,29.2896212 11.0022292,28.8829093 11.9507526,28.4150703 C12.899276,27.9472312 12.7449206,29.2236809 12.7449206,30.3361624 C12.7449206,31.3956047 12.2074358,32.9555843 12.1561851,33.1019246 C12.9734076,32.8838162 13.9323233,32.6025289 14.9675577,32.2498879 C15.1566255,31.7468739 15.3735086,30.7736041 14.8999411,29.5753624 C14.2010541,27.8070079 13.3030297,27.8354055 13.5945899,27.1275503 C13.8861501,26.4196951 14.4414007,26.6478388 14.859923,26.6478388 C15.2784453,26.6478388 15.9399343,27.2786835 15.9399343,27.9153039 C15.9399343,28.5519244 16.1938585,30.0820276 16.1938585,30.8327199 C16.1938585,31.2547162 16.0675501,31.6411722 15.9569401,31.8986927 C16.888323,31.5543733 17.8615656,31.1547313 18.8343277,30.6944723 C18.9847109,30.2512841 19.3866214,28.8750849 18.844817,28.1898144 C18.1935707,27.3661225 17.9022487,26.3945062 17.9022487,26.3945062 C17.9022487,26.3945062 18.1030536,25.6564885 18.6780751,26.0254973 C19.2530966,26.3945062 19.509641,27.4076761 19.509641,27.4076761 C19.509641,27.4076761 19.822163,28.9782098 19.509641,29.8965606 C19.4134673,30.1791682 19.3077518,30.3767527 19.2074746,30.51488 C21.1084473,29.5841894 22.9868659,28.4190289 24.525953,26.9797863 C24.6532547,26.7241209 24.7590297,26.4747618 24.8449695,26.2317136 C24.5994115,25.8922608 24.1458732,25.3089897 23.71654,24.9895451 C23.0862555,24.520583 22.5943668,24.0249881 22.2182446,24.0249881 C21.8421224,24.0249881 21.4898205,24.094458 21.4898205,23.7020251 C21.4898205,23.3095923 21.7330256,23.2457377 22.2496874,23.2457377 C22.7663492,23.2457377 23.8246841,23.6593485 24.1822264,24.0854735 C24.4219265,24.371152 24.8210391,25.0439123 25.0580876,25.4563491 Z" id="Combined-Shape" fill="#2A341D" transform="translate(13.673791, 25.416337) rotate(-17.000000) translate(-13.673791, -25.416337) "></path>
                    <path d="M40.3360444,12.7694078 C41.1394716,8.63514865 36.0931267,6.55521093 35.120367,6.55521093 C34.0346388,6.55521093 32.2747968,6.50868373 30.6807439,8.00653876 C29.086691,9.50439378 30.0080593,7.7633138 30.0080593,7.7633138 C30.0080593,7.7633138 30.5192424,5.51556863 27.6365125,4.54716107 C24.7537827,3.57875352 22.2059659,3.94968763 21.4489575,4.68770531 C21.2483489,4.88328137 20.7681815,5.44895456 20.2084439,6.24165297 L21.6533355,6.17208349 C21.6533355,6.17208349 24.0163069,6.41450626 24.3212065,6.41450626 C24.626106,6.41450626 25.5255596,7.04759708 25.5255596,7.19375667 C25.5255596,7.33991626 24.662551,7.61811684 24.0163069,7.61811684 C23.3700628,7.61811684 24.1832871,7.32948775 23.0873161,7.04759708 C22.1586834,6.80874685 20.3787329,6.76340873 19.8568389,6.75513208 C19.2693308,7.64009725 18.6426648,8.72527612 18.1805439,9.86493956 C18.6342075,9.81200682 19.812287,9.66604896 20.8470191,9.46524676 C22.1607074,9.21030978 24.298339,9.14003766 24.8759807,9.14003766 C25.4536224,9.14003766 24.8650234,10.2504359 24.298339,9.91591886 C23.7316546,9.58140183 21.7888729,9.99228765 20.5818995,9.99228765 C19.5304419,9.99228765 18.2060162,10.5416592 17.8821737,10.6832298 C17.5509325,11.7120989 17.3879302,12.756708 17.5362952,13.7146632 L17.5338569,13.6642465 C17.5338569,13.6642465 19.6248007,12.4092956 20.5013869,11.9974496 C21.3779731,11.5856037 23.3710156,11.3305062 23.81312,11.3305062 C24.2552243,11.3305062 24.1916242,11.5427665 24.1916242,11.7977035 C24.1916242,12.0526405 24.0248822,12.1827562 23.3710156,12.1827562 C22.717149,12.1827562 21.2712583,12.7247179 19.6248007,13.1508429 C18.4014788,13.4674548 17.8622222,14.0211702 17.6658447,14.2848656 C17.743781,14.5403219 17.848033,14.7874753 17.9816781,15.0241243 C18.4384223,15.8328941 18.8510714,16.6056626 19.2163143,17.3176089 L19.7772505,16.3812747 C19.7772505,16.3812747 20.7769875,15.3549488 21.4027462,15.1245589 C22.0285048,14.894169 23.1609208,14.6961878 23.1609208,14.894169 C23.1609208,15.0921503 23.454863,15.3950584 23.1609208,15.5644816 C22.8669786,15.7339048 22.8719808,15.8770161 21.4796857,16.0908808 C20.2730981,16.2762197 19.5695676,17.3909257 19.4033566,17.6849926 C20.5413067,19.9373228 21.1678783,21.4952559 21.1678783,21.4952559 L24.7537827,21.0309465 C24.7537827,21.0309465 25.4275172,20.9141606 26.5188832,20.6485636 C26.6114035,20.0881336 27.0082783,17.5767551 26.7694545,17.118811 C26.5002854,16.60268 26.280186,16.1959681 27.2287094,15.728129 C28.1772328,15.26029 28.0228774,16.5367397 28.0228774,17.6492211 C28.0228774,18.7086634 27.4853926,20.268643 27.4341418,20.4149834 C28.2513644,20.1968749 29.2102801,19.9155876 30.2455145,19.5629466 C30.4345823,19.0599326 30.6514654,18.0866628 30.1778978,16.8884212 C29.4790109,15.1200666 28.5809865,15.1484643 28.8725467,14.440609 C29.1641069,13.7327538 29.7193575,13.9608975 30.1378798,13.9608975 C30.556402,13.9608975 31.2178911,14.5917422 31.2178911,15.2283627 C31.2178911,15.8649832 31.4718153,17.3950864 31.4718153,18.1457787 C31.4718153,18.567775 31.3455069,18.954231 31.2348969,19.2117515 C32.1662797,18.867432 33.1395224,18.4677901 34.1122845,18.007531 C34.2626677,17.5643429 34.6645782,16.1881436 34.1227738,15.5028732 C33.4715275,14.6791813 33.1802055,13.7075649 33.1802055,13.7075649 C33.1802055,13.7075649 33.3810104,12.9695473 33.9560319,13.3385561 C34.5310534,13.7075649 34.7875977,14.7207349 34.7875977,14.7207349 C34.7875977,14.7207349 35.1001198,16.2912686 34.7875977,17.2096193 C34.6914241,17.492227 34.5857085,17.6898114 34.4854314,17.8279388 C36.3864041,16.8972481 38.2648227,15.7320877 39.8039098,14.2928451 C39.9312115,14.0371796 40.0369865,13.7878206 40.1229263,13.5447723 C39.8773682,13.2053195 39.42383,12.6220485 38.9944968,12.3026039 C38.3642123,11.8336418 37.8723236,11.3380469 37.4962014,11.3380469 C37.1200792,11.3380469 36.7677773,11.4075168 36.7677773,11.0150839 C36.7677773,10.622651 37.0109824,10.5587964 37.5276442,10.5587964 C38.0443059,10.5587964 39.1026408,10.9724072 39.4601832,11.3985322 C39.6998832,11.6842108 40.0989959,12.3569711 40.3360444,12.7694078 Z" id="Combined-Shape" fill="#2A341D" transform="translate(28.951747, 12.729396) rotate(-17.000000) translate(-28.951747, -12.729396) "></path>
                    <path d="M24.6678539,57.1298559 C24.6678539,57.1298559 23.3790786,44.7810585 19.153148,37.1795738 C14.9272174,29.578089 9.19824219,22.2022577 9.19824219,22.2022577 L9.14711627,21.6484332 L9.73420267,21.2188899 C9.73420267,21.2188899 18.336865,32.2010063 19.8700597,35.3288148 C20.6802486,36.9816483 23.3651695,43.0584065 24.6678539,47.639526 C26.2340041,53.1471698 26.3682215,57.1298559 26.3682215,57.1298559 L24.6678539,57.1298559 Z" id="Path-55" fill="#2A341D"></path>
                    <path d="M25.3307675,57.1166832 C25.3307675,57.1166832 27.922392,12.372875 27.5966797,10.0596411 C27.2709674,7.7464072 28.4290556,9.10147315 28.4290556,9.10147315 C28.4290556,9.10147315 28.5821461,11.3740436 28.5821461,11.866873 C28.5821461,12.3597023 27.0219439,43.9171037 27.0219439,43.9171037 L26.7410386,57.3162777 L25.3307675,57.1166832 Z" id="Path-56" fill="#2A341D"></path>
                    <path d="M29.4468922,39.0530753 C29.4468922,39.0530753 34.2196978,28.0567666 34.2196978,27.7543681 C34.2196978,27.4519696 34.6746611,27.3599042 34.6746611,27.3599042 L34.8533146,28.1489753 L29.4468922,39.0530753 Z" id="Path-57" fill="#611025"></path>
                    <polygon id="Path-58" fill="#611025" points="10.6212661 30.9898547 11.9983628 22.6010171 12.3128734 22.238053 12.7520393 22.4417997"></polygon>
                    <path d="M25.9201517,15.3486078 C25.9201517,15.3486078 25.8448989,12.4931471 26.4306928,11.212249 C27.0164867,9.93135083 27.7919922,9.26140645 27.7919922,9.26140645 L28.3874081,9.26140645 L28.4257525,9.63868865 C28.4257525,9.63868865 27.6519704,10.2795673 27.3232422,10.7459081 C26.994514,11.212249 26.3051758,12.8427954 26.3051758,13.2724819 C26.3051758,13.7021683 25.9201517,15.3486078 25.9201517,15.3486078 Z" id="Path-59" fill="#611025"></path>
                </g>
            </g>
        </g>
    </g>
</svg>