<?xml version="1.0" encoding="UTF-8" standalone="no"?>
<svg width="196px" height="274px" viewBox="0 0 196 274" version="1.1" xmlns="http://www.w3.org/2000/svg" xmlns:xlink="http://www.w3.org/1999/xlink">
    <!-- Generator: Sketch 40.3 (33839) - http://www.bohemiancoding.com/sketch -->
    <title>big_leaf</title>
    <desc>Created with Sketch.</desc>
    <defs></defs>
    <g id="Page-1" stroke="none" stroke-width="1" fill="none" fill-rule="evenodd">
        <g id="big_leaf" transform="translate(-8.000000, -13.000000)">
            <g id="Group-9" transform="translate(53.000000, 185.000000)">
                <path d="M1,5 C1,5 -1.0199404,-2.99521238e-13 49.0535064,-2.7000624e-13 C99.1269531,-2.55795385e-13 97,5 97,5 C97,5 97.2407786,5.22072432 97,6.78979492 C97,41.3906462 86.9216074,78.2105417 77.3215539,96.9452376 C75.7265625,99.6210937 75,100 75,100 C75,100 61.3200475,102 48.8789062,102 C36.437765,102 24,100 24,100 C24,100 22.4257813,98.7939453 21.8230683,97.3191487 C15.8394277,92.9657729 2.05531112,38.4322716 1,6.27661133 C1.03271484,5.5144043 1,5 1,5 Z" id="Rectangle-29" fill="#D8D8D8"></path>
                <path d="M1,5 C1,5 1,6.80957031 17,9.16479492 C16.9804687,10.1020508 17.2407786,9.54103682 17,11.1101074 C17,45.7109587 30.2456055,84.7861328 37,97.3191487 C38.0737305,99.9213867 38.8325195,101.539551 38.8325195,101.539551 L24,100 C24,100 22.4257813,98.7939453 21.8230683,97.3191487 C15.8394277,92.9657729 2.05531112,38.4322716 1,6.27661133 C1.03271484,5.5144043 1,5 1,5 Z" id="Rectangle-29" fill="#CCCCCC"></path>
                <ellipse id="Oval-2" fill="#5C3E23" cx="50" cy="5" rx="43" ry="3"></ellipse>
            </g>
            <g id="Group-10">
                <path d="M202.698424,115.599837 C205.992244,90.4353079 185.303688,77.7750826 181.315654,77.7750826 C176.864483,77.7750826 169.649639,77.4918795 163.114483,86.609067 C156.579326,95.7262545 160.35667,85.1285982 160.35667,85.1285982 C160.35667,85.1285982 162.452373,71.4469576 150.634014,65.5524264 C138.815654,59.6578951 128.370342,61.9157076 125.266826,66.4078951 C124.444389,67.5983332 122.475841,71.0414892 120.181079,75.8665089 L126.104717,75.4430514 C126.104717,75.4430514 135.792217,76.9186373 137.042217,76.9186373 C138.292217,76.9186373 141.979717,80.7721529 141.979717,81.6618014 C141.979717,82.5514498 138.441631,84.2448092 135.792217,84.2448092 C133.142803,84.2448092 136.476787,82.4879732 131.983623,80.7721529 C128.176497,79.3183124 120.879215,79.042347 118.7396,78.9919684 C116.330986,84.3786001 113.761837,90.9838984 111.867275,97.920835 C113.727164,97.5986424 118.55695,96.7102219 122.799053,95.4879732 C128.184795,93.9362154 136.948467,93.508481 139.316631,93.508481 C141.684795,93.508481 139.271709,100.267285 136.948467,98.2311373 C134.625225,96.1949893 126.660381,98.695981 121.712139,98.695981 C117.401467,98.695981 111.971704,102.039912 110.644043,102.901628 C109.28605,109.164178 108.617788,115.522535 109.226041,121.353445 L109.216045,121.046567 C109.216045,121.046567 117.788311,113.407895 121.382061,110.901059 C124.975811,108.394223 133.146709,106.841489 134.959209,106.841489 C136.771709,106.841489 136.510967,108.133481 136.510967,109.685239 C136.510967,111.236997 135.827373,112.028989 133.146709,112.028989 C130.466045,112.028989 124.538311,115.327817 117.788311,117.921567 C112.773044,119.84873 110.562248,123.2191 109.757157,124.824169 C110.076673,126.379088 110.504076,127.883469 111.051983,129.323911 C112.924502,134.246754 114.616244,138.950464 116.113634,143.283959 L118.413311,137.584653 C118.413311,137.584653 122.511943,131.337583 125.077373,129.935239 C127.642803,128.532895 132.285381,127.327817 132.285381,128.532895 C132.285381,129.737973 133.490459,131.581723 132.285381,132.612973 C131.080303,133.644223 131.100811,134.515317 125.392803,135.817075 C120.446143,136.945201 117.561871,143.730226 116.880454,145.520161 C121.54572,159.22971 124.114483,168.712583 124.114483,168.712583 L138.815654,165.886411 C138.815654,165.886411 141.577771,165.175555 146.052056,163.558911 C146.431363,160.14767 148.058435,144.861338 147.079326,142.073911 C145.975811,138.932309 145.073467,136.456723 148.962139,133.609067 C152.850811,130.761411 152.217998,138.530942 152.217998,145.302426 C152.217998,151.751071 150.014466,161.2464 149.804352,162.137148 C153.154729,160.809559 157.086006,159.097412 161.330168,156.950946 C162.105291,153.889186 162.994449,147.965059 161.052959,140.671567 C158.187725,129.907895 154.506084,130.080747 155.701397,125.772153 C156.896709,121.463559 159.173076,122.852231 160.888897,122.852231 C162.604717,122.852231 165.316631,126.692075 165.316631,130.567075 C165.316631,134.442075 166.357647,143.755551 166.357647,148.324887 C166.357647,150.893506 165.839819,153.245798 165.38635,154.813281 C169.20475,152.717468 173.194764,150.284916 177.182807,147.483397 C177.799335,144.785787 179.447052,136.409097 177.225811,132.237973 C174.555889,127.224301 173.361553,121.310239 173.361553,121.310239 C173.361553,121.310239 174.184795,116.818051 176.542217,119.064145 C178.899639,121.310239 179.951397,127.477231 179.951397,127.477231 C179.951397,127.477231 181.232647,137.036801 179.951397,142.626645 C179.557113,144.34683 179.123709,145.549492 178.712602,146.39025 C186.50604,140.725295 194.207014,133.633163 200.516826,124.872739 C201.038726,123.316547 201.472373,121.798741 201.824702,120.319348 C200.817985,118.253157 198.958609,114.702886 197.198467,112.758481 C194.614483,109.903989 192.597881,106.887387 191.055889,106.887387 C189.513897,106.887387 188.069561,107.310239 188.069561,104.921567 C188.069561,102.532895 189.066631,102.144223 191.184795,102.144223 C193.302959,102.144223 197.641826,104.661801 199.107647,107.255551 C200.090348,108.994428 201.726594,113.089405 202.698424,115.599837 Z" id="Combined-Shape" fill="#2A341D"></path>
                <path d="M103.224609,191.242188 C103.224609,191.242188 102.693359,112.280273 122.050781,93.7910156 C141.408203,75.3017578 156.675781,85.6308594 156.675781,85.6308594 L159.386719,87.7597656 L158.334961,90.4091797 C158.334961,90.4091797 155.796875,83.0996094 142.689453,85.4296875 C129.582031,87.7597656 124.015625,98.4394531 122.290039,99.7314453 C120.564453,101.023438 111.904297,132.814453 111.904297,142.874023 C111.904297,152.933594 111.546875,192.182617 111.546875,192.182617 L103.224609,191.242188 Z" id="Path-54" fill="#2A341D"></path>
                <path d="M85.1974978,83.4019048 C87.9291505,69.3031082 70.7715776,62.2100312 67.4641948,62.2100312 C63.7727189,62.2100312 57.789256,62.0513625 52.3694761,67.1594006 C46.9496963,72.2674386 50.0823485,66.3299462 50.0823485,66.3299462 C50.0823485,66.3299462 51.8203711,58.6646063 42.0190896,55.3621087 C32.2178081,52.0596111 23.555231,53.3245837 20.9814025,55.8413976 C20.2993332,56.508358 18.6667641,58.4374367 16.763656,61.1407248 L21.6762876,60.9034765 C21.6762876,60.9034765 29.7103905,61.7301952 30.7470489,61.7301952 C31.7837073,61.7301952 34.8418497,63.8891838 34.8418497,64.3876224 C34.8418497,64.886061 31.9076204,65.8347904 29.7103905,65.8347904 C27.5131605,65.8347904 30.2781229,64.8504973 26.5518218,63.8891838 C23.3944704,63.0746483 17.342639,62.9200347 15.5681993,62.8918093 C13.5706715,65.9097488 11.4400074,69.6104641 9.86879628,73.4969846 C11.4112523,73.3164715 15.4167227,72.8187208 18.934812,72.1339381 C23.401352,71.264543 30.6692995,71.0248985 32.6332813,71.0248985 C34.5972631,71.0248985 32.5960264,74.8116178 30.6692995,73.670836 C28.7425726,72.5300542 22.1371147,73.9312715 18.0334051,73.9312715 C14.4584493,73.9312715 9.95540205,75.8047577 8.85433742,76.2875467 C7.72811748,79.7962324 7.17390978,83.3585955 7.67835063,86.625448 L7.67006032,86.4535153 C7.67006032,86.4535153 14.7792695,82.1738373 17.7596625,80.7693456 C20.7400555,79.364854 27.5164001,78.4949118 29.0195548,78.4949118 C30.5227095,78.4949118 30.3064691,79.2187694 30.3064691,80.0881645 C30.3064691,80.9575595 29.7395465,81.4012848 27.5164001,81.4012848 C25.2932537,81.4012848 20.377225,83.2495017 14.7792695,84.7026881 C10.6199748,85.7824093 8.78650253,87.6707088 8.1188188,88.5699724 C8.38380234,89.4411384 8.73825917,90.2839897 9.19265239,91.0910185 C10.7455829,93.8491136 12.1485898,96.4844361 13.3904156,98.9123406 L15.2975987,95.7192206 C15.2975987,95.7192206 18.6967045,92.2192078 20.824284,91.4335241 C22.9518634,90.6478404 26.8020776,89.9726777 26.8020776,90.6478404 C26.8020776,91.3230031 27.8014811,92.3559911 26.8020776,92.9337641 C25.8026741,93.511537 25.8196818,93.9995801 21.0858782,94.728909 C16.9834806,95.3609583 14.5914766,99.1623682 14.0263595,100.165206 C17.8953899,107.846181 20.025733,113.1591 20.025733,113.1591 L32.2178081,111.575696 C32.2178081,111.575696 34.5085055,111.177428 38.2191498,110.27168 C38.5337187,108.360482 39.8830931,99.79609 39.0710922,98.2343931 C38.1559171,96.4742648 37.4075793,95.0872814 40.6325589,93.4918402 C43.8575385,91.896399 43.3327302,96.2493929 43.3327302,100.043216 C43.3327302,103.656164 41.5052816,108.976061 41.3310292,109.475116 C44.1095859,108.731315 47.3698991,107.772059 50.8896961,106.569471 C51.5325266,104.854075 52.2699294,101.534995 50.6597996,97.4487095 C48.2835841,91.4182044 45.2303011,91.515047 46.2216057,89.1010941 C47.2129103,86.6871412 49.1007625,87.465165 50.5237382,87.465165 C51.9467139,87.465165 54.1957767,89.6164938 54.1957767,91.7875194 C54.1957767,93.9585451 55.0591188,99.176557 55.0591188,101.736594 C55.0591188,103.175701 54.6296705,104.493607 54.2535964,105.371812 C57.4202981,104.197602 60.729323,102.834729 64.0367142,101.265137 C64.5480171,99.7537615 65.9145128,95.0605982 64.072378,92.7236648 C61.8581403,89.9146816 60.8676456,86.6012413 60.8676456,86.6012413 C60.8676456,86.6012413 61.5503824,84.0844273 63.5054554,85.3428343 C65.4605284,86.6012413 66.3327793,90.0563892 66.3327793,90.0563892 C66.3327793,90.0563892 67.3953542,95.4122787 66.3327793,98.5440707 C66.005789,99.5078292 65.646356,100.181639 65.3054137,100.652685 C71.7687208,97.4788115 78.1553441,93.5053402 83.3882402,88.5971842 C83.8210659,87.7253049 84.180701,86.8749319 84.4728965,86.0460801 C83.6379989,84.8884663 82.0959688,82.8993748 80.636236,81.8099935 C78.4932686,80.2107224 76.820847,78.5206271 75.5420317,78.5206271 C74.2632163,78.5206271 73.0653899,78.7575359 73.0653899,77.4192474 C73.0653899,76.0809589 73.8922869,75.8631998 75.6489371,75.8631998 C77.4055872,75.8631998 81.0039258,77.2737099 82.2195698,78.7268964 C83.0345499,79.7011275 84.3915331,81.9953985 85.1974978,83.4019048 Z" id="Combined-Shape" fill="#2A341D" transform="translate(46.490888, 83.265455) rotate(-17.000000) translate(-46.490888, -83.265455) "></path>
                <path d="M150.742551,40.13645 C153.474204,26.0376534 136.316631,18.9445764 133.009248,18.9445764 C129.317772,18.9445764 123.334309,18.7859077 117.914529,23.8939458 C112.494749,29.0019838 115.627402,23.0644914 115.627402,23.0644914 C115.627402,23.0644914 117.365424,15.3991515 107.564143,12.0966539 C97.7628611,8.79415626 89.1002841,10.0591288 86.5264556,12.5759428 C85.8443862,13.2429032 84.2118172,15.1719819 82.3087091,17.8752699 L87.2213407,17.6380217 C87.2213407,17.6380217 95.2554435,18.4647403 96.292102,18.4647403 C97.3287604,18.4647403 100.386903,20.623729 100.386903,21.1221676 C100.386903,21.6206062 97.4526735,22.5693356 95.2554435,22.5693356 C93.0582136,22.5693356 95.823176,21.5850425 92.0968749,20.623729 C88.9395234,19.8091935 82.887692,19.6545799 81.1132524,19.6263545 C79.1157246,22.644294 76.9850604,26.3450093 75.4138493,30.2315298 C76.9563054,30.0510167 80.9617758,29.553266 84.4798651,28.8684833 C88.9464051,27.9990882 96.2143526,27.7594437 98.1783344,27.7594437 C100.142316,27.7594437 98.1410795,31.546163 96.2143526,30.4053812 C94.2876257,29.2645994 87.6821677,30.6658167 83.5784581,30.6658167 C80.0035024,30.6658167 75.5004551,32.5393029 74.3993905,33.0220919 C73.2731705,36.5307776 72.7189628,40.0931407 73.2234037,43.3599932 L73.2151134,43.1880604 C73.2151134,43.1880604 80.3243225,38.9083824 83.3047155,37.5038908 C86.2851085,36.0993992 93.0614531,35.229457 94.5646079,35.229457 C96.0677626,35.229457 95.8515221,35.9533146 95.8515221,36.8227097 C95.8515221,37.6921047 95.2845995,38.13583 93.0614531,38.13583 C90.8383067,38.13583 85.9222781,39.9840468 80.3243225,41.4372333 C76.1650278,42.5169545 74.3315556,44.405254 73.6638719,45.3045176 C73.9288554,46.1756835 74.2833122,47.0185349 74.7377055,47.8255637 C76.2906359,50.5836588 77.6936428,53.2189813 78.9354686,55.6468858 L80.8426518,52.4537658 C80.8426518,52.4537658 84.2417576,48.9537529 86.369337,48.1680693 C88.4969165,47.3823856 92.3471307,46.7072229 92.3471307,47.3823856 C92.3471307,48.0575483 93.3465342,49.0905363 92.3471307,49.6683093 C91.3477272,50.2460822 91.3647348,50.7341253 86.6309313,51.4634542 C82.5285337,52.0955035 80.1365297,55.8969134 79.5714125,56.8997508 C83.4404429,64.5807265 85.5707861,69.8936451 85.5707861,69.8936451 L97.7628611,68.3102408 C97.7628611,68.3102408 100.053559,67.9119733 103.764203,67.006225 C104.078772,65.0950269 105.428146,56.5306352 104.616145,54.9689383 C103.70097,53.2088099 102.952632,51.8218266 106.177612,50.2263854 C109.402592,48.6309442 108.877783,52.9839381 108.877783,56.7777616 C108.877783,60.3907091 107.050335,65.7106066 106.876082,66.2096616 C109.654639,65.4658603 112.914952,64.5066045 116.434749,63.3040158 C117.07758,61.5886197 117.814982,58.2695406 116.204853,54.1832547 C113.828637,48.1527495 110.775354,48.2495922 111.766659,45.8356393 C112.757963,43.4216864 114.645816,44.1997102 116.068791,44.1997102 C117.491767,44.1997102 119.74083,46.351039 119.74083,48.5220646 C119.74083,50.6930902 120.604172,55.9111021 120.604172,58.4711397 C120.604172,59.9102462 120.174724,61.2281522 119.798649,62.1063576 C122.965351,60.9321473 126.274376,59.5692743 129.581767,57.9996826 C130.09307,56.4883066 131.459566,51.7951434 129.617431,49.45821 C127.403193,46.6492268 126.412699,43.3357865 126.412699,43.3357865 C126.412699,43.3357865 127.095435,40.8189725 129.050508,42.0773795 C131.005581,43.3357865 131.877832,46.7909343 131.877832,46.7909343 C131.877832,46.7909343 132.940407,52.1468239 131.877832,55.2786159 C131.550842,56.2423744 131.191409,56.916184 130.850467,57.3872307 C137.313774,54.2133567 143.700397,50.2398854 148.933293,45.3317294 C149.366119,44.4598501 149.725754,43.6094771 150.01795,42.7806253 C149.183052,41.6230115 147.641022,39.63392 146.181289,38.5445387 C144.038322,36.9452676 142.3659,35.2551723 141.087085,35.2551723 C139.808269,35.2551723 138.610443,35.4920811 138.610443,34.1537926 C138.610443,32.8155041 139.43734,32.597745 141.19399,32.597745 C142.95064,32.597745 146.548979,34.0082551 147.764623,35.4614416 C148.579603,36.4356727 149.936586,38.7299437 150.742551,40.13645 Z" id="Combined-Shape" fill="#2A341D" transform="translate(112.035941, 40.000000) rotate(-17.000000) translate(-112.035941, -40.000000) "></path>
                <path d="M97.4707031,191.416016 C97.4707031,191.416016 93.0888672,149.303711 78.7207031,123.380859 C64.3525391,97.4580078 44.8740234,72.3046875 44.8740234,72.3046875 L44.7001953,70.4160156 L46.6962891,68.9511719 C46.6962891,68.9511719 75.945341,106.402773 81.1582031,117.069336 C83.9128452,122.705887 93.0415763,143.429062 97.4707031,159.051758 C102.795614,177.834119 103.251953,191.416016 103.251953,191.416016 L97.4707031,191.416016 Z" id="Path-55" fill="#2A341D"></path>
                <path d="M99.7246094,191.371094 C99.7246094,191.371094 108.536133,38.7841797 107.428711,30.8955078 C106.321289,23.0068359 110.258789,27.6279297 110.258789,27.6279297 C110.258789,27.6279297 110.779297,35.3779297 110.779297,37.0585938 C110.779297,38.7392578 105.474609,146.357422 105.474609,146.357422 L104.519531,192.051758 L99.7246094,191.371094 Z" id="Path-56" fill="#2A341D"></path>
                <path d="M140.919434,133.180176 C140.919434,133.180176 157.146973,95.6801758 157.146973,94.6489258 C157.146973,93.6176758 158.693848,93.3037109 158.693848,93.3037109 L159.30127,95.9946289 L140.919434,133.180176 Z" id="Path-57" fill="#611025"></path>
                <polygon id="Path-58" fill="#611025" points="36.1123047 102.272461 40.7944336 73.6645508 41.8637695 72.4267578 43.3569336 73.121582"></polygon>
                <path d="M101.728516,48.9321289 C101.728516,48.9321289 101.472656,39.1943359 103.464355,34.8261719 C105.456055,30.4580078 108.092773,28.1733398 108.092773,28.1733398 L110.117188,28.1733398 L110.247559,29.4599609 C110.247559,29.4599609 107.616699,31.6455078 106.499023,33.2358398 C105.381348,34.8261719 103.037598,40.3867188 103.037598,41.8520508 C103.037598,43.3173828 101.728516,48.9321289 101.728516,48.9321289 Z" id="Path-59" fill="#611025"></path>
            </g>
        </g>
    </g>
</svg>