<?xml version="1.0" encoding="UTF-8" standalone="no"?>
<svg width="50px" height="100px" viewBox="0 0 50 100" version="1.1" xmlns="http://www.w3.org/2000/svg" xmlns:xlink="http://www.w3.org/1999/xlink">
    <!-- Generator: Sketch 40.3 (33839) - http://www.bohemiancoding.com/sketch -->
    <title>droopy_plant_hero</title>
    <desc>Created with Sketch.</desc>
    <defs></defs>
    <g id="Page-1" stroke="none" stroke-width="1" fill="none" fill-rule="evenodd">
        <g id="droopy_plant_hero">
            <g id="droopy-plant" transform="translate(5.000000, 1.000000)">
                <g id="pot">
                    <path d="M4.14606742,32.3584906 L37.3146067,32.3584906 C37.3146067,32.3584906 34.5708063,56.2689232 28.1011236,63.7924528 C28.0655833,63.8258586 13.4198341,63.7631099 13.3595506,63.7924528 C5.42686754,56.0847398 4.14606742,32.3584906 4.14606742,32.3584906 Z" id="Rectangle-30" fill="#B2B2B2"></path>
                    <path d="M4.14606742,32.3584906 L9.6741573,32.3584906 C9.6741573,32.3584906 11.5168539,55.2333432 18.8876404,63.7924528 C18.8521002,63.8258586 13.4198341,63.7631099 13.3595506,63.7924528 C5.42686754,56.0847398 4.14606742,32.3584906 4.14606742,32.3584906 Z" id="Rectangle-30" fill="#999999"></path>
                    <rect id="Rectangle-8" fill="#CEAF63" x="0" y="44.8396226" width="41" height="1.38679245"></rect>
                    <polygon id="Path-60" fill="#C9B092" points="21.9905553 0 22.3148042 44.5633476 21.3394707 44.5633476 22.1389023 46.0783461 23.7386653 46.0688661 24.8584094 44.3881928 23.6073012 44.2726268 22.9178645 0"></polygon>
                    <polygon id="Path-61" fill="#C9B092" points="13.7470072 0 12.3545251 32.367632 13.4821421 32.367632 14.6268544 0"></polygon>
                </g>
                <g id="leaves" transform="translate(3.224719, 24.962264)">
                    <path d="M34.5771045,7.43933796 C34.5771045,7.43933796 34.3256481,4.33932657 32.5142795,4.33932657 C30.7029109,4.33932657 28.3910326,4.26079754 27.4827947,5.23874565 C26.5745567,6.21669376 25.9693485,9.93059306 25.9693485,12.018069 C25.9693485,14.105545 26.8214068,26.2248419 26.8214068,28.4236546 C26.8214068,30.6224673 27.6913404,48.298478 27.6913404,48.298478 L27.8049765,55.3880782 C27.8049765,55.3880782 27.833492,56.8584906 26.9014202,56.8584906 C25.9693485,56.8584906 25.0900516,56.3115795 25.0900516,55.8498289 C25.0900516,55.3880782 24.1111635,15.2894136 24.1111635,13.44276 C24.1111635,11.5961064 24.4669681,5.47956799 24.7785099,5.35915682 C25.0900516,5.23874565 25.3130679,3.85907796 26.1072441,3.3973273 C26.9014202,2.93557664 29.3367236,2.77677351 30.3866875,2.77677351 C31.4366514,2.77677351 34.5393011,2.59039796 35.1019489,2.99386263 C35.6645968,3.3973273 36.8707572,5.0268918 36.8707572,5.19302431 C36.8707572,5.35915682 37.1292574,7.43933796 37.1292574,7.43933796 L34.5771045,7.43933796 Z" id="Path-75" fill="#189580" transform="translate(30.620210, 29.796142) scale(-1, 1) translate(-30.620210, -29.796142) "></path>
                    <path d="M11.2426538,7.49328383 C11.2426538,7.49328383 10.9446103,4.81043632 9.02993329,4.81043632 C7.11525632,4.81043632 4.67152388,4.70886461 3.71148613,5.97377101 C2.75144838,7.2386774 2.11172314,12.0423423 2.11172314,14.7423441 C2.11172314,17.442346 3.01237711,33.1177955 3.01237711,35.9618035 C3.01237711,38.8058115 3.93192591,61.6684755 3.93192591,61.6684755 L4.0520431,70.8383697 C4.0520431,70.8383697 4.08218487,72.7402436 3.096954,72.7402436 C2.11172314,72.7402436 1.18227704,72.032853 1.18227704,71.4356114 C1.18227704,70.8383697 0.147559691,18.973596 0.147559691,16.5850807 C0.147559691,14.1965654 0.523656952,6.28525759 0.852966994,6.1295143 C1.18227704,5.97377101 1.41801264,4.18926887 2.25748332,3.5920272 C3.096954,2.99478552 5.67115081,2.78938495 6.78099763,2.78938495 C7.89084445,2.78938495 11.1704486,2.54832142 11.7651861,3.07017431 C12.3599236,3.5920272 13.6348754,5.6997531 13.6348754,5.9146337 L13.6348754,7.49328383 L11.2426538,7.49328383 Z" id="Path-75" fill="#189580"></path>
                    <path d="M22.8483585,7.47974093 L22.8483585,5.12056862 C22.8483585,4.09627432 23.4853845,3.25074624 24.2128358,2.87831663 C24.940287,2.50588701 25.6025061,1.8490566 26.9525873,1.8490566 C28.3026685,1.8490566 30.4578048,2.47022406 31.320894,3.3211693 C32.1839833,4.17211453 32.7672489,5.5363355 32.7672489,7.17186579 C32.7672489,8.80739608 33.7268368,66.4360259 33.7268368,66.4360259 C33.7268368,66.4360259 33.6517073,67.9000129 33.6517073,67.9000129 C33.6517073,67.9000129 32.3065748,69.1134563 32.3065748,68.5067346 C32.3065748,67.9000129 31.320894,66.3944944 31.320894,66.3944944 L30.7612469,7.47974093 C30.7612469,7.47974093 30.7612469,5.82028486 30.1325437,5.12056862 C29.5038404,4.42085237 28.2875977,3.71752469 27.3862689,3.71752469 C26.4849401,3.71752469 25.3890395,3.71752469 24.940287,4.62128722 C24.4915346,5.52504975 24.6411188,7.47974093 24.6411188,7.47974093 L22.8483585,7.47974093 Z" id="Path-76" fill="#67B6BB"></path>
                    <path d="M13.0826512,7.45627973 C13.0826512,7.45627973 13.1697024,5.24562783 12.4804907,3.98072143 C11.791279,2.71581503 10.400259,2.24316799 9.49015757,2.24316799 C8.58005618,2.24316799 8.21835499,2.24316799 6.31042618,2.67970065 C4.40249737,3.1162333 4.64498113,5.26233073 4.64498113,7.45627973 C4.64498113,9.65022873 5.47545427,63.7595116 5.47545427,63.7595116 C5.47545427,63.7595116 5.15559164,64.703 4.52531382,64.703 C3.89503599,64.703 2.90980513,64.6226454 2.90980513,64.1910785 C2.90980513,63.7595116 2.76404494,5.26233073 2.76404494,5.26233073 C2.76404494,5.26233073 2.92622564,2.1070619 4.0923071,1.18930505 C5.25838856,0.271548191 8.82861328,-0.305604853 10.2587726,0.171105052 C11.6889319,0.647814958 13.3626997,0.977810167 14.1175935,2.4792658 C14.8724873,3.98072143 15.2422863,7.40165672 15.2422863,7.40165672 L13.0826512,7.45627973 Z" id="Path-77" fill="#247264"></path>
                    <path d="M5.34274052,7.47974093 L5.34274052,5.12056862 C5.34274052,4.09627432 5.9797665,3.25074624 6.70721778,2.87831663 C7.43466907,2.50588701 8.09688817,1.8490566 9.44696936,1.8490566 C10.7970506,1.8490566 12.9521868,2.47022406 13.8152761,3.3211693 C14.6783653,4.17211453 15.261631,5.5363355 15.261631,7.17186579 C15.261631,8.80739608 16.2212188,66.4360259 16.2212188,66.4360259 C16.2212188,66.4360259 16.1460894,67.9000129 16.1460894,67.9000129 C16.1460894,67.9000129 14.8009568,69.1134563 14.8009568,68.5067346 C14.8009568,67.9000129 13.8152761,66.3944944 13.8152761,66.3944944 L13.255629,7.47974093 C13.255629,7.47974093 13.255629,5.82028486 12.6269257,5.12056862 C11.9982224,4.42085237 10.7819797,3.71752469 9.8806509,3.71752469 C8.97932211,3.71752469 7.88342148,3.71752469 7.43466907,4.62128722 C6.98591665,5.52504975 7.13550079,7.47974093 7.13550079,7.47974093 L5.34274052,7.47974093 Z" id="Path-76" fill="#67B6BB" transform="translate(10.781980, 35.262837) scale(-1, 1) translate(-10.781980, -35.262837) "></path>
                    <path d="M27.3575803,7.42827793 C27.3575803,7.42827793 27.8030944,4.55507056 26.5161083,4.55507056 C26.0697153,4.55507056 25.5379918,3.81395177 25.0781744,3.776662 C24.212302,3.70644242 23.4625085,4.37296632 23.0410269,4.81607919 C22.3957195,5.49450503 22.4229349,9.5924878 22.4229349,11.0406195 C22.4229349,12.4887511 22.4229349,19.0300921 22.4229349,20.5554607 C22.4229349,22.0808293 23.0410269,34.343098 23.0410269,34.343098 L23.121766,39.2613221 C23.121766,39.2613221 23.1420263,40.2813821 22.4797849,40.2813821 C21.8175435,40.2813821 21.1927988,39.9019769 21.1927988,39.5816495 C21.1927988,39.2613221 20.2410957,15.8879827 20.2410957,14.6069152 C20.2410957,13.3258477 20.7500949,4.63860265 20.9714469,4.55507056 C21.1927988,4.47153847 21.3512529,3.51443021 21.9155189,3.1941028 C22.4797849,2.8737754 24.33217,1.84341373 25.0781744,1.84341373 C25.8241788,1.84341373 27.9065359,2.63431674 28.3062999,2.91420977 C28.7060639,3.1941028 29.5630467,4.32457042 29.5630467,4.43982049 C29.5630467,4.55507056 29.915253,7.42827793 29.915253,7.42827793 L27.3575803,7.42827793 Z" id="Path-75" fill="#3D6971" transform="translate(25.078174, 21.062398) scale(-1, 1) translate(-25.078174, -21.062398) "></path>
                    <path d="M16.5413064,7.40096643 C16.5413064,7.40096643 17.0980293,4.87266495 15.415264,4.87266495 C13.7324987,4.87266495 13.7883512,4.66923231 13.3668696,5.16424341 C12.7215622,5.92212777 12.7487776,10.500074 12.7487776,12.1178136 C12.7487776,13.7355532 12.7487776,21.0430285 12.7487776,22.7470511 C12.7487776,24.4510738 13.3668696,38.1495226 13.3668696,38.1495226 L13.4476087,43.6437785 C13.4476087,43.6437785 13.467869,44.7833098 12.8056276,44.7833098 C12.1433861,44.7833098 11.5186415,44.359468 11.5186415,44.0016232 C11.5186415,43.6437785 10.5669384,17.5329092 10.5669384,16.1018006 C10.5669384,14.6706921 11.0759376,4.96598047 11.2972896,4.87266495 C11.5186415,4.77934942 11.6770956,3.71014282 12.2413616,3.35229807 C12.8056276,2.99445331 13.8535361,2.7189619 14.5995405,2.7189619 C15.3455449,2.7189619 16.9126318,3.03962343 17.3123958,3.35229807 C17.7121598,3.6649727 18.2143994,5.03549503 18.2143994,5.16424341 C18.2143994,5.29299178 18.6321426,7.40096643 18.6321426,7.40096643 L16.5413064,7.40096643 Z" id="Path-75" fill="#189580"></path>
                </g>
            </g>
        </g>
    </g>
</svg>