<?xml version="1.0" encoding="UTF-8" standalone="no"?>
<svg width="89px" height="212px" viewBox="0 0 89 212" version="1.1" xmlns="http://www.w3.org/2000/svg" xmlns:xlink="http://www.w3.org/1999/xlink">
    <!-- Generator: Sketch 40.3 (33839) - http://www.bohemiancoding.com/sketch -->
    <title>droopy_plant</title>
    <desc>Created with Sketch.</desc>
    <defs></defs>
    <g id="Page-1" stroke="none" stroke-width="1" fill="none" fill-rule="evenodd">
        <g id="droopy_plant">
            <g id="pot">
                <path d="M9,70 L81,70 C81,70 75.0439453,121.724609 61,138 C60.9228516,138.072266 29.1308594,137.936523 29,138 C11.7802734,121.326172 9,70 9,70 Z" id="Rectangle-30" fill="#B2B2B2"></path>
                <path d="M9,70 L21,70 C21,70 25,119.484375 41,138 C40.9228516,138.072266 29.1308594,137.936523 29,138 C11.7802734,121.326172 9,70 9,70 Z" id="Rectangle-30" fill="#999999"></path>
                <rect id="Rectangle-8" fill="#CEAF63" x="0" y="97" width="89" height="3"></rect>
                <polygon id="Path-60" fill="#C9B092" points="47.7355957 0 48.4394531 96.4023438 46.3222656 96.4023438 48.0576172 99.6796875 51.5302734 99.6591797 53.9609375 96.0234375 51.2451172 95.7734375 49.7485352 0"></polygon>
                <polygon id="Path-61" fill="#C9B092" points="29.8410645 0 26.8183594 70.0197754 29.2661133 70.0197754 31.7509766 0"></polygon>
            </g>
            <g id="leaves" transform="translate(7.000000, 54.000000)">
                <path d="M75.0576172,16.0932617 C75.0576172,16.0932617 74.5117727,9.38711462 70.5797775,9.38711462 C66.6477822,9.38711462 61.6293146,9.2172355 59.6577738,11.3327967 C57.6862329,13.4483579 56.3724883,21.4825074 56.3724883,25.9982717 C56.3724883,30.5140361 58.2220781,56.7312907 58.2220781,61.4879059 C58.2220781,66.244521 60.1104706,104.482422 60.1104706,104.482422 L60.3571442,119.819108 C60.3571442,119.819108 60.4190435,123 58.3957659,123 C56.3724883,123 54.4637706,121.816886 54.4637706,120.817997 C54.4637706,119.819108 52.3388672,33.0750581 52.3388672,29.0802564 C52.3388672,25.0854546 53.1112234,11.8537593 53.787497,11.593278 C54.4637706,11.3327967 54.9478791,8.34820947 56.6718225,7.34932028 C58.3957659,6.3504311 63.6821561,6.00689779 65.961346,6.00689779 C68.240536,6.00689779 74.975556,5.60371803 76.1969136,6.47651916 C77.4182711,7.34932028 80.0365217,10.8745006 80.0365217,11.2338893 C80.0365217,11.593278 80.5976562,16.0932617 80.5976562,16.0932617 L75.0576172,16.0932617 Z" id="Path-75" fill="#189580" transform="translate(66.468262, 64.456961) scale(-1, 1) translate(-66.468262, -64.456961) "></path>
                <path d="M24.4047852,16.2099609 C24.4047852,16.2099609 23.7578125,10.40625 19.6015625,10.40625 C15.4453125,10.40625 10.140625,10.1865234 8.05664063,12.9228516 C5.97265625,15.6591797 4.58398438,26.0507812 4.58398438,31.8916016 C4.58398438,37.7324219 6.5390625,71.6425781 6.5390625,77.7949219 C6.5390625,83.9472656 8.53515625,133.405273 8.53515625,133.405273 L8.79589844,153.242187 C8.79589844,153.242187 8.86132812,157.356445 6.72265625,157.356445 C4.58398438,157.356445 2.56640625,155.826172 2.56640625,154.53418 C2.56640625,153.242187 0.3203125,41.0449219 0.3203125,35.8779297 C0.3203125,30.7109375 1.13671875,13.5966797 1.8515625,13.2597656 C2.56640625,12.9228516 3.078125,9.0625 4.90039062,7.77050781 C6.72265625,6.47851562 12.3105469,6.03417969 14.7197266,6.03417969 C17.1289063,6.03417969 24.2480469,5.51269531 25.5390625,6.64160156 C26.8300781,7.77050781 29.5976563,12.3300781 29.5976562,12.7949219 L29.5976562,16.2099609 L24.4047852,16.2099609 Z" id="Path-75" fill="#189580"></path>
                <path d="M49.5976562,16.1806641 L49.5976562,11.0771484 C49.5976562,8.86132812 50.9804688,7.03222656 52.5595703,6.2265625 C54.1386719,5.42089844 55.5761719,4 58.5068359,4 C61.4375,4 66.1157227,5.34375 67.9892578,7.18457031 C69.862793,9.02539062 71.1289062,11.9765625 71.1289062,15.5146484 C71.1289062,19.0527344 73.2119141,143.71875 73.2119141,143.71875 C73.2119141,143.71875 73.0488281,146.885742 73.0488281,146.885742 C73.0488281,146.885742 70.1289062,149.510742 70.1289062,148.198242 C70.1289062,146.885742 67.9892578,143.628906 67.9892578,143.628906 L66.7744141,16.1806641 C66.7744141,16.1806641 66.7744141,12.5908203 65.409668,11.0771484 C64.0449219,9.56347656 61.4047852,8.04199219 59.4482422,8.04199219 C57.4916992,8.04199219 55.112793,8.04199219 54.1386719,9.99707031 C53.1645508,11.9521484 53.4892578,16.1806641 53.4892578,16.1806641 L49.5976562,16.1806641 Z" id="Path-76" fill="#67B6BB"></path>
                <path d="M28.3989258,16.1299112 C28.3989258,16.1299112 28.5878906,11.3476847 27.0917969,8.61135656 C25.5957031,5.87502844 22.5761719,4.8525675 20.6005859,4.8525675 C18.625,4.8525675 17.8398437,4.8525675 13.6982422,5.79690344 C9.55664063,6.74123937 10.0830078,11.3838175 10.0830078,16.1299112 C10.0830078,20.876005 11.8857422,137.928739 11.8857422,137.928739 C11.8857422,137.928739 11.1914062,139.969755 9.82324219,139.969755 C8.45507812,139.969755 6.31640625,139.795927 6.31640625,138.862333 C6.31640625,137.928739 6,11.3838175 6,11.3838175 C6,11.3838175 6.35205078,4.55813391 8.88330078,2.57278234 C11.4145508,0.58743078 19.1645508,-0.661104376 22.269043,0.370145624 C25.3735352,1.40139562 29.0068359,2.11526281 30.6455078,5.36330969 C32.2841797,8.61135656 33.0869141,16.0117472 33.0869141,16.0117472 L28.3989258,16.1299112 Z" id="Path-77" fill="#247264"></path>
                <path d="M11.5976562,16.1806641 L11.5976562,11.0771484 C11.5976562,8.86132812 12.9804688,7.03222656 14.5595703,6.2265625 C16.1386719,5.42089844 17.5761719,4 20.5068359,4 C23.4375,4 28.1157227,5.34375 29.9892578,7.18457031 C31.862793,9.02539062 33.1289062,11.9765625 33.1289062,15.5146484 C33.1289062,19.0527344 35.2119141,143.71875 35.2119141,143.71875 C35.2119141,143.71875 35.0488281,146.885742 35.0488281,146.885742 C35.0488281,146.885742 32.1289062,149.510742 32.1289062,148.198242 C32.1289062,146.885742 29.9892578,143.628906 29.9892578,143.628906 L28.7744141,16.1806641 C28.7744141,16.1806641 28.7744141,12.5908203 27.409668,11.0771484 C26.0449219,9.56347656 23.4047852,8.04199219 21.4482422,8.04199219 C19.4916992,8.04199219 17.112793,8.04199219 16.1386719,9.99707031 C15.1645508,11.9521484 15.4892578,16.1806641 15.4892578,16.1806641 L11.5976562,16.1806641 Z" id="Path-76" fill="#67B6BB" transform="translate(23.404785, 76.282871) scale(-1, 1) translate(-23.404785, -76.282871) "></path>
                <path d="M59.3859671,16.0693359 C59.3859671,16.0693359 60.3530585,9.85382611 57.559357,9.85382611 C56.5903576,9.85382611 55.4361285,8.25058955 54.4379883,8.16992188 C52.5584116,8.01801829 50.9308112,9.45988633 50.0158877,10.418457 C48.6150985,11.8860721 48.6741758,20.751096 48.6741758,23.8837891 C48.6741758,27.0164821 48.6741758,41.1671381 48.6741758,44.4669151 C48.6741758,47.766692 50.0158877,74.2932323 50.0158877,74.2932323 L50.1911505,84.932656 C50.1911505,84.932656 50.2351303,87.1393164 48.7975818,87.1393164 C47.3600333,87.1393164 46.0038803,86.3185624 46.0038803,85.6256092 C46.0038803,84.932656 43.9379883,34.3699217 43.9379883,31.5986328 C43.9379883,28.8273439 45.042889,10.0345282 45.5233847,9.85382611 C46.0038803,9.67312404 46.3478417,7.60264494 47.5727118,6.90969178 C48.7975818,6.21673862 52.8186129,3.98779297 54.4379883,3.98779297 C56.0573637,3.98779297 60.5776023,5.69872601 61.4453827,6.3042089 C62.3131631,6.90969178 64.1734427,9.35519315 64.1734427,9.60450963 C64.1734427,9.85382611 64.9379883,16.0693359 64.9379883,16.0693359 L59.3859671,16.0693359 Z" id="Path-75" fill="#3D6971" transform="translate(54.437988, 45.563555) scale(-1, 1) translate(-54.437988, -45.563555) "></path>
                <path d="M35.9067383,16.0102539 C35.9067383,16.0102539 37.1152344,10.540867 33.4624023,10.540867 C29.8095703,10.540867 29.9308112,10.1007883 29.0158877,11.1716286 C27.6150985,12.8111335 27.6741758,22.7144459 27.6741758,26.2140458 C27.6741758,29.7136458 27.6741758,45.5216535 27.6741758,49.2079065 C27.6741758,52.8941596 29.0158877,82.5275386 29.0158877,82.5275386 L29.1911505,94.4130718 C29.1911505,94.4130718 29.2351303,96.8781804 27.7975818,96.8781804 C26.3600333,96.8781804 25.0038803,95.9612981 25.0038803,95.1871849 C25.0038803,94.4130718 22.9379883,37.9283342 22.9379883,34.8324667 C22.9379883,31.7365992 24.042889,10.7427333 24.5233847,10.540867 C25.0038803,10.3390008 25.3478417,8.02602325 26.5727118,7.25191011 C27.7975818,6.47779696 30.0723101,5.88183594 31.6916855,5.88183594 C33.3110609,5.88183594 36.712786,6.57551192 37.5805664,7.25191011 C38.4483468,7.92830829 39.5385742,10.8931117 39.5385742,11.1716286 C39.5385742,11.4501455 40.4453827,16.0102539 40.4453827,16.0102539 L35.9067383,16.0102539 Z" id="Path-75" fill="#189580"></path>
            </g>
        </g>
    </g>
</svg>