<?xml version="1.0" encoding="UTF-8" standalone="no"?>
<svg width="50px" height="100px" viewBox="0 0 50 100" version="1.1" xmlns="http://www.w3.org/2000/svg" xmlns:xlink="http://www.w3.org/1999/xlink">
    <!-- Generator: Sketch 40.3 (33839) - http://www.bohemiancoding.com/sketch -->
    <title>elkhorn_hero</title>
    <desc>Created with Sketch.</desc>
    <defs></defs>
    <g id="Page-1" stroke="none" stroke-width="1" fill="none" fill-rule="evenodd">
        <g id="elkhorn_hero">
            <g id="Group-14" transform="translate(4.000000, 46.000000)">
                <path d="M3.19736842,3.94214876 L12.4022924,0 L31.7501028,0 L39.6710526,3.94214876 L39.6710526,24.2295003 C39.6710526,24.2295003 30.515977,47.6017365 21.4342105,47.4828738 C12.352444,47.3640112 3.19736842,23.7521307 3.19736842,23.7521307 L3.19736842,3.94214876 Z" id="Rectangle-32" fill="#BF9561"></path>
                <path d="M4.77961066,5.6599696 L13.1859084,2.05984466 L30.8550882,2.05984466 L38.0888104,5.6599696 L38.0888104,24.1871751 C38.0888104,24.1871751 29.7280361,45.5316184 21.4342105,45.4230684 C13.140385,45.3145183 4.77961066,23.7512225 4.77961066,23.7512225 L4.77961066,5.6599696 Z" id="Rectangle-32" fill="#C9B092"></path>
                <path d="M9.761121,25.4542756 C9.761121,26.9573909 9.0631615,29.6008891 10.77965,29.6008891 C12.4961385,29.6008891 10.2334946,28.9618298 12.7217244,32.3384924 C15.2099543,35.715155 15.4177308,39.440862 17.1426999,37.7769125 C18.8676691,36.112963 19.8777174,34.6004371 21.4610593,33.4694648 C23.0444012,32.3384924 24.7210305,31.7208207 26.0508003,31.7208207 C27.38057,31.7208207 27.154136,29.7369138 27.154136,27.5955947 C27.154136,25.4542756 25.4113574,21.8894028 25.4113574,21.8894028 C25.4113574,21.8894028 23.2827082,20.8337145 24.3470328,19.7874367 C25.4113574,18.741159 23.5752914,18.5212952 21.8681317,17.6178861 C20.1609719,16.714477 18.3342347,17.1798696 16.2021932,17.3988779 C14.0701516,17.6178861 11.8923145,17.095175 11.8923145,19.4922889 C11.8923145,21.8894028 11.5530875,22.2786558 11.1663687,23.8664657 C10.77965,25.4542756 9.761121,23.9511603 9.761121,25.4542756 Z" id="Path-67" fill="#B7894F"></path>
                <path d="M15.4956601,24.5782425 C15.4956601,26.0813578 14.7977006,28.724856 16.5141891,28.724856 C18.2306776,28.724856 15.9680337,28.0857968 18.4562635,31.4624593 C20.9444934,34.8391219 21.1522699,38.5648289 22.8772391,36.9008794 C24.6022082,35.2369299 25.6122566,33.7244041 27.1955985,32.5934317 C28.7789404,31.4624593 30.4555697,30.8447876 31.7853394,30.8447876 C33.1151091,30.8447876 32.8886751,28.8608807 32.8886751,26.7195616 C32.8886751,24.5782425 31.1458966,21.0133697 31.1458966,21.0133697 C31.1458966,21.0133697 29.0172473,19.9576815 30.0815719,18.9114037 C31.1458966,17.8651259 29.3098306,17.6452622 27.6026708,16.7418531 C25.8955111,15.838444 24.0687738,16.3038365 21.9367323,16.5228448 C19.8046908,16.7418531 17.6268536,16.2191419 17.6268536,18.6162558 C17.6268536,21.0133697 17.2876266,21.4026227 16.9009079,22.9904326 C16.5141891,24.5782425 15.4956601,23.0751272 15.4956601,24.5782425 Z" id="Path-67" fill="#BA9362"></path>
                <path d="M18.5351338,11.4377467 C18.5351338,12.940862 17.8371743,15.5843602 19.5536628,15.5843602 C21.2701513,15.5843602 19.0075074,14.9453009 21.4957372,18.3219635 C23.9839671,21.6986261 24.1917436,25.4243331 25.9167128,23.7603835 C27.6416819,22.096434 28.6517302,20.5839082 30.2350721,19.4529358 C31.818414,18.3219635 33.4950434,17.7042917 34.8248131,17.7042917 C36.1545828,17.7042917 35.9281488,15.7203848 35.9281488,13.5790658 C35.9281488,11.4377467 34.1853702,7.87287386 34.1853702,7.87287386 C34.1853702,7.87287386 32.056721,6.81718559 33.1210456,5.77090782 C34.1853702,4.72463006 32.3493043,4.50476629 30.6421445,3.6013572 C28.9349848,2.69794811 27.1082475,3.16334067 24.976206,3.38234894 C22.8441645,3.6013572 20.6663273,3.07864607 20.6663273,5.47575997 C20.6663273,7.87287386 20.3271003,8.26212683 19.9403816,9.84993675 C19.5536628,11.4377467 18.5351338,9.93463135 18.5351338,11.4377467 Z" id="Path-67" fill="#B7894F"></path>
                <path d="M5.0746075,14.0658458 C5.0746075,15.5689612 4.376648,18.2124593 6.09313649,18.2124593 C7.80962498,18.2124593 5.54698106,17.5734001 8.03521092,20.9500627 C10.5234408,24.3267252 10.7312173,28.0524322 12.4561865,26.3884827 C14.1811556,24.7245332 15.1912039,23.2120074 16.7745458,22.081035 C18.3578877,20.9500627 20.034517,20.3323909 21.3642868,20.3323909 C22.6940565,20.3323909 22.4676225,18.348484 22.4676225,16.2071649 C22.4676225,14.0658458 20.7248439,10.500973 20.7248439,10.500973 C20.7248439,10.500973 18.5961947,9.44528476 19.6605193,8.399007 C20.7248439,7.35272923 18.8887779,7.13286547 17.1816182,6.22945638 C15.4744584,5.32604728 13.6477212,5.79143985 11.5156797,6.01044811 C9.38363814,6.22945638 7.20580096,5.70674524 7.20580096,8.10385914 C7.20580096,10.500973 6.86657399,10.890226 6.47985524,12.4780359 C6.09313649,14.0658458 5.0746075,12.5627305 5.0746075,14.0658458 Z" id="Path-67" fill="#BF843A"></path>
                <path d="M14.5801295,14.5278361 C15.5892792,10.5335018 17.3514421,5.52368774 19.4155079,4.61086814 C21.4795737,3.69804854 22.4246504,5.66213778 23.0348695,7.5580692 C23.3500717,8.53739277 24.8354908,11.3812175 25.234709,14.5278361 C25.2704361,14.8094356 27.079096,15.1409514 26.3453076,16.3310928 C25.6115192,17.5212342 24.2938462,16.1461153 24.3180562,16.3310928 C24.6332211,18.7391284 24.9489933,20.8658223 25.234709,21.5609101 C25.9383678,23.2727677 24.8399736,23.5498047 25.234709,25.1110941 C25.6294444,26.6723835 25.989855,27.4461841 25.234709,29.2709678 C24.479563,31.0957515 23.8609534,28.4056286 23.8609534,26.1727709 C23.8609534,23.9399132 23.8609534,26.9647612 23.8609534,22.8167856 C23.8609534,18.6688101 22.4183356,13.3925862 22.2623484,13.3925862 C22.1063611,13.3925862 20.9860591,17.5212342 20.9860591,17.5212342 C20.9860591,17.5212342 20.0192434,19.1817617 20.0192434,16.8547989 C20.0192434,14.5278361 20.4258018,14.5834437 20.4258018,13.5363104 C20.4258018,12.4891772 22.9402855,10.1646355 21.6599697,8.19612765 C20.379654,6.22761977 20.1615007,6.52462395 19.5215335,7.04134658 C18.8815663,7.5580692 17.1264238,10.1322718 17.1264238,10.1322718 L15.5604955,15.2292016 C15.5604955,15.2292016 14.1339893,16.2937122 14.5801295,14.5278361 Z" id="Path-68" fill="#445C28"></path>
                <path d="M28.6928197,13.305172 C28.6928197,13.305172 30.4466231,8.76631127 28.6885794,7.25464095 C26.9305356,5.74297062 25.7237356,2.62937461 23.4246248,2.62937461 C21.125514,2.62937461 18.7085218,2.5335585 18.2607422,4.00288152 C17.8129626,5.47220455 16.3670076,5.46279403 16.3670076,9.38398302 C16.3670076,13.305172 15.9433979,20.1893888 15.4201403,21.8956856 C14.8968827,23.6019824 14.4868421,24.0156172 14.4868421,25.4849402 C14.4868421,26.9542632 14.7565275,27.7391854 15.5617676,27.7391854 C16.3670076,27.7391854 16.5947137,27.3306837 16.5947137,26.6595431 C16.5947137,25.9884026 16.0383815,25.5888836 16.0383815,24.4570557 C16.0383815,23.3252279 17.4330284,22.4983861 17.4330284,23.1263239 C17.4330284,23.7542616 18.0690789,22.3546619 18.0690789,25.0469237 C18.0690789,27.7391854 17.2668072,31.7480633 17.6679431,33.3363009 C18.0690789,34.9245386 17.9842722,35.2333745 18.7670384,34.7436001 C19.5498047,34.2538258 19.6252827,33.2990866 19.6252827,31.9054755 C19.6252827,30.5118643 19.3988487,29.862539 19.3988487,27.6737396 C19.3988487,25.4849402 20.0306589,23.6340637 19.3988487,21.7130362 C18.7670384,19.7920086 17.9003135,19.4403977 17.9003135,16.9782657 C17.9003135,14.5161337 17.7315481,10.8537338 17.9003135,9.05418737 C18.0690789,7.25464095 18.0266756,4.63595229 19.2148181,4.3194169 C20.4029605,4.00288152 21.2985197,3.67265812 22.7309056,3.67265812 C24.1632915,3.67265812 24.7149594,3.48744215 25.9213353,5.15139166 C27.1277112,6.81534117 28.3718262,8.41726685 28.3718262,9.47252738 C28.3718262,10.5277879 27.8528089,13.3706178 27.8528089,13.3706178 L28.6928197,13.305172 Z" id="Path-70" fill="#5A7836"></path>
                <path d="M15.0618318,15.2783929 C15.0618318,15.2783929 13.6476794,12.5403619 11.3108296,14.6273567 C8.97397975,16.7143514 6.98059725,22.146783 6.98059725,22.146783 C6.98059725,22.146783 6.3398823,27.760153 5.35994038,34.1815438 C4.37999846,40.6029345 2.4777832,45.0515399 1.58646433,45.0515399 C0.695145456,45.0515399 -0.211014597,46.9417694 0.2278603,46.9417694 C0.666735197,46.9417694 1.94816509,49.3953464 3.25842928,48.4247805 C4.56869346,47.4542146 5.59527909,44.754681 5.59527909,43.6566455 C5.59527909,42.5586099 6.13252981,38.7854226 7.40463096,38.7854226 C8.67673211,38.7854226 8.8802683,40.4536496 10.0955489,40.4536496 C11.3108296,40.4536496 12.0796027,38.5753971 12.0796027,38.5753971 C12.0796027,38.5753971 10.9249589,37.2155782 10.5102539,36.7685789 C10.0955489,36.3215796 7.94569799,36.61245 7.94569799,35.7513882 C7.94569799,34.8903264 7.42668072,25.7877954 7.68618935,23.9672892 C7.94569799,22.146783 8.70344624,19.6852926 9.85427375,17.987337 C11.0051013,16.2893813 11.5724558,15.0547722 12.699116,14.6273567 C13.8257761,14.1999411 14.5919499,15.8822972 15.0618318,16.0117712 C15.3795218,16.0993093 15.0618318,15.2783929 15.0618318,15.2783929 Z" id="Path-71" fill="#445C28"></path>
                <path d="M28.3773386,13.5066503 L28.9756502,12.869302 C28.9756502,12.869302 29.5035722,10.6685256 32.0197882,10.6685256 C34.5360043,10.6685256 37.4762541,15.549159 37.4762541,18.3445087 C37.4762541,21.1398583 37.8532201,25.7360376 38.493935,29.3056156 C39.13465,32.8751937 39.7376259,33.6725207 41.1700118,36.0965828 C42.6023977,38.520645 42.2703793,41.6064372 42.2703793,42.3532896 C42.2703793,43.100142 40.5670359,43.8226127 40.1523309,43.8226127 C39.7376259,43.8226127 38.9730931,44.3457515 38.7335141,44.3457515 C38.493935,44.3457515 36.8113692,44.8111441 36.1464844,44.5784478 C35.4815995,44.3457515 35.3832237,42.7669244 35.764854,42.7669244 C36.1464844,42.7669244 36.6375154,42.3532896 37.0568848,42.3532896 C37.4762541,42.3532896 38.5736534,41.4669906 39.2173366,41.3467927 C39.8610197,41.2265948 40.4321932,39.1639818 39.7630679,38.5557206 C39.0939427,37.9474593 38.7097682,35.1580982 37.8833265,35.1580982 C37.0568848,35.1580982 37.0568848,34.0647679 37.0568848,35.1580982 C37.0568848,36.2514285 37.0910195,37.9915176 35.9323473,37.9915176 C34.7736752,37.9915176 34.4804559,39.2465376 34.4804559,37.2023179 C34.4804559,35.1580982 34.255294,34.3505052 35.2008892,33.5899648 C36.1464844,32.8294244 37.6373869,33.3816503 37.6373869,31.9931721 C37.6373869,30.604694 37.0687577,27.5625323 37.0628212,26.0174974 C37.0568848,24.4724626 37.1843069,23.0365041 35.9789911,23.0365041 C34.7736752,23.0365041 32.0197882,22.393595 32.0197882,23.9433352 C32.0197882,25.4930753 31.727205,25.275778 31.8734966,27.5903361 C32.0197882,29.9048941 34.9566458,30.1867817 34.4804559,31.4003099 C34.004266,32.6138381 32.11774,32.8050426 31.9956183,32.8050426 C31.8734966,32.8050426 31.5720086,30.8574945 31.5720086,30.0815551 C31.5720086,29.3056156 31.0445107,28.9026747 31.0445107,27.6904297 L31.0445107,23.9433352 C31.0445107,23.002284 32.4529387,20.4845445 33.6133069,20.4845445 C34.7736752,20.4845445 35.8127698,21.0547359 35.8958804,20.0328399 C35.9789911,19.010944 36.4797749,17.6998886 36.1223145,16.5774713 C35.764854,15.4550539 33.9147949,11.6373806 33.073512,11.6373806 C32.2322291,11.6373806 30.872777,11.3003131 30.3495194,12.0848076 C29.8262618,12.869302 28.9035645,13.9095913 28.9035645,13.9095913 L28.3773386,13.5066503 Z" id="Path-72" fill="#445C28"></path>
                <path d="M29.0303505,13.0686338 C29.0303505,13.0686338 28.2806589,11.3379552 27.0836117,12.6930688 C25.8865646,14.0481825 24.4168637,24.3047843 24.4168637,28.8628939 C24.4168637,33.4210034 25.3209036,39.0574719 24.8688836,42.8460582 C24.4168637,46.6346446 23.0552914,49.106187 21.8913189,49.106187 C20.7273463,49.106187 20.7031764,50.4642949 20.7031764,51.1439905 C20.7031764,51.8236861 21.7984555,52.6222963 23.3326095,52.6222963 C24.8667635,52.6222963 25.8869886,53.3588827 26.4853002,52.2514366 C27.0836117,51.1439905 28.092388,51.3950801 28.092388,49.4650697 C28.092388,47.5350594 27.8464484,46.0644531 28.7331029,44.4552557 C29.6197574,42.8460582 30.0433671,41.7694102 30.9630962,41.7694102 C31.8828253,41.7694102 33.5276521,42.824243 33.5276521,41.7736877 C33.5276521,40.7231324 34.8379163,39.8103128 32.9005063,39.8103128 C30.9630962,39.8103128 31.5872738,39.55794 29.036287,38.265278 C26.4853002,36.9726159 25.9501696,34.8004988 25.9501696,31.5016868 C25.9501696,28.2028748 25.8717234,14.7762138 27.3024131,13.7346413 C28.7331029,12.6930688 29.0303505,13.0686338 29.0303505,13.0686338 Z" id="Path-73" fill="#85A95E"></path>
                <path d="M14.5351819,13.7863991 C14.5351819,13.7863991 15.038934,10.8772679 12.3628572,9.73645726 C9.68678043,8.59564663 8.17891653,3.86173166 6.21903269,8.82406541 C4.25914885,13.7863991 2.26152601,14.3903829 2.26152601,20.9255553 C2.26152601,27.4607277 1.921875,31.3237426 1.35663806,32.703238 C0.79140111,34.0827334 0.660374692,35.2723076 1.82434725,35.2723076 C2.9883198,35.2723076 2.11650648,36.7856889 4.63738692,34.7444635 C7.15826737,32.703238 7.54880243,31.3866219 9.30218185,32.0449299 C11.0555613,32.703238 10.3016293,34.5707967 11.6118935,33.6370174 C12.9221577,32.703238 13.3305022,32.1967814 12.8466797,30.9178073 C12.3628572,29.6388333 12.7743,27.5856308 10.2643144,27.5856308 C7.75432874,27.5856308 6.98398951,27.5094912 5.81068822,25.6936903 C4.63738692,23.8778893 3.69984838,20.8117736 3.69984838,18.0361005 C3.69984838,15.2604274 5.8930808,10.8310708 6.82370477,9.82756812 C7.75432874,8.82406541 7.50258275,8.39203738 8.4023823,8.39203738 C9.30218185,8.39203738 10.9410722,9.79933658 11.8938759,10.5594493 C12.8466797,11.3195619 14.5351819,13.7863991 14.5351819,13.7863991 Z" id="Path-74" fill="#59733D"></path>
            </g>
        </g>
    </g>
</svg>