<?xml version="1.0" encoding="UTF-8" standalone="no"?>
<svg width="151px" height="121px" viewBox="0 0 151 121" version="1.1" xmlns="http://www.w3.org/2000/svg" xmlns:xlink="http://www.w3.org/1999/xlink">
    <!-- Generator: Sketch 40.3 (33839) - http://www.bohemiancoding.com/sketch -->
    <title>elkhorn</title>
    <desc>Created with Sketch.</desc>
    <defs></defs>
    <g id="Page-1" stroke="none" stroke-width="1" fill="none" fill-rule="evenodd">
        <g id="elkhorn">
            <path d="M31,9 L52.1992188,0 L96.7578125,0 L115,9 L115,55.3164062 C115,55.3164062 93.9155835,108.675663 73,108.404297 C52.0844165,108.132931 31,54.2265625 31,54.2265625 L31,9 Z" id="Rectangle-32" fill="#BF9561"></path>
            <path d="M34.6439518,12.9218174 L54.0039103,4.70266421 L94.6965667,4.70266421 L111.356048,12.9218174 L111.356048,55.2197771 C111.356048,55.2197771 92.1009316,103.949544 73,103.701722 C53.8990684,103.4539 34.6439518,54.2244891 34.6439518,54.2244891 L34.6439518,12.9218174 Z" id="Rectangle-32" fill="#C9B092"></path>
            <path d="M46.1165211,58.1125914 C46.1165211,61.5442321 44.5090992,67.5793883 48.4622242,67.5793883 C52.4153492,67.5793883 47.2044117,66.1204039 52.9348805,73.8293883 C58.6653492,81.5383727 59.1438648,90.0442321 63.1165211,86.2454039 C67.0891773,82.4465758 69.4153492,78.9934508 73.0618336,76.4114196 C76.708318,73.8293883 80.5696461,72.4192321 83.6321461,72.4192321 C86.6946461,72.4192321 86.1731617,67.8899352 86.1731617,63.0012633 C86.1731617,58.1125914 82.1594898,49.9739196 82.1594898,49.9739196 C82.1594898,49.9739196 77.2571461,47.5637633 79.708318,45.1750914 C82.1594898,42.7864196 77.9309742,42.2844664 73.9993336,40.2219664 C70.067693,38.1594664 65.8606617,39.2219664 60.9505055,39.7219664 C56.0403492,40.2219664 51.0247242,39.0286071 51.0247242,44.5012633 C51.0247242,49.9739196 50.2434742,50.8625914 49.3528492,54.4875914 C48.4622242,58.1125914 46.1165211,54.6809508 46.1165211,58.1125914 Z" id="Path-67" fill="#B7894F"></path>
            <path d="M59.3233385,56.1125914 C59.3233385,59.5442321 57.7159166,65.5793883 61.6690416,65.5793883 C65.6221666,65.5793883 60.4112291,64.1204039 66.1416979,71.8293883 C71.8721666,79.5383727 72.3506822,88.0442321 76.3233385,84.2454039 C80.2959947,80.4465758 82.6221666,76.9934508 86.268651,74.4114196 C89.9151354,71.8293883 93.7764635,70.4192321 96.8389635,70.4192321 C99.9014635,70.4192321 99.3799791,65.8899352 99.3799791,61.0012633 C99.3799791,56.1125914 95.3663072,47.9739196 95.3663072,47.9739196 C95.3663072,47.9739196 90.4639635,45.5637633 92.9151354,43.1750914 C95.3663072,40.7864196 91.1377916,40.2844664 87.206151,38.2219664 C83.2745104,36.1594664 79.0674791,37.2219664 74.1573229,37.7219664 C69.2471666,38.2219664 64.2315416,37.0286071 64.2315416,42.5012633 C64.2315416,47.9739196 63.4502916,48.8625914 62.5596666,52.4875914 C61.6690416,56.1125914 59.3233385,52.6809508 59.3233385,56.1125914 Z" id="Path-67" fill="#BA9362"></path>
            <path d="M66.3233385,26.1125914 C66.3233385,29.5442321 64.7159166,35.5793883 68.6690416,35.5793883 C72.6221666,35.5793883 67.4112291,34.1204039 73.1416979,41.8293883 C78.8721666,49.5383727 79.3506822,58.0442321 83.3233385,54.2454039 C87.2959947,50.4465758 89.6221666,46.9934508 93.268651,44.4114196 C96.9151354,41.8293883 100.776463,40.4192321 103.838963,40.4192321 C106.901463,40.4192321 106.379979,35.8899352 106.379979,31.0012633 C106.379979,26.1125914 102.366307,17.9739196 102.366307,17.9739196 C102.366307,17.9739196 97.4639635,15.5637633 99.9151354,13.1750914 C102.366307,10.7864196 98.1377916,10.2844664 94.206151,8.22196644 C90.2745104,6.15946644 86.0674791,7.22196644 81.1573229,7.72196644 C76.2471666,8.22196644 71.2315416,7.02860707 71.2315416,12.5012633 C71.2315416,17.9739196 70.4502916,18.8625914 69.5596666,22.4875914 C68.6690416,26.1125914 66.3233385,22.6809508 66.3233385,26.1125914 Z" id="Path-67" fill="#B7894F"></path>
            <path d="M35.3233385,32.1125914 C35.3233385,35.5442321 33.7159166,41.5793883 37.6690416,41.5793883 C41.6221666,41.5793883 36.4112291,40.1204039 42.1416979,47.8293883 C47.8721666,55.5383727 48.3506822,64.0442321 52.3233385,60.2454039 C56.2959947,56.4465758 58.6221666,52.9934508 62.268651,50.4114196 C65.9151354,47.8293883 69.7764635,46.4192321 72.8389635,46.4192321 C75.9014635,46.4192321 75.3799791,41.8899352 75.3799791,37.0012633 C75.3799791,32.1125914 71.3663072,23.9739196 71.3663072,23.9739196 C71.3663072,23.9739196 66.4639635,21.5637633 68.9151354,19.1750914 C71.3663072,16.7864196 67.1377916,16.2844664 63.206151,14.2219664 C59.2745104,12.1594664 55.0674791,13.2219664 50.1573229,13.7219664 C45.2471666,14.2219664 40.2315416,13.0286071 40.2315416,18.5012633 C40.2315416,23.9739196 39.4502916,24.8625914 38.5596666,28.4875914 C37.6690416,32.1125914 35.3233385,28.6809508 35.3233385,32.1125914 Z" id="Path-67" fill="#BF843A"></path>
            <path d="M88.7434329,28.167324 C93.9114016,19.0481833 98.9660891,7.61068334 109.536402,5.52669896 C120.106714,3.44271459 124.946558,7.92676738 128.071558,12.2552146 C131.196558,16.5836618 135.733667,40.3157615 139.337183,44.2239646 C142.940699,48.1321677 147.95437,46.9388083 150.190699,51.6751365 C152.427027,56.4114646 149.651636,56.042324 146.782495,56.042324 C143.913355,56.042324 142.977808,53.6536521 141.157495,53.6536521 C139.337183,53.6536521 139.245386,54.4290427 141.26687,57.9934958 C143.288355,61.557949 148.89187,63.8157615 145.024683,67.9817771 C141.157495,72.1477927 139.530542,69.2806052 139.530542,69.2806052 C139.530542,69.2806052 135.927027,68.1888083 135.927027,63.0911521 C135.927027,57.9934958 132.302027,56.5610586 132.302027,47.0911521 C132.302027,37.6212456 129.669214,26.229824 128.870386,26.229824 C128.071558,26.229824 121.030542,19.5599021 121.030542,25.5755271 C121.030542,31.5911521 117.57937,35.0013083 117.57937,35.0013083 C117.57937,35.0013083 112.628199,38.792324 112.628199,33.479824 C112.628199,28.167324 114.71023,28.2942771 114.71023,25.9036521 C114.71023,23.5130271 117.296167,18.8255271 119.163355,18.8255271 C121.030542,18.8255271 127.823511,17.8274802 121.26687,13.3333396 C114.71023,8.83919896 113.356714,9.89583959 110.07937,11.0755271 C106.802027,12.2552146 97.8137454,18.1321677 97.8137454,18.1321677 C97.8137454,18.1321677 83.5754641,37.2864646 88.7434329,28.167324 Z" id="Path-68" fill="#445C28"></path>
            <path d="M58.6152344,35.7669849 C58.6152344,35.7669849 57.9451889,21.8783131 54.0041688,17.5580006 C50.0631487,13.2376881 53.1367121,8.72206307 42.7618146,4.72987557 C32.3869171,0.737688069 24.6244764,-3.13340568 20.5869121,3.88221932 C16.5493478,10.8978443 8.36758835,13.7376881 8.36758835,20.9466724 C8.36758835,28.1556568 8.87912844,30.7611256 7.22923154,34.5169849 C5.57933465,38.2728443 0.615234375,37.6615162 0.615234375,41.3978443 L0.615234375,48.7396412 C0.615234375,50.8021412 3.4164567,51.8216724 5.32284412,50.2806568 C7.22923154,48.7396412 3.4164567,43.4603443 5.32284412,43.4603443 C7.22923154,43.4603443 10.0635959,40.2943287 10.0635959,37.4056568 C10.0635959,34.5169849 9.69471066,22.3607349 11.4570023,28.4388599 C13.2192939,34.5169849 13.9729149,32.8919849 13.9729149,40.8158131 C13.9729149,48.7396412 14.9369158,55.5736256 16.6012223,52.9271412 C18.2655288,50.2806568 20.4946908,52.7142506 20.4946908,48.0872974 C20.4946908,43.4603443 18.3318128,37.7318287 18.3318128,37.7318287 C18.3318128,37.7318287 17.0191001,35.3021412 16.8101612,31.8705006 C16.6012223,28.4388599 14.1515937,21.4740162 14.1515937,21.4740162 L15.1602643,15.0697193 C15.1602643,15.0697193 19.0335594,12.4798756 21.5653226,8.60487557 C24.0970858,4.72987557 27.8637499,3.95839119 31.3061986,3.95839119 C34.7486472,3.95839119 39.0282924,7.64784432 42.2906213,8.12635994 C45.5529502,8.60487557 51.6222653,18.5716724 54.0041688,22.5638599 C56.3860724,26.5560474 56.7225361,34.5169849 56.7225361,34.5169849 L58.6152344,35.7669849 Z" id="Path-69" fill="#577D2C"></path>
            <path d="M57.2148438,33.167324 C59.5389461,24.0481833 63.5972606,12.6106833 68.3508667,10.526699 C73.1044729,8.44271459 75.2810131,12.9267674 76.686366,17.2552146 C77.4122864,19.4910288 80.8332516,25.9835342 81.7526631,33.167324 C81.8349438,33.8102209 86.0003422,34.5670778 84.3104054,37.2841931 C82.6204686,40.0013083 79.5858277,36.8618858 79.641584,37.2841931 C80.3674183,42.7817837 81.0946512,47.6370661 81.7526631,49.2239646 C83.3732107,53.1321677 80.8435755,53.7646484 81.7526631,57.3291016 C82.6617508,60.8935547 83.4917873,62.6601562 81.7526631,66.8261719 C80.013539,70.9921875 78.5888625,64.8505859 78.5888625,59.7529297 C78.5888625,54.6552734 78.5888625,61.5610586 78.5888625,52.0911521 C78.5888625,42.6212456 75.2664699,30.5755271 74.9072266,30.5755271 C74.5479832,30.5755271 71.9678937,40.0013083 71.9678937,40.0013083 C71.9678937,40.0013083 69.7412877,43.792324 69.7412877,38.479824 C69.7412877,33.167324 70.6776041,33.2942771 70.6776041,30.9036521 C70.6776041,28.5130271 76.4685363,23.2060547 73.5199303,18.7119141 C70.5713243,14.2177734 70.0689106,14.8958396 68.5950468,16.0755271 C67.121183,17.2552146 63.0790367,23.1321677 63.0790367,23.1321677 L59.4726562,34.7685547 C59.4726562,34.7685547 56.1873692,37.1988524 57.2148438,33.167324 Z" id="Path-68" fill="#445C28"></path>
            <path d="M89.7167969,30.3759587 C89.7167969,30.3759587 93.7558594,20.013654 89.7070312,16.5624822 C85.6582031,13.1113103 82.8789062,6.00291185 77.5839844,6.00291185 C72.2890625,6.00291185 66.7226562,5.78416185 65.6914062,9.13865404 C64.6601562,12.4931462 61.3300781,12.4716619 61.3300781,21.4238103 C61.3300781,30.3759587 60.3544922,46.0927556 59.1494141,49.9882634 C57.9443359,53.8837712 57,54.8281072 57,58.1825994 C57,61.5370915 57.6210938,63.3290837 59.4755859,63.3290837 C61.3300781,63.3290837 61.8544922,62.3964665 61.8544922,60.86424 C61.8544922,59.3320134 60.5732422,58.419904 60.5732422,55.8359197 C60.5732422,53.2519353 63.7851562,51.36424 63.7851562,52.7978337 C63.7851562,54.2314275 65.25,51.036115 65.25,57.1825994 C65.25,63.3290837 63.4023438,72.4814275 64.3261719,76.107404 C65.25,79.7333806 65.0546875,80.4384587 66.8574219,79.3202947 C68.6601562,78.2021306 68.8339844,76.0224431 68.8339844,72.8408025 C68.8339844,69.6591619 68.3125,68.17674 68.3125,63.1796697 C68.3125,58.1825994 69.7675781,53.9570134 68.3125,49.5712712 C66.8574219,45.185529 64.8613281,44.3827947 64.8613281,38.7617009 C64.8613281,33.1406072 64.4726562,24.779279 64.8613281,20.6708806 C65.25,16.5624822 65.1523438,10.5839665 67.8886719,9.86131029 C70.625,9.13865404 72.6875,8.38474779 75.9863281,8.38474779 C79.2851562,8.38474779 80.5556641,7.96189623 83.3339844,11.7607244 C86.1123047,15.5595525 88.9775391,19.216779 88.9775391,21.6259587 C88.9775391,24.0351384 87.7822266,30.5253728 87.7822266,30.5253728 L89.7167969,30.3759587 Z" id="Path-70" fill="#5A7836"></path>
            <path d="M58.3242188,34.8808594 C58.3242188,34.8808594 55.0673828,28.6298828 49.6855469,33.3945313 C44.3037109,38.1591797 39.7128906,50.5615234 39.7128906,50.5615234 C39.7128906,50.5615234 38.2373047,63.3769531 35.9804688,78.0371094 C33.7236328,92.6972656 29.3427734,102.853516 27.2900391,102.853516 C25.2373047,102.853516 23.1503906,107.168945 24.1611328,107.168945 C25.171875,107.168945 28.1230469,112.770508 31.140625,110.554688 C34.1582031,108.338867 36.5224609,102.175781 36.5224609,99.6689453 C36.5224609,97.1621094 37.7597656,88.5478516 40.6894531,88.5478516 C43.6191406,88.5478516 44.0878906,92.3564453 46.8867188,92.3564453 C49.6855469,92.3564453 51.4560547,88.0683594 51.4560547,88.0683594 C51.4560547,88.0683594 48.796875,84.9638672 47.8417969,83.9433594 C46.8867188,82.9228516 41.9355469,83.5869141 41.9355469,81.6210938 C41.9355469,79.6552734 40.7402344,58.8740234 41.3378906,54.7177734 C41.9355469,50.5615234 43.6806641,44.9418945 46.3310547,41.0654297 C48.9814453,37.1889648 50.28808,34.370329 52.8828125,33.3945313 C55.477545,32.4187335 57.2420663,36.2595843 58.3242188,36.5551758 C59.0558684,36.755027 58.3242188,34.8808594 58.3242188,34.8808594 Z" id="Path-71" fill="#445C28"></path>
            <path d="M88.9902344,30.8359375 L90.3681641,29.3808594 C90.3681641,29.3808594 91.5839844,24.3564453 97.3789062,24.3564453 C103.173828,24.3564453 109.945312,35.4990234 109.945312,41.8808594 C109.945312,48.2626953 110.813477,58.7558594 112.289063,66.9052734 C113.764648,75.0546875 115.15332,76.875 118.452148,82.4091797 C121.750977,87.9433594 120.986328,94.9882812 120.986328,96.6933594 C120.986328,98.3984375 117.063477,100.047852 116.108398,100.047852 C115.15332,100.047852 113.392578,101.242188 112.84082,101.242188 C112.289063,101.242187 108.414062,102.304688 106.882812,101.773438 C105.351562,101.242188 105.125,97.6376953 106.003906,97.6376953 C106.882812,97.6376953 108.013672,96.6933594 108.979492,96.6933594 C109.945312,96.6933594 112.472656,94.6699219 113.955078,94.3955078 C115.4375,94.1210938 116.75293,89.4121094 115.211914,88.0234375 C113.670898,86.6347656 112.786133,80.2666016 110.882812,80.2666016 C108.979492,80.2666016 108.979492,77.7705078 108.979492,80.2666016 C108.979492,82.7626953 109.058105,86.7353516 106.389648,86.7353516 C103.721191,86.7353516 103.045898,89.6005859 103.045898,84.9335938 C103.045898,80.2666016 102.527344,78.4228516 104.705078,76.6865234 C106.882812,74.9501953 110.316406,76.2109375 110.316406,73.0410156 C110.316406,69.8710938 109.006836,62.9257813 108.993164,59.3984375 C108.979492,55.8710938 109.272949,52.5927734 106.49707,52.5927734 C103.721191,52.5927734 97.3789062,51.125 97.3789062,54.6630859 C97.3789062,58.2011719 96.7050781,57.7050781 97.0419922,62.9892578 C97.3789062,68.2734375 104.142578,68.9169922 103.045898,71.6875 C101.949219,74.4580078 97.6044922,74.8945312 97.3232422,74.8945312 C97.0419922,74.8945312 96.3476562,70.4482422 96.3476562,68.6767578 C96.3476562,66.9052734 95.1328125,65.9853516 95.1328125,63.2177734 L95.1328125,54.6630859 C95.1328125,52.5146484 98.3764648,46.7666016 101.048828,46.7666016 C103.721191,46.7666016 106.114258,48.0683594 106.305664,45.7353516 C106.49707,43.4023438 107.650391,40.4091797 106.827148,37.8466797 C106.003906,35.2841797 101.743164,26.5683594 99.8056641,26.5683594 C97.8681641,26.5683594 94.7373047,25.7988281 93.5322266,27.5898438 C92.3271484,29.3808594 90.2021484,31.7558594 90.2021484,31.7558594 L88.9902344,30.8359375 Z" id="Path-72" fill="#445C28"></path>
            <path d="M90.4941406,29.8359375 C90.4941406,29.8359375 88.7675781,25.8847656 86.0107422,28.9785156 C83.2539062,32.0722656 79.8691406,55.4882813 79.8691406,65.8945312 C79.8691406,76.3007812 81.9511719,89.1689453 80.9101562,97.8183594 C79.8691406,106.467773 76.7333984,112.110352 74.0527344,112.110352 C71.3720703,112.110352 71.3164062,115.210938 71.3164062,116.762695 C71.3164062,118.314453 73.8388672,120.137695 77.3720703,120.137695 C80.9052734,120.137695 83.2548828,121.819336 84.6328125,119.291016 C86.0107422,116.762695 88.3339844,117.335937 88.3339844,112.929688 C88.3339844,108.523438 87.7675781,105.166016 89.8095703,101.492188 C91.8515625,97.8183594 92.8271484,95.3603516 94.9453125,95.3603516 C97.0634766,95.3603516 100.851562,97.7685547 100.851562,95.3701172 C100.851562,92.9716797 103.869141,90.8876953 99.4072266,90.8876953 C94.9453125,90.8876953 96.3828125,90.3115234 90.5078125,87.3603516 C84.6328125,84.4091797 83.4003906,79.4501953 83.4003906,71.9189453 C83.4003906,64.3876953 83.2197266,33.734375 86.5146484,31.3564453 C89.8095703,28.9785156 90.4941406,29.8359375 90.4941406,29.8359375 Z" id="Path-73" fill="#85A95E"></path>
            <path d="M57.1113281,31.4746094 C57.1113281,31.4746094 58.2714844,24.8330078 52.1083984,22.2285156 C45.9453125,19.6240234 42.4726562,8.81640625 37.9589844,20.1455078 C33.4453125,31.4746094 28.8447266,32.8535156 28.8447266,47.7734375 C28.8447266,62.6933594 28.0625,71.5126953 26.7607422,74.6621094 C25.4589844,77.8115234 25.1572266,80.5273438 27.8378906,80.5273438 C30.5185547,80.5273438 28.5107422,83.9824219 34.3164062,79.3222656 C40.1220703,74.6621094 41.0214844,71.65625 45.0595703,73.1591797 C49.0976562,74.6621094 47.3613281,78.9257812 50.3789062,76.7939453 C53.3964844,74.6621094 54.3369141,73.5058594 53.2226562,70.5859375 C52.1083984,67.6660156 53.0559635,62.9785156 47.2753906,62.9785156 C41.4948177,62.9785156 39.7207031,62.8046875 37.0185547,58.6591797 C34.3164062,54.5136719 32.1572266,47.5136719 32.1572266,41.1767578 C32.1572266,34.8398438 37.2083073,24.7275391 39.3515625,22.4365234 C41.4948177,20.1455078 40.9150391,19.1591797 42.9873047,19.1591797 C45.0595703,19.1591797 48.8339844,22.3720703 51.0283203,24.1074219 C53.2226562,25.8427734 57.1113281,31.4746094 57.1113281,31.4746094 Z" id="Path-74" fill="#59733D"></path>
        </g>
    </g>
</svg>