<?xml version="1.0" encoding="UTF-8" standalone="no"?>
<svg width="50px" height="100px" viewBox="0 0 50 100" version="1.1" xmlns="http://www.w3.org/2000/svg" xmlns:xlink="http://www.w3.org/1999/xlink">
    <!-- Generator: Sketch 40.3 (33839) - http://www.bohemiancoding.com/sketch -->
    <title>med_dot_plant_hero</title>
    <desc>Created with Sketch.</desc>
    <defs></defs>
    <g id="Page-1" stroke="none" stroke-width="1" fill="none" fill-rule="evenodd">
        <g id="med_dot_plant_hero">
            <g id="big-dot-plant" transform="translate(0.000000, 51.000000)">
                <g id="Group-12" transform="translate(15.151899, 26.181818)">
                    <ellipse id="Oval-7" fill="#D8D8D8" cx="12.9873418" cy="10.9090909" rx="12.9873418" ry="10.9090909"></ellipse>
                    <path d="M12.9873418,21.8181818 C14.5301633,21.8181818 16.0101515,21.5922095 17.3829562,21.1775182 C22.3924391,19.6642737 11.240234,18.8695265 9.36941784,17.4545455 C6.44857595,15.2453835 4.40294285,12.434304 4.40294285,7.34055398 C4.40294285,3.84736196 6.69162776,1.02807267 4.40294285,2.72271056 C1.70313526,4.72176087 0,7.64835893 0,10.9090909 C0,16.9340155 5.81463097,21.8181818 12.9873418,21.8181818 Z" id="Oval-7" fill="#CCCCCC"></path>
                    <ellipse id="Oval-7" fill="#B2B2B2" cx="13.3481013" cy="2.18181818" rx="6.85443038" ry="2.18181818"></ellipse>
                </g>
                <g id="leaves" transform="translate(25.000000, 22.500000) scale(-1, 1) translate(-25.000000, -22.500000) ">
                    <ellipse id="Oval-8" fill="#517926" cx="19.0571429" cy="28.7058824" rx="1.62857143" ry="1.30481283"></ellipse>
                    <ellipse id="Oval-8" fill="#517926" cx="19.0571429" cy="26.0962567" rx="1.62857143" ry="1.30481283"></ellipse>
                    <ellipse id="Oval-8" fill="#517926" cx="22.3142857" cy="27.4010695" rx="1.62857143" ry="1.30481283"></ellipse>
                    <ellipse id="Oval-8" fill="#517926" cx="25.5714286" cy="27.4010695" rx="1.62857143" ry="1.30481283"></ellipse>
                    <ellipse id="Oval-8" fill="#517926" cx="27.2" cy="26.0962567" rx="1.62857143" ry="1.30481283"></ellipse>
                    <ellipse id="Oval-8" fill="#517926" cx="30.4571429" cy="26.0962567" rx="1.62857143" ry="1.30481283"></ellipse>
                    <ellipse id="Oval-8" fill="#517926" cx="32.0857143" cy="28.7058824" rx="1.62857143" ry="1.30481283"></ellipse>
                    <ellipse id="Oval-8" fill="#517926" cx="35.3428571" cy="30.0106952" rx="1.62857143" ry="1.30481283"></ellipse>
                    <ellipse id="Oval-8" fill="#517926" cx="36.9714286" cy="31.315508" rx="1.62857143" ry="1.30481283"></ellipse>
                    <ellipse id="Oval-8" fill="#517926" cx="40.2285714" cy="31.315508" rx="1.62857143" ry="1.30481283"></ellipse>
                    <ellipse id="Oval-8" fill="#517926" cx="40.2285714" cy="33.9251337" rx="1.62857143" ry="1.30481283"></ellipse>
                    <ellipse id="Oval-8" fill="#517926" cx="41.8571429" cy="35.2299465" rx="1.62857143" ry="1.30481283"></ellipse>
                    <ellipse id="Oval-8" fill="#517926" cx="41.8571429" cy="37.8395722" rx="1.62857143" ry="1.30481283"></ellipse>
                    <ellipse id="Oval-8" fill="#517926" cx="38.6" cy="39.144385" rx="1.62857143" ry="1.30481283"></ellipse>
                    <ellipse id="Oval-8" fill="#517926" cx="36.9714286" cy="40.4491979" rx="1.62857143" ry="1.30481283"></ellipse>
                    <ellipse id="Oval-8" fill="#517926" cx="38.6" cy="43.0588235" rx="1.62857143" ry="1.30481283"></ellipse>
                    <ellipse id="Oval-8" fill="#517926" cx="30.4571429" cy="24.7914439" rx="1.62857143" ry="1.30481283"></ellipse>
                    <ellipse id="Oval-8" fill="#517926" cx="33.7142857" cy="24.7914439" rx="1.62857143" ry="1.30481283"></ellipse>
                    <ellipse id="Oval-8" fill="#517926" cx="35.3428571" cy="23.486631" rx="1.62857143" ry="1.30481283"></ellipse>
                    <ellipse id="Oval-8" fill="#517926" cx="38.6" cy="23.486631" rx="1.62857143" ry="1.30481283"></ellipse>
                    <ellipse id="Oval-8" fill="#517926" cx="40.2285714" cy="20.8770053" rx="1.62857143" ry="1.30481283"></ellipse>
                    <ellipse id="Oval-8" fill="#517926" cx="41.8571429" cy="20.8770053" rx="1.62857143" ry="1.30481283"></ellipse>
                    <ellipse id="Oval-8" fill="#517926" cx="43.4857143" cy="22.1818182" rx="1.62857143" ry="1.30481283"></ellipse>
                    <ellipse id="Oval-8" fill="#517926" cx="45.1142857" cy="24.7914439" rx="1.62857143" ry="1.30481283"></ellipse>
                    <ellipse id="Oval-8" fill="#517926" cx="48.3714286" cy="24.7914439" rx="1.62857143" ry="1.30481283"></ellipse>
                    <ellipse id="Oval-8" fill="#517926" cx="27.2" cy="23.486631" rx="1.62857143" ry="1.30481283"></ellipse>
                    <ellipse id="Oval-8" fill="#517926" cx="27.2" cy="22.1818182" rx="1.62857143" ry="1.30481283"></ellipse>
                    <ellipse id="Oval-8" fill="#517926" cx="28.8285714" cy="19.5721925" rx="1.62857143" ry="1.30481283"></ellipse>
                    <ellipse id="Oval-8" fill="#517926" cx="32.0857143" cy="19.5721925" rx="1.62857143" ry="1.30481283"></ellipse>
                    <ellipse id="Oval-8" fill="#517926" cx="33.7142857" cy="18.2673797" rx="1.62857143" ry="1.30481283"></ellipse>
                    <ellipse id="Oval-8" fill="#517926" cx="36.9714286" cy="16.9625668" rx="1.62857143" ry="1.30481283"></ellipse>
                    <ellipse id="Oval-8" fill="#517926" cx="38.6" cy="14.3529412" rx="1.62857143" ry="1.30481283"></ellipse>
                    <ellipse id="Oval-8" fill="#517926" cx="40.2285714" cy="13.0481283" rx="1.62857143" ry="1.30481283"></ellipse>
                    <ellipse id="Oval-8" fill="#517926" cx="40.2285714" cy="10.4385027" rx="1.62857143" ry="1.30481283"></ellipse>
                    <ellipse id="Oval-8" fill="#517926" cx="22.3142857" cy="24.7914439" rx="1.62857143" ry="1.30481283"></ellipse>
                    <ellipse id="Oval-8" fill="#517926" cx="23.9428571" cy="22.1818182" rx="1.62857143" ry="1.30481283"></ellipse>
                    <ellipse id="Oval-8" fill="#517926" cx="23.9428571" cy="20.8770053" rx="1.62857143" ry="1.30481283"></ellipse>
                    <ellipse id="Oval-8" fill="#517926" cx="25.5714286" cy="19.5721925" rx="1.62857143" ry="1.30481283"></ellipse>
                    <ellipse id="Oval-8" fill="#517926" cx="25.5714286" cy="16.9625668" rx="1.62857143" ry="1.30481283"></ellipse>
                    <ellipse id="Oval-8" fill="#517926" cx="27.2" cy="15.657754" rx="1.62857143" ry="1.30481283"></ellipse>
                    <ellipse id="Oval-8" fill="#517926" cx="28.8285714" cy="13.0481283" rx="1.62857143" ry="1.30481283"></ellipse>
                    <ellipse id="Oval-8" fill="#517926" cx="30.4571429" cy="10.4385027" rx="1.62857143" ry="1.30481283"></ellipse>
                    <ellipse id="Oval-8" fill="#517926" cx="17.4285714" cy="23.486631" rx="1.62857143" ry="1.30481283"></ellipse>
                    <ellipse id="Oval-8" fill="#517926" cx="14.1714286" cy="23.486631" rx="1.62857143" ry="1.30481283"></ellipse>
                    <ellipse id="Oval-8" fill="#517926" cx="14.1714286" cy="20.8770053" rx="1.62857143" ry="1.30481283"></ellipse>
                    <ellipse id="Oval-8" fill="#517926" cx="10.9142857" cy="20.8770053" rx="1.62857143" ry="1.30481283"></ellipse>
                    <ellipse id="Oval-8" fill="#517926" cx="7.65714286" cy="20.8770053" rx="1.62857143" ry="1.30481283"></ellipse>
                    <ellipse id="Oval-8" fill="#517926" cx="7.65714286" cy="18.2673797" rx="1.62857143" ry="1.30481283"></ellipse>
                    <ellipse id="Oval-8" fill="#517926" cx="8.4" cy="18.2673797" rx="1.62857143" ry="1.30481283"></ellipse>
                    <ellipse id="Oval-8" fill="#517926" cx="6.77142857" cy="16.9625668" rx="1.62857143" ry="1.30481283"></ellipse>
                    <ellipse id="Oval-8" fill="#517926" cx="3.51428571" cy="18.2673797" rx="1.62857143" ry="1.30481283"></ellipse>
                    <ellipse id="Oval-8" fill="#517926" cx="1.88571429" cy="15.657754" rx="1.62857143" ry="1.30481283"></ellipse>
                    <ellipse id="Oval-8" fill="#517926" cx="3.62857143" cy="16.657754" rx="1.62857143" ry="1.30481283"></ellipse>
                    <ellipse id="Oval-8" fill="#517926" cx="20.6857143" cy="22.1818182" rx="1.62857143" ry="1.30481283"></ellipse>
                    <ellipse id="Oval-8" fill="#517926" cx="20.6857143" cy="19.5721925" rx="1.62857143" ry="1.30481283"></ellipse>
                    <ellipse id="Oval-8" fill="#517926" cx="22.3142857" cy="16.9625668" rx="1.62857143" ry="1.30481283"></ellipse>
                    <ellipse id="Oval-8" fill="#517926" cx="22.3142857" cy="14.3529412" rx="1.62857143" ry="1.30481283"></ellipse>
                    <ellipse id="Oval-8" fill="#517926" cx="20.6857143" cy="13.0481283" rx="1.62857143" ry="1.30481283"></ellipse>
                    <ellipse id="Oval-8" fill="#517926" cx="17.4285714" cy="11.7433155" rx="1.62857143" ry="1.30481283"></ellipse>
                    <ellipse id="Oval-8" fill="#517926" cx="14.1714286" cy="11.7433155" rx="1.62857143" ry="1.30481283"></ellipse>
                    <ellipse id="Oval-8" fill="#517926" cx="14.1714286" cy="9.13368984" rx="1.62857143" ry="1.30481283"></ellipse>
                    <ellipse id="Oval-8" fill="#517926" cx="12.5428571" cy="9.13368984" rx="1.62857143" ry="1.30481283"></ellipse>
                    <ellipse id="Oval-8" fill="#517926" cx="9.28571429" cy="9.13368984" rx="1.62857143" ry="1.30481283"></ellipse>
                    <ellipse id="Oval-8" fill="#517926" cx="9.28571429" cy="6.52406417" rx="1.62857143" ry="1.30481283"></ellipse>
                    <ellipse id="Oval-8" fill="#517926" cx="6.02857143" cy="5.21925134" rx="1.62857143" ry="1.30481283"></ellipse>
                    <ellipse id="Oval-8" fill="#517926" cx="4.4" cy="3.9144385" rx="1.62857143" ry="1.30481283"></ellipse>
                    <ellipse id="Oval-8" fill="#517926" cx="6.02857143" cy="1.30481283" rx="1.62857143" ry="1.30481283"></ellipse>
                    <polyline id="Path-81" stroke="#247264" points="19.4967984 28.7299922 19.1638968 26.1254299 17.7505349 23.6611001 15.4875527 23.356693 15.1193839 21.3484039 11.5627346 20.7971647 9.67379906 18.2878009 4.65088695 18.0403988 1.56874258 15.709461"></polyline>
                    <polyline id="Path-82" stroke="#3D6971" points="21.9544724 27.1190285 22.3927388 23.963227 21.0849857 21.7069658 20.7087248 18.6788558 21.9615185 16.4556575 21.9615185 15.1057771 18.421566 11.6723609 14.5532659 11.0014111 13.4413939 9.09402101 11.0062673 8.84091844 9.22008505 8.54278185 9.22008505 6.57895671 6.29877868 5.11563621 4.46468305 3.45564818 5.34192049 1.78938958"></polyline>
                    <polyline id="Path-83" stroke="#247264" points="23.0888919 27.1127579 23.2770223 23.2922772 24.2092192 19.9660306 25.9552388 19.5099899 25.9552388 17.2930622 27.4581685 15.7790072 28.8990927 11.7755401 31.4666856 8.73545903"></polyline>
                    <polyline id="Path-84" stroke="#247264" points="24.0661837 27.2444397 27.0022869 25.1916866 27.5659736 23.2153203 27.5737243 20.1991814 30.3618597 19.5972077 33.0478268 18.804837 36.3045268 16.7458134 38.8094096 14.1104684 40.1171628 12.7486169 40.1171628 9.9741795"></polyline>
                    <polyline id="Path-85" stroke="#3D6971" points="24.2190838 27.9279306 30.9156819 24.9950191 31.9577977 25.9452938 34.3851736 24.7293754 37.2585666 23.379495 39.9994932 21.0548277 42.4120723 20.8963535 44.4011818 24.2613636 48.7253634 24.4129972"></polyline>
                    <polyline id="Path-86" stroke="#3D6971" points="24.4079188 28.4301454 29.8644062 26.3973441 32.5496687 28.6712769 36.0269111 29.8752243 37.0218181 30.8197985 40.138301 30.5159614 40.3264315 33.7914735 41.9399847 35.737057 41.9399847 37.8975497 39.1363479 38.9048295 37.3198675 40.7740262 38.509951 43.0861524"></polyline>
                </g>
            </g>
        </g>
    </g>
</svg>