<?xml version="1.0" encoding="UTF-8" standalone="no"?>
<svg width="37px" height="43px" viewBox="0 0 37 43" version="1.1" xmlns="http://www.w3.org/2000/svg" xmlns:xlink="http://www.w3.org/1999/xlink">
    <!-- Generator: Sketch 40.3 (33839) - http://www.bohemiancoding.com/sketch -->
    <title>med_round_cactus</title>
    <desc>Created with Sketch.</desc>
    <defs></defs>
    <g id="Page-1" stroke="none" stroke-width="1" fill="none" fill-rule="evenodd">
        <g id="med_round_cactus" transform="translate(0.000000, -1.000000)">
            <g id="pot" transform="translate(1.000000, 15.000000)">
                <ellipse id="Oval-7" fill="#B2B2B2" cx="18" cy="16.5" rx="18" ry="12.5"></ellipse>
                <path d="M18,29 C20.1382965,29 22.1895083,28.739377 24.0921674,28.2610967 C31.0351349,26.5158104 15.5785699,25.5991963 12.9856844,23.9672413 C8.9375,21.4193253 5.20654297,19.316199 5.20654297,13.4413707 C5.20654297,9.4125307 5.20654297,7.24626095 4.16503906,8.23946081 C3.12353516,9.23266067 0,12.6573689 0,16.4181033 C0,23.366893 8.0588745,29 18,29 Z" id="Oval-7" fill="#999999"></path>
                <ellipse id="Oval-7" fill="#B2B2B2" cx="18" cy="5.5" rx="12" ry="5.5"></ellipse>
            </g>
            <g id="leaves">
                <path d="M8.40209961,8.19091797 C10.291531,7.16811822 10.7526855,7.45556641 10.7526855,7.45556641 C10.7526855,7.45556641 10.8774374,7.12402344 11.3893591,7.12402344 C12.9926306,7.12402344 14.0070801,6.50099649 14.0070801,6.50099649 C14.0070801,6.50099649 14.7856415,6.55483775 14.9863281,6.50099649 C16.2744308,6.15541758 17.166543,7.12402344 18.3334961,7.12402344 L19.3959961,7.12402344 C19.3959961,7.12402344 22.0188199,6.82958984 23.2597656,6.82958984 C23.6755541,6.82958984 24.420166,6.50099649 24.420166,6.50099649 C24.420166,6.50099649 26.0009766,6.82958984 28.1555176,7.45556641 C28.5424173,7.56797557 28.8056641,8.19091797 28.8056641,8.19091797 C28.8056641,8.19091797 30.2857431,9.03862223 30.8212891,10.5996094 C30.8852258,10.7859695 31.404541,11.2507324 31.404541,11.2507324 C31.404541,11.2507324 32.0192101,11.5862796 31.8977051,13.3210449 C31.8880506,13.4588854 32.2099609,14.1481934 32.2099609,14.1481934 C32.2099609,14.1481934 32.840531,16.6078205 32.6362305,16.9508131 C32.5140779,17.1558906 32.2890625,17.7299805 32.2099609,18.6352539 C32.2268652,18.9180681 30.8212891,21.3026945 30.8212891,21.3026945 C30.8212891,21.3026945 30.1617296,23.0334473 29.5217285,23.4138184 C28.6779785,23.2558594 27.0883789,24.5170898 27.0883789,24.5170898 C27.0883789,24.5170898 25.1616211,25.8676758 19.3959961,25.9879761 C15.5841796,25.9879761 11.3893591,24.8295898 11.3893591,24.8295898 C11.3893591,24.8295898 10.3943857,24.5744504 9.921875,24.2446289 C9.32972771,23.8312988 8.40209961,23.8271484 8.40209961,23.8271484 C8.40209961,23.8271484 6.70033259,22.3997241 6.6015625,21.9260254 C6.20913586,20.0439575 4.94458008,18.3098145 4.94458008,18.3098145 C4.94458008,18.3098145 4.64599609,17.1900946 4.64599609,16.9508131 L4.64599609,13.3210449 C4.64599609,13.3210449 5.27196554,12.3381127 5.28564453,11.956543 C5.36028887,9.87437027 7.73266602,8.94499362 7.73266602,8.94499362 C7.73266602,8.94499362 8.02309589,8.39608282 8.40209961,8.19091797 Z" id="Rectangle-6" fill="#445C28"></path>
                <path d="M12.9850832,9.74714718 L14.5185185,8.13926977 C14.5185185,8.13926977 13.6451027,9.27799624 12.9850832,10.7947767 C12.9215109,10.9408712 13.1100274,11.0260301 13.0462505,11.1797826 C12.3590035,12.8365877 11.6900635,14.9052977 11.6900635,16.6808618 C11.6900635,18.5757985 14.4106445,24.5456543 14.4106445,24.5456543 C14.4106445,24.5456543 12.8196294,21.6364354 12.1926202,20.7819046 C12.1106025,20.6701254 11.6900635,20.7819046 11.6900635,20.7819046 L11.6900635,20.022525 C11.6900635,20.022525 11.7876588,19.3050546 11.2946008,17.9029772 C11.2222647,17.6972798 11.0714685,17.3978142 11.0342705,17.2086056 C10.9608287,16.8350415 11.05149,16.4593 11.0342705,16.1207925 C11.0107294,15.6580094 11.2602165,15.2761256 11.2598251,14.5599085 C11.2593873,13.758753 11.6674899,13.2034947 11.6900635,12.7735929 C11.7033865,12.5198632 10.9536902,12.4101553 11.0342705,12.1086892 C11.0780309,11.9449737 11.6150053,12.0819886 11.6900635,11.9149153 C11.9596263,11.3148899 11.9809001,11.5698191 12.1926202,11.013911 C12.3242487,10.6682974 12.2556055,10.5827206 12.3914379,10.3793682 C12.5531429,10.1372825 12.9850832,9.74714718 12.9850832,9.74714718 Z" id="Rectangle-7" fill="#5D8C2B"></path>
                <path d="M22.3772508,9.13182854 L23.7356062,7.40816327 C23.7356062,7.40816327 21.4449342,11.9602282 21.4449342,15.8741973 C21.4449342,17.9055939 23.7356062,25.2442602 23.7356062,25.2442602 C23.7356062,25.2442602 22.9326713,23.5211272 22.3772508,22.6050593 C22.3045976,22.4852305 21.851385,22.13657 21.851385,22.13657 L21.851385,21.2516671 C21.851385,21.2516671 21.3165423,19.3780283 20.8797792,17.8749833 C20.8157021,17.654473 20.2600507,17.5482541 20.2270998,17.34542 C20.1620432,16.9449545 20.8950326,16.6890961 20.8797792,16.3262117 C20.8355994,15.2751577 20.8419068,14.6679471 20.8797792,13.7950869 C20.891581,13.5230854 20.1557197,13.0623906 20.2270998,12.7392151 C20.2658638,12.56371 20.8132908,12.4079021 20.8797792,12.2287973 C21.1185647,11.5855624 21.7913673,10.6672366 21.9789142,10.071296 C22.095514,9.70079377 21.7310612,9.57248653 21.851385,9.35449018 C21.9946273,9.0949712 22.3772508,9.13182854 22.3772508,9.13182854 Z" id="Rectangle-7" fill="#5D8C2B" transform="translate(21.978914, 16.326212) scale(-1, 1) translate(-21.978914, -16.326212) "></path>
                <path d="M26.0915704,9.52063032 L27.4799624,7.63265306 C27.4799624,7.63265306 24.9611241,12.1724218 24.9611241,16.0159339 C24.9611241,17.2318054 25.6128505,20.1985204 26.531467,22.2042202 C27.1199854,23.4891865 28.1272786,24.2847178 28.1272786,24.2847178 C28.1272786,24.2847178 26.6592726,23.5685537 26.0915704,22.6689762 C26.0173106,22.5513046 25.5540764,21.4879094 25.5540764,21.4879094 L25.5540764,20.618936 C25.5540764,20.618936 25.0510773,19.5677579 24.560986,18.5202017 C24.4743776,18.3350787 23.9430604,18.1655702 23.8938743,17.9853187 C23.8266591,17.7389957 24.6088622,17.8268151 24.560986,17.5801612 C24.4061212,16.7823118 24.7195435,16.1028608 24.560986,15.5786271 C24.495492,15.3620863 23.9275539,15.2617276 23.8938743,15.0625449 C23.8273792,14.6692883 24.5765767,14.7879416 24.560986,14.4315897 C24.5158293,13.3994562 24.5222762,13.6152772 24.560986,12.7581297 C24.5730488,12.4910246 23.8209159,12.5770781 23.8938743,12.2597202 C23.9334955,12.0873745 24.8931655,12.019539 24.9611241,11.8436583 C25.2051897,11.2120026 25.3623823,10.9808328 25.5540764,10.39562 C25.6732545,10.0317873 25.431092,10.0708609 25.5540764,9.85678879 C25.7004862,9.60194152 26.0915704,9.52063032 26.0915704,9.52063032 Z" id="Rectangle-7" fill="#5D8C2B" transform="translate(26.008084, 15.958685) scale(-1, 1) translate(-26.008084, -15.958685) "></path>
                <path d="M17.1182489,8.5460101 L18.0214663,6.7557398 C18.0214663,6.7557398 17.6676008,7.91970855 17.1182489,9.70718124 C16.7748702,10.8244617 16.1356156,12.1081802 16.1356156,13.7415015 C16.1356156,14.6855056 15.950163,17.5704536 16.4838678,19.8841915 C17.1961779,22.9722259 18.6199951,25.4872437 18.6199951,25.4872437 C18.6199951,25.4872437 17.7882834,24.5189454 17.1182489,23.5250767 C17.0306032,23.395071 16.4838678,22.2202138 16.4838678,22.2202138 L16.4838678,21.2601571 C16.4838678,21.2601571 15.8901996,20.0987974 15.3117659,18.9414393 C15.2095457,18.7369122 14.5824548,18.5496363 14.5244026,18.3504913 C14.4450713,18.0783496 15.3682721,18.1753738 15.3117659,17.9028664 C15.1289856,17.0213887 15.4989045,16.2707196 15.3117659,15.6915371 C15.2344662,15.4522992 14.5641531,15.3414211 14.5244026,15.1213606 C14.4459212,14.686884 15.3301669,14.8179742 15.3117659,14.4242705 C15.2584694,13.2839516 15.2660783,13.5223944 15.3117659,12.5754031 C15.3260031,12.2803008 14.4382929,12.3753742 14.5244026,12.0247518 C14.5711658,11.8343412 15.703823,11.7593954 15.7840316,11.5650794 C16.0720918,10.8672153 16.2576195,10.611815 16.4838678,9.96526179 C16.6245286,9.56329321 16.3387146,9.60646237 16.4838678,9.36995182 C16.6566689,9.08839218 17.1182489,8.5460101 17.1182489,8.5460101 Z" id="Rectangle-7" fill="#5D8C2B"></path>
                <polygon id="Path-96" fill="#F8F539" points="28.8994141 8.57885742 35.7299805 4.67504883 29.0895996 9.40600586"></polygon>
                <polygon id="Path-97" fill="#F8F539" points="25.9875488 7.83227539 29.1777344 0.974609375 25.1169434 7.58300781"></polygon>
                <polygon id="Path-98" fill="#F8F539" points="22.3964844 7.28442383 21.6611328 2.97631836 21.6179199 7.22729492"></polygon>
                <polygon id="Path-99" fill="#F8F539" points="24.9355469 12.2351074 34.0717773 10.3037109 24.8947754 13.0432129"></polygon>
                <polygon id="Path-100" fill="#F8F539" points="16.7592773 7.06933594 15.8696289 3.42089844 16.2932129 7.36254883"></polygon>
                <polygon id="Path-101" fill="#F8F539" points="12.8669434 7.18041992 9.42163086 2.04492188 12.5605469 7.81762695"></polygon>
                <polygon id="Path-102" fill="#F8F539" points="7.53808594 9.78027344 2.77661133 6.30273438 6.90600586 10.4807129"></polygon>
                <polygon id="Path-103" fill="#F8F539" points="4.56494141 14.8244629 0.249023438 15.5673828 4.71166992 15.5673828"></polygon>
                <polygon id="Path-104" fill="#F8F539" points="11.0354004 14.8764648 6.94165039 17.4780273 10.9460449 15.7470703"></polygon>
                <polygon id="Path-105" fill="#F8F539" points="16.2976074 15.6152344 13.9321289 18.9304199 17.0136719 16.0197754"></polygon>
                <polygon id="Path-106" fill="#F8F539" points="21.1369629 17.5639648 24.7585449 20.2741699 21.9284668 16.9372559"></polygon>
                <polygon id="Path-107" fill="#F8F539" points="17.4199219 12.2072754 16.0527344 9.64916992 18.2905273 12.3349609"></polygon>
                <polygon id="Path-108" fill="#F8F539" points="27.7966309 15.5666504 31.7001953 15.6315918 27.5986328 16.5187988"></polygon>
                <polygon id="Path-109" fill="#F8F539" points="32.7619629 16.4233398 35.5996094 17.0500488 32.8703613 16.9824219"></polygon>
                <polygon id="Path-110" fill="#F8F539" points="7.76098633 21.2844238 4.46777344 24.4094238 8.24365234 21.8374023"></polygon>
                <polygon id="Path-111" fill="#F8F539" points="14.1386719 23.3469238 10.8618164 28.2270508 14.7436523 23.8269043"></polygon>
                <polygon id="Path-112" fill="#F8F539" points="21.3815918 23.6647949 23.2888184 27.5952148 22.3391113 23.3903809"></polygon>
                <path d="M9.11824893,9.92087412 L10.0214663,8.48724365 C10.0214663,8.48724365 9.66760084,9.41933813 9.11824893,10.8507283 C8.77487017,11.7454353 8.1356156,12.7734241 8.1356156,14.0813714 C8.1356156,14.8373204 7.95016296,17.1475578 8.4838678,19.0003758 C9.19617791,21.4732427 10.6199951,23.4872437 10.6199951,23.4872437 C10.6199951,23.4872437 9.78828339,22.7118401 9.11824893,21.9159601 C9.03060324,21.8118529 8.4838678,20.871039 8.4838678,20.871039 L8.4838678,20.1022352 C8.4838678,20.1022352 7.89019959,19.17223 7.3117659,18.2454293 C7.20954572,18.0816461 6.58245483,17.9316774 6.52440264,17.7722041 C6.44507135,17.5542757 7.36827213,17.6319718 7.3117659,17.4137506 C7.12898559,16.7078721 7.49890449,16.1067438 7.3117659,15.6429403 C7.23446616,15.451361 6.56415313,15.362571 6.52440264,15.1863487 C6.44592124,14.8384242 7.33016693,14.9434 7.3117659,14.628126 C7.25846938,13.7149701 7.26607832,13.9059126 7.3117659,13.1475715 C7.3260031,12.9112566 6.43829287,12.9873904 6.52440264,12.7066155 C6.57116579,12.5541366 7.70382303,12.4941208 7.78403163,12.3385145 C8.07209183,11.7796719 8.25761952,11.5751499 8.4838678,11.0573966 C8.62452861,10.7355042 8.33871457,10.7700736 8.4838678,10.5806784 C8.65666894,10.3552082 9.11824893,9.92087412 9.11824893,9.92087412 Z" id="Rectangle-7" fill="#5D8C2B"></path>
                <path d="M30.4215386,10.4531377 L31.5185185,9.13926977 C31.5185185,9.13926977 30.8936995,10.0697737 30.4215386,11.3092023 C30.3760606,11.4285826 30.5109204,11.4981697 30.465296,11.6238077 C29.9736573,12.9776566 29.495115,14.6680913 29.495115,16.1189835 C29.495115,17.6674203 31.4413483,22.5456543 31.4413483,22.5456543 C31.4413483,22.5456543 30.3031772,20.1684025 29.854631,19.4701275 C29.7959577,19.3787877 29.495115,19.4701275 29.495115,19.4701275 L29.495115,18.8496047 C29.495115,18.8496047 29.5649321,18.2633278 29.2122112,17.1176282 C29.1604638,16.9495437 29.0525881,16.7048371 29.0259777,16.5502264 C28.9734393,16.2449706 29.038296,15.9379355 29.0259777,15.661326 C29.0091369,15.2831654 29.1876136,14.9711112 29.1873336,14.3858584 C29.1870204,13.7311988 29.4789664,13.2774726 29.495115,12.9261807 C29.5046459,12.7188469 28.9683326,12.6291998 29.0259777,12.3828585 C29.0572827,12.2490793 29.4414203,12.3610402 29.495115,12.2245172 C29.6879533,11.7342099 29.703172,11.9425238 29.854631,11.4882666 C29.9487947,11.2058504 29.8996891,11.1359218 29.9968601,10.9697536 C30.1125396,10.7719346 30.4215386,10.4531377 30.4215386,10.4531377 Z" id="Rectangle-7" fill="#5D8C2B" transform="translate(30.261827, 15.842462) scale(-1, -1) translate(-30.261827, -15.842462) "></path>
            </g>
        </g>
    </g>
</svg>