<?xml version="1.0" encoding="UTF-8" standalone="no"?>
<svg width="79px" height="66px" viewBox="0 0 79 66" version="1.1" xmlns="http://www.w3.org/2000/svg" xmlns:xlink="http://www.w3.org/1999/xlink">
    <!-- Generator: Sketch 40.3 (33839) - http://www.bohemiancoding.com/sketch -->
    <title>med_dot_plant</title>
    <desc>Created with Sketch.</desc>
    <defs></defs>
    <g id="Page-1" stroke="none" stroke-width="1" fill="none" fill-rule="evenodd">
        <g id="med_dot_plant">
            <g id="Group-12" transform="translate(21.000000, 36.000000)">
                <ellipse id="Oval-7" fill="#D8D8D8" cx="18" cy="15" rx="18" ry="15"></ellipse>
                <path d="M18,30 C20.1382965,30 22.1895083,29.6892881 24.0921674,29.1190875 C31.0351349,27.0383763 15.5785699,25.9455989 12.9856844,24 C8.9375,20.9624023 6.10232431,17.097168 6.10232431,10.0932617 C6.10232431,5.29012269 9.27436129,1.41359992 6.10232431,3.74372702 C2.36048571,6.4924212 0,10.5164935 0,15 C0,23.2842712 8.0588745,30 18,30 Z" id="Oval-7" fill="#CCCCCC"></path>
                <ellipse id="Oval-7" fill="#B2B2B2" cx="18.5" cy="3" rx="9.5" ry="3"></ellipse>
            </g>
            <g id="leaves" transform="translate(39.500000, 30.500000) scale(-1, 1) translate(-39.500000, -30.500000) ">
                <ellipse id="Oval-8" fill="#517926" cx="36.1142857" cy="39.4705882" rx="2.25714286" ry="1.79411765"></ellipse>
                <ellipse id="Oval-8" fill="#517926" cx="36.1142857" cy="35.8823529" rx="2.25714286" ry="1.79411765"></ellipse>
                <ellipse id="Oval-8" fill="#517926" cx="40.6285714" cy="37.6764706" rx="2.25714286" ry="1.79411765"></ellipse>
                <ellipse id="Oval-8" fill="#517926" cx="45.1428571" cy="37.6764706" rx="2.25714286" ry="1.79411765"></ellipse>
                <ellipse id="Oval-8" fill="#517926" cx="47.4" cy="35.8823529" rx="2.25714286" ry="1.79411765"></ellipse>
                <ellipse id="Oval-8" fill="#517926" cx="51.9142857" cy="35.8823529" rx="2.25714286" ry="1.79411765"></ellipse>
                <ellipse id="Oval-8" fill="#517926" cx="54.1714286" cy="39.4705882" rx="2.25714286" ry="1.79411765"></ellipse>
                <ellipse id="Oval-8" fill="#517926" cx="58.6857143" cy="41.2647059" rx="2.25714286" ry="1.79411765"></ellipse>
                <ellipse id="Oval-8" fill="#517926" cx="60.9428571" cy="43.0588235" rx="2.25714286" ry="1.79411765"></ellipse>
                <ellipse id="Oval-8" fill="#517926" cx="65.4571429" cy="43.0588235" rx="2.25714286" ry="1.79411765"></ellipse>
                <ellipse id="Oval-8" fill="#517926" cx="65.4571429" cy="46.6470588" rx="2.25714286" ry="1.79411765"></ellipse>
                <ellipse id="Oval-8" fill="#517926" cx="67.7142857" cy="48.4411765" rx="2.25714286" ry="1.79411765"></ellipse>
                <ellipse id="Oval-8" fill="#517926" cx="67.7142857" cy="52.0294118" rx="2.25714286" ry="1.79411765"></ellipse>
                <ellipse id="Oval-8" fill="#517926" cx="63.2" cy="53.8235294" rx="2.25714286" ry="1.79411765"></ellipse>
                <ellipse id="Oval-8" fill="#517926" cx="60.9428571" cy="55.6176471" rx="2.25714286" ry="1.79411765"></ellipse>
                <ellipse id="Oval-8" fill="#517926" cx="63.2" cy="59.2058824" rx="2.25714286" ry="1.79411765"></ellipse>
                <ellipse id="Oval-8" fill="#517926" cx="51.9142857" cy="34.0882353" rx="2.25714286" ry="1.79411765"></ellipse>
                <ellipse id="Oval-8" fill="#517926" cx="56.4285714" cy="34.0882353" rx="2.25714286" ry="1.79411765"></ellipse>
                <ellipse id="Oval-8" fill="#517926" cx="58.6857143" cy="32.2941176" rx="2.25714286" ry="1.79411765"></ellipse>
                <ellipse id="Oval-8" fill="#517926" cx="63.2" cy="32.2941176" rx="2.25714286" ry="1.79411765"></ellipse>
                <ellipse id="Oval-8" fill="#517926" cx="65.4571429" cy="28.7058824" rx="2.25714286" ry="1.79411765"></ellipse>
                <ellipse id="Oval-8" fill="#517926" cx="67.7142857" cy="28.7058824" rx="2.25714286" ry="1.79411765"></ellipse>
                <ellipse id="Oval-8" fill="#517926" cx="69.9714286" cy="30.5" rx="2.25714286" ry="1.79411765"></ellipse>
                <ellipse id="Oval-8" fill="#517926" cx="72.2285714" cy="34.0882353" rx="2.25714286" ry="1.79411765"></ellipse>
                <ellipse id="Oval-8" fill="#517926" cx="76.7428571" cy="34.0882353" rx="2.25714286" ry="1.79411765"></ellipse>
                <ellipse id="Oval-8" fill="#517926" cx="47.4" cy="32.2941176" rx="2.25714286" ry="1.79411765"></ellipse>
                <ellipse id="Oval-8" fill="#517926" cx="47.4" cy="30.5" rx="2.25714286" ry="1.79411765"></ellipse>
                <ellipse id="Oval-8" fill="#517926" cx="49.6571429" cy="26.9117647" rx="2.25714286" ry="1.79411765"></ellipse>
                <ellipse id="Oval-8" fill="#517926" cx="54.1714286" cy="26.9117647" rx="2.25714286" ry="1.79411765"></ellipse>
                <ellipse id="Oval-8" fill="#517926" cx="56.4285714" cy="25.1176471" rx="2.25714286" ry="1.79411765"></ellipse>
                <ellipse id="Oval-8" fill="#517926" cx="60.9428571" cy="23.3235294" rx="2.25714286" ry="1.79411765"></ellipse>
                <ellipse id="Oval-8" fill="#517926" cx="63.2" cy="19.7352941" rx="2.25714286" ry="1.79411765"></ellipse>
                <ellipse id="Oval-8" fill="#517926" cx="65.4571429" cy="17.9411765" rx="2.25714286" ry="1.79411765"></ellipse>
                <ellipse id="Oval-8" fill="#517926" cx="65.4571429" cy="14.3529412" rx="2.25714286" ry="1.79411765"></ellipse>
                <ellipse id="Oval-8" fill="#517926" cx="40.6285714" cy="34.0882353" rx="2.25714286" ry="1.79411765"></ellipse>
                <ellipse id="Oval-8" fill="#517926" cx="42.8857143" cy="30.5" rx="2.25714286" ry="1.79411765"></ellipse>
                <ellipse id="Oval-8" fill="#517926" cx="42.8857143" cy="28.7058824" rx="2.25714286" ry="1.79411765"></ellipse>
                <ellipse id="Oval-8" fill="#517926" cx="45.1428571" cy="26.9117647" rx="2.25714286" ry="1.79411765"></ellipse>
                <ellipse id="Oval-8" fill="#517926" cx="45.1428571" cy="23.3235294" rx="2.25714286" ry="1.79411765"></ellipse>
                <ellipse id="Oval-8" fill="#517926" cx="47.4" cy="21.5294118" rx="2.25714286" ry="1.79411765"></ellipse>
                <ellipse id="Oval-8" fill="#517926" cx="49.6571429" cy="17.9411765" rx="2.25714286" ry="1.79411765"></ellipse>
                <ellipse id="Oval-8" fill="#517926" cx="51.9142857" cy="14.3529412" rx="2.25714286" ry="1.79411765"></ellipse>
                <ellipse id="Oval-8" fill="#517926" cx="33.8571429" cy="32.2941176" rx="2.25714286" ry="1.79411765"></ellipse>
                <ellipse id="Oval-8" fill="#517926" cx="29.3428571" cy="32.2941176" rx="2.25714286" ry="1.79411765"></ellipse>
                <ellipse id="Oval-8" fill="#517926" cx="29.3428571" cy="28.7058824" rx="2.25714286" ry="1.79411765"></ellipse>
                <ellipse id="Oval-8" fill="#517926" cx="24.8285714" cy="28.7058824" rx="2.25714286" ry="1.79411765"></ellipse>
                <ellipse id="Oval-8" fill="#517926" cx="20.3142857" cy="28.7058824" rx="2.25714286" ry="1.79411765"></ellipse>
                <ellipse id="Oval-8" fill="#517926" cx="20.3142857" cy="25.1176471" rx="2.25714286" ry="1.79411765"></ellipse>
                <ellipse id="Oval-8" fill="#517926" cx="15.8" cy="25.1176471" rx="2.25714286" ry="1.79411765"></ellipse>
                <ellipse id="Oval-8" fill="#517926" cx="13.5428571" cy="23.3235294" rx="2.25714286" ry="1.79411765"></ellipse>
                <ellipse id="Oval-8" fill="#517926" cx="9.02857143" cy="25.1176471" rx="2.25714286" ry="1.79411765"></ellipse>
                <ellipse id="Oval-8" fill="#517926" cx="6.77142857" cy="21.5294118" rx="2.25714286" ry="1.79411765"></ellipse>
                <ellipse id="Oval-8" fill="#517926" cx="2.25714286" cy="21.5294118" rx="2.25714286" ry="1.79411765"></ellipse>
                <ellipse id="Oval-8" fill="#517926" cx="38.3714286" cy="30.5" rx="2.25714286" ry="1.79411765"></ellipse>
                <ellipse id="Oval-8" fill="#517926" cx="38.3714286" cy="26.9117647" rx="2.25714286" ry="1.79411765"></ellipse>
                <ellipse id="Oval-8" fill="#517926" cx="40.6285714" cy="23.3235294" rx="2.25714286" ry="1.79411765"></ellipse>
                <ellipse id="Oval-8" fill="#517926" cx="40.6285714" cy="19.7352941" rx="2.25714286" ry="1.79411765"></ellipse>
                <ellipse id="Oval-8" fill="#517926" cx="38.3714286" cy="17.9411765" rx="2.25714286" ry="1.79411765"></ellipse>
                <ellipse id="Oval-8" fill="#517926" cx="33.8571429" cy="16.1470588" rx="2.25714286" ry="1.79411765"></ellipse>
                <ellipse id="Oval-8" fill="#517926" cx="29.3428571" cy="16.1470588" rx="2.25714286" ry="1.79411765"></ellipse>
                <ellipse id="Oval-8" fill="#517926" cx="29.3428571" cy="12.5588235" rx="2.25714286" ry="1.79411765"></ellipse>
                <ellipse id="Oval-8" fill="#517926" cx="27.0857143" cy="12.5588235" rx="2.25714286" ry="1.79411765"></ellipse>
                <ellipse id="Oval-8" fill="#517926" cx="22.5714286" cy="12.5588235" rx="2.25714286" ry="1.79411765"></ellipse>
                <ellipse id="Oval-8" fill="#517926" cx="22.5714286" cy="8.97058824" rx="2.25714286" ry="1.79411765"></ellipse>
                <ellipse id="Oval-8" fill="#517926" cx="18.0571429" cy="7.17647059" rx="2.25714286" ry="1.79411765"></ellipse>
                <ellipse id="Oval-8" fill="#517926" cx="15.8" cy="5.38235294" rx="2.25714286" ry="1.79411765"></ellipse>
                <ellipse id="Oval-8" fill="#517926" cx="18.0571429" cy="1.79411765" rx="2.25714286" ry="1.79411765"></ellipse>
                <polyline id="Path-81" stroke="#247264" points="36.7236328 39.5037392 36.1152344 35.9224661 33.5322266 32.5340126 29.3964844 32.1154528 28.7236328 29.3540553 22.2236328 28.5961015 18.7714844 25.1457263 9.59179688 24.8055484 3.95898438 21.6005088"></polyline>
                <polyline id="Path-82" stroke="#3D6971" points="40.1298828 37.2886642 40.7373047 32.9494372 38.9248047 29.847078 38.4033203 25.6834267 40.1396484 22.6265291 40.1396484 20.7704436 35.2333984 16.0494963 29.8720703 15.1269403 28.3310547 12.5042789 24.9560547 12.1562628 22.4804688 11.746325 22.4804688 9.04606548 18.4316406 7.03399979 15.8896484 4.75151624 17.1054688 2.46041067"></polyline>
                <polyline id="Path-83" stroke="#247264" points="41.7021484 37.2800421 41.9628906 32.0268812 43.2548828 27.453292 45.6748047 26.8262361 45.6748047 23.7779605 47.7578125 21.6961349 49.7548828 16.1913677 53.3134766 12.0112562"></polyline>
                <polyline id="Path-84" stroke="#247264" points="43.0566406 37.4611045 47.1259766 34.6385691 47.9072266 31.9210655 47.9179688 27.7738744 51.7822266 26.9461606 55.5048828 25.8566509 60.0185547 23.0254934 63.4902344 19.401894 65.3027344 17.5293483 65.3027344 13.7144968"></polyline>
                <polyline id="Path-85" stroke="#3D6971" points="43.2685547 38.4009046 52.5498047 34.3681512 53.9941406 35.674779 57.3583984 34.0028911 61.3408203 32.1468056 65.1396484 28.9503881 68.4833984 28.7324861 71.2402344 33.359375 77.2333984 33.5678711"></polyline>
                <polyline id="Path-86" stroke="#3D6971" points="43.5302734 39.0914499 51.0927734 36.2963482 54.8144531 39.4230058 59.6337891 41.0784334 61.0126953 42.377223 65.3320312 41.959447 65.5927734 46.4632761 67.8291016 49.1384534 67.8291016 52.1091309 63.9433594 53.4941406 61.4257812 56.0642861 63.0751953 59.2434596"></polyline>
            </g>
        </g>
    </g>
</svg>