<?xml version="1.0" encoding="UTF-8" standalone="no"?>
<svg width="50px" height="100px" viewBox="0 0 50 100" version="1.1" xmlns="http://www.w3.org/2000/svg" xmlns:xlink="http://www.w3.org/1999/xlink">
    <!-- Generator: Sketch 40.3 (33839) - http://www.bohemiancoding.com/sketch -->
    <title>orchid_hero</title>
    <desc>Created with Sketch.</desc>
    <defs></defs>
    <g id="Page-1" stroke="none" stroke-width="1" fill="none" fill-rule="evenodd">
        <g id="orchid_hero">
            <g id="purple-plant" transform="translate(1.000000, 40.000000)">
                <g id="pot" transform="translate(4.800000, 24.000000)">
                    <path d="M0.459259259,2 C0.459259259,2 2.89943848,0.393554688 18.6,0.393554688 C34.3005615,0.393554688 36.7407407,2 36.7407407,2 L36.7407407,8.25996377 L35.3127315,8.72373188 L29.6960317,34 C29.6960317,34 24.5516126,35.4339193 18.6,35.4339193 C12.6483874,35.4339193 7.04470899,34 7.04470899,34 L2.05321181,8.72373188 L0.459259259,8.25996377 L0.459259259,2 Z" id="Rectangle" fill="#D99264"></path>
                    <path d="M0.459259259,2 C0.459259259,2 0.459259259,3.84244792 7.30179095,4.50911458 C7.33811907,5.2594401 7.30179095,9.36751302 7.30179095,9.36751302 L7.94937221,9.41210938 L12.9553554,34.9038086 L7.04470899,34 L2.05321181,8.72373188 L0.459259259,8.25996377 L0.459259259,2 Z" id="Rectangle" fill="#BC7A4E"></path>
                    <path d="M0.439637587,8.23086504 C0.439637587,8.23086504 6.91324779,9.56419837 18.6043168,9.56419837 C30.2953857,9.56419837 36.7689959,8.23086504 36.7689959,8.23086504 L35.3230469,8.72237319 C35.3230469,8.72237319 30.5801723,10.0557065 18.6681152,10.0557065 C6.75605818,10.0557065 2.08864294,8.72237319 2.08864294,8.72237319 L0.439637587,8.23086504 Z" id="Rectangle-3" fill="#9C6744"></path>
                    <ellipse id="Oval-2" fill="#5C3E23" cx="18.9321429" cy="2.66666667" rx="15.6107143" ry="1.33333333"></ellipse>
                </g>
                <g id="leaves" stroke-width="0.6" stroke="#BD0FE1">
                    <g id="leaf" transform="translate(31.909091, 14.880000) scale(-1, 1) translate(-31.909091, -14.880000) translate(20.909091, 2.880000)">
                        <polygon id="Path-16" fill="#611025" points="19.9888139 23.3458594 17.8226207 23.3458594 13.9552557 22.0327734 5.43181818 13.7112891 0.978338068 5.62957031 0.247159091 0.348046875 5.43181818 1.82039063 11.975142 5.62957031 16.0980114 9.21234375 20.7372159 14.2660547 21.5191761 18.9154688"></polygon>
                        <path d="M19.4666193,23.0980078 C19.4666193,23.0980078 18.7940341,16.6503516 16.6232244,13.3400391 C14.4524148,10.0297266 11.284446,6.75351562 11.284446,6.75351562" id="Path-18"></path>
                        <path d="M19.2727273,23.4 C19.2727273,23.4 16.7072466,18.9980386 15.8757102,17.7915234 C14.1847561,15.3380386 1.79651989,1.73566406 1.79651989,1.73566406" id="Path-19"></path>
                        <path d="M18.7977628,23.1414258 C18.7977628,23.1414258 14.9653257,18.6721351 13.199929,17.3330859 C11.6689242,16.1718226 2.56924716,6.00082031 2.56924716,6.00082031" id="Path-20"></path>
                    </g>
                    <g id="leaf" transform="translate(8.000000, 0.000000)">
                        <polygon id="Path-16" fill="#611025" points="12.7160866 24.0658594 10.5498935 24.0658594 6.34410511 20.7481641 2.11044034 13.1389453 0.236505682 6.50988281 1.140625 0.033046875 4.99165483 1.48183594 10.0589489 5.34585937 13.0894886 9.33855469 16.2776989 17.1355078 15.8675426 21.9919922"></polygon>
                        <path d="M14.6338778,22.5580078 C14.6338778,22.5580078 13.7386364,14.9252344 11.5678267,11.6149219 C9.39701705,8.30460937 7.27272727,5.76 7.27272727,5.76" id="Path-18"></path>
                        <path d="M13.8398438,23.1043359 C13.8398438,23.1043359 11.2743631,18.7023746 10.4428267,17.4958594 C8.75187256,15.0423746 2.00923295,1.34964844 2.00923295,1.34964844" id="Path-19"></path>
                        <path d="M13.1981534,23.7258984 C13.1981534,23.7258984 9.14098011,20.5730859 6.60165128,17.1551953 C4.06232244,13.7373047 1.67826705,6.67722656 1.67826705,6.67722656" id="Path-20"></path>
                    </g>
                    <g id="leaf" transform="translate(0.000000, 12.240000)">
                        <polygon id="Path-16" fill="#611025" points="22.8979048 13.9858594 20.7317116 13.9858594 16.8117898 10.6657031 10.5134943 8.97820313 4.58664773 8.60273437 0 10.018125 3.97017045 6.60304687 9.71519886 3.48539062 13.4176136 0 18.3274148 1.25015625 21.0901989 3.24984375 22.2265625 6.125625 24.428267 9.55546875"></polygon>
                        <path d="M22.1818182,14.04 L22.5617898,7.79484375" id="Path-17"></path>
                        <path d="M22.1818182,13.32 L19.7762784,4.61742187" id="Path-18"></path>
                        <path d="M22.1818182,14.04 C22.1818182,14.04 20.6745762,10.902609 19.8430398,9.69609375 C18.1520856,7.24260895 13.7082741,1.89439453 13.7082741,1.89439453" id="Path-19"></path>
                        <path d="M21.7068537,13.7814258 C21.7068537,13.7814258 17.3405033,8.25445928 15.5751065,6.91541016 C14.0441018,5.75414678 10.5653409,3.81779297 10.5653409,3.81779297" id="Path-20"></path>
                        <path d="M21.6617543,13.5901758 C21.6617543,13.5901758 18.3743646,9.77139357 17.3496094,9.30568359 C16.0470387,8.71371771 13.0033408,6.9102796 11.4477983,6.54363281 C8.2991091,5.80147582 5.56924716,7.03986328 5.56924716,7.03986328" id="Path-21"></path>
                    </g>
                    <g id="leaf" transform="translate(35.500000, 21.560000) scale(-1, 1) translate(-35.500000, -21.560000) translate(23.000000, 16.560000)">
                        <polygon id="Path-16" fill="#611025" points="22.8979048 9.66585938 20.7317116 9.66585938 16.8643466 8.35277344 9.71519886 8.35277344 2.23579545 7.51640625 -1.98951966e-13 5.698125 4.02379261 4.40613281 9.26384943 0.9759375 16.8643466 0.586054688 22.2265625 1.805625 24.428267 5.23546875"></polygon>
                        <path d="M22.1818182,9.72 C22.1818182,9.72 22.5055857,7.65565531 22.5149405,6.62273437 C22.5215066,5.89772562 22.229581,4.44621094 22.229581,4.44621094" id="Path-17"></path>
                        <path d="M22.1818182,9 C22.1818182,9 21.1881357,6.37081777 20.3732244,5.13878906 C19.6761802,4.08495839 17.6459517,2.14242188 17.6459517,2.14242188" id="Path-18"></path>
                        <path d="M22.1818182,9.72 C22.1818182,9.72 20.1149171,7.76772614 19.2833807,6.56121094 C17.5924265,4.10772614 12.0142045,1.82601563 12.0142045,1.82601563" id="Path-19"></path>
                        <path d="M21.7068537,9.46142578 C21.7068537,9.46142578 18.5704394,6.89514288 16.8050426,5.55609375 C15.2740379,4.39483038 7.39275568,3.84503906 7.39275568,3.84503906" id="Path-20"></path>
                        <path d="M21.6617543,9.27017578 C21.6617543,9.27017578 16.6881075,6.55090529 15.6633523,6.08519531 C14.3607816,5.49322943 11.875,5.56910156 8.67045455,6.08519531 C5.46590909,6.60128906 1.78515625,6.08519531 1.78515625,6.08519531" id="Path-21"></path>
                    </g>
                </g>
            </g>
        </g>
    </g>
</svg>