<?xml version="1.0" encoding="UTF-8" standalone="no"?>
<svg width="40px" height="51px" viewBox="0 0 40 51" version="1.1" xmlns="http://www.w3.org/2000/svg" xmlns:xlink="http://www.w3.org/1999/xlink">
    <!-- Generator: Sketch 40.3 (33839) - http://www.bohemiancoding.com/sketch -->
    <title>orchid</title>
    <desc>Created with Sketch.</desc>
    <defs></defs>
    <g id="Page-1" stroke="none" stroke-width="1" fill="none" fill-rule="evenodd">
        <g id="orchid" transform="translate(0.000000, 1.000000)">
            <g id="pot" transform="translate(4.000000, 20.000000)">
                <path d="M0.382716049,1.66666667 C0.382716049,1.66666667 2.41619873,0.32796224 15.5,0.32796224 C28.5838013,0.32796224 30.617284,1.66666667 30.617284,1.66666667 L30.617284,6.88330314 L29.4272762,7.26977657 L24.7466931,28.3333333 C24.7466931,28.3333333 20.4596772,29.5282661 15.5,29.5282661 C10.5403228,29.5282661 5.87059083,28.3333333 5.87059083,28.3333333 L1.71100984,7.26977657 L0.382716049,6.88330314 L0.382716049,1.66666667 Z" id="Rectangle" fill="#D99264"></path>
                <path d="M0.382716049,1.66666667 C0.382716049,1.66666667 0.382716049,3.20203993 6.08482579,3.75759549 C6.11509923,4.38286675 6.08482579,7.80626085 6.08482579,7.80626085 L6.62447684,7.84342448 L10.7961295,29.0865072 L5.87059083,28.3333333 L1.71100984,7.26977657 L0.382716049,6.88330314 L0.382716049,1.66666667 Z" id="Rectangle" fill="#BC7A4E"></path>
                <path d="M0.366364656,6.8590542 C0.366364656,6.8590542 5.76103983,7.97016531 15.5035973,7.97016531 C25.2461548,7.97016531 30.64083,6.8590542 30.64083,6.8590542 L29.4358724,7.26864432 C29.4358724,7.26864432 25.4834769,8.37975543 15.5567627,8.37975543 C5.63004848,8.37975543 1.74053578,7.26864432 1.74053578,7.26864432 L0.366364656,6.8590542 Z" id="Rectangle-3" fill="#9C6744"></path>
                <ellipse id="Oval-2" fill="#5C3E23" cx="15.7767857" cy="2.22222222" rx="13.0089286" ry="1.11111111"></ellipse>
            </g>
            <g id="leaves" stroke-width="0.6" stroke="#BD0FE1">
                <g id="leaf" transform="translate(26.666667, 12.300000) scale(-1, 1) translate(-26.666667, -12.300000) translate(17.575758, 2.400000)">
                    <polygon id="Path-16" fill="#611025" points="16.6573449 19.4548828 14.8521839 19.4548828 11.6293797 18.3606445 4.52651515 11.4260742 0.815281723 4.69130859 0.205965909 0.290039062 4.52651515 1.51699219 9.97928504 4.69130859 13.4150095 7.67695312 17.2810133 11.8883789 17.9326468 15.7628906"></polygon>
                    <path d="M16.2221828,19.2483398 C16.2221828,19.2483398 15.6616951,13.875293 13.852687,11.1166992 C12.043679,8.35810547 9.40370502,5.62792969 9.40370502,5.62792969" id="Path-18"></path>
                    <path d="M16.0606061,19.5 C16.0606061,19.5 13.9227055,15.8316989 13.2297585,14.8262695 C11.8206301,12.7816989 1.49709991,1.44638672 1.49709991,1.44638672" id="Path-19"></path>
                    <path d="M15.6648023,19.2845215 C15.6648023,19.2845215 12.4711048,15.5601126 10.9999408,14.4442383 C9.72410351,13.4765188 2.1410393,5.00068359 2.1410393,5.00068359" id="Path-20"></path>
                </g>
                <g id="leaf" transform="translate(6.666667, 0.000000)">
                    <polygon id="Path-16" fill="#611025" points="10.5967389 20.0548828 8.79157789 20.0548828 5.28675426 17.2901367 1.75870028 10.9491211 0.197088068 5.42490234 0.950520833 0.0275390625 4.15971236 1.23486328 8.38245739 4.45488281 10.9079072 7.78212891 13.5647491 14.2795898 13.2229522 18.3266602"></polygon>
                    <path d="M12.1948982,18.7983398 C12.1948982,18.7983398 11.4488636,12.4376953 9.63985559,9.67910156 C7.83084754,6.92050781 6.06060606,4.8 6.06060606,4.8" id="Path-18"></path>
                    <path d="M11.5332031,19.2536133 C11.5332031,19.2536133 9.39530257,15.5853121 8.70235559,14.5798828 C7.29322713,12.5353121 1.6743608,1.12470703 1.6743608,1.12470703" id="Path-19"></path>
                    <path d="M10.9984612,19.771582 C10.9984612,19.771582 7.61748343,17.1442383 5.50137607,14.2959961 C3.3852687,11.4477539 1.39855587,5.56435547 1.39855587,5.56435547" id="Path-20"></path>
                </g>
                <g id="leaf" transform="translate(0.000000, 10.200000)">
                    <polygon id="Path-16" fill="#611025" points="19.0815874 11.6548828 17.2764264 11.6548828 14.0098248 8.88808594 8.76124527 7.48183594 3.82220644 7.16894531 0 8.3484375 3.30847538 5.50253906 8.09599905 2.90449219 11.1813447 0 15.2728456 1.04179687 17.5751657 2.70820312 18.5221354 5.1046875 20.3568892 7.96289062"></polygon>
                    <path d="M18.4848485,11.7 L18.8014915,6.49570312" id="Path-17"></path>
                    <path d="M18.4848485,11.1 L16.480232,3.84785156" id="Path-18"></path>
                    <path d="M18.4848485,11.7 C18.4848485,11.7 17.2288135,9.08550746 16.5358665,8.08007813 C15.126738,6.03550746 11.4235618,1.57866211 11.4235618,1.57866211" id="Path-19"></path>
                    <path d="M18.0890447,11.4845215 C18.0890447,11.4845215 14.4504194,6.87871607 12.9792554,5.7628418 C11.7034181,4.79512232 8.80445076,3.18149414 8.80445076,3.18149414" id="Path-20"></path>
                    <path d="M18.0514619,11.3251465 C18.0514619,11.3251465 15.3119705,8.14282798 14.4580078,7.75473633 C13.3725323,7.26143143 10.8361174,5.75856633 9.53983191,5.45302734 C6.91592425,4.83456318 4.6410393,5.86655273 4.6410393,5.86655273" id="Path-21"></path>
                </g>
                <g id="leaf" transform="translate(29.696970, 18.000000) scale(-1, 1) translate(-29.696970, -18.000000) translate(19.393939, 13.800000)">
                    <polygon id="Path-16" fill="#611025" points="19.0815874 8.05488281 17.2764264 8.05488281 14.0536222 6.96064453 8.09599905 6.96064453 1.86316288 6.26367187 0 4.7484375 3.35316051 3.67177734 7.71987453 0.81328125 14.0536222 0.488378906 18.5221354 1.5046875 20.3568892 4.36289062"></polygon>
                    <path d="M18.4848485,8.1 C18.4848485,8.1 18.7546547,6.37971276 18.7624504,5.51894531 C18.7679222,4.91477135 18.5246508,3.70517578 18.5246508,3.70517578" id="Path-17"></path>
                    <path d="M18.4848485,7.5 C18.4848485,7.5 17.6567798,5.30901481 16.977687,4.28232422 C16.3968168,3.40413199 14.7049598,1.78535156 14.7049598,1.78535156" id="Path-18"></path>
                    <path d="M18.4848485,8.1 C18.4848485,8.1 16.7624309,6.47310511 16.0694839,5.46767578 C14.6603554,3.42310511 10.0118371,1.52167969 10.0118371,1.52167969" id="Path-19"></path>
                    <path d="M18.0890447,7.88452148 C18.0890447,7.88452148 15.4753661,5.7459524 14.0042022,4.63007812 C12.7283649,3.66235865 6.16062973,3.20419922 6.16062973,3.20419922" id="Path-20"></path>
                    <path d="M18.0514619,7.72514648 C18.0514619,7.72514648 13.9067563,5.45908774 13.0527936,5.07099609 C11.967318,4.57769119 9.89583333,4.64091797 7.22537879,5.07099609 C4.55492424,5.50107422 1.48763021,5.07099609 1.48763021,5.07099609" id="Path-21"></path>
                </g>
            </g>
        </g>
    </g>
</svg>