<?xml version="1.0" encoding="UTF-8" standalone="no"?>
<svg width="31px" height="18px" viewBox="0 0 31 18" version="1.1" xmlns="http://www.w3.org/2000/svg" xmlns:xlink="http://www.w3.org/1999/xlink">
    <!-- Generator: Sketch 40.3 (33839) - http://www.bohemiancoding.com/sketch -->
    <title>Group 2</title>
    <desc>Created with Sketch.</desc>
    <defs></defs>
    <g id="Page-1" stroke="none" stroke-width="1" fill="none" fill-rule="evenodd">
        <g id="Group-2">
            <path d="M5.63549805,9.32104492 C5.63549805,9.32104492 6.79432861,12.4159492 8.24145508,13.3222656 C9.68858154,14.2285821 14.7350692,15 14.7350692,15 L16.4315584,14.5384615 L5.63549805,9.32104492 Z" id="Path-31" fill="#FFFFFF"></path>
            <path d="M0.779296875,6.94140625 L3.91503906,5.7265625 L4.67390632,3.32080078 C4.67390632,3.32080078 5.51318359,1.37280273 6.30053711,0.743164062 C7.08789063,0.113525391 10.3183594,0.743164062 10.3183594,0.743164062 L12.1142578,2.6237793 C12.1142578,2.6237793 14.6098494,3.68635228 15.4794922,4.40332031 C16.1928572,4.99144669 18.0478516,6.94140625 18.0478516,6.94140625 L19.4724121,9.17480469 L21.0751953,9.99023437 L29.9199219,14.4179688 L30.1796875,17.1298828 L18.8945312,12.3554687 L22.3671875,16.578125 L14.8564453,14.5605469 L8.36621094,12.3134766 C8.36621094,12.3134766 6.62252008,10.6571842 5.51318359,9.17480469 C5.41197147,9.03955738 5.60736578,8.42641699 5.51318359,8.30423636 C5.40888242,8.16892858 4.67390632,7.52352545 4.67390632,7.52352545 L3.91503906,6.5390625 L1.34887695,7.24414062 L0.779296875,6.94140625 Z" id="Path-30" fill="#666666"></path>
            <polygon id="Path-32" fill="#666666" points="9.7355957 13.8215332 9.15478516 16.2226562 7.87976074 16.3830566 7.50256348 16.7358398 9.3939209 16.5915527 10.4610596 17.4351807 10.4610596 16.9980469 9.43432617 16.2226562 9.9753418 13.8215332"></polygon>
        </g>
    </g>
</svg>