<?xml version="1.0" encoding="UTF-8" standalone="no"?>
<svg width="79px" height="101px" viewBox="0 0 79 101" version="1.1" xmlns="http://www.w3.org/2000/svg" xmlns:xlink="http://www.w3.org/1999/xlink">
    <!-- Generator: Sketch 40.3 (33839) - http://www.bohemiancoding.com/sketch -->
    <title>pink_plant</title>
    <desc>Created with Sketch.</desc>
    <defs></defs>
    <g id="Page-1" stroke="none" stroke-width="1" fill="none" fill-rule="evenodd">
        <g id="pink_plant" transform="translate(0.000000, -1.000000)">
            <g id="blue_pot" transform="translate(11.000000, 62.000000)">
                <path d="M0,3.44238281 C0,3.44238281 6.171875,2.85589228e-15 27,0 C47.828125,0 54,3.44238281 54,3.44238281 L54,36.4423828 C54,36.4423828 47.0917969,39.4150391 27,39.4150391 C6.90820312,39.4150391 0,36.4423828 0,36.4423828 L0,3.44238281 Z" id="Rectangle-17" fill="#F8AFA4"></path>
                <ellipse id="Oval-2" fill="#5C3E23" cx="27.5" cy="4" rx="24.5" ry="3"></ellipse>
                <path d="M0.000416794987,3 C0.000416794987,3 -0.212717971,6.21569824 9.00041679,7.38500977 C9.00249199,7.41882324 9.01262383,38.3730469 9.00041679,38.3920898 C6.00236992,38.3920898 0.000416794987,36.6152344 0.000416794987,36.6152344 L0.000416794987,3 Z" id="Rectangle-17" fill="#D7958B"></path>
            </g>
            <g id="Group-19">
                <g id="Group-11" transform="translate(33.594434, 53.430766) rotate(21.000000) translate(-33.594434, -53.430766) translate(23.094434, 48.430766)">
                    <path d="M0.493286133,1.75951361 C0.493286133,1.75951361 -0.0970458984,2.24801537 0.391479492,2.8890499 C0.880004883,3.53008443 2.61291504,4.67025265 2.61291504,5.04222845 C2.61291504,5.41420426 2.51916504,6.4742786 3.29663086,6.68691721 C4.07409668,6.89955582 6.91333008,7.03975554 7.32897949,7.36580141 C7.74462891,7.69184728 8.59863281,8.97717679 10.2509766,8.97717679 C11.9033203,8.97717679 13.8240967,8.75036227 14.6663818,8.75036227 C15.508667,8.75036227 18.5039062,8.94428868 19.1143799,8.68430255 C19.7248535,8.42431641 19.6311035,8.26129347 19.6311035,7.47410534 C19.6311035,6.68691721 20.6363525,5.90511593 20.6363525,5.16470829 C20.6363525,4.42430066 18.9151611,3.5547505 18.4632568,3.09006426 C18.0113525,2.62537802 16.774292,1.7055034 16.774292,1.29270098 C16.774292,0.879898564 13.7995605,0.37594506 12.3383789,0.37594506 C10.8771973,0.37594506 8.52575684,0.322360131 7.65856934,0.17578125 C6.79138184,0.029202369 3.53613281,-0.013608871 2.83557129,0.0810861895 C2.13500977,0.17578125 0.493286133,1.75951361 0.493286133,1.75951361 Z" id="Path-92" fill="#F5E6E9"></path>
                    <path d="M17.1401367,8.26044292 C17.1401367,8.26044292 13.6420898,5.62088899 12.7133789,5.18285345 C11.784668,4.74481792 4.62744141,1.20410156 4.62744141,1.20410156 L6.73132324,1.86937689 L13.8032227,5.09467931 L17.7418213,8.00244141 L17.1401367,8.26044292 Z" id="Path-93" fill="#7D4E54"></path>
                    <ellipse id="Oval-3" fill="#7D4E54" cx="11.25" cy="3.0483871" rx="0.75" ry="0.725806452"></ellipse>
                    <ellipse id="Oval-9" fill="#7D4E54" cx="5.25" cy="1.89516129" rx="1.5" ry="0.153225806"></ellipse>
                    <ellipse id="Oval-9" fill="#7D4E54" cx="7.5" cy="3.48387097" rx="1.5" ry="0.290322581"></ellipse>
                    <ellipse id="Oval-4" fill="#7D4E54" transform="translate(13.866497, 4.929696) rotate(24.000000) translate(-13.866497, -4.929696) " cx="13.8664967" cy="4.86518014" rx="0.75" ry="0.435483871"></ellipse>
                    <ellipse id="Oval-4" fill="#7D4E54" transform="translate(6.366497, 1.445825) rotate(24.000000) translate(-6.366497, -1.445825) " cx="6.36649674" cy="1.38130917" rx="0.75" ry="0.435483871"></ellipse>
                    <ellipse id="Oval-5" fill="#7D4E54" cx="13.875" cy="6.67741935" rx="1.125" ry="0.290322581"></ellipse>
                    <ellipse id="Oval-6" fill="#7D4E54" transform="translate(13.478752, 3.257073) rotate(18.000000) translate(-13.478752, -3.257073) " cx="13.4787523" cy="3.25707331" rx="1.125" ry="1.4516129"></ellipse>
                    <ellipse id="Oval-6" fill="#7D4E54" transform="translate(16.478752, 4.999009) rotate(18.000000) translate(-16.478752, -4.999009) " cx="16.4787523" cy="4.9990088" rx="1.125" ry="1.4516129"></ellipse>
                    <ellipse id="Oval-6" fill="#7D4E54" transform="translate(17.978752, 6.450622) rotate(18.000000) translate(-17.978752, -6.450622) " cx="17.9787523" cy="6.4506217" rx="1.125" ry="1.4516129"></ellipse>
                    <ellipse id="Oval-6" fill="#7D4E54" transform="translate(9.381108, 1.971936) rotate(6.000000) translate(-9.381108, -1.971936) " cx="9.38110819" cy="1.9719358" rx="1.125" ry="1.01612903"></ellipse>
                    <ellipse id="Oval-6" fill="#7D4E54" transform="translate(13.665061, 7.518285) rotate(-73.000000) translate(-13.665061, -7.518285) " cx="13.665061" cy="7.51828519" rx="1.125" ry="1.4516129"></ellipse>
                    <ellipse id="Oval-6" fill="#7D4E54" transform="translate(11.415061, 5.776350) rotate(-73.000000) translate(-11.415061, -5.776350) " cx="11.415061" cy="5.77634971" rx="1.125" ry="1.4516129"></ellipse>
                    <ellipse id="Oval-6" fill="#7D4E54" transform="translate(8.806447, 4.572618) rotate(-73.000000) translate(-8.806447, -4.572618) " cx="8.80644672" cy="4.57261833" rx="1.125" ry="1.30645161"></ellipse>
                    <ellipse id="Oval-6" fill="#7D4E54" transform="translate(5.447832, 2.788242) rotate(-73.000000) translate(-5.447832, -2.788242) " cx="5.44783244" cy="2.78824179" rx="1.125" ry="1.16129032"></ellipse>
                </g>
                <g id="Group-11" transform="translate(61.500000, 46.000000) scale(-1, 1) translate(-61.500000, -46.000000) translate(51.000000, 41.000000)">
                    <path d="M0.493286133,1.75951361 C0.493286133,1.75951361 -0.0970458984,2.24801537 0.391479492,2.8890499 C0.880004883,3.53008443 2.61291504,4.67025265 2.61291504,5.04222845 C2.61291504,5.41420426 2.51916504,6.4742786 3.29663086,6.68691721 C4.07409668,6.89955582 6.91333008,7.03975554 7.32897949,7.36580141 C7.74462891,7.69184728 8.59863281,8.97717679 10.2509766,8.97717679 C11.9033203,8.97717679 13.8240967,8.75036227 14.6663818,8.75036227 C15.508667,8.75036227 18.5039062,8.94428868 19.1143799,8.68430255 C19.7248535,8.42431641 19.6311035,8.26129347 19.6311035,7.47410534 C19.6311035,6.68691721 20.6363525,5.90511593 20.6363525,5.16470829 C20.6363525,4.42430066 18.9151611,3.5547505 18.4632568,3.09006426 C18.0113525,2.62537802 16.774292,1.7055034 16.774292,1.29270098 C16.774292,0.879898564 13.7995605,0.37594506 12.3383789,0.37594506 C10.8771973,0.37594506 8.52575684,0.322360131 7.65856934,0.17578125 C6.79138184,0.029202369 3.53613281,-0.013608871 2.83557129,0.0810861895 C2.13500977,0.17578125 0.493286133,1.75951361 0.493286133,1.75951361 Z" id="Path-92" fill="#F5E6E9"></path>
                    <path d="M17.1401367,8.26044292 C17.1401367,8.26044292 13.6420898,5.62088899 12.7133789,5.18285345 C11.784668,4.74481792 4.62744141,1.20410156 4.62744141,1.20410156 L6.73132324,1.86937689 L13.8032227,5.09467931 L17.7418213,8.00244141 L17.1401367,8.26044292 Z" id="Path-93" fill="#7D4E54"></path>
                    <ellipse id="Oval-3" fill="#7D4E54" cx="11.25" cy="3.0483871" rx="0.75" ry="0.725806452"></ellipse>
                    <ellipse id="Oval-9" fill="#7D4E54" cx="5.25" cy="1.89516129" rx="1.5" ry="0.153225806"></ellipse>
                    <ellipse id="Oval-9" fill="#7D4E54" cx="7.5" cy="3.48387097" rx="1.5" ry="0.290322581"></ellipse>
                    <ellipse id="Oval-4" fill="#7D4E54" transform="translate(13.866497, 4.929696) rotate(24.000000) translate(-13.866497, -4.929696) " cx="13.8664967" cy="4.86518014" rx="0.75" ry="0.435483871"></ellipse>
                    <ellipse id="Oval-4" fill="#7D4E54" transform="translate(6.366497, 1.445825) rotate(24.000000) translate(-6.366497, -1.445825) " cx="6.36649674" cy="1.38130917" rx="0.75" ry="0.435483871"></ellipse>
                    <ellipse id="Oval-5" fill="#7D4E54" cx="13.875" cy="6.67741935" rx="1.125" ry="0.290322581"></ellipse>
                    <ellipse id="Oval-6" fill="#7D4E54" transform="translate(13.478752, 3.257073) rotate(18.000000) translate(-13.478752, -3.257073) " cx="13.4787523" cy="3.25707331" rx="1.125" ry="1.4516129"></ellipse>
                    <ellipse id="Oval-6" fill="#7D4E54" transform="translate(16.478752, 4.999009) rotate(18.000000) translate(-16.478752, -4.999009) " cx="16.4787523" cy="4.9990088" rx="1.125" ry="1.4516129"></ellipse>
                    <ellipse id="Oval-6" fill="#7D4E54" transform="translate(17.978752, 6.450622) rotate(18.000000) translate(-17.978752, -6.450622) " cx="17.9787523" cy="6.4506217" rx="1.125" ry="1.4516129"></ellipse>
                    <ellipse id="Oval-6" fill="#7D4E54" transform="translate(9.381108, 1.971936) rotate(6.000000) translate(-9.381108, -1.971936) " cx="9.38110819" cy="1.9719358" rx="1.125" ry="1.01612903"></ellipse>
                    <ellipse id="Oval-6" fill="#7D4E54" transform="translate(13.665061, 7.518285) rotate(-73.000000) translate(-13.665061, -7.518285) " cx="13.665061" cy="7.51828519" rx="1.125" ry="1.4516129"></ellipse>
                    <ellipse id="Oval-6" fill="#7D4E54" transform="translate(11.415061, 5.776350) rotate(-73.000000) translate(-11.415061, -5.776350) " cx="11.415061" cy="5.77634971" rx="1.125" ry="1.4516129"></ellipse>
                    <ellipse id="Oval-6" fill="#7D4E54" transform="translate(8.806447, 4.572618) rotate(-73.000000) translate(-8.806447, -4.572618) " cx="8.80644672" cy="4.57261833" rx="1.125" ry="1.30645161"></ellipse>
                    <ellipse id="Oval-6" fill="#7D4E54" transform="translate(5.447832, 2.788242) rotate(-73.000000) translate(-5.447832, -2.788242) " cx="5.44783244" cy="2.78824179" rx="1.125" ry="1.16129032"></ellipse>
                </g>
                <polygon id="Path-87" fill="#2D040A" points="32.7753906 65.0986328 33.6767578 65.3588867 28.0341797 17.1923828 27.0742188 17.9301758"></polygon>
                <g id="Group-11" transform="translate(46.594434, 57.430766) scale(-1, 1) rotate(21.000000) translate(-46.594434, -57.430766) translate(36.094434, 52.430766)">
                    <path d="M0.493286133,1.75951361 C0.493286133,1.75951361 -0.0970458984,2.24801537 0.391479492,2.8890499 C0.880004883,3.53008443 2.61291504,4.67025265 2.61291504,5.04222845 C2.61291504,5.41420426 2.51916504,6.4742786 3.29663086,6.68691721 C4.07409668,6.89955582 6.91333008,7.03975554 7.32897949,7.36580141 C7.74462891,7.69184728 8.59863281,8.97717679 10.2509766,8.97717679 C11.9033203,8.97717679 13.8240967,8.75036227 14.6663818,8.75036227 C15.508667,8.75036227 18.5039062,8.94428868 19.1143799,8.68430255 C19.7248535,8.42431641 19.6311035,8.26129347 19.6311035,7.47410534 C19.6311035,6.68691721 20.6363525,5.90511593 20.6363525,5.16470829 C20.6363525,4.42430066 18.9151611,3.5547505 18.4632568,3.09006426 C18.0113525,2.62537802 16.774292,1.7055034 16.774292,1.29270098 C16.774292,0.879898564 13.7995605,0.37594506 12.3383789,0.37594506 C10.8771973,0.37594506 8.52575684,0.322360131 7.65856934,0.17578125 C6.79138184,0.029202369 3.53613281,-0.013608871 2.83557129,0.0810861895 C2.13500977,0.17578125 0.493286133,1.75951361 0.493286133,1.75951361 Z" id="Path-92" fill="#EEB4BF"></path>
                    <path d="M19.2199363,8.64592193 C19.2199363,8.64592193 13.6420898,5.62088899 12.7133789,5.18285345 C11.784668,4.74481792 4.62744141,1.20410156 4.62744141,1.20410156 L6.73132324,1.86937689 L13.8032227,5.09467931 L19.7304881,8.44993946 L19.2199363,8.64592193 Z" id="Path-93" fill="#7D4E54"></path>
                    <ellipse id="Oval-3" fill="#7D4E54" cx="11.25" cy="3.0483871" rx="0.75" ry="0.725806452"></ellipse>
                    <ellipse id="Oval-9" fill="#7D4E54" cx="5.25" cy="1.89516129" rx="1.5" ry="0.153225806"></ellipse>
                    <ellipse id="Oval-9" fill="#7D4E54" cx="7.5" cy="3.48387097" rx="1.5" ry="0.290322581"></ellipse>
                    <ellipse id="Oval-4" fill="#7D4E54" transform="translate(13.866497, 4.929696) rotate(24.000000) translate(-13.866497, -4.929696) " cx="13.8664967" cy="4.86518014" rx="0.75" ry="0.435483871"></ellipse>
                    <ellipse id="Oval-4" fill="#7D4E54" transform="translate(6.366497, 1.445825) rotate(24.000000) translate(-6.366497, -1.445825) " cx="6.36649674" cy="1.38130917" rx="0.75" ry="0.435483871"></ellipse>
                    <ellipse id="Oval-5" fill="#7D4E54" cx="13.875" cy="6.67741935" rx="1.125" ry="0.290322581"></ellipse>
                    <ellipse id="Oval-6" fill="#7D4E54" transform="translate(13.478752, 3.257073) rotate(18.000000) translate(-13.478752, -3.257073) " cx="13.4787523" cy="3.25707331" rx="1.125" ry="1.4516129"></ellipse>
                    <ellipse id="Oval-6" fill="#7D4E54" transform="translate(16.478752, 4.999009) rotate(18.000000) translate(-16.478752, -4.999009) " cx="16.4787523" cy="4.9990088" rx="1.125" ry="1.4516129"></ellipse>
                    <ellipse id="Oval-6" fill="#7D4E54" transform="translate(17.978752, 6.450622) rotate(18.000000) translate(-17.978752, -6.450622) " cx="17.9787523" cy="6.4506217" rx="1.125" ry="1.4516129"></ellipse>
                    <ellipse id="Oval-6" fill="#7D4E54" transform="translate(9.381108, 1.971936) rotate(6.000000) translate(-9.381108, -1.971936) " cx="9.38110819" cy="1.9719358" rx="1.125" ry="1.01612903"></ellipse>
                    <ellipse id="Oval-6" fill="#7D4E54" transform="translate(13.665061, 7.518285) rotate(-73.000000) translate(-13.665061, -7.518285) " cx="13.665061" cy="7.51828519" rx="1.125" ry="1.4516129"></ellipse>
                    <ellipse id="Oval-6" fill="#7D4E54" transform="translate(11.415061, 5.776350) rotate(-73.000000) translate(-11.415061, -5.776350) " cx="11.415061" cy="5.77634971" rx="1.125" ry="1.4516129"></ellipse>
                    <ellipse id="Oval-6" fill="#7D4E54" transform="translate(8.806447, 4.572618) rotate(-73.000000) translate(-8.806447, -4.572618) " cx="8.80644672" cy="4.57261833" rx="1.125" ry="1.30645161"></ellipse>
                    <ellipse id="Oval-6" fill="#7D4E54" transform="translate(5.447832, 2.788242) rotate(-73.000000) translate(-5.447832, -2.788242) " cx="5.44783244" cy="2.78824179" rx="1.125" ry="1.16129032"></ellipse>
                </g>
                <polygon id="Path-88" fill="#2D040A" points="42.1538086 64.8032227 54.1225586 17.2495117 55.7338867 16.7495117 43.0327148 65.4438477"></polygon>
                <polygon id="Path-89" fill="#2D040A" points="47.7475586 65.1054688 52.3969727 46.9301758 53.5639648 46.9301758 48.9628906 64.8886719"></polygon>
                <polygon id="Path-90" fill="#2D040A" points="30.5966797 65.1835938 22.4423828 45.9511719 23.5170898 45.9511719 31.5673828 65.2929688"></polygon>
                <polygon id="Path-91" fill="#2D040A" points="37.1142578 66.1660156 33.7719727 40.0048828 34.9716797 40.3955078 38.2529297 66.1279297"></polygon>
                <g id="Group-11" transform="translate(0.000000, 16.000000)">
                    <path d="M0.657714844,6.06054687 C0.657714844,6.06054687 -0.129394531,7.74316406 0.521972656,9.95117187 C1.17333984,12.1591797 3.48388672,16.0864258 3.48388672,17.3676758 C3.48388672,18.6489258 3.35888672,22.300293 4.39550781,23.0327148 C5.43212891,23.7651367 9.21777344,24.2480469 9.77197266,25.3710937 C10.3261719,26.4941406 11.4648437,30.9213867 13.6679688,30.9213867 C15.8710938,30.9213867 18.4321289,30.1401367 19.5551758,30.1401367 C20.6782227,30.1401367 24.671875,30.8081055 25.4858398,29.9125977 C26.2998047,29.0170898 26.1748047,28.4555664 26.1748047,25.7441406 C26.1748047,23.0327148 27.5151367,20.3398437 27.5151367,17.7895508 C27.5151367,15.2392578 25.2202148,12.2441406 24.6176758,10.6435547 C24.0151367,9.04296875 22.3657227,5.87451172 22.3657227,4.45263672 C22.3657227,3.03076172 18.3994141,1.29492187 16.4511719,1.29492187 C14.5029297,1.29492187 11.3676758,1.11035156 10.2114258,0.60546875 C9.05517578,0.100585937 4.71484375,-0.046875 3.78076172,0.279296875 C2.84667969,0.60546875 0.657714844,6.06054687 0.657714844,6.06054687 Z" id="Path-92" fill="#D99BA7"></path>
                    <path d="M23.0810547,31.1035156 C23.0810547,31.1035156 18.1894531,19.3608398 16.9511719,17.8520508 C15.7128906,16.3432617 6.16992188,4.14746094 6.16992188,4.14746094 L8.97509766,6.43896484 L18.4042969,17.5483398 L23.9545898,30.4960938 L23.0810547,31.1035156 Z" id="Path-93" fill="#2D040A"></path>
                    <ellipse id="Oval-3" fill="#7D4E54" cx="15" cy="10.5" rx="1" ry="2.5"></ellipse>
                    <ellipse id="Oval-9" fill="#7D4E54" cx="7" cy="6.5" rx="2" ry="0.5"></ellipse>
                    <ellipse id="Oval-9" fill="#7D4E54" cx="10" cy="12" rx="2" ry="1"></ellipse>
                    <ellipse id="Oval-4" fill="#7D4E54" transform="translate(18.523650, 16.777055) rotate(24.000000) translate(-18.523650, -16.777055) " cx="18.5236504" cy="16.7770548" rx="1" ry="1.5"></ellipse>
                    <ellipse id="Oval-4" fill="#7D4E54" transform="translate(8.523650, 4.777055) rotate(24.000000) translate(-8.523650, -4.777055) " cx="8.52365042" cy="4.77705483" rx="1" ry="1.5"></ellipse>
                    <ellipse id="Oval-5" fill="#7D4E54" cx="18.5" cy="23" rx="1.5" ry="1"></ellipse>
                    <ellipse id="Oval-6" fill="#7D4E54" transform="translate(17.971670, 11.218808) rotate(18.000000) translate(-17.971670, -11.218808) " cx="17.9716697" cy="11.2188081" rx="1.5" ry="5"></ellipse>
                    <ellipse id="Oval-6" fill="#7D4E54" transform="translate(21.971670, 17.218808) rotate(18.000000) translate(-21.971670, -17.218808) " cx="21.9716697" cy="17.2188081" rx="1.5" ry="5"></ellipse>
                    <ellipse id="Oval-6" fill="#7D4E54" transform="translate(23.971670, 22.218808) rotate(18.000000) translate(-23.971670, -22.218808) " cx="23.9716697" cy="22.2188081" rx="1.5" ry="5"></ellipse>
                    <ellipse id="Oval-6" fill="#7D4E54" transform="translate(12.508144, 6.792223) rotate(6.000000) translate(-12.508144, -6.792223) " cx="12.5081443" cy="6.7922233" rx="1.5" ry="3.5"></ellipse>
                    <ellipse id="Oval-6" fill="#7D4E54" transform="translate(18.220081, 25.896316) rotate(-73.000000) translate(-18.220081, -25.896316) " cx="18.2200813" cy="25.8963157" rx="1.5" ry="5"></ellipse>
                    <ellipse id="Oval-6" fill="#7D4E54" transform="translate(15.220081, 19.896316) rotate(-73.000000) translate(-15.220081, -19.896316) " cx="15.2200813" cy="19.8963157" rx="1.5" ry="5"></ellipse>
                    <ellipse id="Oval-6" fill="#7D4E54" transform="translate(11.741929, 15.750130) rotate(-73.000000) translate(-11.741929, -15.750130) " cx="11.741929" cy="15.7501298" rx="1.5" ry="4.5"></ellipse>
                    <ellipse id="Oval-6" fill="#7D4E54" transform="translate(7.263777, 9.603944) rotate(-73.000000) translate(-7.263777, -9.603944) " cx="7.26377658" cy="9.60394395" rx="1.5" ry="4"></ellipse>
                </g>
                <g id="Group-11" transform="translate(28.330158, 13.540381) rotate(19.000000) translate(-28.330158, -13.540381) translate(14.330158, 4.040381)">
                    <path d="M0.657714844,3.71452873 C0.657714844,3.71452873 -0.129394531,4.74581023 0.521972656,6.09910534 C1.17333984,7.45240045 3.48388672,9.85942225 3.48388672,10.6447045 C3.48388672,11.4299868 3.35888672,13.6679215 4.39550781,14.1168252 C5.43212891,14.565729 9.21777344,14.8617061 9.77197266,15.5500252 C10.3261719,16.2383443 11.4648437,18.9518177 13.6679688,18.9518177 C15.8710938,18.9518177 18.4321289,18.472987 19.5551758,18.472987 C20.6782227,18.472987 24.671875,18.8823872 25.4858398,18.3335276 C26.2998047,17.784668 26.1748047,17.4405084 26.1748047,15.7786668 C26.1748047,14.1168252 27.5151367,12.4663558 27.5151367,10.9032731 C27.5151367,9.34019027 25.2202148,7.50447329 24.6176758,6.523469 C24.0151367,5.54246472 22.3657227,3.60050718 22.3657227,2.72903541 C22.3657227,1.85756363 18.3994141,0.793661794 16.4511719,0.793661794 C14.5029297,0.793661794 11.3676758,0.680538054 10.2114258,0.37109375 C9.05517578,0.0616494456 4.71484375,-0.0287298387 3.78076172,0.171181956 C2.84667969,0.37109375 0.657714844,3.71452873 0.657714844,3.71452873 Z" id="Path-92" fill="#F5E6E9"></path>
                    <path d="M22.8535156,17.4387128 C22.8535156,17.4387128 18.1894531,11.8663212 16.9511719,10.9415795 C15.7128906,10.0168378 6.16992188,2.54199219 6.16992188,2.54199219 L8.97509766,3.94646232 L18.4042969,10.7554341 L23.6557617,16.894043 L22.8535156,17.4387128 Z" id="Path-93" fill="#7D4E54"></path>
                    <ellipse id="Oval-3" fill="#7D4E54" cx="15" cy="6.43548387" rx="1" ry="1.53225806"></ellipse>
                    <ellipse id="Oval-9" fill="#7D4E54" cx="7" cy="3.98387097" rx="2" ry="0.306451613"></ellipse>
                    <ellipse id="Oval-9" fill="#7D4E54" cx="10" cy="7.35483871" rx="2" ry="0.612903226"></ellipse>
                    <ellipse id="Oval-4" fill="#7D4E54" transform="translate(18.523650, 10.282711) rotate(24.000000) translate(-18.523650, -10.282711) " cx="18.5236504" cy="10.282711" rx="1" ry="0.919354839"></ellipse>
                    <ellipse id="Oval-4" fill="#7D4E54" transform="translate(8.523650, 2.927872) rotate(24.000000) translate(-8.523650, -2.927872) " cx="8.52365042" cy="2.92787231" rx="1" ry="0.919354839"></ellipse>
                    <ellipse id="Oval-5" fill="#7D4E54" cx="18.5" cy="14.0967742" rx="1.5" ry="0.612903226"></ellipse>
                    <ellipse id="Oval-6" fill="#7D4E54" transform="translate(17.971670, 6.876044) rotate(18.000000) translate(-17.971670, -6.876044) " cx="17.9716697" cy="6.87604366" rx="1.5" ry="3.06451613"></ellipse>
                    <ellipse id="Oval-6" fill="#7D4E54" transform="translate(21.971670, 10.553463) rotate(18.000000) translate(-21.971670, -10.553463) " cx="21.9716697" cy="10.553463" rx="1.5" ry="3.06451613"></ellipse>
                    <ellipse id="Oval-6" fill="#7D4E54" transform="translate(23.971670, 13.617979) rotate(18.000000) translate(-23.971670, -13.617979) " cx="23.9716697" cy="13.6179791" rx="1.5" ry="3.06451613"></ellipse>
                    <ellipse id="Oval-6" fill="#7D4E54" transform="translate(12.508144, 4.162976) rotate(6.000000) translate(-12.508144, -4.162976) " cx="12.5081443" cy="4.16297557" rx="1.5" ry="2.14516129"></ellipse>
                    <ellipse id="Oval-6" fill="#7D4E54" transform="translate(18.220081, 15.871935) rotate(-73.000000) translate(-18.220081, -15.871935) " cx="18.2200813" cy="15.8719354" rx="1.5" ry="3.06451613"></ellipse>
                    <ellipse id="Oval-6" fill="#7D4E54" transform="translate(15.220081, 12.194516) rotate(-73.000000) translate(-15.220081, -12.194516) " cx="15.2200813" cy="12.194516" rx="1.5" ry="3.06451613"></ellipse>
                    <ellipse id="Oval-6" fill="#7D4E54" transform="translate(11.741929, 9.653305) rotate(-73.000000) translate(-11.741929, -9.653305) " cx="11.741929" cy="9.65330536" rx="1.5" ry="2.75806452"></ellipse>
                    <ellipse id="Oval-6" fill="#7D4E54" transform="translate(7.263777, 5.886288) rotate(-73.000000) translate(-7.263777, -5.886288) " cx="7.26377658" cy="5.88628823" rx="1.5" ry="2.4516129"></ellipse>
                </g>
                <g id="Group-11" transform="translate(59.000000, 33.500000) scale(-1, 1) translate(-59.000000, -33.500000) translate(45.000000, 24.000000)">
                    <path d="M0.657714844,3.71452873 C0.657714844,3.71452873 -0.129394531,4.74581023 0.521972656,6.09910534 C1.17333984,7.45240045 3.48388672,9.85942225 3.48388672,10.6447045 C3.48388672,11.4299868 3.35888672,13.6679215 4.39550781,14.1168252 C5.43212891,14.565729 9.21777344,14.8617061 9.77197266,15.5500252 C10.3261719,16.2383443 11.4648437,18.9518177 13.6679688,18.9518177 C15.8710938,18.9518177 18.4321289,18.472987 19.5551758,18.472987 C20.6782227,18.472987 24.671875,18.8823872 25.4858398,18.3335276 C26.2998047,17.784668 26.1748047,17.4405084 26.1748047,15.7786668 C26.1748047,14.1168252 27.5151367,12.4663558 27.5151367,10.9032731 C27.5151367,9.34019027 25.2202148,7.50447329 24.6176758,6.523469 C24.0151367,5.54246472 22.3657227,3.60050718 22.3657227,2.72903541 C22.3657227,1.85756363 18.3994141,0.793661794 16.4511719,0.793661794 C14.5029297,0.793661794 11.3676758,0.680538054 10.2114258,0.37109375 C9.05517578,0.0616494456 4.71484375,-0.0287298387 3.78076172,0.171181956 C2.84667969,0.37109375 0.657714844,3.71452873 0.657714844,3.71452873 Z" id="Path-92" fill="#C2A4AA"></path>
                    <path d="M22.8535156,17.4387128 C22.8535156,17.4387128 18.1894531,11.8663212 16.9511719,10.9415795 C15.7128906,10.0168378 6.16992188,2.54199219 6.16992188,2.54199219 L8.97509766,3.94646232 L18.4042969,10.7554341 L23.6557617,16.894043 L22.8535156,17.4387128 Z" id="Path-93" fill="#7D4E54"></path>
                    <ellipse id="Oval-3" fill="#7D4E54" cx="15" cy="6.43548387" rx="1" ry="1.53225806"></ellipse>
                    <ellipse id="Oval-9" fill="#7D4E54" cx="7" cy="3.98387097" rx="2" ry="0.306451613"></ellipse>
                    <ellipse id="Oval-9" fill="#7D4E54" cx="10" cy="7.35483871" rx="2" ry="0.612903226"></ellipse>
                    <ellipse id="Oval-4" fill="#7D4E54" transform="translate(18.523650, 10.282711) rotate(24.000000) translate(-18.523650, -10.282711) " cx="18.5236504" cy="10.282711" rx="1" ry="0.919354839"></ellipse>
                    <ellipse id="Oval-4" fill="#7D4E54" transform="translate(8.523650, 2.927872) rotate(24.000000) translate(-8.523650, -2.927872) " cx="8.52365042" cy="2.92787231" rx="1" ry="0.919354839"></ellipse>
                    <ellipse id="Oval-5" fill="#7D4E54" cx="18.5" cy="14.0967742" rx="1.5" ry="0.612903226"></ellipse>
                    <ellipse id="Oval-6" fill="#7D4E54" transform="translate(17.971670, 6.876044) rotate(18.000000) translate(-17.971670, -6.876044) " cx="17.9716697" cy="6.87604366" rx="1.5" ry="3.06451613"></ellipse>
                    <ellipse id="Oval-6" fill="#7D4E54" transform="translate(21.971670, 10.553463) rotate(18.000000) translate(-21.971670, -10.553463) " cx="21.9716697" cy="10.553463" rx="1.5" ry="3.06451613"></ellipse>
                    <ellipse id="Oval-6" fill="#7D4E54" transform="translate(23.971670, 13.617979) rotate(18.000000) translate(-23.971670, -13.617979) " cx="23.9716697" cy="13.6179791" rx="1.5" ry="3.06451613"></ellipse>
                    <ellipse id="Oval-6" fill="#7D4E54" transform="translate(12.508144, 4.162976) rotate(6.000000) translate(-12.508144, -4.162976) " cx="12.5081443" cy="4.16297557" rx="1.5" ry="2.14516129"></ellipse>
                    <ellipse id="Oval-6" fill="#7D4E54" transform="translate(18.220081, 15.871935) rotate(-73.000000) translate(-18.220081, -15.871935) " cx="18.2200813" cy="15.8719354" rx="1.5" ry="3.06451613"></ellipse>
                    <ellipse id="Oval-6" fill="#7D4E54" transform="translate(15.220081, 12.194516) rotate(-73.000000) translate(-15.220081, -12.194516) " cx="15.2200813" cy="12.194516" rx="1.5" ry="3.06451613"></ellipse>
                    <ellipse id="Oval-6" fill="#7D4E54" transform="translate(11.741929, 9.653305) rotate(-73.000000) translate(-11.741929, -9.653305) " cx="11.741929" cy="9.65330536" rx="1.5" ry="2.75806452"></ellipse>
                    <ellipse id="Oval-6" fill="#7D4E54" transform="translate(7.263777, 5.886288) rotate(-73.000000) translate(-7.263777, -5.886288) " cx="7.26377658" cy="5.88628823" rx="1.5" ry="2.4516129"></ellipse>
                </g>
                <g id="Group-11" transform="translate(48.000000, 39.500000) scale(-1, 1) translate(-48.000000, -39.500000) translate(34.000000, 29.000000)">
                    <path d="M0.657714844,3.71452873 C0.657714844,3.71452873 -0.129394531,4.74581023 0.521972656,6.09910534 C1.17333984,7.45240045 3.48388672,9.85942225 3.48388672,10.6447045 C3.48388672,11.4299868 3.35888672,13.6679215 4.39550781,14.1168252 C5.43212891,14.565729 9.21777344,14.8617061 9.77197266,15.5500252 C10.3261719,16.2383443 11.4648437,18.9518177 13.6679688,18.9518177 C15.8710938,18.9518177 18.4321289,18.472987 19.5551758,18.472987 C20.6782227,18.472987 24.671875,18.8823872 25.4858398,18.3335276 C26.2998047,17.784668 26.1748047,17.4405084 26.1748047,15.7786668 C26.1748047,14.1168252 27.5151367,12.4663558 27.5151367,10.9032731 C27.5151367,9.34019027 25.2202148,7.50447329 24.6176758,6.523469 C24.0151367,5.54246472 22.3657227,3.60050718 22.3657227,2.72903541 C22.3657227,1.85756363 18.3994141,0.793661794 16.4511719,0.793661794 C14.5029297,0.793661794 11.3676758,0.680538054 10.2114258,0.37109375 C9.05517578,0.0616494456 4.71484375,-0.0287298387 3.78076172,0.171181956 C2.84667969,0.37109375 0.657714844,3.71452873 0.657714844,3.71452873 Z" id="Path-92" fill="#F5E6E9"></path>
                    <path d="M26.4101562,20.3764648 C26.4101562,20.3764648 18.1894531,11.8663212 16.9511719,10.9415795 C15.7128906,10.0168378 6.16992188,2.54199219 6.16992188,2.54199219 L8.97509766,3.94646232 L18.4042969,10.7554341 L26.4101562,19.0830078 L26.4101562,20.3764648 Z" id="Path-93" fill="#7D4E54"></path>
                    <ellipse id="Oval-3" fill="#7D4E54" cx="15" cy="6.43548387" rx="1" ry="1.53225806"></ellipse>
                    <ellipse id="Oval-9" fill="#7D4E54" cx="7" cy="3.98387097" rx="2" ry="0.306451613"></ellipse>
                    <ellipse id="Oval-9" fill="#7D4E54" cx="10" cy="7.35483871" rx="2" ry="0.612903226"></ellipse>
                    <ellipse id="Oval-4" fill="#7D4E54" transform="translate(18.523650, 10.282711) rotate(24.000000) translate(-18.523650, -10.282711) " cx="18.5236504" cy="10.282711" rx="1" ry="0.919354839"></ellipse>
                    <ellipse id="Oval-4" fill="#7D4E54" transform="translate(8.523650, 2.927872) rotate(24.000000) translate(-8.523650, -2.927872) " cx="8.52365042" cy="2.92787231" rx="1" ry="0.919354839"></ellipse>
                    <ellipse id="Oval-5" fill="#7D4E54" cx="18.5" cy="14.0967742" rx="1.5" ry="0.612903226"></ellipse>
                    <ellipse id="Oval-6" fill="#7D4E54" transform="translate(17.971670, 6.876044) rotate(18.000000) translate(-17.971670, -6.876044) " cx="17.9716697" cy="6.87604366" rx="1.5" ry="3.06451613"></ellipse>
                    <ellipse id="Oval-6" fill="#7D4E54" transform="translate(21.971670, 10.553463) rotate(18.000000) translate(-21.971670, -10.553463) " cx="21.9716697" cy="10.553463" rx="1.5" ry="3.06451613"></ellipse>
                    <ellipse id="Oval-6" fill="#7D4E54" transform="translate(23.971670, 13.617979) rotate(18.000000) translate(-23.971670, -13.617979) " cx="23.9716697" cy="13.6179791" rx="1.5" ry="3.06451613"></ellipse>
                    <ellipse id="Oval-6" fill="#7D4E54" transform="translate(12.508144, 4.162976) rotate(6.000000) translate(-12.508144, -4.162976) " cx="12.5081443" cy="4.16297557" rx="1.5" ry="2.14516129"></ellipse>
                    <ellipse id="Oval-6" fill="#7D4E54" transform="translate(18.220081, 15.871935) rotate(-73.000000) translate(-18.220081, -15.871935) " cx="18.2200813" cy="15.8719354" rx="1.5" ry="3.06451613"></ellipse>
                    <ellipse id="Oval-6" fill="#7D4E54" transform="translate(15.220081, 12.194516) rotate(-73.000000) translate(-15.220081, -12.194516) " cx="15.2200813" cy="12.194516" rx="1.5" ry="3.06451613"></ellipse>
                    <ellipse id="Oval-6" fill="#7D4E54" transform="translate(11.741929, 9.653305) rotate(-73.000000) translate(-11.741929, -9.653305) " cx="11.741929" cy="9.65330536" rx="1.5" ry="2.75806452"></ellipse>
                    <ellipse id="Oval-6" fill="#7D4E54" transform="translate(7.263777, 5.886288) rotate(-73.000000) translate(-7.263777, -5.886288) " cx="7.26377658" cy="5.88628823" rx="1.5" ry="2.4516129"></ellipse>
                </g>
                <g id="Group-11" transform="translate(37.477676, 26.867486) scale(-1, 1) rotate(29.000000) translate(-37.477676, -26.867486) translate(24.977676, 13.367486)">
                    <path d="M0.595770093,5.27854083 C0.595770093,5.27854083 -0.117207925,6.74404612 0.472812346,8.6671497 C1.06283262,10.5902533 3.15576809,14.0107579 3.15576809,15.1266854 C3.15576809,16.2426128 3.04254081,19.4228358 3.98153109,20.0607516 C4.92052137,20.6986675 8.34962718,21.1192666 8.85163094,22.0974042 C9.35363469,23.0755418 10.3850644,26.9315304 12.3806952,26.9315304 C14.376326,26.9315304 16.6961583,26.2510868 17.7134346,26.2510868 C18.730711,26.2510868 22.3482341,26.8328661 23.0855382,26.0529076 C23.8228424,25.2729492 23.7096152,24.7838804 23.7096152,22.422316 C23.7096152,20.0607516 24.9237123,17.7153478 24.9237123,15.4941249 C24.9237123,13.272902 22.8449303,10.6642515 22.2991394,9.27019279 C21.7533485,7.87613407 20.2592792,5.11651021 20.2592792,3.87810295 C20.2592792,2.63969569 16.6665246,1.12783518 14.9017713,1.12783518 C13.137018,1.12783518 10.2970479,0.967080393 9.24969559,0.52734375 C8.20234326,0.0876071069 4.2707914,-0.0408266129 3.42468287,0.243258569 C2.57857435,0.52734375 0.595770093,5.27854083 0.595770093,5.27854083 Z" id="Path-92" fill="#DEBBC1"></path>
                    <path d="M22.2781776,26.7014588 C22.2781776,26.7014588 16.4763382,16.862667 15.3546804,15.5485604 C14.2330227,14.2344538 5.58882769,3.61230469 5.58882769,3.61230469 L8.12980704,5.60813067 L16.6709476,15.2840379 L23.3317356,26.117462 L22.2781776,26.7014588 Z" id="Path-93" fill="#2D040A"></path>
                    <ellipse id="Oval-3" fill="#7D4E54" cx="13.5872734" cy="9.14516129" rx="0.905818226" ry="2.17741935"></ellipse>
                    <ellipse id="Oval-9" fill="#7D4E54" cx="6.34072758" cy="5.66129032" rx="1.81163645" ry="0.435483871"></ellipse>
                    <ellipse id="Oval-9" fill="#7D4E54" cx="9.05818226" cy="10.4516129" rx="1.81163645" ry="0.870967742"></ellipse>
                    <ellipse id="Oval-4" fill="#7D4E54" transform="translate(16.779060, 14.612274) rotate(24.000000) translate(-16.779060, -14.612274) " cx="16.7790602" cy="14.6122736" rx="0.905818226" ry="1.30645161"></ellipse>
                    <ellipse id="Oval-4" fill="#7D4E54" transform="translate(7.720878, 4.160661) rotate(24.000000) translate(-7.720878, -4.160661) " cx="7.72087791" cy="4.16066066" rx="0.905818226" ry="1.30645161"></ellipse>
                    <ellipse id="Oval-5" fill="#7D4E54" cx="16.7576372" cy="20.0322581" rx="1.35872734" ry="0.870967742"></ellipse>
                    <ellipse id="Oval-6" fill="#7D4E54" transform="translate(16.279066, 9.771220) rotate(18.000000) translate(-16.279066, -9.771220) " cx="16.279066" cy="9.77121993" rx="1.35872734" ry="4.35483871"></ellipse>
                    <ellipse id="Oval-6" fill="#7D4E54" transform="translate(19.902339, 14.997026) rotate(18.000000) translate(-19.902339, -14.997026) " cx="19.9023389" cy="14.9970264" rx="1.35872734" ry="4.35483871"></ellipse>
                    <ellipse id="Oval-6" fill="#7D4E54" transform="translate(21.713975, 19.351865) rotate(18.000000) translate(-21.713975, -19.351865) " cx="21.7139754" cy="19.3518651" rx="1.35872734" ry="4.35483871"></ellipse>
                    <ellipse id="Oval-6" fill="#7D4E54" transform="translate(11.330105, 5.915807) rotate(6.000000) translate(-11.330105, -5.915807) " cx="11.330105" cy="5.91580739" rx="1.35872734" ry="3.0483871"></ellipse>
                    <ellipse id="Oval-6" fill="#7D4E54" transform="translate(16.504082, 22.554856) rotate(-73.000000) translate(-16.504082, -22.554856) " cx="16.5040818" cy="22.5548556" rx="1.35872734" ry="4.35483871"></ellipse>
                    <ellipse id="Oval-6" fill="#7D4E54" transform="translate(13.786627, 17.329049) rotate(-73.000000) translate(-13.786627, -17.329049) " cx="13.7866271" cy="17.3290491" rx="1.35872734" ry="4.35483871"></ellipse>
                    <ellipse id="Oval-6" fill="#7D4E54" transform="translate(10.636053, 13.717855) rotate(-73.000000) translate(-10.636053, -13.717855) " cx="10.6360533" cy="13.717855" rx="1.35872734" ry="3.91935484"></ellipse>
                    <ellipse id="Oval-6" fill="#7D4E54" transform="translate(6.579661, 8.364725) rotate(-73.000000) translate(-6.579661, -8.364725) " cx="6.57966122" cy="8.36472538" rx="1.35872734" ry="3.48387097"></ellipse>
                </g>
                <g id="Group-11" transform="translate(61.500000, 46.000000) scale(-1, 1) translate(-61.500000, -46.000000) translate(51.000000, 41.000000)">
                    <path d="M0.493286133,1.75951361 C0.493286133,1.75951361 -0.0970458984,2.24801537 0.391479492,2.8890499 C0.880004883,3.53008443 2.61291504,4.67025265 2.61291504,5.04222845 C2.61291504,5.41420426 2.51916504,6.4742786 3.29663086,6.68691721 C4.07409668,6.89955582 6.91333008,7.03975554 7.32897949,7.36580141 C7.74462891,7.69184728 8.59863281,8.97717679 10.2509766,8.97717679 C11.9033203,8.97717679 13.8240967,8.75036227 14.6663818,8.75036227 C15.508667,8.75036227 18.5039062,8.94428868 19.1143799,8.68430255 C19.7248535,8.42431641 19.6311035,8.26129347 19.6311035,7.47410534 C19.6311035,6.68691721 20.6363525,5.90511593 20.6363525,5.16470829 C20.6363525,4.42430066 18.9151611,3.5547505 18.4632568,3.09006426 C18.0113525,2.62537802 16.774292,1.7055034 16.774292,1.29270098 C16.774292,0.879898564 13.7995605,0.37594506 12.3383789,0.37594506 C10.8771973,0.37594506 8.52575684,0.322360131 7.65856934,0.17578125 C6.79138184,0.029202369 3.53613281,-0.013608871 2.83557129,0.0810861895 C2.13500977,0.17578125 0.493286133,1.75951361 0.493286133,1.75951361 Z" id="Path-92" fill="#F5E6E9"></path>
                    <path d="M19.7104492,9.61572266 C19.7104492,9.61572266 13.6420898,5.62088899 12.7133789,5.18285345 C11.784668,4.74481792 4.62744141,1.20410156 4.62744141,1.20410156 L6.73132324,1.86937689 L13.8032227,5.09467931 L19.7104492,8.81738281 L19.7104492,9.61572266 Z" id="Path-93" fill="#7D4E54"></path>
                    <ellipse id="Oval-3" fill="#7D4E54" cx="11.25" cy="3.0483871" rx="0.75" ry="0.725806452"></ellipse>
                    <ellipse id="Oval-9" fill="#7D4E54" cx="5.25" cy="1.89516129" rx="1.5" ry="0.153225806"></ellipse>
                    <ellipse id="Oval-9" fill="#7D4E54" cx="7.5" cy="3.48387097" rx="1.5" ry="0.290322581"></ellipse>
                    <ellipse id="Oval-4" fill="#7D4E54" transform="translate(13.866497, 4.929696) rotate(24.000000) translate(-13.866497, -4.929696) " cx="13.8664967" cy="4.86518014" rx="0.75" ry="0.435483871"></ellipse>
                    <ellipse id="Oval-4" fill="#7D4E54" transform="translate(6.366497, 1.445825) rotate(24.000000) translate(-6.366497, -1.445825) " cx="6.36649674" cy="1.38130917" rx="0.75" ry="0.435483871"></ellipse>
                    <ellipse id="Oval-5" fill="#7D4E54" cx="13.875" cy="6.67741935" rx="1.125" ry="0.290322581"></ellipse>
                    <ellipse id="Oval-6" fill="#7D4E54" transform="translate(13.478752, 3.257073) rotate(18.000000) translate(-13.478752, -3.257073) " cx="13.4787523" cy="3.25707331" rx="1.125" ry="1.4516129"></ellipse>
                    <ellipse id="Oval-6" fill="#7D4E54" transform="translate(16.478752, 4.999009) rotate(18.000000) translate(-16.478752, -4.999009) " cx="16.4787523" cy="4.9990088" rx="1.125" ry="1.4516129"></ellipse>
                    <ellipse id="Oval-6" fill="#7D4E54" transform="translate(17.978752, 6.450622) rotate(18.000000) translate(-17.978752, -6.450622) " cx="17.9787523" cy="6.4506217" rx="1.125" ry="1.4516129"></ellipse>
                    <ellipse id="Oval-6" fill="#7D4E54" transform="translate(9.381108, 1.971936) rotate(6.000000) translate(-9.381108, -1.971936) " cx="9.38110819" cy="1.9719358" rx="1.125" ry="1.01612903"></ellipse>
                    <ellipse id="Oval-6" fill="#7D4E54" transform="translate(13.665061, 7.518285) rotate(-73.000000) translate(-13.665061, -7.518285) " cx="13.665061" cy="7.51828519" rx="1.125" ry="1.4516129"></ellipse>
                    <ellipse id="Oval-6" fill="#7D4E54" transform="translate(11.415061, 5.776350) rotate(-73.000000) translate(-11.415061, -5.776350) " cx="11.415061" cy="5.77634971" rx="1.125" ry="1.4516129"></ellipse>
                    <ellipse id="Oval-6" fill="#7D4E54" transform="translate(8.806447, 4.572618) rotate(-73.000000) translate(-8.806447, -4.572618) " cx="8.80644672" cy="4.57261833" rx="1.125" ry="1.30645161"></ellipse>
                    <ellipse id="Oval-6" fill="#7D4E54" transform="translate(5.447832, 2.788242) rotate(-73.000000) translate(-5.447832, -2.788242) " cx="5.44783244" cy="2.78824179" rx="1.125" ry="1.16129032"></ellipse>
                </g>
                <g id="Group-11" transform="translate(65.000000, 11.500000) scale(-1, 1) translate(-65.000000, -11.500000) translate(51.000000, 2.000000)">
                    <path d="M0.657714844,3.71452873 C0.657714844,3.71452873 -0.129394531,4.74581023 0.521972656,6.09910534 C1.17333984,7.45240045 3.48388672,9.85942225 3.48388672,10.6447045 C3.48388672,11.4299868 3.35888672,13.6679215 4.39550781,14.1168252 C5.43212891,14.565729 9.21777344,14.8617061 9.77197266,15.5500252 C10.3261719,16.2383443 11.4648437,18.9518177 13.6679688,18.9518177 C15.8710938,18.9518177 18.4321289,18.472987 19.5551758,18.472987 C20.6782227,18.472987 24.671875,18.8823872 25.4858398,18.3335276 C26.2998047,17.784668 26.1748047,17.4405084 26.1748047,15.7786668 C26.1748047,14.1168252 27.5151367,12.4663558 27.5151367,10.9032731 C27.5151367,9.34019027 25.2202148,7.50447329 24.6176758,6.523469 C24.0151367,5.54246472 22.3657227,3.60050718 22.3657227,2.72903541 C22.3657227,1.85756363 18.3994141,0.793661794 16.4511719,0.793661794 C14.5029297,0.793661794 11.3676758,0.680538054 10.2114258,0.37109375 C9.05517578,0.0616494456 4.71484375,-0.0287298387 3.78076172,0.171181956 C2.84667969,0.37109375 0.657714844,3.71452873 0.657714844,3.71452873 Z" id="Path-92" fill="#EAAFBA"></path>
                    <path d="M24.3061523,18.4682617 C24.3061523,18.4682617 18.1894531,11.8663212 16.9511719,10.9415795 C15.7128906,10.0168378 6.16992188,2.54199219 6.16992188,2.54199219 L8.97509766,3.94646232 L18.4042969,10.7554341 L25.5649414,18.4682617 L24.3061523,18.4682617 Z" id="Path-93" fill="#2D040A"></path>
                    <ellipse id="Oval-3" fill="#7D4E54" cx="15" cy="6.43548387" rx="1" ry="1.53225806"></ellipse>
                    <ellipse id="Oval-9" fill="#7D4E54" cx="7" cy="3.98387097" rx="2" ry="0.306451613"></ellipse>
                    <ellipse id="Oval-9" fill="#7D4E54" cx="10" cy="7.35483871" rx="2" ry="0.612903226"></ellipse>
                    <ellipse id="Oval-4" fill="#7D4E54" transform="translate(18.523650, 10.282711) rotate(24.000000) translate(-18.523650, -10.282711) " cx="18.5236504" cy="10.282711" rx="1" ry="0.919354839"></ellipse>
                    <ellipse id="Oval-4" fill="#7D4E54" transform="translate(8.523650, 2.927872) rotate(24.000000) translate(-8.523650, -2.927872) " cx="8.52365042" cy="2.92787231" rx="1" ry="0.919354839"></ellipse>
                    <ellipse id="Oval-5" fill="#7D4E54" cx="18.5" cy="14.0967742" rx="1.5" ry="0.612903226"></ellipse>
                    <ellipse id="Oval-6" fill="#7D4E54" transform="translate(17.971670, 6.876044) rotate(18.000000) translate(-17.971670, -6.876044) " cx="17.9716697" cy="6.87604366" rx="1.5" ry="3.06451613"></ellipse>
                    <ellipse id="Oval-6" fill="#7D4E54" transform="translate(21.971670, 10.553463) rotate(18.000000) translate(-21.971670, -10.553463) " cx="21.9716697" cy="10.553463" rx="1.5" ry="3.06451613"></ellipse>
                    <ellipse id="Oval-6" fill="#7D4E54" transform="translate(23.971670, 13.617979) rotate(18.000000) translate(-23.971670, -13.617979) " cx="23.9716697" cy="13.6179791" rx="1.5" ry="3.06451613"></ellipse>
                    <ellipse id="Oval-6" fill="#7D4E54" transform="translate(12.508144, 4.162976) rotate(6.000000) translate(-12.508144, -4.162976) " cx="12.5081443" cy="4.16297557" rx="1.5" ry="2.14516129"></ellipse>
                    <ellipse id="Oval-6" fill="#7D4E54" transform="translate(18.220081, 15.871935) rotate(-73.000000) translate(-18.220081, -15.871935) " cx="18.2200813" cy="15.8719354" rx="1.5" ry="3.06451613"></ellipse>
                    <ellipse id="Oval-6" fill="#7D4E54" transform="translate(15.220081, 12.194516) rotate(-73.000000) translate(-15.220081, -12.194516) " cx="15.2200813" cy="12.194516" rx="1.5" ry="3.06451613"></ellipse>
                    <ellipse id="Oval-6" fill="#7D4E54" transform="translate(11.741929, 9.653305) rotate(-73.000000) translate(-11.741929, -9.653305) " cx="11.741929" cy="9.65330536" rx="1.5" ry="2.75806452"></ellipse>
                    <ellipse id="Oval-6" fill="#7D4E54" transform="translate(7.263777, 5.886288) rotate(-73.000000) translate(-7.263777, -5.886288) " cx="7.26377658" cy="5.88628823" rx="1.5" ry="2.4516129"></ellipse>
                </g>
            </g>
        </g>
    </g>
</svg>