<?xml version="1.0" encoding="UTF-8" standalone="no"?>
<svg width="50px" height="100px" viewBox="0 0 50 100" version="1.1" xmlns="http://www.w3.org/2000/svg" xmlns:xlink="http://www.w3.org/1999/xlink">
    <!-- Generator: Sketch 40.3 (33839) - http://www.bohemiancoding.com/sketch -->
    <title>pink_plant_hero</title>
    <desc>Created with Sketch.</desc>
    <defs></defs>
    <g id="Page-1" stroke="none" stroke-width="1" fill="none" fill-rule="evenodd">
        <g id="pink_plant_hero">
            <g id="Group-20" transform="translate(0.000000, 35.000000)">
                <g id="blue_pot" transform="translate(6.822785, 39.294118)">
                    <path d="M0,2.12617762 C0,2.12617762 3.828125,1.76393347e-15 16.7468354,0 C29.6655459,0 33.4936709,2.12617762 33.4936709,2.12617762 L33.4936709,22.5085306 C33.4936709,22.5085306 29.208836,24.344583 16.7468354,24.344583 C4.28483485,24.344583 0,22.5085306 0,22.5085306 L0,2.12617762 Z" id="Rectangle-17" fill="#F8AFA4"></path>
                    <ellipse id="Oval-2" fill="#5C3E23" cx="17.056962" cy="2.47058824" rx="15.1962025" ry="1.85294118"></ellipse>
                    <path d="M0.00025851841,1.85294118 C0.00025851841,1.85294118 -0.131938994,3.83910774 5.582537,4.56132956 C5.58382415,4.58221436 5.59010845,23.7009995 5.582537,23.7127614 C3.72298894,23.7127614 0.00025851841,22.6152918 0.00025851841,22.6152918 L0.00025851841,1.85294118 Z" id="Rectangle-17" fill="#D7958B"></path>
                </g>
                <g id="Group-19">
                    <g id="Group-11" transform="translate(20.856857, 33.914444) rotate(21.000000) translate(-20.856857, -33.914444) translate(14.356857, 30.914444)">
                        <path d="M0.305962285,1.08675841 C0.305962285,1.08675841 -0.0601930256,1.38848008 0.242816394,1.78441317 C0.545825813,2.18034626 1.62066882,2.88456781 1.62066882,3.11431757 C1.62066882,3.34406734 1.56252009,3.99881914 2.04474572,4.13015475 C2.52697136,4.26149036 4.28801486,4.34808431 4.54582272,4.54946558 C4.80363059,4.75084685 5.33332921,5.54472684 6.35820065,5.54472684 C7.38307209,5.54472684 8.57443971,5.40463552 9.09686975,5.40463552 C9.61929978,5.40463552 11.4771064,5.5244136 11.8557546,5.36383393 C12.2344028,5.20325425 12.1762541,5.10256362 12.1762541,4.61635918 C12.1762541,4.13015475 12.799763,3.64727748 12.799763,3.18996689 C12.799763,2.73265629 11.7321886,2.19558119 11.4518935,1.9085691 C11.1715984,1.62155701 10.4043077,1.05339916 10.4043077,0.79843296 C10.4043077,0.54346676 8.5592211,0.232201361 7.65291856,0.232201361 C6.74661603,0.232201361 5.28812766,0.199104787 4.75025187,0.108570772 C4.21237608,0.0180367573 2.19329757,-0.00840547913 1.75877207,0.0500826465 C1.32424656,0.108570772 0.305962285,1.08675841 0.305962285,1.08675841 Z" id="Path-92" fill="#F5E6E9"></path>
                        <path d="M10.631224,5.10203827 C10.631224,5.10203827 8.4615494,3.47172555 7.8855135,3.20117419 C7.3094776,2.93062283 2.87018518,0.743709789 2.87018518,0.743709789 L4.17512454,1.15461514 L8.56149253,3.14671369 L11.0044208,4.9426844 L10.631224,5.10203827 Z" id="Path-93" fill="#7D4E54"></path>
                        <ellipse id="Oval-3" fill="#7D4E54" cx="6.9778481" cy="1.88282732" rx="0.465189873" ry="0.44829222"></ellipse>
                        <ellipse id="Oval-9" fill="#7D4E54" cx="3.25632911" cy="1.1705408" rx="0.930379747" ry="0.0946394687"></ellipse>
                        <ellipse id="Oval-9" fill="#7D4E54" cx="4.65189873" cy="2.15180266" rx="0.930379747" ry="0.179316888"></ellipse>
                        <ellipse id="Oval-4" fill="#7D4E54" transform="translate(8.554781, 3.233619) rotate(24.000000) translate(-8.554781, -3.233619) " cx="8.51997052" cy="3.00259468" rx="0.465189873" ry="0.268975332"></ellipse>
                        <ellipse id="Oval-4" fill="#7D4E54" transform="translate(3.902882, 1.081817) rotate(24.000000) translate(-3.902882, -1.081817) " cx="3.86807178" cy="0.850792028" rx="0.465189873" ry="0.268975332"></ellipse>
                        <ellipse id="Oval-5" fill="#7D4E54" cx="8.60601266" cy="4.12428843" rx="0.69778481" ry="0.179316888"></ellipse>
                        <ellipse id="Oval-6" fill="#7D4E54" transform="translate(8.360239, 2.011722) rotate(18.000000) translate(-8.360239, -2.011722) " cx="8.36023877" cy="2.01172175" rx="0.69778481" ry="0.89658444"></ellipse>
                        <ellipse id="Oval-6" fill="#7D4E54" transform="translate(10.220998, 3.087623) rotate(18.000000) translate(-10.220998, -3.087623) " cx="10.2209983" cy="3.08762308" rx="0.69778481" ry="0.89658444"></ellipse>
                        <ellipse id="Oval-6" fill="#7D4E54" transform="translate(11.151378, 3.984208) rotate(18.000000) translate(-11.151378, -3.984208) " cx="11.151378" cy="3.98420752" rx="0.69778481" ry="0.89658444"></ellipse>
                        <ellipse id="Oval-6" fill="#7D4E54" transform="translate(5.818662, 1.217960) rotate(6.000000) translate(-5.818662, -1.217960) " cx="5.81866204" cy="1.21796034" rx="0.69778481" ry="0.627609108"></ellipse>
                        <ellipse id="Oval-6" fill="#7D4E54" transform="translate(8.475797, 4.643647) rotate(-73.000000) translate(-8.475797, -4.643647) " cx="8.47579733" cy="4.64364674" rx="0.69778481" ry="0.89658444"></ellipse>
                        <ellipse id="Oval-6" fill="#7D4E54" transform="translate(7.080228, 3.567745) rotate(-73.000000) translate(-7.080228, -3.567745) " cx="7.08022771" cy="3.56774541" rx="0.69778481" ry="0.89658444"></ellipse>
                        <ellipse id="Oval-6" fill="#7D4E54" transform="translate(5.462226, 2.824264) rotate(-73.000000) translate(-5.462226, -2.824264) " cx="5.46222645" cy="2.82426426" rx="0.69778481" ry="0.806925996"></ellipse>
                        <ellipse id="Oval-6" fill="#7D4E54" transform="translate(3.379035, 1.722149) rotate(-73.000000) translate(-3.379035, -1.722149) " cx="3.37903531" cy="1.72214934" rx="0.69778481" ry="0.717267552"></ellipse>
                    </g>
                    <g id="Group-11" transform="translate(38.158228, 29.323529) scale(-1, 1) translate(-38.158228, -29.323529) translate(31.658228, 26.323529)">
                        <path d="M0.305962285,1.08675841 C0.305962285,1.08675841 -0.0601930256,1.38848008 0.242816394,1.78441317 C0.545825813,2.18034626 1.62066882,2.88456781 1.62066882,3.11431757 C1.62066882,3.34406734 1.56252009,3.99881914 2.04474572,4.13015475 C2.52697136,4.26149036 4.28801486,4.34808431 4.54582272,4.54946558 C4.80363059,4.75084685 5.33332921,5.54472684 6.35820065,5.54472684 C7.38307209,5.54472684 8.57443971,5.40463552 9.09686975,5.40463552 C9.61929978,5.40463552 11.4771064,5.5244136 11.8557546,5.36383393 C12.2344028,5.20325425 12.1762541,5.10256362 12.1762541,4.61635918 C12.1762541,4.13015475 12.799763,3.64727748 12.799763,3.18996689 C12.799763,2.73265629 11.7321886,2.19558119 11.4518935,1.9085691 C11.1715984,1.62155701 10.4043077,1.05339916 10.4043077,0.79843296 C10.4043077,0.54346676 8.5592211,0.232201361 7.65291856,0.232201361 C6.74661603,0.232201361 5.28812766,0.199104787 4.75025187,0.108570772 C4.21237608,0.0180367573 2.19329757,-0.00840547913 1.75877207,0.0500826465 C1.32424656,0.108570772 0.305962285,1.08675841 0.305962285,1.08675841 Z" id="Path-92" fill="#F5E6E9"></path>
                        <path d="M10.631224,5.10203827 C10.631224,5.10203827 8.4615494,3.47172555 7.8855135,3.20117419 C7.3094776,2.93062283 2.87018518,0.743709789 2.87018518,0.743709789 L4.17512454,1.15461514 L8.56149253,3.14671369 L11.0044208,4.9426844 L10.631224,5.10203827 Z" id="Path-93" fill="#7D4E54"></path>
                        <ellipse id="Oval-3" fill="#7D4E54" cx="6.9778481" cy="1.88282732" rx="0.465189873" ry="0.44829222"></ellipse>
                        <ellipse id="Oval-9" fill="#7D4E54" cx="3.25632911" cy="1.1705408" rx="0.930379747" ry="0.0946394687"></ellipse>
                        <ellipse id="Oval-9" fill="#7D4E54" cx="4.65189873" cy="2.15180266" rx="0.930379747" ry="0.179316888"></ellipse>
                        <ellipse id="Oval-4" fill="#7D4E54" transform="translate(8.554781, 3.233619) rotate(24.000000) translate(-8.554781, -3.233619) " cx="8.51997052" cy="3.00259468" rx="0.465189873" ry="0.268975332"></ellipse>
                        <ellipse id="Oval-4" fill="#7D4E54" transform="translate(3.902882, 1.081817) rotate(24.000000) translate(-3.902882, -1.081817) " cx="3.86807178" cy="0.850792028" rx="0.465189873" ry="0.268975332"></ellipse>
                        <ellipse id="Oval-5" fill="#7D4E54" cx="8.60601266" cy="4.12428843" rx="0.69778481" ry="0.179316888"></ellipse>
                        <ellipse id="Oval-6" fill="#7D4E54" transform="translate(8.360239, 2.011722) rotate(18.000000) translate(-8.360239, -2.011722) " cx="8.36023877" cy="2.01172175" rx="0.69778481" ry="0.89658444"></ellipse>
                        <ellipse id="Oval-6" fill="#7D4E54" transform="translate(10.220998, 3.087623) rotate(18.000000) translate(-10.220998, -3.087623) " cx="10.2209983" cy="3.08762308" rx="0.69778481" ry="0.89658444"></ellipse>
                        <ellipse id="Oval-6" fill="#7D4E54" transform="translate(11.151378, 3.984208) rotate(18.000000) translate(-11.151378, -3.984208) " cx="11.151378" cy="3.98420752" rx="0.69778481" ry="0.89658444"></ellipse>
                        <ellipse id="Oval-6" fill="#7D4E54" transform="translate(5.818662, 1.217960) rotate(6.000000) translate(-5.818662, -1.217960) " cx="5.81866204" cy="1.21796034" rx="0.69778481" ry="0.627609108"></ellipse>
                        <ellipse id="Oval-6" fill="#7D4E54" transform="translate(8.475797, 4.643647) rotate(-73.000000) translate(-8.475797, -4.643647) " cx="8.47579733" cy="4.64364674" rx="0.69778481" ry="0.89658444"></ellipse>
                        <ellipse id="Oval-6" fill="#7D4E54" transform="translate(7.080228, 3.567745) rotate(-73.000000) translate(-7.080228, -3.567745) " cx="7.08022771" cy="3.56774541" rx="0.69778481" ry="0.89658444"></ellipse>
                        <ellipse id="Oval-6" fill="#7D4E54" transform="translate(5.462226, 2.824264) rotate(-73.000000) translate(-5.462226, -2.824264) " cx="5.46222645" cy="2.82426426" rx="0.69778481" ry="0.806925996"></ellipse>
                        <ellipse id="Oval-6" fill="#7D4E54" transform="translate(3.379035, 1.722149) rotate(-73.000000) translate(-3.379035, -1.722149) " cx="3.37903531" cy="1.72214934" rx="0.69778481" ry="0.717267552"></ellipse>
                    </g>
                    <polygon id="Path-87" fill="#2D040A" points="20.3290398 41.2079791 20.8881156 41.3687241 17.3882887 11.6188247 16.7928699 12.0745203"></polygon>
                    <g id="Group-11" transform="translate(28.880542, 36.385032) scale(-1, 1) rotate(21.000000) translate(-28.880542, -36.385032) translate(22.380542, 33.385032)">
                        <path d="M0.305962285,1.08675841 C0.305962285,1.08675841 -0.0601930256,1.38848008 0.242816394,1.78441317 C0.545825813,2.18034626 1.62066882,2.88456781 1.62066882,3.11431757 C1.62066882,3.34406734 1.56252009,3.99881914 2.04474572,4.13015475 C2.52697136,4.26149036 4.28801486,4.34808431 4.54582272,4.54946558 C4.80363059,4.75084685 5.33332921,5.54472684 6.35820065,5.54472684 C7.38307209,5.54472684 8.57443971,5.40463552 9.09686975,5.40463552 C9.61929978,5.40463552 11.4771064,5.5244136 11.8557546,5.36383393 C12.2344028,5.20325425 12.1762541,5.10256362 12.1762541,4.61635918 C12.1762541,4.13015475 12.799763,3.64727748 12.799763,3.18996689 C12.799763,2.73265629 11.7321886,2.19558119 11.4518935,1.9085691 C11.1715984,1.62155701 10.4043077,1.05339916 10.4043077,0.79843296 C10.4043077,0.54346676 8.5592211,0.232201361 7.65291856,0.232201361 C6.74661603,0.232201361 5.28812766,0.199104787 4.75025187,0.108570772 C4.21237608,0.0180367573 2.19329757,-0.00840547913 1.75877207,0.0500826465 C1.32424656,0.108570772 0.305962285,1.08675841 0.305962285,1.08675841 Z" id="Path-92" fill="#EEB4BF"></path>
                        <path d="M11.9212263,5.34012825 C11.9212263,5.34012825 8.4615494,3.47172555 7.8855135,3.20117419 C7.3094776,2.93062283 2.87018518,0.743709789 2.87018518,0.743709789 L4.17512454,1.15461514 L8.56149253,3.14671369 L12.2378977,5.21908025 L11.9212263,5.34012825 Z" id="Path-93" fill="#7D4E54"></path>
                        <ellipse id="Oval-3" fill="#7D4E54" cx="6.9778481" cy="1.88282732" rx="0.465189873" ry="0.44829222"></ellipse>
                        <ellipse id="Oval-9" fill="#7D4E54" cx="3.25632911" cy="1.1705408" rx="0.930379747" ry="0.0946394687"></ellipse>
                        <ellipse id="Oval-9" fill="#7D4E54" cx="4.65189873" cy="2.15180266" rx="0.930379747" ry="0.179316888"></ellipse>
                        <ellipse id="Oval-4" fill="#7D4E54" transform="translate(8.554781, 3.233619) rotate(24.000000) translate(-8.554781, -3.233619) " cx="8.51997052" cy="3.00259468" rx="0.465189873" ry="0.268975332"></ellipse>
                        <ellipse id="Oval-4" fill="#7D4E54" transform="translate(3.902882, 1.081817) rotate(24.000000) translate(-3.902882, -1.081817) " cx="3.86807178" cy="0.850792028" rx="0.465189873" ry="0.268975332"></ellipse>
                        <ellipse id="Oval-5" fill="#7D4E54" cx="8.60601266" cy="4.12428843" rx="0.69778481" ry="0.179316888"></ellipse>
                        <ellipse id="Oval-6" fill="#7D4E54" transform="translate(8.360239, 2.011722) rotate(18.000000) translate(-8.360239, -2.011722) " cx="8.36023877" cy="2.01172175" rx="0.69778481" ry="0.89658444"></ellipse>
                        <ellipse id="Oval-6" fill="#7D4E54" transform="translate(10.220998, 3.087623) rotate(18.000000) translate(-10.220998, -3.087623) " cx="10.2209983" cy="3.08762308" rx="0.69778481" ry="0.89658444"></ellipse>
                        <ellipse id="Oval-6" fill="#7D4E54" transform="translate(11.151378, 3.984208) rotate(18.000000) translate(-11.151378, -3.984208) " cx="11.151378" cy="3.98420752" rx="0.69778481" ry="0.89658444"></ellipse>
                        <ellipse id="Oval-6" fill="#7D4E54" transform="translate(5.818662, 1.217960) rotate(6.000000) translate(-5.818662, -1.217960) " cx="5.81866204" cy="1.21796034" rx="0.69778481" ry="0.627609108"></ellipse>
                        <ellipse id="Oval-6" fill="#7D4E54" transform="translate(8.475797, 4.643647) rotate(-73.000000) translate(-8.475797, -4.643647) " cx="8.47579733" cy="4.64364674" rx="0.69778481" ry="0.89658444"></ellipse>
                        <ellipse id="Oval-6" fill="#7D4E54" transform="translate(7.080228, 3.567745) rotate(-73.000000) translate(-7.080228, -3.567745) " cx="7.08022771" cy="3.56774541" rx="0.69778481" ry="0.89658444"></ellipse>
                        <ellipse id="Oval-6" fill="#7D4E54" transform="translate(5.462226, 2.824264) rotate(-73.000000) translate(-5.462226, -2.824264) " cx="5.46222645" cy="2.82426426" rx="0.69778481" ry="0.806925996"></ellipse>
                        <ellipse id="Oval-6" fill="#7D4E54" transform="translate(3.379035, 1.722149) rotate(-73.000000) translate(-3.379035, -1.722149) " cx="3.37903531" cy="1.72214934" rx="0.69778481" ry="0.717267552"></ellipse>
                    </g>
                    <polygon id="Path-88" fill="#2D040A" points="26.1460332 41.0255199 33.5696882 11.6541102 34.5691196 11.3452866 26.6911776 41.4212"></polygon>
                    <polygon id="Path-89" fill="#2D040A" points="29.6155743 41.2122013 32.4993881 29.986285 33.2232187 29.986285 30.3693879 41.0782973"></polygon>
                    <polygon id="Path-90" fill="#2D040A" points="18.9776874 41.260455 13.919959 29.3816062 14.5865494 29.3816062 19.5797691 41.3280101"></polygon>
                    <polygon id="Path-91" fill="#2D040A" points="23.0202359 41.8672449 20.9471729 25.7088982 21.691295 25.9501666 23.7265007 41.8437213"></polygon>
                    <g id="Group-11" transform="translate(0.000000, 10.882353)">
                        <path d="M0.407949713,3.74327895 C0.407949713,3.74327895 -0.0802573675,4.78254251 0.323755192,6.14631204 C0.727767751,7.51008157 2.16089176,9.93573357 2.16089176,10.7270939 C2.16089176,11.5184542 2.08336012,13.7737104 2.72632763,14.2260886 C3.36929514,14.6784668 5.71735314,14.9767348 6.06109696,15.6703814 C6.40484078,16.364028 7.11110562,19.0985036 8.47760087,19.0985036 C9.84409612,19.0985036 11.4325863,18.6159668 12.1291597,18.6159668 C12.825733,18.6159668 15.3028085,19.0285357 15.8076728,18.475428 C16.3125371,17.9223202 16.2350054,17.5754969 16.2350054,15.9007927 C16.2350054,14.2260886 17.0663506,12.5628447 17.0663506,10.9876637 C17.0663506,9.41248277 15.6429181,7.56255744 15.2691913,6.57396025 C14.8954645,5.58536305 13.8724103,3.62837489 13.8724103,2.75015797 C13.8724103,1.87194106 11.4122948,0.799804688 10.2038914,0.799804688 C8.99548803,0.799804688 7.05083688,0.685805377 6.33366916,0.373965993 C5.61650143,0.0621266085 2.92439676,-0.0289522059 2.34502942,0.172506893 C1.76566208,0.373965993 0.407949713,3.74327895 0.407949713,3.74327895 Z" id="Path-92" fill="#D99BA7"></path>
                        <path d="M14.3160972,19.2109949 C14.3160972,19.2109949 11.2820659,11.9581658 10.514018,11.0262667 C9.74597013,10.0943675 3.82691357,2.56166705 3.82691357,2.56166705 L5.56683272,3.9770077 L11.4153234,10.8386805 L14.8579102,18.8358226 L14.3160972,19.2109949 Z" id="Path-93" fill="#2D040A"></path>
                        <ellipse id="Oval-3" fill="#7D4E54" cx="9.30379747" cy="6.48529412" rx="0.620253165" ry="1.54411765"></ellipse>
                        <ellipse id="Oval-9" fill="#7D4E54" cx="4.34177215" cy="4.01470588" rx="1.24050633" ry="0.308823529"></ellipse>
                        <ellipse id="Oval-9" fill="#7D4E54" cx="6.20253165" cy="7.41176471" rx="1.24050633" ry="0.617647059"></ellipse>
                        <ellipse id="Oval-4" fill="#7D4E54" transform="translate(11.489353, 10.362299) rotate(24.000000) translate(-11.489353, -10.362299) " cx="11.4893528" cy="10.3622986" rx="0.620253165" ry="0.926470588"></ellipse>
                        <ellipse id="Oval-4" fill="#7D4E54" transform="translate(5.286821, 2.950534) rotate(24.000000) translate(-5.286821, -2.950534) " cx="5.28682115" cy="2.95053387" rx="0.620253165" ry="0.926470588"></ellipse>
                        <ellipse id="Oval-5" fill="#7D4E54" cx="11.4746835" cy="14.2058824" rx="0.930379747" ry="0.617647059"></ellipse>
                        <ellipse id="Oval-6" fill="#7D4E54" transform="translate(11.146985, 6.929264) rotate(18.000000) translate(-11.146985, -6.929264) " cx="11.146985" cy="6.92926381" rx="0.930379747" ry="3.08823529"></ellipse>
                        <ellipse id="Oval-6" fill="#7D4E54" transform="translate(13.627998, 10.635146) rotate(18.000000) translate(-13.627998, -10.635146) " cx="13.6279977" cy="10.6351462" rx="0.930379747" ry="3.08823529"></ellipse>
                        <ellipse id="Oval-6" fill="#7D4E54" transform="translate(14.868504, 13.723381) rotate(18.000000) translate(-14.868504, -13.723381) " cx="14.868504" cy="13.7233815" rx="0.930379747" ry="3.08823529"></ellipse>
                        <ellipse id="Oval-6" fill="#7D4E54" transform="translate(7.758216, 4.195197) rotate(6.000000) translate(-7.758216, -4.195197) " cx="7.75821606" cy="4.19519674" rx="0.930379747" ry="2.16176471"></ellipse>
                        <ellipse id="Oval-6" fill="#7D4E54" transform="translate(11.301063, 15.994783) rotate(-73.000000) translate(-11.301063, -15.994783) " cx="11.3010631" cy="15.9947832" rx="0.930379747" ry="3.08823529"></ellipse>
                        <ellipse id="Oval-6" fill="#7D4E54" transform="translate(9.440304, 12.288901) rotate(-73.000000) translate(-9.440304, -12.288901) " cx="9.44030361" cy="12.2889008" rx="0.930379747" ry="3.08823529"></ellipse>
                        <ellipse id="Oval-6" fill="#7D4E54" transform="translate(7.282969, 9.728021) rotate(-73.000000) translate(-7.282969, -9.728021) " cx="7.28296859" cy="9.72802135" rx="0.930379747" ry="2.77941176"></ellipse>
                        <ellipse id="Oval-6" fill="#7D4E54" transform="translate(4.505380, 5.931848) rotate(-73.000000) translate(-4.505380, -5.931848) " cx="4.50538041" cy="5.93184774" rx="0.930379747" ry="2.47058824"></ellipse>
                    </g>
                    <g id="Group-11" transform="translate(17.827995, 9.591346) rotate(19.000000) translate(-17.827995, -9.591346) translate(8.827995, 3.591346)">
                        <path d="M0.407949713,2.29426774 C0.407949713,2.29426774 -0.0802573675,2.93123573 0.323755192,3.76709448 C0.727767751,4.60295322 2.16089176,6.08964316 2.16089176,6.57467043 C2.16089176,7.05969771 2.08336012,8.44195151 2.72632763,8.71921558 C3.36929514,8.99647965 5.71735314,9.17928909 6.06109696,9.60442733 C6.40484078,10.0295656 7.11110562,11.7055344 8.47760087,11.7055344 C9.84409612,11.7055344 11.4325863,11.4097861 12.1291597,11.4097861 C12.825733,11.4097861 15.3028085,11.6626509 15.8076728,11.3236494 C16.3125371,10.9846479 16.2350054,10.7720787 16.2350054,9.74564716 C16.2350054,8.71921558 17.0663506,7.69980802 17.0663506,6.73437454 C17.0663506,5.76894105 15.6429181,4.63511585 15.2691913,4.02920144 C14.8954645,3.42328703 13.8724103,2.22384267 13.8724103,1.68558069 C13.8724103,1.14731872 11.4122948,0.490202873 10.2038914,0.490202873 C8.99548803,0.490202873 7.05083688,0.420332328 6.33366916,0.229204963 C5.61650143,0.0380775987 2.92439676,-0.0177449004 2.34502942,0.105730031 C1.76566208,0.229204963 0.407949713,2.29426774 0.407949713,2.29426774 Z" id="Path-92" fill="#F5E6E9"></path>
                        <path d="M14.1749654,10.7709697 C14.1749654,10.7709697 11.2820659,7.32919838 10.514018,6.7580344 C9.74597013,6.18687042 3.82691357,1.570054 3.82691357,1.570054 L5.56683272,2.43752085 L11.4153234,6.64306224 L14.6725611,10.434556 L14.1749654,10.7709697 Z" id="Path-93" fill="#7D4E54"></path>
                        <ellipse id="Oval-3" fill="#7D4E54" cx="9.30379747" cy="3.97485769" rx="0.620253165" ry="0.946394687"></ellipse>
                        <ellipse id="Oval-9" fill="#7D4E54" cx="4.34177215" cy="2.46062619" rx="1.24050633" ry="0.189278937"></ellipse>
                        <ellipse id="Oval-9" fill="#7D4E54" cx="6.20253165" cy="4.5426945" rx="1.24050633" ry="0.378557875"></ellipse>
                        <ellipse id="Oval-4" fill="#7D4E54" transform="translate(11.489353, 6.351086) rotate(24.000000) translate(-11.489353, -6.351086) " cx="11.4893528" cy="6.35108622" rx="0.620253165" ry="0.567836812"></ellipse>
                        <ellipse id="Oval-4" fill="#7D4E54" transform="translate(5.286821, 1.808392) rotate(24.000000) translate(-5.286821, -1.808392) " cx="5.28682115" cy="1.80839172" rx="0.620253165" ry="0.567836812"></ellipse>
                        <ellipse id="Oval-5" fill="#7D4E54" cx="11.4746835" cy="8.70683112" rx="0.930379747" ry="0.378557875"></ellipse>
                        <ellipse id="Oval-6" fill="#7D4E54" transform="translate(11.146985, 4.246968) rotate(18.000000) translate(-11.146985, -4.246968) " cx="11.146985" cy="4.24696814" rx="0.930379747" ry="1.89278937"></ellipse>
                        <ellipse id="Oval-6" fill="#7D4E54" transform="translate(13.627998, 6.518315) rotate(18.000000) translate(-13.627998, -6.518315) " cx="13.6279977" cy="6.51831539" rx="0.930379747" ry="1.89278937"></ellipse>
                        <ellipse id="Oval-6" fill="#7D4E54" transform="translate(14.868504, 8.411105) rotate(18.000000) translate(-14.868504, -8.411105) " cx="14.868504" cy="8.41110476" rx="0.930379747" ry="1.89278937"></ellipse>
                        <ellipse id="Oval-6" fill="#7D4E54" transform="translate(7.758216, 2.571250) rotate(6.000000) translate(-7.758216, -2.571250) " cx="7.75821606" cy="2.57124962" rx="0.930379747" ry="1.32495256"></ellipse>
                        <ellipse id="Oval-6" fill="#7D4E54" transform="translate(11.301063, 9.803254) rotate(-73.000000) translate(-11.301063, -9.803254) " cx="11.3010631" cy="9.80325422" rx="0.930379747" ry="1.89278937"></ellipse>
                        <ellipse id="Oval-6" fill="#7D4E54" transform="translate(9.440304, 7.531907) rotate(-73.000000) translate(-9.440304, -7.531907) " cx="9.44030361" cy="7.53190697" rx="0.930379747" ry="1.89278937"></ellipse>
                        <ellipse id="Oval-6" fill="#7D4E54" transform="translate(7.282969, 5.962336) rotate(-73.000000) translate(-7.282969, -5.962336) " cx="7.28296859" cy="5.96233567" rx="0.930379747" ry="1.70351044"></ellipse>
                        <ellipse id="Oval-6" fill="#7D4E54" transform="translate(4.505380, 3.635649) rotate(-73.000000) translate(-4.505380, -3.635649) " cx="4.50538041" cy="3.63564861" rx="0.930379747" ry="1.5142315"></ellipse>
                    </g>
                    <g id="Group-11" transform="translate(36.278481, 21.823529) scale(-1, 1) translate(-36.278481, -21.823529) translate(27.278481, 15.823529)">
                        <path d="M0.407949713,2.29426774 C0.407949713,2.29426774 -0.0802573675,2.93123573 0.323755192,3.76709448 C0.727767751,4.60295322 2.16089176,6.08964316 2.16089176,6.57467043 C2.16089176,7.05969771 2.08336012,8.44195151 2.72632763,8.71921558 C3.36929514,8.99647965 5.71735314,9.17928909 6.06109696,9.60442733 C6.40484078,10.0295656 7.11110562,11.7055344 8.47760087,11.7055344 C9.84409612,11.7055344 11.4325863,11.4097861 12.1291597,11.4097861 C12.825733,11.4097861 15.3028085,11.6626509 15.8076728,11.3236494 C16.3125371,10.9846479 16.2350054,10.7720787 16.2350054,9.74564716 C16.2350054,8.71921558 17.0663506,7.69980802 17.0663506,6.73437454 C17.0663506,5.76894105 15.6429181,4.63511585 15.2691913,4.02920144 C14.8954645,3.42328703 13.8724103,2.22384267 13.8724103,1.68558069 C13.8724103,1.14731872 11.4122948,0.490202873 10.2038914,0.490202873 C8.99548803,0.490202873 7.05083688,0.420332328 6.33366916,0.229204963 C5.61650143,0.0380775987 2.92439676,-0.0177449004 2.34502942,0.105730031 C1.76566208,0.229204963 0.407949713,2.29426774 0.407949713,2.29426774 Z" id="Path-92" fill="#C2A4AA"></path>
                        <path d="M14.1749654,10.7709697 C14.1749654,10.7709697 11.2820659,7.32919838 10.514018,6.7580344 C9.74597013,6.18687042 3.82691357,1.570054 3.82691357,1.570054 L5.56683272,2.43752085 L11.4153234,6.64306224 L14.6725611,10.434556 L14.1749654,10.7709697 Z" id="Path-93" fill="#7D4E54"></path>
                        <ellipse id="Oval-3" fill="#7D4E54" cx="9.30379747" cy="3.97485769" rx="0.620253165" ry="0.946394687"></ellipse>
                        <ellipse id="Oval-9" fill="#7D4E54" cx="4.34177215" cy="2.46062619" rx="1.24050633" ry="0.189278937"></ellipse>
                        <ellipse id="Oval-9" fill="#7D4E54" cx="6.20253165" cy="4.5426945" rx="1.24050633" ry="0.378557875"></ellipse>
                        <ellipse id="Oval-4" fill="#7D4E54" transform="translate(11.489353, 6.351086) rotate(24.000000) translate(-11.489353, -6.351086) " cx="11.4893528" cy="6.35108622" rx="0.620253165" ry="0.567836812"></ellipse>
                        <ellipse id="Oval-4" fill="#7D4E54" transform="translate(5.286821, 1.808392) rotate(24.000000) translate(-5.286821, -1.808392) " cx="5.28682115" cy="1.80839172" rx="0.620253165" ry="0.567836812"></ellipse>
                        <ellipse id="Oval-5" fill="#7D4E54" cx="11.4746835" cy="8.70683112" rx="0.930379747" ry="0.378557875"></ellipse>
                        <ellipse id="Oval-6" fill="#7D4E54" transform="translate(11.146985, 4.246968) rotate(18.000000) translate(-11.146985, -4.246968) " cx="11.146985" cy="4.24696814" rx="0.930379747" ry="1.89278937"></ellipse>
                        <ellipse id="Oval-6" fill="#7D4E54" transform="translate(13.627998, 6.518315) rotate(18.000000) translate(-13.627998, -6.518315) " cx="13.6279977" cy="6.51831539" rx="0.930379747" ry="1.89278937"></ellipse>
                        <ellipse id="Oval-6" fill="#7D4E54" transform="translate(14.868504, 8.411105) rotate(18.000000) translate(-14.868504, -8.411105) " cx="14.868504" cy="8.41110476" rx="0.930379747" ry="1.89278937"></ellipse>
                        <ellipse id="Oval-6" fill="#7D4E54" transform="translate(7.758216, 2.571250) rotate(6.000000) translate(-7.758216, -2.571250) " cx="7.75821606" cy="2.57124962" rx="0.930379747" ry="1.32495256"></ellipse>
                        <ellipse id="Oval-6" fill="#7D4E54" transform="translate(11.301063, 9.803254) rotate(-73.000000) translate(-11.301063, -9.803254) " cx="11.3010631" cy="9.80325422" rx="0.930379747" ry="1.89278937"></ellipse>
                        <ellipse id="Oval-6" fill="#7D4E54" transform="translate(9.440304, 7.531907) rotate(-73.000000) translate(-9.440304, -7.531907) " cx="9.44030361" cy="7.53190697" rx="0.930379747" ry="1.89278937"></ellipse>
                        <ellipse id="Oval-6" fill="#7D4E54" transform="translate(7.282969, 5.962336) rotate(-73.000000) translate(-7.282969, -5.962336) " cx="7.28296859" cy="5.96233567" rx="0.930379747" ry="1.70351044"></ellipse>
                        <ellipse id="Oval-6" fill="#7D4E54" transform="translate(4.505380, 3.635649) rotate(-73.000000) translate(-4.505380, -3.635649) " cx="4.50538041" cy="3.63564861" rx="0.930379747" ry="1.5142315"></ellipse>
                    </g>
                    <g id="Group-11" transform="translate(29.455696, 25.411765) scale(-1, 1) translate(-29.455696, -25.411765) translate(20.455696, 18.911765)">
                        <path d="M0.407949713,2.29426774 C0.407949713,2.29426774 -0.0802573675,2.93123573 0.323755192,3.76709448 C0.727767751,4.60295322 2.16089176,6.08964316 2.16089176,6.57467043 C2.16089176,7.05969771 2.08336012,8.44195151 2.72632763,8.71921558 C3.36929514,8.99647965 5.71735314,9.17928909 6.06109696,9.60442733 C6.40484078,10.0295656 7.11110562,11.7055344 8.47760087,11.7055344 C9.84409612,11.7055344 11.4325863,11.4097861 12.1291597,11.4097861 C12.825733,11.4097861 15.3028085,11.6626509 15.8076728,11.3236494 C16.3125371,10.9846479 16.2350054,10.7720787 16.2350054,9.74564716 C16.2350054,8.71921558 17.0663506,7.69980802 17.0663506,6.73437454 C17.0663506,5.76894105 15.6429181,4.63511585 15.2691913,4.02920144 C14.8954645,3.42328703 13.8724103,2.22384267 13.8724103,1.68558069 C13.8724103,1.14731872 11.4122948,0.490202873 10.2038914,0.490202873 C8.99548803,0.490202873 7.05083688,0.420332328 6.33366916,0.229204963 C5.61650143,0.0380775987 2.92439676,-0.0177449004 2.34502942,0.105730031 C1.76566208,0.229204963 0.407949713,2.29426774 0.407949713,2.29426774 Z" id="Path-92" fill="#F5E6E9"></path>
                        <path d="M16.380983,12.5854636 C16.380983,12.5854636 11.2820659,7.32919838 10.514018,6.7580344 C9.74597013,6.18687042 3.82691357,1.570054 3.82691357,1.570054 L5.56683272,2.43752085 L11.4153234,6.64306224 L16.380983,11.7865636 L16.380983,12.5854636 Z" id="Path-93" fill="#7D4E54"></path>
                        <ellipse id="Oval-3" fill="#7D4E54" cx="9.30379747" cy="3.97485769" rx="0.620253165" ry="0.946394687"></ellipse>
                        <ellipse id="Oval-9" fill="#7D4E54" cx="4.34177215" cy="2.46062619" rx="1.24050633" ry="0.189278937"></ellipse>
                        <ellipse id="Oval-9" fill="#7D4E54" cx="6.20253165" cy="4.5426945" rx="1.24050633" ry="0.378557875"></ellipse>
                        <ellipse id="Oval-4" fill="#7D4E54" transform="translate(11.489353, 6.351086) rotate(24.000000) translate(-11.489353, -6.351086) " cx="11.4893528" cy="6.35108622" rx="0.620253165" ry="0.567836812"></ellipse>
                        <ellipse id="Oval-4" fill="#7D4E54" transform="translate(5.286821, 1.808392) rotate(24.000000) translate(-5.286821, -1.808392) " cx="5.28682115" cy="1.80839172" rx="0.620253165" ry="0.567836812"></ellipse>
                        <ellipse id="Oval-5" fill="#7D4E54" cx="11.4746835" cy="8.70683112" rx="0.930379747" ry="0.378557875"></ellipse>
                        <ellipse id="Oval-6" fill="#7D4E54" transform="translate(11.146985, 4.246968) rotate(18.000000) translate(-11.146985, -4.246968) " cx="11.146985" cy="4.24696814" rx="0.930379747" ry="1.89278937"></ellipse>
                        <ellipse id="Oval-6" fill="#7D4E54" transform="translate(13.627998, 6.518315) rotate(18.000000) translate(-13.627998, -6.518315) " cx="13.6279977" cy="6.51831539" rx="0.930379747" ry="1.89278937"></ellipse>
                        <ellipse id="Oval-6" fill="#7D4E54" transform="translate(14.868504, 8.411105) rotate(18.000000) translate(-14.868504, -8.411105) " cx="14.868504" cy="8.41110476" rx="0.930379747" ry="1.89278937"></ellipse>
                        <ellipse id="Oval-6" fill="#7D4E54" transform="translate(7.758216, 2.571250) rotate(6.000000) translate(-7.758216, -2.571250) " cx="7.75821606" cy="2.57124962" rx="0.930379747" ry="1.32495256"></ellipse>
                        <ellipse id="Oval-6" fill="#7D4E54" transform="translate(11.301063, 9.803254) rotate(-73.000000) translate(-11.301063, -9.803254) " cx="11.3010631" cy="9.80325422" rx="0.930379747" ry="1.89278937"></ellipse>
                        <ellipse id="Oval-6" fill="#7D4E54" transform="translate(9.440304, 7.531907) rotate(-73.000000) translate(-9.440304, -7.531907) " cx="9.44030361" cy="7.53190697" rx="0.930379747" ry="1.89278937"></ellipse>
                        <ellipse id="Oval-6" fill="#7D4E54" transform="translate(7.282969, 5.962336) rotate(-73.000000) translate(-7.282969, -5.962336) " cx="7.28296859" cy="5.96233567" rx="0.930379747" ry="1.70351044"></ellipse>
                        <ellipse id="Oval-6" fill="#7D4E54" transform="translate(4.505380, 3.635649) rotate(-73.000000) translate(-4.505380, -3.635649) " cx="4.50538041" cy="3.63564861" rx="0.930379747" ry="1.5142315"></ellipse>
                    </g>
                    <g id="Group-11" transform="translate(23.108185, 17.855775) scale(-1, 1) rotate(29.000000) translate(-23.108185, -17.855775) translate(15.108185, 9.355775)">
                        <path d="M0.369528286,3.26027522 C0.369528286,3.26027522 -0.0726985863,4.16544025 0.293263354,5.35323952 C0.659225293,6.54103879 1.95737514,8.65370343 1.95737514,9.34295272 C1.95737514,10.032202 1.88714557,11.9964574 2.46955726,12.3904642 C3.05196895,12.7844711 5.17888268,13.0442529 5.4902521,13.6483967 C5.80162152,14.2525405 6.44136908,16.6341805 7.67916538,16.6341805 C8.91696169,16.6341805 10.355845,16.2139066 10.9868139,16.2139066 C11.6177828,16.2139066 13.8615629,16.5732408 14.3188781,16.0915018 C14.7761934,15.6097628 14.7059638,15.3076908 14.7059638,13.8490775 C14.7059638,12.3904642 15.4590114,10.9418325 15.4590114,9.56990066 C15.4590114,8.19796886 14.1696403,6.58674358 13.8311118,5.72570731 C13.4925833,4.86467104 12.5658821,3.16019748 12.5658821,2.39529888 C12.5658821,1.63040028 10.3374646,0.696604083 9.24287082,0.696604083 C8.14827701,0.696604083 6.38677655,0.59731436 5.73715296,0.325712316 C5.08752937,0.0541102719 2.64897188,-0.0252164374 2.12417039,0.150247939 C1.5993689,0.325712316 0.369528286,3.26027522 0.369528286,3.26027522 Z" id="Path-92" fill="#DEBBC1"></path>
                        <path d="M13.8181102,16.4920775 C13.8181102,16.4920775 10.2195009,10.4151767 9.52378913,9.60352257 C8.82807738,8.7918685 3.46648806,2.23112937 3.46648806,2.23112937 L5.04253854,3.46384541 L10.340208,9.44014107 L14.4715829,16.1313736 L13.8181102,16.4920775 Z" id="Path-93" fill="#2D040A"></path>
                        <ellipse id="Oval-3" fill="#7D4E54" cx="8.42754932" cy="5.64848197" rx="0.561836621" ry="1.34487666"></ellipse>
                        <ellipse id="Oval-9" fill="#7D4E54" cx="3.93285635" cy="3.49667932" rx="1.12367324" ry="0.268975332"></ellipse>
                        <ellipse id="Oval-9" fill="#7D4E54" cx="5.61836621" cy="6.45540797" rx="1.12367324" ry="0.537950664"></ellipse>
                        <ellipse id="Oval-4" fill="#7D4E54" transform="translate(10.407265, 9.025228) rotate(24.000000) translate(-10.407265, -9.025228) " cx="10.4072652" cy="9.02522779" rx="0.561836621" ry="0.806925996"></ellipse>
                        <ellipse id="Oval-4" fill="#7D4E54" transform="translate(4.788899, 2.569820) rotate(24.000000) translate(-4.788899, -2.569820) " cx="4.78889895" cy="2.56981982" rx="0.561836621" ry="0.806925996"></ellipse>
                        <ellipse id="Oval-5" fill="#7D4E54" cx="10.3939775" cy="12.3728653" rx="0.842754932" ry="0.537950664"></ellipse>
                        <ellipse id="Oval-6" fill="#7D4E54" transform="translate(10.097142, 6.035165) rotate(18.000000) translate(-10.097142, -6.035165) " cx="10.0971422" cy="6.03516525" rx="0.842754932" ry="2.68975332"></ellipse>
                        <ellipse id="Oval-6" fill="#7D4E54" transform="translate(12.344489, 9.262869) rotate(18.000000) translate(-12.344489, -9.262869) " cx="12.3444887" cy="9.26286924" rx="0.842754932" ry="2.68975332"></ellipse>
                        <ellipse id="Oval-6" fill="#7D4E54" transform="translate(13.468162, 11.952623) rotate(18.000000) translate(-13.468162, -11.952623) " cx="13.4681619" cy="11.9526226" rx="0.842754932" ry="2.68975332"></ellipse>
                        <ellipse id="Oval-6" fill="#7D4E54" transform="translate(7.027534, 3.653881) rotate(6.000000) translate(-7.027534, -3.653881) " cx="7.02753351" cy="3.65388103" rx="0.842754932" ry="1.88282732"></ellipse>
                        <ellipse id="Oval-6" fill="#7D4E54" transform="translate(10.236709, 13.930940) rotate(-73.000000) translate(-10.236709, -13.930940) " cx="10.2367089" cy="13.9309402" rx="0.842754932" ry="2.68975332"></ellipse>
                        <ellipse id="Oval-6" fill="#7D4E54" transform="translate(8.551199, 10.703236) rotate(-73.000000) translate(-8.551199, -10.703236) " cx="8.55119907" cy="10.7032362" rx="0.842754932" ry="2.68975332"></ellipse>
                        <ellipse id="Oval-6" fill="#7D4E54" transform="translate(6.597046, 8.472793) rotate(-73.000000) translate(-6.597046, -8.472793) " cx="6.59704569" cy="8.47279279" rx="0.842754932" ry="2.42077799"></ellipse>
                        <ellipse id="Oval-6" fill="#7D4E54" transform="translate(4.081056, 5.166448) rotate(-73.000000) translate(-4.081056, -5.166448) " cx="4.08105569" cy="5.16644803" rx="0.842754932" ry="2.15180266"></ellipse>
                    </g>
                    <g id="Group-11" transform="translate(38.158228, 29.323529) scale(-1, 1) translate(-38.158228, -29.323529) translate(31.658228, 26.323529)">
                        <path d="M0.305962285,1.08675841 C0.305962285,1.08675841 -0.0601930256,1.38848008 0.242816394,1.78441317 C0.545825813,2.18034626 1.62066882,2.88456781 1.62066882,3.11431757 C1.62066882,3.34406734 1.56252009,3.99881914 2.04474572,4.13015475 C2.52697136,4.26149036 4.28801486,4.34808431 4.54582272,4.54946558 C4.80363059,4.75084685 5.33332921,5.54472684 6.35820065,5.54472684 C7.38307209,5.54472684 8.57443971,5.40463552 9.09686975,5.40463552 C9.61929978,5.40463552 11.4771064,5.5244136 11.8557546,5.36383393 C12.2344028,5.20325425 12.1762541,5.10256362 12.1762541,4.61635918 C12.1762541,4.13015475 12.799763,3.64727748 12.799763,3.18996689 C12.799763,2.73265629 11.7321886,2.19558119 11.4518935,1.9085691 C11.1715984,1.62155701 10.4043077,1.05339916 10.4043077,0.79843296 C10.4043077,0.54346676 8.5592211,0.232201361 7.65291856,0.232201361 C6.74661603,0.232201361 5.28812766,0.199104787 4.75025187,0.108570772 C4.21237608,0.0180367573 2.19329757,-0.00840547913 1.75877207,0.0500826465 C1.32424656,0.108570772 0.305962285,1.08675841 0.305962285,1.08675841 Z" id="Path-92" fill="#F5E6E9"></path>
                        <path d="M12.2254685,5.93912282 C12.2254685,5.93912282 8.4615494,3.47172555 7.8855135,3.20117419 C7.3094776,2.93062283 2.87018518,0.743709789 2.87018518,0.743709789 L4.17512454,1.15461514 L8.56149253,3.14671369 L12.2254685,5.44603056 L12.2254685,5.93912282 Z" id="Path-93" fill="#7D4E54"></path>
                        <ellipse id="Oval-3" fill="#7D4E54" cx="6.9778481" cy="1.88282732" rx="0.465189873" ry="0.44829222"></ellipse>
                        <ellipse id="Oval-9" fill="#7D4E54" cx="3.25632911" cy="1.1705408" rx="0.930379747" ry="0.0946394687"></ellipse>
                        <ellipse id="Oval-9" fill="#7D4E54" cx="4.65189873" cy="2.15180266" rx="0.930379747" ry="0.179316888"></ellipse>
                        <ellipse id="Oval-4" fill="#7D4E54" transform="translate(8.554781, 3.233619) rotate(24.000000) translate(-8.554781, -3.233619) " cx="8.51997052" cy="3.00259468" rx="0.465189873" ry="0.268975332"></ellipse>
                        <ellipse id="Oval-4" fill="#7D4E54" transform="translate(3.902882, 1.081817) rotate(24.000000) translate(-3.902882, -1.081817) " cx="3.86807178" cy="0.850792028" rx="0.465189873" ry="0.268975332"></ellipse>
                        <ellipse id="Oval-5" fill="#7D4E54" cx="8.60601266" cy="4.12428843" rx="0.69778481" ry="0.179316888"></ellipse>
                        <ellipse id="Oval-6" fill="#7D4E54" transform="translate(8.360239, 2.011722) rotate(18.000000) translate(-8.360239, -2.011722) " cx="8.36023877" cy="2.01172175" rx="0.69778481" ry="0.89658444"></ellipse>
                        <ellipse id="Oval-6" fill="#7D4E54" transform="translate(10.220998, 3.087623) rotate(18.000000) translate(-10.220998, -3.087623) " cx="10.2209983" cy="3.08762308" rx="0.69778481" ry="0.89658444"></ellipse>
                        <ellipse id="Oval-6" fill="#7D4E54" transform="translate(11.151378, 3.984208) rotate(18.000000) translate(-11.151378, -3.984208) " cx="11.151378" cy="3.98420752" rx="0.69778481" ry="0.89658444"></ellipse>
                        <ellipse id="Oval-6" fill="#7D4E54" transform="translate(5.818662, 1.217960) rotate(6.000000) translate(-5.818662, -1.217960) " cx="5.81866204" cy="1.21796034" rx="0.69778481" ry="0.627609108"></ellipse>
                        <ellipse id="Oval-6" fill="#7D4E54" transform="translate(8.475797, 4.643647) rotate(-73.000000) translate(-8.475797, -4.643647) " cx="8.47579733" cy="4.64364674" rx="0.69778481" ry="0.89658444"></ellipse>
                        <ellipse id="Oval-6" fill="#7D4E54" transform="translate(7.080228, 3.567745) rotate(-73.000000) translate(-7.080228, -3.567745) " cx="7.08022771" cy="3.56774541" rx="0.69778481" ry="0.89658444"></ellipse>
                        <ellipse id="Oval-6" fill="#7D4E54" transform="translate(5.462226, 2.824264) rotate(-73.000000) translate(-5.462226, -2.824264) " cx="5.46222645" cy="2.82426426" rx="0.69778481" ry="0.806925996"></ellipse>
                        <ellipse id="Oval-6" fill="#7D4E54" transform="translate(3.379035, 1.722149) rotate(-73.000000) translate(-3.379035, -1.722149) " cx="3.37903531" cy="1.72214934" rx="0.69778481" ry="0.717267552"></ellipse>
                    </g>
                    <g id="Group-11" transform="translate(40.000000, 8.235294) scale(-1, 1) translate(-40.000000, -8.235294) translate(31.000000, 2.235294)">
                        <path d="M0.407949713,2.29426774 C0.407949713,2.29426774 -0.0802573675,2.93123573 0.323755192,3.76709448 C0.727767751,4.60295322 2.16089176,6.08964316 2.16089176,6.57467043 C2.16089176,7.05969771 2.08336012,8.44195151 2.72632763,8.71921558 C3.36929514,8.99647965 5.71735314,9.17928909 6.06109696,9.60442733 C6.40484078,10.0295656 7.11110562,11.7055344 8.47760087,11.7055344 C9.84409612,11.7055344 11.4325863,11.4097861 12.1291597,11.4097861 C12.825733,11.4097861 15.3028085,11.6626509 15.8076728,11.3236494 C16.3125371,10.9846479 16.2350054,10.7720787 16.2350054,9.74564716 C16.2350054,8.71921558 17.0663506,7.69980802 17.0663506,6.73437454 C17.0663506,5.76894105 15.6429181,4.63511585 15.2691913,4.02920144 C14.8954645,3.42328703 13.8724103,2.22384267 13.8724103,1.68558069 C13.8724103,1.14731872 11.4122948,0.490202873 10.2038914,0.490202873 C8.99548803,0.490202873 7.05083688,0.420332328 6.33366916,0.229204963 C5.61650143,0.0380775987 2.92439676,-0.0177449004 2.34502942,0.105730031 C1.76566208,0.229204963 0.407949713,2.29426774 0.407949713,2.29426774 Z" id="Path-92" fill="#EAAFBA"></path>
                        <path d="M15.0759679,11.4068675 C15.0759679,11.4068675 11.2820659,7.32919838 10.514018,6.7580344 C9.74597013,6.18687042 3.82691357,1.570054 3.82691357,1.570054 L5.56683272,2.43752085 L11.4153234,6.64306224 L15.8567358,11.4068675 L15.0759679,11.4068675 Z" id="Path-93" fill="#2D040A"></path>
                        <ellipse id="Oval-3" fill="#7D4E54" cx="9.30379747" cy="3.97485769" rx="0.620253165" ry="0.946394687"></ellipse>
                        <ellipse id="Oval-9" fill="#7D4E54" cx="4.34177215" cy="2.46062619" rx="1.24050633" ry="0.189278937"></ellipse>
                        <ellipse id="Oval-9" fill="#7D4E54" cx="6.20253165" cy="4.5426945" rx="1.24050633" ry="0.378557875"></ellipse>
                        <ellipse id="Oval-4" fill="#7D4E54" transform="translate(11.489353, 6.351086) rotate(24.000000) translate(-11.489353, -6.351086) " cx="11.4893528" cy="6.35108622" rx="0.620253165" ry="0.567836812"></ellipse>
                        <ellipse id="Oval-4" fill="#7D4E54" transform="translate(5.286821, 1.808392) rotate(24.000000) translate(-5.286821, -1.808392) " cx="5.28682115" cy="1.80839172" rx="0.620253165" ry="0.567836812"></ellipse>
                        <ellipse id="Oval-5" fill="#7D4E54" cx="11.4746835" cy="8.70683112" rx="0.930379747" ry="0.378557875"></ellipse>
                        <ellipse id="Oval-6" fill="#7D4E54" transform="translate(11.146985, 4.246968) rotate(18.000000) translate(-11.146985, -4.246968) " cx="11.146985" cy="4.24696814" rx="0.930379747" ry="1.89278937"></ellipse>
                        <ellipse id="Oval-6" fill="#7D4E54" transform="translate(13.627998, 6.518315) rotate(18.000000) translate(-13.627998, -6.518315) " cx="13.6279977" cy="6.51831539" rx="0.930379747" ry="1.89278937"></ellipse>
                        <ellipse id="Oval-6" fill="#7D4E54" transform="translate(14.868504, 8.411105) rotate(18.000000) translate(-14.868504, -8.411105) " cx="14.868504" cy="8.41110476" rx="0.930379747" ry="1.89278937"></ellipse>
                        <ellipse id="Oval-6" fill="#7D4E54" transform="translate(7.758216, 2.571250) rotate(6.000000) translate(-7.758216, -2.571250) " cx="7.75821606" cy="2.57124962" rx="0.930379747" ry="1.32495256"></ellipse>
                        <ellipse id="Oval-6" fill="#7D4E54" transform="translate(11.301063, 9.803254) rotate(-73.000000) translate(-11.301063, -9.803254) " cx="11.3010631" cy="9.80325422" rx="0.930379747" ry="1.89278937"></ellipse>
                        <ellipse id="Oval-6" fill="#7D4E54" transform="translate(9.440304, 7.531907) rotate(-73.000000) translate(-9.440304, -7.531907) " cx="9.44030361" cy="7.53190697" rx="0.930379747" ry="1.89278937"></ellipse>
                        <ellipse id="Oval-6" fill="#7D4E54" transform="translate(7.282969, 5.962336) rotate(-73.000000) translate(-7.282969, -5.962336) " cx="7.28296859" cy="5.96233567" rx="0.930379747" ry="1.70351044"></ellipse>
                        <ellipse id="Oval-6" fill="#7D4E54" transform="translate(4.505380, 3.635649) rotate(-73.000000) translate(-4.505380, -3.635649) " cx="4.50538041" cy="3.63564861" rx="0.930379747" ry="1.5142315"></ellipse>
                    </g>
                </g>
            </g>
        </g>
    </g>
</svg>