<?xml version="1.0" encoding="UTF-8" standalone="no"?>
<svg width="50px" height="100px" viewBox="0 0 50 100" version="1.1" xmlns="http://www.w3.org/2000/svg" xmlns:xlink="http://www.w3.org/1999/xlink">
    <!-- Generator: Sketch 40.3 (33839) - http://www.bohemiancoding.com/sketch -->
    <title>reaching_plant_hero</title>
    <desc>Created with Sketch.</desc>
    <defs></defs>
    <g id="Page-1" stroke="none" stroke-width="1" fill="none" fill-rule="evenodd">
        <g id="reaching_plant_hero">
            <g id="reaching-plant" transform="translate(1.000000, 70.000000)">
                <g id="pot" transform="translate(13.838573, 9.177881)">
                    <path d="M0.29885477,1.52964685 C0.29885477,1.52964685 -0.304814055,-1.25822185e-14 14.6598744,-3.55271368e-15 C29.6245628,7.94804145e-16 28.9889127,1.52964685 28.9889127,1.52964685 C28.9889127,1.52964685 29.0608706,1.5971729 28.9889127,2.07719768 C28.9889127,12.6626143 24.8510583,15.5988127 23.1079152,17.4212206 C22.6312444,18.2398436 22.4141078,18.3557622 22.4141078,18.3557622 C22.4141078,18.3557622 18.3257887,18.9676209 14.6076943,18.9676209 C10.8895999,18.9676209 7.17251449,18.3557622 7.17251449,18.3557622 C7.17251449,18.3557622 6.7020517,17.9867946 6.52192806,17.535611 C4.73368852,16.2037855 0.614239534,11.7575606 0.29885477,1.92019975 C0.308631757,1.68701823 0.29885477,1.52964685 0.29885477,1.52964685 Z" id="Rectangle-29" fill="#D8D8D8"></path>
                    <ellipse id="Oval-2" fill="#5C3E23" cx="14.9427385" cy="1.52964685" rx="12.8507551" ry="0.917788109"></ellipse>
                    <path d="M7.97422743,5.51061252 C8.3571351,5.51061252 16.6751623,5.37796346 19.2828452,5.37796346 C21.8905282,5.37796346 28.1623925,4.54412667 28.1623925,4.54412667 L27.7430035,5.21543848 C27.7430035,5.21543848 19.6459071,6.11828863 19.1821569,6.11828863 C18.7184066,6.11828863 8.3571351,6.00894278 8.3571351,6.00894278 C8.3571351,6.00894278 7.59131976,5.51061252 7.97422743,5.51061252 Z" id="Path-62" fill="#D99264"></path>
                    <path d="M6.77880835,9.48769432 C7.16171602,9.48769432 16.0774527,9.04911589 18.6851357,9.04911589 C21.2928187,9.04911589 26.9669734,8.52120847 26.9669734,8.52120847 L26.5475844,9.19252028 C26.5475844,9.19252028 18.450488,10.0953704 17.9867378,10.0953704 C17.5229876,10.0953704 7.16171602,9.98602459 7.16171602,9.98602459 C7.16171602,9.98602459 6.39590067,9.48769432 6.77880835,9.48769432 Z" id="Path-62" fill="#D99264"></path>
                    <path d="M4.68682496,13.7707055 C5.06973263,13.7707055 14.0476335,13.8005814 16.5931523,13.6380564 C19.1386712,13.4755315 24.87499,12.8042196 24.87499,12.8042196 L24.455601,13.4755315 C24.455601,13.4755315 13.6688117,14.684311 13.2050615,14.684311 C12.7413112,14.684311 5.06973263,14.2690358 5.06973263,14.2690358 C5.06973263,14.2690358 4.30391728,13.7707055 4.68682496,13.7707055 Z" id="Path-62" fill="#D99264"></path>
                    <path d="M0.29885477,1.52964685 C0.29885477,1.52964685 0.29885477,2.08324755 5.08053109,2.80377993 C5.07469409,3.09051403 5.15248893,2.91888338 5.08053109,3.39890816 C5.08053109,13.9843248 9.03904347,13.7013934 11.0576265,17.535611 C11.378516,18.3317121 11.6052837,18.826756 11.6052837,18.826756 L7.17251449,18.3557622 C7.17251449,18.3557622 6.7020517,17.9867946 6.52192806,17.535611 C4.73368852,16.2037855 0.614239534,11.7575606 0.29885477,1.92019975 C0.308631757,1.68701823 0.29885477,1.52964685 0.29885477,1.52964685 Z" id="Rectangle-29" fill="#CCCCCC" style="mix-blend-mode: darken;"></path>
                </g>
                <g id="leaves">
                    <path d="M39.0684164,10.5291086 C39.0684164,10.5291086 43.9592448,13.3172664 43.4143602,14.9476169 C42.8694755,16.5779673 42.3505656,19.2390238 40.9237092,19.7657178 C39.4968527,20.2924119 34.3804241,21.0451092 33.7182156,21.0451092 C33.0560071,21.0451092 34.7268504,21.2053141 34.7268504,21.2053141 C34.7268504,21.2053141 41.220521,20.1921816 41.220521,19.9789497 C41.220521,19.7657178 41.8226083,20.7793612 41.3731587,21.6409734 C40.9237092,22.5025855 39.453367,23.5694602 39.453367,24.2361292 C39.453367,24.9027982 40.6817652,25.2559029 41.6874816,25.5181771 C42.6931979,25.7804513 42.5694534,25.5123533 42.5694534,25.5123533 L42.2644697,25.3964908 C42.2644697,25.3964908 39.939006,24.9039221 39.939006,24.372426 C39.939006,23.8409299 41.9367218,21.9395185 41.9367218,21.6772442 C41.9367218,21.41497 42.191799,19.7246449 41.9396403,19.7246449 C41.6874816,19.7246449 43.677901,16.3676984 43.677901,15.7544651 C43.677901,15.1412318 43.9496137,14.7917032 43.9496137,14.2500921 C43.9496137,13.708481 39.3993747,10.4208068 39.3993747,10.4208068 L36.5062621,10.4015986 L39.0684164,10.5291086 Z" id="Path-64" fill="#5C3E23"></path>
                    <path d="M22.3169135,10.2271232 C22.3169135,10.2271232 19.8736293,7.06714769 18.335048,7.06714769 C16.7964668,7.06714769 12.5277538,8.36824379 11.7302604,9.29768351 C10.932767,10.2271232 8.12043696,16.1960323 8.12043696,16.1960323 L7.77444832,16.481646 C7.77444832,16.481646 10.9063229,9.38133607 11.4348153,8.98637647 C11.9633077,8.59141688 17.3824069,6.39045822 18.0544533,6.39045822 C18.7264998,6.39045822 20.3804974,7.47585021 20.3804974,7.47585021 L22.6005044,10.3173485 L22.3169135,10.2271232 Z" id="Path-65" fill="#5C3E23"></path>
                    <path d="M28.8390977,9.81603063 C28.8390977,9.81603063 27.0293336,9.10229502 26.7211396,7.22309997 C26.5316574,6.067743 26.6791986,4.80973253 27.0350982,3.87079322 C27.2580715,3.28254209 27.5628274,2.81952952 27.9177261,2.58546168 C28.8390977,1.97778557 31.4622487,0.968577164 31.4622487,0.968577164 L32.3701952,0.892094822 C32.3701952,0.892094822 29.2886202,2.03425105 28.6722322,2.45908656 C28.0558443,2.88392207 27.5113974,3.45918282 27.3751763,3.99112348 C27.2389551,4.52306415 26.6745435,6.36772706 27.3751763,7.8869428 C28.0758091,9.40615853 29.7283657,9.97108663 29.7283657,9.97108663 L28.8390977,9.81603063 Z" id="Path-66" fill="#5C3E23"></path>
                    <path d="M9.45117394,14.4099388 C7.93184844,14.1928184 5.37026053,15.0915106 5.37026053,17.5850046 C5.37026053,20.0784986 7.37943023,24.9474091 7.92899324,25.6722621 C8.47855625,26.397115 11.9450655,20.1545557 11.9450655,18.5245821 C11.9450655,16.8946085 10.9704994,14.6270591 9.45117394,14.4099388 Z" id="Path-63" fill="#247264"></path>
                    <path d="M6.27034793,4.24602801 C5.61900215,4.02890765 4.52083096,4.92759984 4.52083096,7.42109385 C4.52083096,9.91458785 5.38217648,14.7834984 5.6177781,15.5083513 C5.85337972,16.2332042 7.33949719,9.99064488 7.33949719,8.3606713 C7.33949719,6.73069772 6.92169372,4.46314836 6.27034793,4.24602801 Z" id="Path-63" fill="#074A56" transform="translate(5.930164, 9.890712) rotate(82.000000) translate(-5.930164, -9.890712) "></path>
                    <path d="M41.0717316,15.513356 C40.4203858,15.3553704 39.4849826,16.2658694 39.4849826,18.080237 C39.4849826,19.8946046 40.3463281,23.4374219 40.5819297,23.9648543 C40.8175313,24.4922868 42.3036488,19.9499468 42.3036488,18.7639117 C42.3036488,17.5778767 41.7230774,15.6713416 41.0717316,15.513356 Z" id="Path-63" fill="#074A56" transform="translate(40.894316, 19.751524) rotate(33.000000) translate(-40.894316, -19.751524) "></path>
                    <path d="M44.433045,8.19092814 C43.4798029,8.14730879 43.4896529,7.41885725 42.0521526,10.3854413 C40.6146523,13.3520254 42.0704866,18.7283985 42.6971929,19.4532514 C43.3238991,20.1781043 46.3983695,16.9572094 46.3983695,12.8818569 C46.3983695,8.80650427 45.3862871,8.23454748 44.433045,8.19092814 Z" id="Path-63" fill="#59733D" transform="translate(43.918449, 13.818365) rotate(-48.000000) translate(-43.918449, -13.818365) "></path>
                    <path d="M5.70648999,12.3539314 C5.0551442,12.1959458 4.11974099,13.1064447 4.11974099,14.9208124 C4.11974099,16.73518 4.98108651,20.2779973 5.21668813,20.8054297 C5.45228975,21.3328622 6.93840722,16.7905222 6.93840722,15.6044871 C6.93840722,14.4184521 6.35783577,12.511917 5.70648999,12.3539314 Z" id="Path-63" fill="#59733D" transform="translate(5.529074, 16.592099) rotate(48.000000) translate(-5.529074, -16.592099) "></path>
                    <path d="M13.9288213,7.99813641 C12.7322174,7.82363531 12.1849116,8.06137604 11.6948541,10.714644 C11.2047966,13.3679119 12.2971389,16.4671725 12.7299687,17.0497417 C13.1627984,17.6323109 15.2861572,15.0436559 15.2861572,11.7682675 C15.2861572,8.4928791 15.1254252,8.1726375 13.9288213,7.99813641 Z" id="Path-63" fill="#59733D"></path>
                    <path d="M21.8305241,7.22252478 C20.9719976,7.06453918 19.524519,7.71846416 19.524519,9.53283178 C19.524519,11.3471994 20.6598422,14.8900167 20.9703842,15.4174491 C21.2809262,15.9448816 23.2397495,11.4025416 23.2397495,10.2165065 C23.2397495,9.03047148 22.6890507,7.38051037 21.8305241,7.22252478 Z" id="Path-63" fill="#247264" transform="translate(21.382134, 11.329826) rotate(82.000000) translate(-21.382134, -11.329826) "></path>
                    <path d="M32.5062245,0.630486575 C31.275665,0.508335808 30.7128286,0.674754318 30.2088649,2.53204188 C29.7049013,4.38932945 30.8282405,6.55881185 31.2733525,6.96661027 C31.7184645,7.3744087 33.902077,5.56235022 33.902077,3.26957834 C33.902077,0.976806459 33.736784,0.752637342 32.5062245,0.630486575 Z" id="Path-63" fill="#59733D" transform="translate(31.991749, 3.811964) rotate(-14.000000) translate(-31.991749, -3.811964) "></path>
                    <path d="M13.3625755,1.43304708 C12.2576115,1.28676412 10.3946385,1.89225021 10.3946385,3.57222024 C10.3946385,5.25219026 11.8558528,8.53257662 12.255535,9.02094 C12.6552172,9.50930338 15.1763148,5.30343303 15.1763148,4.20525242 C15.1763148,3.10707181 14.4675395,1.57933004 13.3625755,1.43304708 Z" id="Path-63" fill="#084A58" transform="translate(12.785477, 5.236104) rotate(127.000000) translate(-12.785477, -5.236104) "></path>
                    <path d="M29.6736314,1.25303268 C28.7657935,1.13669861 28.3505643,1.29519243 27.9787681,3.06403773 C27.6069719,4.83288303 28.4357088,6.89905675 28.7640875,7.2874362 C29.0924661,7.67581565 30.7034132,5.95004567 30.7034132,3.7664534 C30.7034132,1.58286114 30.5814693,1.36936674 29.6736314,1.25303268 Z" id="Path-63" fill="#084A58" transform="translate(29.294080, 4.283011) rotate(17.000000) translate(-29.294080, -4.283011) "></path>
                    <path d="M20.523189,3.59555231 C19.2926296,3.47340154 18.7297931,3.63982005 18.2258295,5.49710762 C17.7218658,7.35439518 18.8452051,9.52387758 19.290317,9.93167601 C19.735429,10.3394744 21.9190415,8.52741595 21.9190415,6.23464407 C21.9190415,3.94187219 21.7537485,3.71770308 20.523189,3.59555231 Z" id="Path-63" fill="#59733D" transform="translate(20.008713, 6.777030) rotate(140.000000) translate(-20.008713, -6.777030) "></path>
                    <path d="M38.4962625,4.55527678 C37.265703,4.43312601 36.7028666,4.59954452 36.1989029,6.45683208 C35.6949393,8.31411965 36.8182785,10.483602 37.2633905,10.8914005 C37.7085025,11.2991989 39.892115,9.48714042 39.892115,7.19436854 C39.892115,4.90159666 39.726822,4.67742754 38.4962625,4.55527678 Z" id="Path-63" fill="#074A56" transform="translate(37.981787, 7.736754) rotate(210.000000) translate(-37.981787, -7.736754) "></path>
                    <path d="M34.3597891,7.83160581 C33.2940818,7.67947153 31.4972958,8.30917707 31.4972958,10.0563459 C31.4972958,11.8035147 32.9065967,15.2151165 33.2920791,15.7230144 C33.6775615,16.2309124 36.1090906,11.8568072 36.1090906,10.7146994 C36.1090906,9.57259153 35.4254964,7.98374009 34.3597891,7.83160581 Z" id="Path-63" fill="#59733D" transform="translate(33.803193, 11.786785) rotate(-71.000000) translate(-33.803193, -11.786785) "></path>
                    <path d="M41.6835931,21.7538435 C40.4405086,21.5958579 38.344664,22.2497829 38.344664,24.0641505 C38.344664,25.8785181 39.9885301,29.4213354 40.4381725,29.9487678 C40.887815,30.4762003 43.7240498,25.9338603 43.7240498,24.7478253 C43.7240498,23.5617902 42.9266776,21.9118291 41.6835931,21.7538435 Z" id="Path-63" fill="#59733D" transform="translate(41.034357, 25.861145) rotate(33.000000) translate(-41.034357, -25.861145) "></path>
                </g>
            </g>
        </g>
    </g>
</svg>