<?xml version="1.0" encoding="UTF-8" standalone="no"?>
<svg width="208px" height="198px" viewBox="0 0 208 198" version="1.1" xmlns="http://www.w3.org/2000/svg" xmlns:xlink="http://www.w3.org/1999/xlink">
    <!-- Generator: Sketch 40.3 (33839) - http://www.bohemiancoding.com/sketch -->
    <title>reaching_plant</title>
    <desc>Created with Sketch.</desc>
    <defs></defs>
    <g id="Page-1" stroke="none" stroke-width="1" fill="none" fill-rule="evenodd">
        <g id="reaching_plant" transform="translate(-2.000000, -1.000000)">
            <g id="pot" transform="translate(96.000000, 30.000000)">
                <path d="M1,5 C1,5 -1.0199404,-3.27942947e-13 49.0535064,-2.98427949e-13 C99.1269531,-2.84217094e-13 97,5 97,5 C97,5 97.2407786,5.22072432 97,6.78979492 C97,41.3906462 83.1542969,50.9882812 77.3215539,56.9452376 C75.7265625,59.6210937 75,60 75,60 C75,60 61.3200475,62 48.8789062,62 C36.437765,62 24,60 24,60 C24,60 22.4257813,58.7939453 21.8230683,57.3191487 C15.8394277,52.9657729 2.05531112,38.4322716 1,6.27661133 C1.03271484,5.5144043 1,5 1,5 Z" id="Rectangle-29" fill="#D8D8D8"></path>
                <ellipse id="Oval-2" fill="#5C3E23" cx="50" cy="5" rx="43" ry="3"></ellipse>
                <path d="M26.6826172,18.0126953 C27.9638672,18.0126953 55.796875,17.5791016 64.5224609,17.5791016 C73.2480469,17.5791016 94.234375,14.8535156 94.234375,14.8535156 L92.8310547,17.0478516 C92.8310547,17.0478516 65.7373047,19.9990234 64.1855469,19.9990234 C62.6337891,19.9990234 27.9638672,19.6416016 27.9638672,19.6416016 C27.9638672,19.6416016 25.4013672,18.0126953 26.6826172,18.0126953 Z" id="Path-62" fill="#D99264"></path>
                <path d="M22.6826172,31.0126953 C23.9638672,31.0126953 53.796875,29.5791016 62.5224609,29.5791016 C71.2480469,29.5791016 90.234375,27.8535156 90.234375,27.8535156 L88.8310547,30.0478516 C88.8310547,30.0478516 61.7373047,32.9990234 60.1855469,32.9990234 C58.6337891,32.9990234 23.9638672,32.6416016 23.9638672,32.6416016 C23.9638672,32.6416016 21.4013672,31.0126953 22.6826172,31.0126953 Z" id="Path-62" fill="#D99264"></path>
                <path d="M15.6826172,45.0126953 C16.9638672,45.0126953 47.0048828,45.1103516 55.5224609,44.5791016 C64.0400391,44.0478516 83.234375,41.8535156 83.234375,41.8535156 L81.8310547,44.0478516 C81.8310547,44.0478516 45.7373047,47.9990234 44.1855469,47.9990234 C42.6337891,47.9990234 16.9638672,46.6416016 16.9638672,46.6416016 C16.9638672,46.6416016 14.4013672,45.0126953 15.6826172,45.0126953 Z" id="Path-62" fill="#D99264"></path>
                <path d="M1,5 C1,5 1,6.80957031 17,9.16479492 C16.9804687,10.1020508 17.2407786,9.54103682 17,11.1101074 C17,45.7109587 30.2456055,44.7861328 37,57.3191487 C38.0737305,59.9213867 38.8325195,61.5395508 38.8325195,61.5395508 L24,60 C24,60 22.4257813,58.7939453 21.8230683,57.3191487 C15.8394277,52.9657729 2.05531112,38.4322716 1,6.27661133 C1.03271484,5.5144043 1,5 1,5 Z" id="Rectangle-29" fill="#CCCCCC" style="mix-blend-mode: darken;"></path>
            </g>
            <g id="leaves">
                <path d="M180.421753,35.21875 C180.421753,35.21875 196.786987,61.8681641 194.963745,77.4511719 C193.140503,93.0341797 191.404175,118.46875 186.629761,123.50293 C181.855347,128.537109 164.73523,135.731445 162.519409,135.731445 C160.303589,135.731445 165.894409,137.262695 165.894409,137.262695 C165.894409,137.262695 187.622925,127.579102 187.622925,125.541016 C187.622925,123.50293 189.637573,133.191406 188.133667,141.426758 C186.629761,149.662109 181.709839,159.859375 181.709839,166.231445 C181.709839,172.603516 185.820191,175.978516 189.185425,178.485352 C192.550659,180.992187 192.136597,178.429688 192.136597,178.429688 L191.116089,177.322266 C191.116089,177.322266 183.334839,172.614258 183.334839,167.53418 C183.334839,162.454102 190.019409,144.280273 190.019409,141.773438 C190.019409,139.266602 190.872925,123.110352 190.029175,123.110352 C189.185425,123.110352 195.845581,91.0244141 195.845581,85.1630859 C195.845581,79.3017578 196.754761,75.9609375 196.754761,70.7841797 C196.754761,65.6074219 181.529175,34.1835938 181.529175,34.1835938 L171.848511,34 L180.421753,35.21875 Z" id="Path-64" fill="#5C3E23"></path>
                <path d="M123.192383,33.4296875 C123.192383,33.4296875 104.875977,23.1005859 93.3417969,23.1005859 C81.8076172,23.1005859 49.8066406,27.3535156 43.828125,30.3916016 C37.8496094,33.4296875 16.7666016,52.9404297 16.7666016,52.9404297 L14.1728516,53.8740234 C14.1728516,53.8740234 37.6513672,30.6650391 41.6132812,29.3740234 C45.5751953,28.0830078 86.2001953,20.8886719 91.2382812,20.8886719 C96.2763672,20.8886719 108.675781,24.4365234 108.675781,24.4365234 L125.318359,33.7246094 L123.192383,33.4296875 Z" id="Path-65" fill="#5C3E23"></path>
                <path d="M146.193359,32.0859375 C146.193359,32.0859375 140.137695,29.7529297 139.106445,23.6103516 C138.472418,19.8338035 138.966106,15.721709 140.156984,12.6525715 C140.903077,10.7297384 141.922823,9.21627603 143.110352,8.45117188 C146.193359,6.46484375 154.970703,3.16601562 154.970703,3.16601562 L158.008789,2.91601562 C158.008789,2.91601562 147.69751,6.64941406 145.63501,8.03808594 C143.57251,9.42675781 141.750732,11.3071289 141.294922,13.0458984 C140.839111,14.784668 138.95053,20.8143699 141.294922,25.7802734 C143.639314,30.746177 149.168945,32.5927734 149.168945,32.5927734 L146.193359,32.0859375 Z" id="Path-66" fill="#5C3E23"></path>
                <path d="M164.017621,135.17884 C158.933796,134.469133 156.608543,135.43604 154.526511,146.227056 C152.44448,157.018071 157.085345,169.622968 158.924242,171.992316 C160.763139,174.361663 169.784324,163.833432 169.784324,150.512212 C169.784324,137.190991 169.101447,135.888548 164.017621,135.17884 Z" id="Path-63" fill="#59733D"></path>
                <path d="M194.017621,110.17884 C188.933796,109.469133 186.608543,110.43604 184.526511,121.227056 C182.44448,132.018071 187.085345,144.622968 188.924242,146.992316 C190.763139,149.361663 199.784324,138.833432 199.784324,125.512212 C199.784324,112.190991 199.101447,110.888548 194.017621,110.17884 Z" id="Path-63" fill="#247264" transform="translate(191.892162, 128.663524) rotate(-14.000000) translate(-191.892162, -128.663524) "></path>
                <path d="M143.938346,121.901262 C138.85452,121.191555 130.283173,124.129135 130.283173,132.27969 C130.283173,140.430244 137.00607,156.34539 138.844967,158.714737 C140.683863,161.084084 152.283173,140.678854 152.283173,135.350913 C152.283173,130.022972 149.022171,122.610969 143.938346,121.901262 Z" id="Path-63" fill="#074A56" transform="translate(141.283173, 140.352201) rotate(50.000000) translate(-141.283173, -140.352201) "></path>
                <path d="M181.172414,166.074347 C177.01292,165.557935 170,167.695438 170,173.626113 C170,179.556788 175.500552,191.137295 177.005103,192.861328 C178.509655,194.585362 188,179.737686 188,175.86086 C188,171.984034 185.331907,166.590759 181.172414,166.074347 Z" id="Path-63" fill="#084A58"></path>
                <path d="M201.073076,171.798151 C196.913582,171.281739 189.900662,173.419242 189.900662,179.349917 C189.900662,185.280592 195.401214,196.861099 196.905766,198.585132 C198.410317,200.309166 207.900662,185.46149 207.900662,181.584664 C207.900662,177.707837 205.232569,172.314563 201.073076,171.798151 Z" id="Path-63" fill="#59733D" transform="translate(198.900662, 185.223804) rotate(-19.000000) translate(-198.900662, -185.223804) "></path>
                <path d="M26.6551724,47.1021752 C21.5713469,46.3924678 13,49.3300484 13,57.4806029 C13,65.6311575 19.7228966,81.5463033 21.5617931,83.9156505 C23.4006897,86.2849977 35,65.8797672 35,60.5518264 C35,55.2238855 31.7389979,47.8118827 26.6551724,47.1021752 Z" id="Path-63" fill="#247264"></path>
                <path d="M29.263697,13.8791121 C27.0842244,13.1694046 23.4096263,16.1069853 23.4096263,24.2575398 C23.4096263,32.4080943 26.2917805,48.3232401 27.0801287,50.6925873 C27.8684768,53.0619346 32.8411847,32.6567041 32.8411847,27.3287632 C32.8411847,22.0008224 31.4431697,14.5888195 29.263697,13.8791121 Z" id="Path-63" fill="#074A56" transform="translate(28.125406, 32.330051) rotate(82.000000) translate(-28.125406, -32.330051) "></path>
                <path d="M182.12506,135.692418 C179.945587,135.176006 176.815628,138.152179 176.815628,144.082854 C176.815628,150.013529 179.697782,161.594036 180.48613,163.31807 C181.274479,165.042103 186.247186,150.194428 186.247186,146.317601 C186.247186,142.440775 184.304532,136.20883 182.12506,135.692418 Z" id="Path-63" fill="#59733D" transform="translate(181.531407, 149.545836) rotate(33.000000) translate(-181.531407, -149.545836) "></path>
                <path d="M187.12506,55.6924175 C184.945587,55.1760055 181.815628,58.1521792 181.815628,64.0828541 C181.815628,70.0135289 184.697782,81.5940361 185.48613,83.3180695 C186.274479,85.0421029 191.247186,70.1944275 191.247186,66.3176011 C191.247186,62.4407747 189.304532,56.2088295 187.12506,55.6924175 Z" id="Path-63" fill="#074A56" transform="translate(186.531407, 69.545836) rotate(33.000000) translate(-186.531407, -69.545836) "></path>
                <path d="M198.372374,26.7739189 C195.182724,26.6313391 195.215683,24.2502289 190.405653,33.9471863 C185.595624,43.6441437 190.467001,61.2180469 192.564027,63.5873942 C194.661053,65.9567414 204.948559,55.428511 204.948559,42.1072906 C204.948559,28.7860701 201.562024,26.9164987 198.372374,26.7739189 Z" id="Path-63" fill="#59733D" transform="translate(196.650481, 45.168482) rotate(-48.000000) translate(-196.650481, -45.168482) "></path>
                <path d="M14.1250597,40.3816456 C11.9455871,39.8652336 8.81562798,42.8414073 8.81562798,48.7720822 C8.81562798,54.7027571 11.6977821,66.2832643 12.4861303,68.0072977 C13.2744785,69.7313311 18.2471864,54.8836556 18.2471864,51.0068292 C18.2471864,47.1300028 16.3045323,40.8980576 14.1250597,40.3816456 Z" id="Path-63" fill="#59733D" transform="translate(13.531407, 54.235064) rotate(48.000000) translate(-13.531407, -54.235064) "></path>
                <path d="M54.8897674,26.1437351 C50.8858028,25.5733385 49.0544592,26.3504483 47.4146745,35.0232604 C45.7748898,43.6960726 49.4299838,53.8267134 50.8782784,55.7309738 C52.3265729,57.6352342 59.4315584,49.1736243 59.4315584,38.4672695 C59.4315584,27.7609146 58.893732,26.7141318 54.8897674,26.1437351 Z" id="Path-63" fill="#59733D"></path>
                <path d="M122.741923,23.6084714 C119.869202,23.0920594 115.025783,25.2295625 115.025783,31.1602374 C115.025783,37.0909123 118.824696,48.6714195 119.863803,50.3954529 C120.90291,52.1194863 127.457342,37.2718109 127.457342,33.3949845 C127.457342,29.5181581 125.614645,24.1248834 122.741923,23.6084714 Z" id="Path-63" fill="#247264" transform="translate(121.241563, 37.034125) rotate(82.000000) translate(-121.241563, -37.034125) "></path>
                <path d="M158.463958,2.06088934 C154.346374,1.66161166 152.463063,2.20558856 150.776747,8.27655706 C149.090431,14.3475256 152.849244,21.4389742 154.338636,22.7719564 C155.828028,24.1049387 163.134629,18.1818118 163.134629,10.6873634 C163.134629,3.19291496 162.581541,2.46016701 158.463958,2.06088934 Z" id="Path-63" fill="#59733D" transform="translate(156.742467, 12.460275) rotate(-14.000000) translate(-156.742467, -12.460275) "></path>
                <path d="M74.5293996,4.68424161 C70.832072,4.20608234 64.5983651,6.18525189 64.5983651,11.6766175 C64.5983651,17.1679831 69.4877444,27.890675 70.8251237,29.4870022 C72.1625031,31.0833294 80.5983651,17.3354818 80.5983651,13.7458278 C80.5983651,10.1561737 78.2267273,5.16240087 74.5293996,4.68424161 Z" id="Path-63" fill="#084A58" transform="translate(72.598365, 17.115402) rotate(127.000000) translate(-72.598365, -17.115402) "></path>
                <path d="M148.985798,4.09582342 C145.948076,3.71555897 144.558674,4.23363221 143.314605,10.015507 C142.070535,15.7973817 144.843577,22.5511423 145.942367,23.8206492 C147.041157,25.0901561 152.431558,19.4490829 152.431558,12.311513 C152.431558,5.17394306 152.023521,4.47608787 148.985798,4.09582342 Z" id="Path-63" fill="#084A58" transform="translate(147.715779, 14.000000) rotate(17.000000) translate(-147.715779, -14.000000) "></path>
                <path d="M118.36744,11.7528837 C114.249857,11.3536061 112.366546,11.897583 110.68023,17.9685515 C108.993913,24.0395199 112.752727,31.1309686 114.242119,32.4639508 C115.731511,33.7969331 123.038112,27.8738062 123.038112,20.3793578 C123.038112,12.8849094 122.485024,12.1521614 118.36744,11.7528837 Z" id="Path-63" fill="#59733D" transform="translate(116.645950, 22.152269) rotate(140.000000) translate(-116.645950, -22.152269) "></path>
                <path d="M178.507265,14.8899623 C174.389681,14.4906846 172.50637,15.0346615 170.820054,21.10563 C169.133738,27.1765985 172.892551,34.2680471 174.381943,35.6010294 C175.871336,36.9340116 183.177937,31.0108847 183.177937,23.5164363 C183.177937,16.0219879 182.624848,15.28924 178.507265,14.8899623 Z" id="Path-63" fill="#074A56" transform="translate(176.785775, 25.289348) rotate(210.000000) translate(-176.785775, -25.289348) "></path>
                <path d="M164.666183,25.5993919 C161.100212,25.1021062 155.087974,27.1604426 155.087974,32.8714628 C155.087974,38.5824831 159.803646,49.7340826 161.093511,51.3942629 C162.383377,53.0544432 170.519533,38.7566817 170.519533,35.0234415 C170.519533,31.2902012 168.232153,26.0966775 164.666183,25.5993919 Z" id="Path-63" fill="#59733D" transform="translate(162.803753, 38.527799) rotate(-71.000000) translate(-162.803753, -38.527799) "></path>
                <path d="M189.172414,81.0743469 C185.01292,80.5579349 178,82.695438 178,88.6261129 C178,94.5567877 183.500552,106.137295 185.005103,107.861328 C186.509655,109.585362 196,94.7376863 196,90.8608599 C196,86.9840335 193.331907,81.5907589 189.172414,81.0743469 Z" id="Path-63" fill="#59733D" transform="translate(187.000000, 94.500000) rotate(33.000000) translate(-187.000000, -94.500000) "></path>
            </g>
        </g>
    </g>
</svg>