<?xml version="1.0" encoding="UTF-8" standalone="no"?>
<svg width="21px" height="36px" viewBox="0 0 21 36" version="1.1" xmlns="http://www.w3.org/2000/svg" xmlns:xlink="http://www.w3.org/1999/xlink">
    <!-- Generator: Sketch 40.3 (33839) - http://www.bohemiancoding.com/sketch -->
    <title>small_round_cactus</title>
    <desc>Created with Sketch.</desc>
    <defs></defs>
    <g id="Page-1" stroke="none" stroke-width="1" fill="none" fill-rule="evenodd">
        <g id="small_round_cactus">
            <g id="pot" transform="translate(0.000000, 16.000000)">
                <path d="M0.259259259,1.11111111 C0.259259259,1.11111111 1.63677979,0.218641493 10.5,0.218641493 C19.3632202,0.218641493 20.7407407,1.11111111 20.7407407,1.11111111 L20.7407407,4.58886876 L19.9346065,4.84651771 L16.7638889,18.8888889 C16.7638889,18.8888889 13.8597813,19.6855107 10.5,19.6855107 C7.14021867,19.6855107 3.97685185,18.8888889 3.97685185,18.8888889 L1.15907118,4.84651771 L0.259259259,4.58886876 L0.259259259,1.11111111 Z" id="Rectangle" fill="#D99264"></path>
                <path d="M0.259259259,1.11111111 C0.259259259,1.11111111 0.259259259,2.13469329 4.12197876,2.50506366 C4.14248657,2.92191117 4.12197876,5.2041739 4.12197876,5.2041739 L4.48754883,5.22894965 L7.31350708,19.3910048 L3.97685185,18.8888889 L1.15907118,4.84651771 L0.259259259,4.58886876 L0.259259259,1.11111111 Z" id="Rectangle" fill="#BC7A4E"></path>
                <path d="M0.248182509,4.5727028 C0.248182509,4.5727028 3.90263988,5.31344354 10.5024369,5.31344354 C17.1022339,5.31344354 20.7566913,4.5727028 20.7566913,4.5727028 L19.9404297,4.84576288 C19.9404297,4.84576288 17.2630005,5.58650362 10.5384521,5.58650362 C3.81390381,5.58650362 1.17907263,4.84576288 1.17907263,4.84576288 L0.248182509,4.5727028 Z" id="Rectangle-3" fill="#9C6744"></path>
                <ellipse id="Oval-2" fill="#5C3E23" cx="10.6875" cy="1.48148148" rx="8.8125" ry="0.740740741"></ellipse>
            </g>
            <g id="leaves">
                <path d="M1.1026114,4.45049426 C2.82027633,3.52997449 3.08123553,2.25089684 3.08123553,2.25089684 C3.08123553,2.25089684 3.48263922,2.42363742 3.89142072,2.25089684 C5.48104745,1.57916135 6.51385272,0.544025032 6.51385272,0.544025032 C6.51385272,0.544025032 6.9048371,0.816299704 7.08727948,0.767842574 C8.25828188,0.456821551 9.44332918,0.27999442 10.5041956,0.27999442 C10.6623128,0.27999442 10.8485243,1.0658141e-14 10.8485243,1.0658141e-14 C10.8485243,1.0658141e-14 13.6531284,1.2658105 14.7812609,1.2658105 C15.1592504,1.2658105 15.6637008,1.2658105 15.6637008,1.2658105 C15.6637008,1.2658105 16.3845486,2.69537229 18.2993345,4.19381776 C18.5516044,4.39123554 18.8230613,4.19381776 18.8230613,4.19381776 C18.8230613,4.19381776 18.8595666,5.78438532 19.3464265,7.18927376 C19.4045508,7.35699787 19.6752025,7.37814892 19.6752025,7.37814892 C19.6752025,7.37814892 19.4568856,7.8876709 19.3464265,9.44895966 C19.3376497,9.57301605 19.6752025,9.70994101 19.6752025,9.70994101 C19.6752025,9.70994101 19.3464265,11.6557318 19.1606988,11.9644252 C19.049651,12.1489949 19.0087891,12.8108658 19.3464265,14.1324538 C19.4098982,14.3808961 18.8230613,14.4551379 18.8230613,14.4551379 C18.8230613,14.4551379 18.3815514,15.8879914 17.9437915,16.7243588 C17.5060316,17.5607262 17.3366046,17.9891785 17.3366046,17.9891785 C17.3366046,17.9891785 16.2333984,18.2182617 10.8485243,18.2182617 C5.46365017,18.2182617 3.89142072,17.9891785 3.89142072,17.9891785 C3.89142072,17.9891785 3.21275499,17.6149404 3.05170719,17.1862814 C2.67502491,16.1836708 1.8113981,15.5724251 1.8113981,15.5724251 C1.8113981,15.5724251 1.90118909,15.200301 1.8113981,14.7739721 C1.45464661,13.0801109 0.453559028,12.2976921 0.453559028,12.2976921 C0.453559028,12.2976921 0.710901331,11.8710851 0.710901331,11.6557318 C0.710901331,10.7827447 0,7.81742267 0,7.81742267 C0,7.81742267 0.698465883,7.91402424 0.710901331,7.57061145 C0.778759823,5.69665602 0.453559028,4.45049426 0.453559028,4.45049426 C0.453559028,4.45049426 0.758062562,4.63514262 1.1026114,4.45049426 Z" id="Rectangle-6" fill="#85A95E"></path>
                <path d="M4.53189382,3.4606353 L5.92592593,1.92534279 C5.92592593,1.92534279 5.13191158,3.01266339 4.53189382,4.46097139 C4.47410084,4.60047066 4.64547946,4.68178519 4.58750042,4.82859684 C3.96273044,6.4106083 3.35460316,8.38592988 3.35460316,10.0813391 C3.35460316,11.8907321 5.82785866,17.5910889 5.82785866,17.5910889 C5.82785866,17.5910889 4.38148128,14.8132017 3.8114729,13.9972473 C3.7369114,13.8905142 3.35460316,13.9972473 3.35460316,13.9972473 L3.35460316,13.2721486 C3.35460316,13.2721486 3.44332615,12.5870672 2.9950916,11.2482842 C2.92933155,11.0518726 2.7922441,10.7659259 2.75842776,10.5852588 C2.69166246,10.2285586 2.77408179,9.86977933 2.75842776,9.5465532 C2.73702669,9.10466166 2.96383317,8.74001731 2.96347737,8.05613263 C2.96307938,7.29114398 3.33408177,6.76095183 3.35460316,6.35045722 C3.36671496,6.10818172 2.68517289,6.00342641 2.75842776,5.71556952 C2.79820987,5.55924469 3.2863685,5.6900743 3.35460316,5.53054315 C3.59966029,4.95760495 3.6190001,5.20102574 3.8114729,4.67021318 C3.93113516,4.34020172 3.86873225,4.25848815 3.99221628,4.06431579 C4.13922081,3.83315864 4.53189382,3.4606353 4.53189382,3.4606353 Z" id="Rectangle-7" fill="#59733D"></path>
                <path d="M13.070228,2.00562092 L14.3050966,0.367346939 C14.3050966,0.367346939 12.2226675,4.6939002 12.2226675,8.4139692 C12.2226675,10.3447293 14.3050966,17.3198342 14.3050966,17.3198342 C14.3050966,17.3198342 13.5751557,15.6820661 13.070228,14.8113807 C13.0041796,14.6974883 12.5921682,14.3661006 12.5921682,14.3661006 L12.5921682,13.5250363 C12.5921682,13.5250363 12.1059475,11.7442185 11.7088902,10.3156351 C11.6506383,10.1060491 11.1455007,10.0050923 11.1155453,9.81230672 C11.0564029,9.43168046 11.7227569,9.18849745 11.7088902,8.84359056 C11.6687267,7.84460635 11.6744607,7.26747725 11.7088902,6.437859 C11.7196191,6.1793326 11.0506543,5.74146085 11.1155453,5.43429563 C11.1507853,5.26748515 11.6484462,5.11939606 11.7088902,4.94916418 C11.9259679,4.33779551 12.5376066,3.46496407 12.7081038,2.89854666 C12.8141037,2.54639931 12.4827829,2.42444848 12.5921682,2.21725178 C12.7223885,1.97058951 13.070228,2.00562092 13.070228,2.00562092 Z" id="Rectangle-7" fill="#59733D" transform="translate(12.708104, 8.843591) scale(-1, 1) translate(-12.708104, -8.843591) "></path>
                <path d="M16.4468822,3.27060746 L17.7090567,1.46938776 C17.7090567,1.46938776 15.4192037,5.80054209 15.4192037,9.46743463 C15.4192037,10.6274337 16.0116822,13.4578202 16.8467882,15.3713528 C17.3818049,16.5972715 18.297526,17.356246 18.297526,17.356246 C18.297526,17.356246 16.9629751,16.6729915 16.4468822,15.8147521 C16.3793733,15.7024877 15.9582513,14.6879584 15.9582513,14.6879584 L15.9582513,13.8589166 C15.9582513,13.8589166 15.5009794,12.8560429 15.0554418,11.8566247 C14.9767069,11.6800086 14.4936913,11.5182894 14.4489767,11.346321 C14.3878719,11.1113172 15.0989657,11.195101 15.0554418,10.9597816 C14.9146556,10.1985955 15.199585,9.55036704 15.0554418,9.05022321 C14.9959019,8.84363308 14.4795944,8.74788614 14.4489767,8.55785635 C14.3885265,8.18267094 15.0696152,8.29587187 15.0554418,7.95589525 C15.0143903,6.97119099 15.0202511,7.17709443 15.0554418,6.35933514 C15.066408,6.10450424 14.3826508,6.18660337 14.4489767,5.88382892 C14.4849959,5.71940291 15.3574232,5.65468466 15.4192037,5.48688616 C15.6410816,4.88425668 15.7839839,4.66370979 15.9582513,4.10538903 C16.066595,3.75827544 15.8464473,3.79555349 15.9582513,3.59131856 C16.0913511,3.34818219 16.4468822,3.27060746 16.4468822,3.27060746 Z" id="Rectangle-7" fill="#59733D" transform="translate(16.370985, 9.412817) scale(-1, 1) translate(-16.370985, -9.412817) "></path>
                <path d="M8.28931721,2.29140909 L9.1104239,0.680165816 C9.1104239,0.680165816 8.78872804,1.7277377 8.28931721,3.33646312 C7.9771547,4.34201553 7.39601418,5.49736215 7.39601418,6.96735139 C7.39601418,7.81695508 7.22742087,10.4134083 7.71260709,12.4957724 C8.36016173,15.2750033 9.65454102,17.5385193 9.65454102,17.5385193 C9.65454102,17.5385193 8.89843945,16.6670508 8.28931721,15.7725691 C8.20963931,15.6555639 7.71260709,14.5981924 7.71260709,14.5981924 L7.71260709,13.7341413 C7.71260709,13.7341413 7.17290872,12.6889176 6.64705991,11.6472954 C6.55413247,11.463221 5.98404984,11.2946727 5.93127513,11.1154422 C5.85915577,10.8705146 6.69842921,10.9578364 6.64705991,10.7125798 C6.48089599,9.91924985 6.8171859,9.24364761 6.64705991,8.72238339 C6.57678742,8.50706924 5.96741193,8.40727903 5.93127513,8.20922454 C5.8599284,7.81819557 6.66378811,7.93617682 6.64705991,7.58184345 C6.59860852,6.55555648 6.60552575,6.77015493 6.64705991,5.91786278 C6.66000282,5.65227072 5.85299352,5.73783679 5.93127513,5.42227659 C5.97378708,5.25090709 7.00347548,5.18345588 7.07639239,5.00857148 C7.3382653,4.38049378 7.50692684,4.15063349 7.71260709,3.56873561 C7.84048055,3.20696388 7.58064961,3.24581613 7.71260709,3.03295664 C7.86969904,2.77955296 8.28931721,2.29140909 8.28931721,2.29140909 Z" id="Rectangle-7" fill="#59733D"></path>
            </g>
        </g>
    </g>
</svg>