<?xml version="1.0" encoding="UTF-8" standalone="no"?>
<svg width="50px" height="100px" viewBox="0 0 50 100" version="1.1" xmlns="http://www.w3.org/2000/svg" xmlns:xlink="http://www.w3.org/1999/xlink">
    <!-- Generator: Sketch 40.3 (33839) - http://www.bohemiancoding.com/sketch -->
    <title>small_dot_plant_hero</title>
    <desc>Created with Sketch.</desc>
    <defs></defs>
    <g id="Page-1" stroke="none" stroke-width="1" fill="none" fill-rule="evenodd">
        <g id="small_dot_plant_hero">
            <g id="dot-plant" transform="translate(7.000000, 52.000000)">
                <g id="Group-12" transform="translate(0.000000, 17.000000)">
                    <ellipse id="Oval-7" fill="#D8D8D8" cx="18" cy="15" rx="18" ry="15"></ellipse>
                    <path d="M18,30 C20.1382965,30 22.1895083,29.6892881 24.0921674,29.1190875 C31.0351349,27.0383763 15.5785699,25.9455989 12.9856844,24 C8.9375,20.9624023 6.10232431,17.097168 6.10232431,10.0932617 C6.10232431,5.29012269 9.27436129,1.41359992 6.10232431,3.74372702 C2.36048571,6.4924212 0,10.5164935 0,15 C0,23.2842712 8.0588745,30 18,30 Z" id="Oval-7" fill="#CCCCCC"></path>
                    <ellipse id="Oval-7" fill="#B2B2B2" cx="18.5" cy="3" rx="9.5" ry="3"></ellipse>
                </g>
                <g id="leaves" fill="#517926">
                    <circle id="Oval-8" cx="16" cy="22" r="1"></circle>
                    <circle id="Oval-8" cx="16" cy="20" r="1"></circle>
                    <circle id="Oval-8" cx="18" cy="21" r="1"></circle>
                    <circle id="Oval-8" cx="20" cy="21" r="1"></circle>
                    <circle id="Oval-8" cx="21" cy="20" r="1"></circle>
                    <circle id="Oval-8" cx="23" cy="20" r="1"></circle>
                    <circle id="Oval-8" cx="24" cy="22" r="1"></circle>
                    <circle id="Oval-8" cx="26" cy="23" r="1"></circle>
                    <circle id="Oval-8" cx="27" cy="24" r="1"></circle>
                    <circle id="Oval-8" cx="29" cy="24" r="1"></circle>
                    <circle id="Oval-8" cx="29" cy="26" r="1"></circle>
                    <circle id="Oval-8" cx="30" cy="27" r="1"></circle>
                    <circle id="Oval-8" cx="30" cy="29" r="1"></circle>
                    <circle id="Oval-8" cx="28" cy="30" r="1"></circle>
                    <circle id="Oval-8" cx="27" cy="31" r="1"></circle>
                    <circle id="Oval-8" cx="28" cy="33" r="1"></circle>
                    <circle id="Oval-8" cx="23" cy="19" r="1"></circle>
                    <circle id="Oval-8" cx="25" cy="19" r="1"></circle>
                    <circle id="Oval-8" cx="26" cy="18" r="1"></circle>
                    <circle id="Oval-8" cx="28" cy="18" r="1"></circle>
                    <circle id="Oval-8" cx="29" cy="16" r="1"></circle>
                    <circle id="Oval-8" cx="30" cy="16" r="1"></circle>
                    <circle id="Oval-8" cx="31" cy="17" r="1"></circle>
                    <circle id="Oval-8" cx="32" cy="19" r="1"></circle>
                    <circle id="Oval-8" cx="34" cy="19" r="1"></circle>
                    <circle id="Oval-8" cx="21" cy="18" r="1"></circle>
                    <circle id="Oval-8" cx="21" cy="17" r="1"></circle>
                    <circle id="Oval-8" cx="22" cy="15" r="1"></circle>
                    <circle id="Oval-8" cx="24" cy="15" r="1"></circle>
                    <circle id="Oval-8" cx="25" cy="14" r="1"></circle>
                    <circle id="Oval-8" cx="27" cy="13" r="1"></circle>
                    <circle id="Oval-8" cx="28" cy="11" r="1"></circle>
                    <circle id="Oval-8" cx="29" cy="10" r="1"></circle>
                    <circle id="Oval-8" cx="29" cy="8" r="1"></circle>
                    <circle id="Oval-8" cx="18" cy="19" r="1"></circle>
                    <circle id="Oval-8" cx="19" cy="17" r="1"></circle>
                    <circle id="Oval-8" cx="19" cy="16" r="1"></circle>
                    <circle id="Oval-8" cx="20" cy="15" r="1"></circle>
                    <circle id="Oval-8" cx="20" cy="13" r="1"></circle>
                    <circle id="Oval-8" cx="21" cy="12" r="1"></circle>
                    <circle id="Oval-8" cx="22" cy="10" r="1"></circle>
                    <circle id="Oval-8" cx="23" cy="8" r="1"></circle>
                    <circle id="Oval-8" cx="15" cy="18" r="1"></circle>
                    <circle id="Oval-8" cx="13" cy="18" r="1"></circle>
                    <circle id="Oval-8" cx="13" cy="16" r="1"></circle>
                    <circle id="Oval-8" cx="11" cy="16" r="1"></circle>
                    <circle id="Oval-8" cx="9" cy="16" r="1"></circle>
                    <circle id="Oval-8" cx="9" cy="14" r="1"></circle>
                    <circle id="Oval-8" cx="7" cy="14" r="1"></circle>
                    <circle id="Oval-8" cx="6" cy="13" r="1"></circle>
                    <circle id="Oval-8" cx="4" cy="14" r="1"></circle>
                    <circle id="Oval-8" cx="3" cy="12" r="1"></circle>
                    <circle id="Oval-8" cx="1" cy="12" r="1"></circle>
                    <circle id="Oval-8" cx="17" cy="17" r="1"></circle>
                    <circle id="Oval-8" cx="17" cy="15" r="1"></circle>
                    <circle id="Oval-8" cx="18" cy="13" r="1"></circle>
                    <circle id="Oval-8" cx="18" cy="11" r="1"></circle>
                    <circle id="Oval-8" cx="17" cy="10" r="1"></circle>
                    <circle id="Oval-8" cx="15" cy="9" r="1"></circle>
                    <circle id="Oval-8" cx="13" cy="9" r="1"></circle>
                    <circle id="Oval-8" cx="13" cy="7" r="1"></circle>
                    <circle id="Oval-8" cx="12" cy="7" r="1"></circle>
                    <circle id="Oval-8" cx="10" cy="7" r="1"></circle>
                    <circle id="Oval-8" cx="10" cy="5" r="1"></circle>
                    <circle id="Oval-8" cx="8" cy="4" r="1"></circle>
                    <circle id="Oval-8" cx="7" cy="3" r="1"></circle>
                    <circle id="Oval-8" cx="8" cy="1" r="1"></circle>
                </g>
            </g>
        </g>
    </g>
</svg>