<?xml version="1.0" encoding="UTF-8" standalone="no"?>
<svg width="50px" height="100px" viewBox="0 0 50 100" version="1.1" xmlns="http://www.w3.org/2000/svg" xmlns:xlink="http://www.w3.org/1999/xlink">
    <!-- Generator: Sketch 40.3 (33839) - http://www.bohemiancoding.com/sketch -->
    <title>small_round_cactus_hero</title>
    <desc>Created with Sketch.</desc>
    <defs></defs>
    <g id="Page-1" stroke="none" stroke-width="1" fill="none" fill-rule="evenodd">
        <g id="small_round_cactus_hero">
            <g id="small-round-cactus" transform="translate(10.000000, 54.000000)">
                <g id="pot" transform="translate(0.000000, 20.627778)">
                    <path d="M0.333333333,1.43248457 C0.333333333,1.43248457 2.10443115,0.281880508 13.5,0.281880508 C24.8955688,0.281880508 26.6666667,1.43248457 26.6666667,1.43248457 L26.6666667,5.91613531 L25.6302083,6.24830565 L21.5535714,24.3522377 C21.5535714,24.3522377 17.8197189,25.3792713 13.5,25.3792713 C9.18028114,25.3792713 5.11309524,24.3522377 5.11309524,24.3522377 L1.49023438,6.24830565 L0.333333333,5.91613531 L0.333333333,1.43248457 Z" id="Rectangle" fill="#D99264"></path>
                    <path d="M0.333333333,1.43248457 C0.333333333,1.43248457 0.333333333,2.75212367 5.29968698,3.22961853 C5.32605416,3.76703339 5.29968698,6.70940892 5.29968698,6.70940892 L5.76970564,6.74135072 L9.40308053,24.9995836 L5.11309524,24.3522377 L1.49023438,6.24830565 L0.333333333,5.91613531 L0.333333333,1.43248457 Z" id="Rectangle" fill="#BC7A4E"></path>
                    <path d="M0.319091797,5.89529357 C0.319091797,5.89529357 5.01767985,6.85028328 13.5031331,6.85028328 C21.9885864,6.85028328 26.6871745,5.89529357 26.6871745,5.89529357 L25.6376953,6.24733249 C25.6376953,6.24733249 22.1952863,7.20232221 13.5494385,7.20232221 C4.90359061,7.20232221 1.51595052,6.24733249 1.51595052,6.24733249 L0.319091797,5.89529357 Z" id="Rectangle-3" fill="#9C6744"></path>
                    <ellipse id="Oval-2" fill="#5C3E23" cx="13.7410714" cy="1.90997942" rx="11.3303571" ry="0.954989712"></ellipse>
                </g>
                <g id="leaves">
                    <path d="M1.41764323,5.73773791 C3.62606957,4.55097058 3.96158854,2.90193749 3.96158854,2.90193749 C3.96158854,2.90193749 4.477679,3.12464088 5.00325521,2.90193749 C7.04706101,2.03591184 8.3749535,0.701376716 8.3749535,0.701376716 C8.3749535,0.701376716 8.8776477,1.05240306 9.11221647,0.989930375 C10.617791,0.58895084 12.1414232,0.360978917 13.5053943,0.360978917 C13.7086879,0.360978917 13.9481027,1.42108547e-14 13.9481027,1.42108547e-14 C13.9481027,1.42108547e-14 17.5540222,1.63192861 19.0044782,1.63192861 C19.4904648,1.63192861 20.1390439,1.63192861 20.1390439,1.63192861 C20.1390439,1.63192861 21.0658482,3.47497129 23.5277158,5.4068213 C23.8520629,5.66133943 24.2010789,5.4068213 24.2010789,5.4068213 C24.2010789,5.4068213 24.2480141,7.45743844 24.8739769,9.26867134 C24.9487082,9.48490733 25.296689,9.51217602 25.296689,9.51217602 C25.296689,9.51217602 25.0159957,10.1690702 24.8739769,12.18194 C24.8626924,12.341878 25.296689,12.5184066 25.296689,12.5184066 C25.296689,12.5184066 24.8739769,15.0269904 24.6351842,15.424969 C24.4924085,15.662923 24.4398717,16.5162307 24.8739769,18.2200697 C24.9555834,18.5403706 24.2010789,18.6360858 24.2010789,18.6360858 C24.2010789,18.6360858 23.6334232,20.4833723 23.0705891,21.5616473 C22.5077549,22.6399224 22.2899202,23.1922985 22.2899202,23.1922985 C22.2899202,23.1922985 20.8715123,23.4876409 13.9481027,23.4876409 C7.02469308,23.4876409 5.00325521,23.1922985 5.00325521,23.1922985 C5.00325521,23.1922985 4.13068499,22.7098173 3.92362352,22.1571746 C3.43931774,20.8645728 2.32894042,20.0765327 2.32894042,20.0765327 C2.32894042,20.0765327 2.44438597,19.5967769 2.32894042,19.0471383 C1.87025993,16.8633514 0.583147321,15.8546288 0.583147321,15.8546288 C0.583147321,15.8546288 0.914015997,15.3046316 0.914015997,15.0269904 C0.914015997,13.9015039 0,10.0785036 0,10.0785036 C0,10.0785036 0.898027564,10.2030458 0.914015997,9.76030566 C1.00126263,7.34433466 0.583147321,5.73773791 0.583147321,5.73773791 C0.583147321,5.73773791 0.974651865,5.97579325 1.41764323,5.73773791 Z" id="Rectangle-6" fill="#85A95E"></path>
                    <path d="M5.82672063,4.46157599 L7.61904762,2.48222146 C7.61904762,2.48222146 6.59817203,3.88403443 5.82672063,5.7512454 C5.75241537,5.9310929 5.97275931,6.03592653 5.89821483,6.22520141 C5.09493914,8.26478772 4.31306121,10.8114436 4.31306121,12.9972264 C4.31306121,15.3299612 7.49296114,22.679067 7.49296114,22.679067 C7.49296114,22.679067 5.63333307,19.0977146 4.90046516,18.0457567 C4.80460037,17.9081525 4.31306121,18.0457567 4.31306121,18.0457567 L4.31306121,17.1109332 C4.31306121,17.1109332 4.42713362,16.2277015 3.85083206,14.5016941 C3.76628342,14.2484733 3.59002813,13.8798205 3.54654998,13.6468979 C3.46070887,13.1870271 3.56667659,12.7244759 3.54654998,12.3077611 C3.51903432,11.7380586 3.81064265,11.2679459 3.81018519,10.3862571 C3.80967348,9.40000611 4.28667656,8.71646325 4.31306121,8.18723877 C4.32863352,7.87488845 3.45236514,7.73983412 3.54654998,7.36871861 C3.59769841,7.16717901 4.22533092,7.33584926 4.31306121,7.13017594 C4.62813466,6.39152333 4.65300013,6.7053502 4.90046516,6.02100748 C5.05431664,5.59554479 4.97408432,5.49019671 5.1328495,5.23986268 C5.32185532,4.94184654 5.82672063,4.46157599 5.82672063,4.46157599 Z" id="Rectangle-7" fill="#59733D"></path>
                    <path d="M16.8045789,2.58571892 L18.392267,0.473596939 C18.392267,0.473596939 15.7148582,6.05154564 15.7148582,10.8475929 C15.7148582,13.3367986 18.392267,22.3293557 18.392267,22.3293557 C18.392267,22.3293557 17.4537717,20.217886 16.8045789,19.0953668 C16.7196595,18.9485326 16.1899305,18.5212957 16.1899305,18.5212957 L16.1899305,17.4369652 C16.1899305,17.4369652 15.5647897,15.1410706 15.0542873,13.2992893 C14.9793921,13.0290834 14.3299294,12.8989263 14.2914154,12.6503802 C14.2153752,12.159663 15.072116,11.8461427 15.0542873,11.4014763 C15.0026486,10.1135498 15.0100209,9.36949411 15.0542873,8.29992031 C15.0680817,7.96661874 14.2079841,7.40209866 14.2914154,7.00609017 C14.3367239,6.79103207 14.9765737,6.60011027 15.0542873,6.38064119 C15.3333873,5.59244261 16.1197799,4.4671568 16.3389907,3.73691103 C16.4752762,3.28290995 16.0492923,3.12568653 16.1899305,2.85856107 C16.3573566,2.54055516 16.8045789,2.58571892 16.8045789,2.58571892 Z" id="Rectangle-7" fill="#59733D" transform="translate(16.338991, 11.401476) scale(-1, 1) translate(-16.338991, -11.401476) "></path>
                    <path d="M21.1459914,4.21658524 L22.7687872,1.89438776 C22.7687872,1.89438776 19.8246905,7.47826833 19.8246905,12.2057586 C19.8246905,13.7012712 20.5864486,17.3503078 21.6601562,19.8173032 C22.3480349,21.3978018 23.5253906,22.3762991 23.5253906,22.3762991 C23.5253906,22.3762991 21.8095394,21.4954228 21.1459914,20.3889495 C21.0591942,20.2442142 20.5177516,18.9362464 20.5177516,18.9362464 L20.5177516,17.8674158 C20.5177516,17.8674158 19.9298306,16.5744747 19.3569967,15.2859887 C19.2557661,15.0582888 18.6347459,14.8497947 18.5772557,14.6280867 C18.4986924,14.3251114 19.4129559,14.4331285 19.3569967,14.1297462 C19.1759858,13.1483976 19.5423236,12.3126781 19.3569967,11.6678746 C19.2804452,11.4015311 18.6166214,11.2780907 18.5772557,11.0330974 C18.4995341,10.5493949 19.3752195,10.6953376 19.3569967,10.2570275 C19.3042161,8.98751117 19.3117514,9.25296931 19.3569967,8.19868451 C19.371096,7.87014731 18.4919796,7.97599248 18.5772557,7.58564472 C18.6235662,7.37366076 19.7452584,7.29022366 19.8246905,7.07389178 C20.109962,6.29696009 20.2936936,6.01262308 20.5177516,5.29281579 C20.6570507,4.84530442 20.3740036,4.89336462 20.5177516,4.63005757 C20.6888799,4.31659739 21.1459914,4.21658524 21.1459914,4.21658524 Z" id="Rectangle-7" fill="#59733D" transform="translate(21.048410, 12.135343) scale(-1, 1) translate(-21.048410, -12.135343) "></path>
                    <path d="M10.6576936,2.95416735 L11.7134022,0.876894332 C11.7134022,0.876894332 11.2997932,2.22746183 10.6576936,4.30148873 C10.2563418,5.59788321 9.50916109,7.0873978 9.50916109,8.98256101 C9.50916109,10.0779008 9.29239826,13.425342 9.91620912,16.110001 C10.7487794,19.6930858 12.4129813,22.6112924 12.4129813,22.6112924 C12.4129813,22.6112924 11.4408507,21.4877638 10.6576936,20.3345656 C10.5552505,20.1837184 9.91620912,18.8205168 9.91620912,18.8205168 L9.91620912,17.706551 C9.91620912,17.706551 9.22231121,16.3590108 8.54621988,15.0161138 C8.42674175,14.7787985 7.69377837,14.5614999 7.62592516,14.3304295 C7.53320028,14.01466 8.61226613,14.1272384 8.54621988,13.8110447 C8.33258056,12.7882551 8.7649533,11.9172443 8.54621988,11.2452116 C8.45586954,10.9676209 7.67238677,10.8389677 7.62592516,10.5836287 C7.53419366,10.0795 8.56772757,10.2316057 8.54621988,9.77478636 C8.48392525,8.45166014 8.49281882,8.72832821 8.54621988,7.6295224 C8.56286077,7.28711153 7.52527738,7.39742639 7.62592516,6.99059478 C7.68058339,6.76965903 9.00446847,6.6826985 9.09821879,6.45723121 C9.43491252,5.64749076 9.65176308,5.35114658 9.91620912,4.60094281 C10.0806179,4.13453365 9.74654949,4.18462336 9.91620912,3.91019722 C10.1181845,3.58350005 10.6576936,2.95416735 10.6576936,2.95416735 Z" id="Rectangle-7" fill="#59733D"></path>
                </g>
            </g>
        </g>
    </g>
</svg>