<?xml version="1.0" encoding="UTF-8" standalone="no"?>
<svg width="56px" height="61px" viewBox="0 0 56 61" version="1.1" xmlns="http://www.w3.org/2000/svg" xmlns:xlink="http://www.w3.org/1999/xlink">
    <!-- Generator: Sketch 40.3 (33839) - http://www.bohemiancoding.com/sketch -->
    <title>small_fern</title>
    <desc>Created with Sketch.</desc>
    <defs></defs>
    <g id="Page-1" stroke="none" stroke-width="1" fill="none" fill-rule="evenodd">
        <g id="small_fern">
            <g id="pot" transform="translate(1.000000, 31.000000)">
                <ellipse id="Oval-7" fill="#F0E0E3" cx="18" cy="15" rx="18" ry="15"></ellipse>
                <path d="M18,30 C20.1382965,30 22.1895083,29.6892881 24.0921674,29.1190875 C31.0351349,27.0383763 15.5785699,25.9455989 12.9856844,24 C8.9375,20.9624023 6.10232431,17.097168 6.10232431,10.0932617 C6.10232431,5.29012269 9.27436129,1.41359992 6.10232431,3.74372702 C2.36048571,6.4924212 0,10.5164935 0,15 C0,23.2842712 8.0588745,30 18,30 Z" id="Oval-7" fill="#ECBCC5"></path>
                <ellipse id="Oval-7" fill="#B1878F" cx="18.5" cy="3" rx="9.5" ry="3"></ellipse>
            </g>
            <g id="leaves">
                <path d="M17.7323942,35.9732454 C17.7323942,35.9732454 17.3644495,34.1656767 16.1370855,34.0627708 C14.5364168,33.9285659 11.6702528,35.6295658 8.250476,37.1835938 C12.3462563,33.3485687 18.5956497,31.4334078 26.7219135,27.0330911 C23.7409044,27.1319399 8.21333798,33.103026 6.35995883,35.35647 C9.12269153,31.2851345 18.1177268,25.2100512 23.7184464,23.384952 C18.5310335,22.6858026 7.49468076,27.6447181 4.42541553,30.72911 C6.09834238,24.8476056 16.4940501,21.4846866 21.9281073,20.4266954 C14.8018172,18.5284893 5.29852102,23.2624207 2.64926051,27.0330911 C2.02713345,22.8706293 13.4121768,16.4799506 19.962832,16.4799506 C17.5070258,13.9227524 4.20674516,18.7174346 2.03974147,22.0577008 C4.44787357,16.3079948 11.8996083,14.1297171 16.1370855,13.3461343 C13.538257,9.93790959 3.36240172,15.5264714 2.03974147,18.6731586 C2.5846444,14.0967675 10.4043757,9.31547097 13.2537886,9.31547097 C10.1636413,6.03698533 3.14491335,11.1498372 1.18791202,13.3461343 C0.622127059,10.7889361 7.78348325,6.13737866 10.0907512,6.13737866 C7.01281794,3.52921153 2.51175428,7.67159461 0.533870909,9.51831697 C2.77928073,4.61088527 6.07155034,3.27076307 7.08295006,3.27076307 C4.88915432,1.09094081 0.476346811,5.42175444 0,6.13737866 C1.19500403,3.12815307 3.73749036,1.11462334 4.42541553,1.11462334 C3.32575966,0.519471107 2.64926051,0 2.64926051,0 C2.64926051,0 3.62435557,5.02119072 5.68070167,9.51831697 C7.62579353,13.7721358 10.6216059,17.4246653 11.8361742,20.4266954 C14.4096695,26.787565 17.7323942,35.9732454 17.7323942,35.9732454 Z" id="Path-80" fill="#247264"></path>
                <path d="M23.6082097,36.331302 C23.6082097,36.331302 23.3465911,35.0584652 22.4739023,34.986002 C21.3357838,34.8914988 19.297864,36.0892929 16.8663106,37.1835938 C19.7785207,34.4830818 24.2220076,33.1344818 30,30.0359081 C27.8804223,30.1055145 16.8399045,34.3101779 15.522102,35.8969869 C17.4864793,33.0300722 23.8821916,28.7521771 27.864454,27.4669959 C24.1760638,26.9746754 16.3289198,30.4665979 14.1465896,32.638536 C15.3360856,28.4969535 22.7277137,26.1288848 26.5914747,25.3838785 C21.5244906,24.0472175 14.7673911,27.3807129 12.8836956,30.0359081 C12.4413465,27.1048249 20.5364189,22.6046968 25.1941111,22.6046968 C23.4479667,20.803993 13.9911091,24.1802673 12.4503111,26.5323845 C14.1625579,22.4836106 19.4609419,20.9497314 22.4739023,20.3979555 C20.6260653,17.9979838 13.3907582,21.9332848 12.4503111,24.1490894 C12.8377518,20.9265293 18.3977913,17.5596808 20.4238005,17.5596808 C18.2266226,15.2510676 13.2361181,18.8513876 11.8446374,20.3979555 C11.4423491,18.5972517 16.5342662,15.3217616 18.1747958,15.3217616 C15.9863024,13.485167 12.7859249,16.4021114 11.3795966,17.702519 C12.9761434,14.2468499 15.3170358,13.3031752 16.0361682,13.3031752 C14.4763204,11.7682085 11.3386954,14.8178401 11,15.3217616 C11.84968,13.2027534 13.6574563,11.784885 14.1465896,11.784885 C13.3647047,11.3657963 12.8836956,11 12.8836956,11 C12.8836956,11 13.5770144,14.5357749 15.0391318,17.702519 C16.4221445,20.6979332 18.5522478,23.2699372 19.4158385,25.3838785 C21.245663,29.8630159 23.6082097,36.331302 23.6082097,36.331302 Z" id="Path-80" fill="#084A58" transform="translate(20.500000, 24.091797) scale(-1, 1) translate(-20.500000, -24.091797) "></path>
                <path d="M39.4708537,49.9972453 C39.4708537,49.9972453 38.4089941,48.8754567 37.70595,48.7725508 C36.7890738,48.6383459 35.9984094,49.6535657 34.0395331,51.2075936 C36.3856297,47.3725686 39.9653336,45.4574077 44.6201243,41.057091 C42.9125778,41.1559398 34.0182601,47.1270259 32.9566293,49.3804699 C34.5391453,45.3091344 39.6915755,39.2340511 42.8997136,37.4089519 C39.9283209,36.7098025 33.6066073,41.668718 31.848507,44.7531099 C32.8067732,38.8716055 38.7615201,35.5086865 41.8741927,34.4506953 C37.7921952,32.5524892 32.348629,37.2864206 30.8311108,41.057091 C30.4747513,36.8946292 36.9961977,30.5039505 40.7484668,30.5039505 C39.3417609,27.9467523 31.7232508,32.7414345 30.4819733,36.0817007 C31.8613711,30.3319947 36.129786,28.153717 38.5570478,27.3701342 C37.0684175,23.9619095 31.239604,29.5504713 30.4819733,32.6971585 C30.7940982,28.1207674 35.2733045,23.3394709 36.9054716,23.3394709 C35.1354099,20.0609852 31.1150248,25.1738371 29.9940384,27.3701342 C29.6699521,24.812936 33.7720358,20.1613786 35.0936578,20.1613786 C33.3305924,17.5532114 30.7523461,21.6955945 29.6193983,23.5423169 C30.9055875,18.6348852 32.7914265,17.294763 33.3707646,17.294763 C32.1141404,15.1149407 29.586448,19.4457543 29.3135926,20.1613786 C29.9981007,17.152153 31.4544578,15.1386232 31.848507,15.1386232 C31.2186151,14.543471 30.8311108,14.0239999 30.8311108,14.0239999 C30.8311108,14.0239999 31.1364559,17.6831134 31.9190526,20.2979249 C32.5752689,22.4904743 33.6694173,23.4779347 34.2066323,25.5289917 C35.3207969,29.7828105 34.6189043,40.0489038 35.314619,43.0509339 C36.7887383,49.4118035 39.4708537,49.9972453 39.4708537,49.9972453 Z" id="Path-80" fill="#287E91" transform="translate(36.966858, 32.615797) rotate(87.000000) translate(-36.966858, -32.615797) "></path>
            </g>
        </g>
    </g>
</svg>