<?xml version="1.0" encoding="UTF-8" standalone="no"?>
<svg width="50px" height="100px" viewBox="0 0 50 100" version="1.1" xmlns="http://www.w3.org/2000/svg" xmlns:xlink="http://www.w3.org/1999/xlink">
    <!-- Generator: Sketch 40.3 (33839) - http://www.bohemiancoding.com/sketch -->
    <title>small_fern_hero</title>
    <desc>Created with Sketch.</desc>
    <defs></defs>
    <g id="Page-1" stroke="none" stroke-width="1" fill="none" fill-rule="evenodd">
        <g id="small_fern_hero">
            <g id="fern" transform="translate(9.000000, 46.000000)">
                <g id="pot" transform="translate(0.875000, 26.934426)">
                    <ellipse id="Oval-7" fill="#F0E0E3" cx="15.75" cy="13.0327869" rx="15.75" ry="13.0327869"></ellipse>
                    <path d="M15.75,26.0655738 C17.6210095,26.0655738 19.4158197,25.795611 21.0806464,25.3001908 C27.155743,23.4923597 13.6312487,22.5428974 11.3624738,20.852459 C7.8203125,18.2132348 5.33953377,14.8549164 5.33953377,8.76955526 C5.33953377,4.59633611 8.11506613,1.22820976 5.33953377,3.25274643 C2.06542499,5.64095612 0,9.13728126 0,13.0327869 C0,20.2305963 7.05151519,26.0655738 15.75,26.0655738 Z" id="Oval-7" fill="#ECBCC5"></path>
                    <ellipse id="Oval-7" fill="#B1878F" cx="16.1875" cy="2.60655738" rx="8.3125" ry="2.60655738"></ellipse>
                </g>
                <g id="leaves">
                    <path d="M15.5158449,31.2554428 C15.5158449,31.2554428 15.1938933,29.6849322 14.1199498,29.5955222 C12.7193647,29.4789179 10.2114712,30.9568358 7.2191665,32.3070569 C10.8029743,28.9749859 16.2711935,27.3109936 23.3816743,23.4877676 C20.7732914,23.5736527 7.18667073,28.7616455 5.56496397,30.7195559 C7.98235509,27.1821661 15.853011,21.903815 20.7536406,20.3180731 C16.2146544,19.7106154 6.55784566,24.0191813 3.87223859,26.6990628 C5.33604958,21.5889032 14.4322938,18.6670228 19.1870939,17.7477845 C12.95159,16.0985235 4.63620589,20.2116114 2.31810295,23.4877676 C1.77374177,19.8712025 11.7356547,14.3186456 17.467478,14.3186456 C15.3186476,12.0968176 3.68090202,16.2626891 1.78477379,19.1648876 C3.89188938,14.1692414 10.4121572,12.2766394 14.1199498,11.5958216 C11.8459749,8.63457718 2.94210151,13.4902129 1.78477379,16.2242198 C2.26156385,12.2480111 9.10382875,8.09376986 11.597065,8.09376986 C8.89318614,5.24524955 2.75179918,9.68756349 1.03942302,11.5958216 C0.544361177,9.37399365 6.81054784,5.33247654 8.82940728,5.33247654 C6.1362157,3.06636412 2.19778499,6.66548384 0.467137045,8.27001311 C2.43187064,4.006179 5.31260654,2.84181054 6.1975813,2.84181054 C4.27801003,0.947866604 0.41680346,4.71070467 0,5.33247654 C1.04562853,2.71790348 3.27030407,0.968443227 3.87223859,0.968443227 C2.9100397,0.451343749 2.31810295,0 2.31810295,0 C2.31810295,0 3.17131113,4.36267391 4.97061396,8.27001311 C6.67256934,11.965954 9.29390517,15.1394633 10.3566524,17.7477845 C12.6084608,23.2744417 15.5158449,31.2554428 15.5158449,31.2554428 Z" id="Path-80" fill="#247264"></path>
                    <path d="M20.6571835,31.5665411 C20.6571835,31.5665411 20.4282672,30.4606337 19.6646645,30.3976738 C18.6688108,30.3155646 16.885631,31.3562709 14.7580218,32.3070569 C17.3062056,29.9607104 21.1942567,28.788976 26.25,26.0967726 C24.3953695,26.1572503 14.7349164,29.8104824 13.5818392,31.1891854 C15.3006694,28.6982594 20.8969177,24.9813997 24.3813973,23.8647669 C21.1540558,23.437013 14.2878048,26.4709785 12.3782659,28.3580723 C13.4190749,24.7596481 19.8867495,22.7021458 23.2675404,22.0548452 C18.8339293,20.8934841 12.9214672,23.7897997 11.2732336,26.0967726 C10.8861782,23.5500938 17.9693665,19.6401464 22.0448472,19.6401464 C20.5169709,18.0756005 12.2422204,21.0090847 10.8940222,23.0527276 C12.3922381,19.5349404 17.0283241,18.2022257 19.6646645,17.7228138 C18.0478071,15.6375925 11.7169134,19.0567884 10.8940222,20.9819957 C11.2330328,18.1820664 16.0980674,15.2567719 17.8708255,15.2567719 C15.9482948,13.2509276 11.5816033,16.3790745 10.3640578,17.7228138 C10.0120555,16.1582678 14.4674829,13.3123503 15.9029463,13.3123503 C13.9880146,11.7166205 11.1876843,14.2510148 9.95714702,15.3808772 C11.3541255,12.3784105 13.4024063,11.5584965 14.0316472,11.5584965 C12.6667803,10.2248369 9.92135848,12.8745168 9.625,13.3123503 C10.36847,11.4712448 11.9502742,10.2393263 12.3782659,10.2393263 C11.6941166,9.87520005 11.2732336,9.55737705 11.2732336,9.55737705 C11.2732336,9.55737705 11.8798876,12.6294438 13.1592404,15.3808772 C14.3693765,17.9834501 16.2332168,20.2181421 16.9888587,22.0548452 C18.5899551,25.9465548 20.6571835,31.5665411 20.6571835,31.5665411 Z" id="Path-80" fill="#084A58" transform="translate(17.937500, 20.932217) scale(-1, 1) translate(-17.937500, -20.932217) "></path>
                    <path d="M29.7648575,39.2227366 C29.7648575,39.2227366 28.8357304,38.5364035 28.2205667,38.4734436 C27.4183001,38.3913343 26.7264687,39.0124664 25.0124519,39.9632524 C27.0652865,37.616906 30.1975274,36.4451715 34.2704693,33.7529681 C32.7763661,33.8134458 24.9938381,37.4666779 24.0649111,38.8453809 C25.4496126,36.3544549 29.957989,32.6375952 32.7651099,31.5209624 C30.1651413,31.0932085 24.6336419,34.127174 23.0953041,36.0142678 C23.9337871,32.4158436 29.1441906,30.3583413 31.8677791,29.7110407 C28.2960313,28.5496796 23.5329109,31.4459952 22.2050825,33.7529681 C21.8932679,31.2062893 27.5995335,27.2963419 30.882769,27.2963419 C29.6519013,25.731796 22.985705,28.6652802 21.8995871,30.7089231 C23.1065603,27.1911359 26.8414233,25.8584212 28.9652773,25.3790093 C27.6627258,23.293788 22.562514,26.7129839 21.8995871,28.6381912 C22.1726964,25.8382619 26.092002,22.9129674 27.5201482,22.9129674 C25.9713442,20.9071231 22.4535072,24.03527 21.4726441,25.3790093 C21.1890686,23.8144633 24.7783918,20.9685458 25.9348111,20.9685458 C24.3921288,19.372816 22.1361633,21.9072104 21.144834,23.0370727 C22.2702495,20.034606 23.9203587,19.214692 24.4272795,19.214692 C23.3277333,17.8810324 21.1160025,20.5307123 20.877254,20.9685458 C21.4761987,19.1274403 22.7505111,17.8955218 23.0953041,17.8955218 C22.5441487,17.5313956 22.2050825,17.2135726 22.2050825,17.2135726 C22.2050825,17.2135726 22.4722594,19.4522927 23.1570315,21.0520876 C23.7312208,22.393534 24.6886007,22.9976824 25.1586638,24.2525608 C26.1335578,26.8551338 25.5194018,33.1361387 26.1281521,34.9728418 C27.4180065,38.8645514 29.7648575,39.2227366 29.7648575,39.2227366 Z" id="Path-80" fill="#287E91" transform="translate(27.573862, 28.588412) rotate(87.000000) translate(-27.573862, -28.588412) "></path>
                </g>
            </g>
        </g>
    </g>
</svg>