<?xml version="1.0" encoding="UTF-8" standalone="no"?>
<svg width="50px" height="100px" viewBox="0 0 50 100" version="1.1" xmlns="http://www.w3.org/2000/svg" xmlns:xlink="http://www.w3.org/1999/xlink">
    <!-- Generator: Sketch 40.3 (33839) - http://www.bohemiancoding.com/sketch -->
    <title>spikey_hero</title>
    <desc>Created with Sketch.</desc>
    <defs></defs>
    <g id="Page-1" stroke="none" stroke-width="1" fill="none" fill-rule="evenodd">
        <g id="spikey_hero">
            <g id="spikey-plant" transform="translate(1.000000, 54.000000)">
                <g id="pot" transform="translate(6.875000, 25.205479)">
                    <path d="M0.331632653,1.67697746 C0.331632653,1.67697746 -0.338245542,-1.34519111e-14 16.2677445,-3.55271368e-15 C32.8737345,1.21354294e-15 32.1683673,1.67697746 32.1683673,1.67697746 C32.1683673,1.67697746 32.2482174,1.7510074 32.1683673,2.27726661 C32.1683673,13.8822362 27.5766801,17.1012397 25.6423521,19.099176 C25.1134008,19.9966461 24.872449,20.1237296 24.872449,20.1237296 C24.872449,20.1237296 20.33573,20.7945205 16.2098414,20.7945205 C12.0839527,20.7945205 7.95918367,20.1237296 7.95918367,20.1237296 C7.95918367,20.1237296 7.43712133,19.7192243 7.23724203,19.2245841 C5.25287143,17.7644815 0.681608281,12.8900107 0.331632653,2.10514715 C0.342481963,1.84950635 0.331632653,1.67697746 0.331632653,1.67697746 Z" id="Rectangle-29" fill="#D8EAEF"></path>
                    <ellipse id="Oval-2" fill="#956B46" cx="16.5816327" cy="1.67697746" rx="14.2602041" ry="1.00618648"></ellipse>
                    <path d="M0.331632653,1.67697746 C0.331632653,1.67697746 0.331632653,2.28389919 5.6377551,3.07383091 C5.6312779,3.3881823 5.71760516,3.20002074 5.6377551,3.72627995 C5.6377551,15.3312495 10.0304304,15.0210671 12.2704082,19.2245841 C12.6264922,20.097363 12.8781315,20.640088 12.8781315,20.640088 L7.95918367,20.1237296 C7.95918367,20.1237296 7.43712133,19.7192243 7.23724203,19.2245841 C5.25287143,17.7644815 0.681608281,12.8900107 0.331632653,2.10514715 C0.342481963,1.84950635 0.331632653,1.67697746 0.331632653,1.67697746 Z" id="Rectangle-29" fill="#C0D8DE" style="mix-blend-mode: darken;"></path>
                </g>
                <g id="leaves">
                    <path d="M3.45458984,27.0060467 C3.45458984,27.0060467 5.86486816,11.1787778 24.1375732,6.7739726 C2.40844727,10.2852633 0.604858398,27.0060467 0.604858398,27.0060467 L3.45458984,27.0060467 Z" id="Path-113" fill="#3D6971" transform="translate(12.371216, 16.890010) scale(-1, 1) translate(-12.371216, -16.890010) "></path>
                    <path d="M15.3314209,27.5420323 C15.3314209,27.5420323 14.3676758,11.4058487 25.8563232,0.430757705 C12.1936035,11.6483037 13.0529785,27.3691139 13.0529785,27.3691139 L15.3314209,27.5420323 Z" id="Path-114" fill="#247264" transform="translate(19.449286, 13.986395) scale(-1, 1) translate(-19.449286, -13.986395) "></path>
                    <path d="M40.7543945,27.5223405 C40.7543945,27.5223405 36.8066406,2.42885809 21.1212158,0.732903467 C33.0010986,4.15250428 37.3950195,27.5223405 37.3950195,27.5223405 L40.7543945,27.5223405 Z" id="Path-115" fill="#3D6971" transform="translate(30.937805, 14.127622) scale(-1, 1) translate(-30.937805, -14.127622) "></path>
                    <path d="M29.0795898,27.0060467 C29.0795898,27.0060467 31.4898682,11.1787778 49.7625732,6.7739726 C28.0334473,10.2852633 26.2298584,27.0060467 26.2298584,27.0060467 L29.0795898,27.0060467 Z" id="Path-113" fill="#189580"></path>
                    <path d="M40.1452637,27.1278896 C40.1452637,27.1278896 37.8527832,13.7953232 27.0697021,10.828018 C38.5931396,12.3375161 42.3999023,27.3494221 42.3999023,27.3494221 L40.1452637,27.1278896 Z" id="Path-117" fill="#3D6971" transform="translate(34.734802, 19.088720) scale(-1, 1) translate(-34.734802, -19.088720) "></path>
                    <path d="M24.7064209,27.5420323 C24.7064209,27.5420323 23.7426758,11.4058487 35.2313232,0.430757705 C21.5686035,11.6483037 22.4279785,27.3691139 22.4279785,27.3691139 L24.7064209,27.5420323 Z" id="Path-114" fill="#45A896"></path>
                    <path d="M22.0043945,26.8922036 C22.0043945,26.8922036 18.0566406,1.7987211 2.37121582,0.102766481 C14.2510986,3.52236729 18.6450195,26.8922036 18.6450195,26.8922036 L22.0043945,26.8922036 Z" id="Path-115" fill="#45A896"></path>
                    <path d="M11.3885498,27.4718804 C11.3885498,27.4718804 10.0866699,14.993445 23.0529785,6.29644692 C12.9815674,16.6697078 13.5583496,27.3100385 13.5583496,27.3100385 L11.3885498,27.4718804 Z" id="Path-116" fill="#189580" transform="translate(17.202560, 16.884164) scale(-1, 1) translate(-17.202560, -16.884164) "></path>
                    <path d="M25.1385498,27.4718804 C25.1385498,27.4718804 23.8366699,14.993445 36.8029785,6.29644692 C26.7315674,16.6697078 27.3083496,27.3100385 27.3083496,27.3100385 L25.1385498,27.4718804 Z" id="Path-116" fill="#52DEC5"></path>
                    <path d="M17.0202637,27.1278896 C17.0202637,27.1278896 14.7277832,13.7953232 3.94470215,10.828018 C15.4681396,12.3375161 19.2749023,27.3494221 19.2749023,27.3494221 L17.0202637,27.1278896 Z" id="Path-117" fill="#189580"></path>
                </g>
            </g>
        </g>
    </g>
</svg>