<?xml version="1.0" encoding="UTF-8" standalone="no"?>
<svg width="79px" height="73px" viewBox="0 0 79 73" version="1.1" xmlns="http://www.w3.org/2000/svg" xmlns:xlink="http://www.w3.org/1999/xlink">
    <!-- Generator: Sketch 40.3 (33839) - http://www.bohemiancoding.com/sketch -->
    <title>spikey_plant</title>
    <desc>Created with Sketch.</desc>
    <defs></defs>
    <g id="Page-1" stroke="none" stroke-width="1" fill="none" fill-rule="evenodd">
        <g id="spikey_plant" transform="translate(-1.000000, 0.000000)">
            <g id="pot" transform="translate(11.000000, 40.000000)">
                <path d="M0.530612245,2.66129032 C0.530612245,2.66129032 -0.541192867,-1.50712716e-13 26.0283911,-1.3500312e-13 C52.5979751,-1.27439278e-13 51.4693878,2.66129032 51.4693878,2.66129032 C51.4693878,2.66129032 51.5971478,2.77877262 51.4693878,3.6139231 C51.4693878,22.0305052 44.1226881,27.1389239 41.0277633,30.3095619 C40.1814413,31.733808 39.7959184,31.9354839 39.7959184,31.9354839 C39.7959184,31.9354839 32.5371681,33 25.9357462,33 C19.3343243,33 12.7346939,31.9354839 12.7346939,31.9354839 C12.7346939,31.9354839 11.8993941,31.2935515 11.5795873,30.5085791 C8.40459428,28.1914597 1.09057325,20.4558865 0.530612245,3.340777 C0.547971142,2.93508616 0.530612245,2.66129032 0.530612245,2.66129032 Z" id="Rectangle-29" fill="#D8EAEF"></path>
                <ellipse id="Oval-2" fill="#956B46" cx="26.5306122" cy="2.66129032" rx="22.8163265" ry="1.59677419"></ellipse>
                <path d="M0.530612245,2.66129032 C0.530612245,2.66129032 0.530612245,3.62444871 9.02040816,4.87803601 C9.01004464,5.376898 9.14816825,5.07829379 9.02040816,5.91344427 C9.02040816,24.3300264 16.0486886,23.8377804 19.6326531,30.5085791 C20.2023876,31.8936413 20.6050104,32.7549222 20.6050104,32.7549222 L12.7346939,31.9354839 C12.7346939,31.9354839 11.8993941,31.2935515 11.5795873,30.5085791 C8.40459428,28.1914597 1.09057325,20.4558865 0.530612245,3.340777 C0.547971142,2.93508616 0.530612245,2.66129032 0.530612245,2.66129032 Z" id="Rectangle-29" fill="#C0D8DE" style="mix-blend-mode: darken;"></path>
            </g>
            <g id="leaves">
                <path d="M5.52734375,42.8574219 C5.52734375,42.8574219 9.38378906,17.7402344 38.6201172,10.75 C3.85351563,16.3222656 0.967773438,42.8574219 0.967773438,42.8574219 L5.52734375,42.8574219 Z" id="Path-113" fill="#3D6971" transform="translate(19.793945, 26.803711) scale(-1, 1) translate(-19.793945, -26.803711) "></path>
                <path d="M24.5302734,43.7080078 C24.5302734,43.7080078 22.9882812,18.1005859 41.3701172,0.68359375 C19.5097656,18.4853516 20.8847656,43.4335938 20.8847656,43.4335938 L24.5302734,43.7080078 Z" id="Path-114" fill="#247264" transform="translate(31.118857, 22.195801) scale(-1, 1) translate(-31.118857, -22.195801) "></path>
                <path d="M65.2070313,43.6767578 C65.2070313,43.6767578 58.890625,3.85449219 33.7939453,1.16308594 C52.8017578,6.58984375 59.8320312,43.6767578 59.8320312,43.6767578 L65.2070313,43.6767578 Z" id="Path-115" fill="#3D6971" transform="translate(49.500488, 22.419922) scale(-1, 1) translate(-49.500488, -22.419922) "></path>
                <path d="M46.5273438,42.8574219 C46.5273438,42.8574219 50.3837891,17.7402344 79.6201172,10.75 C44.8535156,16.3222656 41.9677734,42.8574219 41.9677734,42.8574219 L46.5273438,42.8574219 Z" id="Path-113" fill="#189580"></path>
                <path d="M64.2324219,43.0507813 C64.2324219,43.0507813 60.5644531,21.8925781 43.3115234,17.1835938 C61.7490234,19.5791016 67.8398438,43.4023438 67.8398438,43.4023438 L64.2324219,43.0507813 Z" id="Path-117" fill="#3D6971" transform="translate(55.575684, 30.292969) scale(-1, 1) translate(-55.575684, -30.292969) "></path>
                <path d="M39.5302734,43.7080078 C39.5302734,43.7080078 37.9882812,18.1005859 56.3701172,0.68359375 C34.5097656,18.4853516 35.8847656,43.4335938 35.8847656,43.4335938 L39.5302734,43.7080078 Z" id="Path-114" fill="#45A896"></path>
                <path d="M35.2070313,42.6767578 C35.2070313,42.6767578 28.890625,2.85449219 3.79394531,0.163085937 C22.8017578,5.58984375 29.8320313,42.6767578 29.8320313,42.6767578 L35.2070313,42.6767578 Z" id="Path-115" fill="#45A896"></path>
                <path d="M18.2216797,43.5966797 C18.2216797,43.5966797 16.1386719,23.7939453 36.8847656,9.9921875 C20.7705078,26.4541016 21.6933594,43.3398438 21.6933594,43.3398438 L18.2216797,43.5966797 Z" id="Path-116" fill="#189580" transform="translate(27.524097, 26.794434) scale(-1, 1) translate(-27.524097, -26.794434) "></path>
                <path d="M40.2216797,43.5966797 C40.2216797,43.5966797 38.1386719,23.7939453 58.8847656,9.9921875 C42.7705078,26.4541016 43.6933594,43.3398438 43.6933594,43.3398438 L40.2216797,43.5966797 Z" id="Path-116" fill="#52DEC5"></path>
                <path d="M27.2324219,43.0507813 C27.2324219,43.0507813 23.5644531,21.8925781 6.31152344,17.1835938 C24.7490234,19.5791016 30.8398438,43.4023438 30.8398438,43.4023438 L27.2324219,43.0507813 Z" id="Path-117" fill="#189580"></path>
            </g>
        </g>
    </g>
</svg>