<?xml version="1.0" encoding="UTF-8" standalone="no"?>
<svg width="78px" height="166px" viewBox="0 0 78 166" version="1.1" xmlns="http://www.w3.org/2000/svg" xmlns:xlink="http://www.w3.org/1999/xlink">
    <!-- Generator: Sketch 40.3 (33839) - http://www.bohemiancoding.com/sketch -->
    <title>spotted_prayer_plant</title>
    <desc>Created with Sketch.</desc>
    <defs></defs>
    <g id="Page-1" stroke="none" stroke-width="1" fill="none" fill-rule="evenodd">
        <g id="spotted_prayer_plant">
            <g id="blue_pot" transform="translate(7.000000, 106.000000)">
                <path d="M0,3.44238281 C0,3.44238281 6.171875,2.85589228e-15 27,0 C47.828125,0 54,3.44238281 54,3.44238281 L54,56.4423828 C54,56.4423828 47.0917969,59.4150391 27,59.4150391 C6.90820312,59.4150391 0,56.4423828 0,56.4423828 L0,3.44238281 Z" id="Rectangle-17" fill="#ADDEF6"></path>
                <ellipse id="Oval-2" fill="#5C3E23" cx="27.5" cy="4" rx="24.5" ry="3"></ellipse>
                <path d="M0.000416794987,3 C0.000416794987,3 -0.212717971,6.21569824 9.00041679,7.38500977 C9.00249199,7.41882324 9.01262383,57.9116211 9.00041679,57.9306641 C6.00236992,57.9306641 0.000416794987,56 0.000416794987,56 L0.000416794987,3 Z" id="Rectangle-17" fill="#8DCAE9"></path>
            </g>
            <g id="leaves">
                <path d="M42,44 C42,46.34375 42.1279297,47.0380859 43.3886719,47.0380859 C44.6494141,47.0380859 46.9316406,46.3183594 45.1601562,45.1591797 C43.3886719,44 42,41.65625 42,44 Z" id="Path-37" fill="#D8D8D8"></path>
                <path d="M42,43 C42,45.34375 42.1279297,46.0380859 43.3886719,46.0380859 C44.6494141,46.0380859 46.9316406,45.3183594 45.1601562,44.1591797 C43.3886719,43 42,40.65625 42,43 Z" id="Path-37" fill="#D8D8D8"></path>
                <path d="M42.1818348,61.5483797 C40.4270744,62.6975452 41.3636415,63.5781909 41.3636415,65.5175011 C41.3636415,67.4568112 40.5454482,66.9346893 41.3636415,67.8138432 C42.1818348,68.6929971 45.8484426,69.4776719 45.8484426,70.660651 C45.8484426,71.8436302 45.8208965,73.6839858 47.1051399,73.6839858 C48.3893832,73.6839858 48.8524553,75.0315578 48.8524553,75.80579 C48.8524553,76.5800223 48.6045405,79.2776525 49.9699332,79.8365716 C51.3353258,80.3954907 51.9309169,81.4790181 51.9309169,82.3472323 C51.9309169,83.2154466 56.15068,87.8349828 56.15068,87.8349828 C56.15068,87.8349828 57.7654764,90.439392 57.7654764,91.3623047 C57.7654764,92.2852174 62.7602525,89.8314777 62.7602525,89.8314777 C62.7602525,89.8314777 64.2663535,86.6748775 64.2663535,85.5754378 C64.2663535,84.4759982 64.6534877,82.1955882 66.1856459,80.4482002 C67.7178041,78.7008121 66.9241789,78.8495124 66.9241789,77.8385849 C66.9241789,76.8276573 68.7451987,75.0981905 68.7451987,73.8217266 C68.7451987,72.5452627 69.5715814,71.4209601 68.2478802,69.6174016 C66.9241789,67.8138432 66.2705176,66.7004803 66.2705176,65.5175011 C66.2705176,64.3345219 65.2297221,62.8989351 64.7480378,62.2236574 C64.2663535,61.5483797 63.0118897,60.7855843 62.0589439,59.7746568 C61.1059981,58.7637292 57.7654764,58.2774099 57.7654764,56.4703706 C57.7654764,54.6633314 56.7328703,53.1272983 54.3318936,53.1272983 C51.9309169,53.1272983 49.5061166,53 49.5061166,53 C49.5061166,53 47.9925706,54.3808883 47.9925706,55.4256295 C47.9925706,56.4703706 45.8484426,55.8789785 45.8484426,57.1713547 C45.8484426,58.4637308 43.9365951,60.3992141 42.1818348,61.5483797 Z" id="Path-35" fill="#2D040A"></path>
                <path d="M22.1818348,75.5483797 C20.4270744,76.6975452 21.3636415,77.5781909 21.3636415,79.5175011 C21.3636415,81.4568112 20.5454482,80.9346893 21.3636415,81.8138432 C22.1818348,82.6929971 25.8484426,83.4776719 25.8484426,84.660651 C25.8484426,85.8436302 25.8208965,87.6839858 27.1051399,87.6839858 C28.3893832,87.6839858 28.8524553,89.0315578 28.8524553,89.80579 C28.8524553,90.5800223 28.6045405,93.2776525 29.9699332,93.8365716 C31.3353258,94.3954907 31.9309169,95.4790181 31.9309169,96.3472323 C31.9309169,97.2154466 36.15068,101.834983 36.15068,101.834983 C36.15068,101.834983 37.7654764,104.439392 37.7654764,105.362305 C37.7654764,106.285217 42.7602525,103.831478 42.7602525,103.831478 C42.7602525,103.831478 44.2663535,100.674878 44.2663535,99.5754378 C44.2663535,98.4759982 44.6534877,96.1955882 46.1856459,94.4482002 C47.7178041,92.7008121 46.9241789,92.8495124 46.9241789,91.8385849 C46.9241789,90.8276573 48.7451987,89.0981905 48.7451987,87.8217266 C48.7451987,86.5452627 49.5715814,85.4209601 48.2478802,83.6174016 C46.9241789,81.8138432 46.2705176,80.7004803 46.2705176,79.5175011 C46.2705176,78.3345219 45.2297221,76.8989351 44.7480378,76.2236574 C44.2663535,75.5483797 43.0118897,74.7855843 42.0589439,73.7746568 C41.1059981,72.7637292 37.7654764,72.2774099 37.7654764,70.4703706 C37.7654764,68.6633314 36.7328703,67.1272983 34.3318936,67.1272983 C31.9309169,67.1272983 29.5061166,67 29.5061166,67 C29.5061166,67 27.9925706,68.3808883 27.9925706,69.4256295 C27.9925706,70.4703706 25.8484426,69.8789785 25.8484426,71.1713547 C25.8484426,72.4637308 23.9365951,74.3992141 22.1818348,75.5483797 Z" id="Path-35" fill="#2D040A"></path>
                <polygon id="Path-33" fill="#445C28" points="26.0917969 110.619141 22 26 23.4130859 26 27.7333984 110.619141"></polygon>
                <polygon id="Path-34" fill="#445C28" points="36 108.826172 42.5664062 40 44.6943359 41.5107422 37.9130859 109.458008"></polygon>
                <path d="M13.9285845,38.7718788 C12.5498442,39.6822279 13.2857183,40.3798602 13.2857183,41.9161483 C13.2857183,43.4524363 12.6428521,43.0388203 13.2857183,43.7352708 C13.9285845,44.4317214 16.8094906,45.0533272 16.8094906,45.9904629 C16.8094906,46.9275986 16.7878473,48.3854965 17.7968956,48.3854965 C18.805944,48.3854965 19.1697863,49.4530197 19.1697863,50.0663532 C19.1697863,50.6796866 18.9749961,52.8167026 20.0478046,53.2594687 C21.1206131,53.7022348 21.5885776,54.5605865 21.5885776,55.2483708 C21.5885776,55.9361551 24.9041057,59.595672 24.9041057,59.595672 C24.9041057,59.595672 27.0941794,62.2049981 27.0941794,62.9361136 C27.0941794,63.6672291 28.516363,64.4794922 28.516363,64.4794922 L30.0973412,61.1772608 C30.0973412,61.1772608 31.2807063,58.6766566 31.2807063,57.8056995 C31.2807063,56.9347423 31.5848832,55.128241 32.7887218,53.7439903 C33.9925603,52.3597397 33.3689977,52.4775375 33.3689977,51.6766981 C33.3689977,50.8758588 34.799799,49.505805 34.799799,48.4946123 C34.799799,47.4834197 35.4490997,46.5927666 34.4090487,45.1640187 C33.3689977,43.7352708 32.8554067,42.853284 32.8554067,41.9161483 C32.8554067,40.9790126 32.0376388,39.8417655 31.6591726,39.3068222 C31.2807063,38.7718788 30.2950562,38.1676055 29.5463131,37.3667661 C28.79757,36.5659268 26.1728743,36.180673 26.1728743,34.7491677 C26.1728743,33.3176624 25.361541,32.1008435 23.4750593,32.1008435 C21.5885776,32.1008435 19.6833773,32 19.6833773,32 C19.6833773,32 18.4941626,33.0939159 18.4941626,33.9215418 C18.4941626,34.7491677 16.8094906,34.2806771 16.8094906,35.3044751 C16.8094906,36.3282732 15.3073247,37.8615297 13.9285845,38.7718788 Z" id="Path-35" fill="#2D040A" transform="translate(24.000000, 48.239746) scale(-1, 1) translate(-24.000000, -48.239746) "></path>
                <path d="M33.9285845,14.7718788 C32.5498442,15.6822279 33.2857183,16.3798602 33.2857183,17.9161483 C33.2857183,19.4524363 32.6428521,19.0388203 33.2857183,19.7352708 C33.9285845,20.4317214 36.8094906,21.0533272 36.8094906,21.9904629 C36.8094906,22.9275986 36.7878473,24.3854965 37.7968956,24.3854965 C38.805944,24.3854965 39.1697863,25.4530197 39.1697863,26.0663532 C39.1697863,26.6796866 38.9749961,28.8167026 40.0478046,29.2594687 C41.1206131,29.7022348 41.5885776,30.5605865 41.5885776,31.2483708 C41.5885776,31.9361551 44.9041057,35.595672 44.9041057,35.595672 C44.9041057,35.595672 47.0941794,38.2049981 47.0941794,38.9361136 C47.0941794,39.6672291 48.516363,40.4794922 48.516363,40.4794922 L50.0973412,37.1772608 C50.0973412,37.1772608 51.2807063,34.6766566 51.2807063,33.8056995 C51.2807063,32.9347423 51.5848832,31.128241 52.7887218,29.7439903 C53.9925603,28.3597397 53.3689977,28.4775375 53.3689977,27.6766981 C53.3689977,26.8758588 54.799799,25.505805 54.799799,24.4946123 C54.799799,23.4834197 55.4490997,22.5927666 54.4090487,21.1640187 C53.3689977,19.7352708 52.8554067,18.853284 52.8554067,17.9161483 C52.8554067,16.9790126 52.0376388,15.8417655 51.6591726,15.3068222 C51.2807063,14.7718788 50.2950562,14.1676055 49.5463131,13.3667661 C48.79757,12.5659268 46.1728743,12.180673 46.1728743,10.7491677 C46.1728743,9.31766241 45.361541,8.10084352 43.4750593,8.10084352 C41.5885776,8.10084352 39.6833773,8 39.6833773,8 C39.6833773,8 38.4941626,9.09391585 38.4941626,9.92154178 C38.4941626,10.7491677 36.8094906,10.2806771 36.8094906,11.3044751 C36.8094906,12.3282732 35.3073247,13.8615297 33.9285845,14.7718788 Z" id="Path-35" fill="#2D040A" transform="translate(44.000000, 24.239746) scale(-1, 1) translate(-44.000000, -24.239746) "></path>
                <g id="Group-2" transform="translate(38.000000, 0.000000)">
                    <path d="M9.81835937,19.5654297 C9.81835937,19.5654297 6.65136719,15.0517578 4.34960938,17.3085937 C2.04785156,19.5654297 0.463867188,21.2148437 0.463867188,25.0234375 C0.463867188,28.8320312 2.203125,27.8867187 3.27636719,29.6132812 C4.34960938,31.3398437 9.15917969,32.8808594 9.15917969,35.2041016 C9.15917969,37.5273437 9.12304688,41.1416016 10.8076172,41.1416016 C12.4921875,41.1416016 13.0996094,43.7880859 13.0996094,45.3085937 C13.0996094,46.8291016 12.7744141,52.1269531 14.5654297,53.2246094 C16.3564453,54.3222656 17.1376953,56.4501953 17.1376953,58.1552734 C17.1376953,59.8603516 22.6728516,68.9326172 22.6728516,68.9326172 C22.6728516,68.9326172 26.3291016,75.4013672 26.3291016,77.2138672 C26.3291016,79.0263672 29.1728516,85.3115234 29.1728516,85.3115234 L31.3427734,72.8535156 C31.3427734,72.8535156 33.3183594,66.6542969 33.3183594,64.4951172 C33.3183594,62.3359375 33.8261719,57.8574609 35.8359375,54.4257812 C37.8457031,50.9941016 36.8046875,51.2861328 36.8046875,49.3007812 C36.8046875,47.3154297 39.1933594,43.9189453 39.1933594,41.4121094 C39.1933594,38.9052734 40.2773438,36.6972656 38.5410156,33.1552734 C36.8046875,29.6132812 35.9472656,27.4267578 35.9472656,25.1035156 C35.9472656,22.7802734 34.5820313,19.9609375 33.9501953,18.6347656 C33.3183594,17.3085937 31.6728516,15.8105469 30.4228516,13.8251953 C29.1728516,11.8398437 24.7910156,10.8847656 24.7910156,7.3359375 C24.7910156,3.78710937 23.4365234,0.770507812 20.2871094,0.770507812 C17.1376953,0.770507812 13.9570313,0.520507812 13.9570313,0.520507812 C13.9570313,0.520507812 11.9716797,3.23242188 11.9716797,5.28417969 C11.9716797,7.3359375 11.2763672,8.74902344 11.2763672,11.2871094 C11.2763672,13.8251953 9.81835937,19.5654297 9.81835937,19.5654297 Z" id="Path-35" fill="#445C28"></path>
                    <path d="M14.958418,22 C14.958418,22 18.364668,25.5693359 19.732832,30.0517578 C21.1009961,34.5341797 25.2777539,51.1455078 25.2777539,54.2392578 C25.2777539,57.3330078 27.014082,65.9404297 27.014082,65.9404297 C27.014082,65.9404297 27.0570508,50.5556641 27.0355664,46.2119141 C27.014082,41.8681641 23.5633203,29.6279297 22.2816602,27.9130859 C21,26.1982422 14.958418,22 14.958418,22 Z" id="Path-36" fill="#2A341D"></path>
                    <path d="M27,16 C27,18.34375 27.1279297,19.0380859 28.3886719,19.0380859 C29.6494141,19.0380859 31.9316406,18.3183594 30.1601562,17.1591797 C28.3886719,16 27,13.65625 27,16 Z" id="Path-37" fill="#D8D8D8"></path>
                    <path d="M20,12 C20,14.34375 20.1279297,15.0380859 21.3886719,15.0380859 C22.6494141,15.0380859 24.9316406,14.3183594 23.1601562,13.1591797 C21.3886719,12 20,9.65625 20,12 Z" id="Path-37" fill="#D8D8D8"></path>
                    <path d="M16,3 C16,5.34375 16.1279297,6.03808594 17.3886719,6.03808594 C18.6494141,6.03808594 20.9316406,5.31835938 19.1601562,4.15917969 C17.3886719,3 16,0.65625 16,3 Z" id="Path-37" fill="#D8D8D8"></path>
                    <path d="M19,19 C19,21.34375 19.1279297,22.0380859 20.3886719,22.0380859 C21.6494141,22.0380859 23.9316406,21.3183594 22.1601562,20.1591797 C20.3886719,19 19,16.65625 19,19 Z" id="Path-37" fill="#D8D8D8"></path>
                    <path d="M25,28 C25,30.34375 25.1279297,31.0380859 26.3886719,31.0380859 C27.6494141,31.0380859 29.9316406,30.3183594 28.1601562,29.1591797 C26.3886719,28 25,25.65625 25,28 Z" id="Path-37" fill="#D8D8D8"></path>
                    <path d="M8,22 C8,24.34375 8.12792969,25.0380859 9.38867188,25.0380859 C10.6494141,25.0380859 12.9316406,24.3183594 11.1601562,23.1591797 C9.38867188,22 8,19.65625 8,22 Z" id="Path-37" fill="#D8D8D8"></path>
                    <path d="M13,34 C13,36.34375 13.1279297,37.0380859 14.3886719,37.0380859 C15.6494141,37.0380859 17.9316406,36.3183594 16.1601562,35.1591797 C14.3886719,34 13,31.65625 13,34 Z" id="Path-37" fill="#D8D8D8"></path>
                    <path d="M16,43 C16,45.34375 16.1279297,46.0380859 17.3886719,46.0380859 C18.6494141,46.0380859 20.9316406,45.3183594 19.1601562,44.1591797 C17.3886719,43 16,40.65625 16,43 Z" id="Path-37" fill="#D8D8D8"></path>
                    <path d="M31,33 C31,35.34375 31.1279297,36.0380859 32.3886719,36.0380859 C33.6494141,36.0380859 35.9316406,35.3183594 34.1601562,34.1591797 C32.3886719,33 31,30.65625 31,33 Z" id="Path-37" fill="#D8D8D8"></path>
                    <path d="M29,42 C29,44.34375 29.1279297,45.0380859 30.3886719,45.0380859 C31.6494141,45.0380859 33.9316406,44.3183594 32.1601562,43.1591797 C30.3886719,42 29,39.65625 29,42 Z" id="Path-37" fill="#D8D8D8"></path>
                    <path d="M19,54 C19,56.34375 19.1279297,57.0380859 20.3886719,57.0380859 C21.6494141,57.0380859 23.9316406,56.3183594 22.1601562,55.1591797 C20.3886719,54 19,51.65625 19,54 Z" id="Path-37" fill="#D8D8D8"></path>
                    <path d="M23,63 C23,65.34375 23.1279297,66.0380859 24.3886719,66.0380859 C25.6494141,66.0380859 27.9316406,65.3183594 26.1601562,64.1591797 C24.3886719,63 23,60.65625 23,63 Z" id="Path-37" fill="#D8D8D8"></path>
                    <path d="M28,60 C28,62.34375 28.1279297,63.0380859 29.3886719,63.0380859 C30.6494141,63.0380859 32.9316406,62.3183594 31.1601562,61.1591797 C29.3886719,60 28,57.65625 28,60 Z" id="Path-37" fill="#D8D8D8"></path>
                    <path d="M27,51 C27,53.34375 27.1279297,54.0380859 28.3886719,54.0380859 C29.6494141,54.0380859 31.9316406,53.3183594 30.1601562,52.1591797 C28.3886719,51 27,48.65625 27,51 Z" id="Path-37" fill="#D8D8D8"></path>
                    <path d="M27,69 C27,71.34375 27.1279297,72.0380859 28.3886719,72.0380859 C29.6494141,72.0380859 31.9316406,71.3183594 30.1601562,70.1591797 C28.3886719,69 27,66.65625 27,69 Z" id="Path-37" fill="#D8D8D8"></path>
                </g>
                <polygon id="Path-38" fill="#445C28" points="14.6943359 39 14 40.8125 24.5083008 68.324707 25.034668 65.1337891"></polygon>
                <path d="M40.032924,49.1783424 C40.032924,51.5220924 40.1336816,52.2164284 41.1266434,52.2164284 C42.1196052,52.2164284 41.763098,50.8471657 41.5993303,49.9317604 C41.4355626,49.0163551 40.032924,46.8345924 40.032924,49.1783424 Z" id="Path-37" fill="#D8D8D8" transform="translate(40.915402, 50.172379) rotate(-36.000000) translate(-40.915402, -50.172379) "></path>
                <g id="Group-8" transform="translate(28.000000, 98.000000)">
                    <path d="M2.88572877,6.57135662 C1.50698851,6.99178305 2.24286261,7.3139705 2.24286261,8.02347421 C2.24286261,8.73297793 1.59999644,8.5419577 2.24286261,8.86359938 C2.88572877,9.18524106 5.76663493,9.47231718 5.76663493,9.90511444 C5.76663493,10.3379117 5.74499157,11.0112125 6.75403992,11.0112125 C7.76308827,11.0112125 8.12693063,11.5042267 8.12693063,11.7874824 C8.12693063,12.0707381 7.93214043,13.0576759 9.00494894,13.2621585 C10.0777574,13.4666411 10.5457219,13.8630536 10.5457219,14.180693 C10.5457219,14.4983323 13.86125,16.1884065 13.86125,16.1884065 C13.86125,16.1884065 16.0513237,17.3934713 16.0513237,17.7311223 C16.0513237,18.0687733 17.4735073,18.4439006 17.4735073,18.4439006 L19.0544855,16.9188315 C19.0544855,16.9188315 20.2378506,15.7639778 20.2378506,15.3617438 C20.2378506,14.9595097 20.5420275,14.1252134 21.7458661,13.4859251 C22.9497046,12.8466368 22.326142,12.9010393 22.326142,12.5311878 C22.326142,12.1613362 23.7569433,11.5286045 23.7569433,11.0616055 C23.7569433,10.5946065 24.406244,10.1832763 23.366193,9.52343783 C22.326142,8.86359938 21.812551,8.45627148 21.812551,8.02347421 C21.812551,7.59067695 20.9947831,7.06546228 20.6163169,6.81840945 C20.2378506,6.57135662 19.2522005,6.29228516 18.5034574,5.92243361 C17.7547143,5.55258206 15.1300187,5.37466036 15.1300187,4.71354844 C15.1300187,4.05243652 14.3186853,3.4904732 12.4322036,3.4904732 C10.5457219,3.4904732 8.64052162,3.44390064 8.64052162,3.44390064 C8.64052162,3.44390064 7.45130696,3.94910367 7.45130696,4.33132605 C7.45130696,4.71354844 5.76663493,4.49718546 5.76663493,4.97000601 C5.76663493,5.44282656 4.26446904,6.15093019 2.88572877,6.57135662 Z" id="Path-35" fill="#445C28" transform="translate(12.957144, 10.943901) rotate(-21.000000) translate(-12.957144, -10.943901) "></path>
                    <path d="M14.6162784,12.2588074 C14.6162784,14.336364 15.7413517,13.7888508 16.016145,13.9884998 C16.2909383,14.1881488 16.2015654,13.4214863 15.9306567,12.6100489 C15.6597481,11.7986116 14.6162784,10.1812507 14.6162784,12.2588074 Z" id="Path-37" fill="#D8D8D8" transform="translate(15.399740, 12.631087) rotate(-36.000000) translate(-15.399740, -12.631087) "></path>
                    <path d="M16.6670696,10.2123147 C16.6670696,12.2898713 17.7921429,11.7423581 18.0669362,11.9420071 C18.3417295,12.1416561 18.2523565,11.3749936 17.9814479,10.5635563 C17.7105393,9.75211891 16.6670696,8.13475807 16.6670696,10.2123147 Z" id="Path-37" fill="#D8D8D8" transform="translate(17.450531, 10.584595) rotate(-36.000000) translate(-17.450531, -10.584595) "></path>
                    <path d="M12.6670696,8.21231471 C12.6670696,10.2898713 13.7921429,9.74235811 14.0669362,9.9420071 C14.3417295,10.1416561 14.2523565,9.37499363 13.9814479,8.56355627 C13.7105393,7.75211891 12.6670696,6.13475807 12.6670696,8.21231471 Z" id="Path-37" fill="#D8D8D8" transform="translate(13.450531, 8.584595) rotate(-36.000000) translate(-13.450531, -8.584595) "></path>
                    <path d="M6.66706959,9.21231471 C6.66706959,11.2898713 7.79214292,10.7423581 8.06693619,10.9420071 C8.34172945,11.1416561 8.25235654,10.3749936 7.98144792,9.56355627 C7.71053929,8.75211891 6.66706959,7.13475807 6.66706959,9.21231471 Z" id="Path-37" fill="#D8D8D8" transform="translate(7.450531, 9.584595) rotate(-36.000000) translate(-7.450531, -9.584595) "></path>
                    <path d="M16.6670696,6.21231471 C16.6670696,8.28987135 17.7921429,7.74235811 18.0669362,7.9420071 C18.3417295,8.1416561 18.2523565,7.37499363 17.9814479,6.56355627 C17.7105393,5.75211891 16.6670696,4.13475807 16.6670696,6.21231471 Z" id="Path-37" fill="#D8D8D8" transform="translate(17.450531, 6.584595) rotate(-36.000000) translate(-17.450531, -6.584595) "></path>
                </g>
                <polygon id="Path-39" fill="#445C28" points="41.737793 17 41 18.2641602 48.324707 31.5019531 49.0366211 30.0258789 45.5800781 24.2509766"></polygon>
                <g id="Group-3" transform="translate(22.000000, 7.000000)">
                    <path d="M7.18717831,5.31762255 C6.42992628,5.96416323 6.83409389,6.45962993 6.83409389,7.55071978 C6.83409389,8.64180964 6.48100946,8.34805468 6.83409389,8.84268208 C7.18717831,9.33730948 8.76947203,9.77878122 8.76947203,10.444346 C8.76947203,11.1099108 8.75758475,12.1453271 9.31178914,12.1453271 C9.86599354,12.1453271 10.0658284,12.9034947 10.0658284,13.3390913 C10.0658284,13.774688 9.95884286,15.292422 10.5480665,15.6068796 C11.1372902,15.9213373 11.3943126,16.5309488 11.3943126,17.0194214 C11.3943126,17.5078939 13.2153158,20.1069259 13.2153158,20.1069259 C13.2153158,20.1069259 14.4181803,21.9601 14.4181803,22.4793469 C14.4181803,22.9985938 15.1992929,23.5754726 15.1992929,23.5754726 L16.0676211,21.2301889 C16.0676211,21.2301889 16.7175663,19.4542303 16.7175663,18.8356663 C16.7175663,18.2171023 16.8846308,16.9341037 17.5458207,15.9509926 C18.2070107,14.9678815 17.8645284,15.0515429 17.8645284,14.4827773 C17.8645284,13.9140118 18.6503742,12.9409834 18.6503742,12.2228225 C18.6503742,11.5046616 19.0069927,10.8721092 18.4357606,9.85739564 C17.8645284,8.84268208 17.5824464,8.21628459 17.5824464,7.55071978 C17.5824464,6.88515497 17.1332999,6.07746871 16.9254331,5.69754563 C16.7175663,5.31762255 16.176213,4.88846054 15.7649773,4.31969498 C15.3537416,3.75092942 13.9121676,3.47731766 13.9121676,2.46064573 C13.9121676,1.44397379 13.4665551,0.579774676 12.4304338,0.579774676 C11.3943126,0.579774676 10.3479104,0.508154419 10.3479104,0.508154419 C10.3479104,0.508154419 9.69475241,1.28506635 9.69475241,1.87285604 C9.69475241,2.46064573 8.76947203,2.12791814 8.76947203,2.85503161 C8.76947203,3.58214508 7.94443035,4.67108186 7.18717831,5.31762255 Z" id="Path-35" fill="#445C28" transform="translate(12.718750, 12.041813) scale(-1, 1) rotate(-50.000000) translate(-12.718750, -12.041813) "></path>
                    <path d="M7.66706959,13.2123147 C7.66706959,15.2898713 8.79214292,14.7423581 9.06693619,14.9420071 C9.34172945,15.1416561 9.25235654,14.3749936 8.98144792,13.5635563 C8.71053929,12.7521189 7.66706959,11.1347581 7.66706959,13.2123147 Z" id="Path-37" fill="#D8D8D8" transform="translate(8.450531, 13.584595) rotate(58.000000) translate(-8.450531, -13.584595) "></path>
                    <path d="M9.80452545,8.90858743 C9.80452545,10.9861441 10.9295988,10.4386308 11.204392,10.6382798 C11.4791853,10.8379288 11.3898124,10.0712663 11.1189038,9.25982899 C10.8479952,8.44839164 9.80452545,6.83103079 9.80452545,8.90858743 Z" id="Path-37" fill="#D8D8D8" transform="translate(10.587987, 9.280868) rotate(-66.000000) translate(-10.587987, -9.280868) "></path>
                    <path d="M12.6670696,12.2123147 C12.6670696,14.2898713 13.7921429,13.7423581 14.0669362,13.9420071 C14.3417295,14.1416561 14.2523565,13.3749936 13.9814479,12.5635563 C13.7105393,11.7521189 12.6670696,10.1347581 12.6670696,12.2123147 Z" id="Path-37" fill="#D8D8D8" transform="translate(13.450531, 12.584595) rotate(45.000000) translate(-13.450531, -12.584595) "></path>
                    <path d="M13.6670696,6.21231471 C13.6670696,8.28987135 14.7921429,7.74235811 15.0669362,7.9420071 C15.3417295,8.1416561 15.2523565,7.37499363 14.9814479,6.56355627 C14.7105393,5.75211891 13.6670696,4.13475807 13.6670696,6.21231471 Z" id="Path-37" fill="#D8D8D8" transform="translate(14.450531, 6.584595) rotate(-36.000000) translate(-14.450531, -6.584595) "></path>
                    <path d="M18.6572539,8.50619612 C18.6572539,10.5837528 19.7823273,10.0362395 20.0571205,10.2358885 C20.3319138,10.4355375 20.2425409,9.66887504 19.9716323,8.85743768 C19.7007236,8.04600033 18.6572539,6.42863948 18.6572539,8.50619612 Z" id="Path-37" fill="#D8D8D8" transform="translate(19.440716, 8.878476) rotate(-86.000000) translate(-19.440716, -8.878476) "></path>
                    <polygon id="Path-42" fill="#2A341D" points="16.3242188 8.21875 13.1767578 9.21142578 9.74804688 12.6679688 14.5883789 10.3349609"></polygon>
                </g>
                <g id="Group-4" transform="translate(0.000000, 19.000000)">
                    <path d="M4.37413593,13.873851 C4.37413593,13.873851 2.91483153,10.5857298 1.85421467,12.2297904 C0.793597812,13.873851 0.0637206195,15.0754167 0.0637206195,17.8499023 C0.0637206195,20.6243879 0.865145577,19.9357464 1.35968012,21.1935132 C1.85421467,22.45128 4.07039542,23.5738796 4.07039542,25.2663158 C4.07039542,26.958752 4.05374594,29.5916678 4.82997168,29.5916678 C5.60619743,29.5916678 5.88608868,31.5195796 5.88608868,32.6272396 C5.88608868,33.7348996 5.73624337,37.5942803 6.56151758,38.3939013 C7.38679179,39.1935223 7.74678054,40.7436772 7.74678054,41.9857931 C7.74678054,43.2279089 10.2973008,49.836876 10.2973008,49.836876 C10.2973008,49.836876 11.9820482,54.5492331 11.9820482,55.8696037 C11.9820482,57.1899743 13.0760845,58.6568947 13.0760845,58.6568947 L14.292276,52.6931734 C14.292276,52.6931734 15.2025976,48.1771645 15.2025976,46.6042445 C15.2025976,45.0313246 15.4365903,41.7688425 16.3626613,39.2689314 C17.2887324,36.7690202 16.8090474,36.9817592 16.8090474,35.5354697 C16.8090474,34.0891801 17.909713,31.6149081 17.909713,29.7887274 C17.909713,27.9625467 18.4091974,26.3540565 17.6091224,23.7737848 C16.8090474,21.1935132 16.4139597,19.6006739 16.4139597,17.9082376 C16.4139597,16.2158014 15.7848794,14.1619706 15.4937385,13.1958805 C15.2025976,12.2297904 14.4443713,11.1384927 13.8683893,9.69220314 C13.2924073,8.24591358 11.2733203,7.55015795 11.2733203,4.96490647 C11.2733203,2.37965498 10.6491898,0.182120082 9.19798519,0.182120082 C7.74678054,0.182120082 6.28117634,0 6.28117634,0 C6.28117634,0 5.36635492,1.97557605 5.36635492,3.47024126 C5.36635492,4.96490647 5.04596494,5.99431178 5.04596494,7.84325746 C5.04596494,9.69220314 4.37413593,13.873851 4.37413593,13.873851 Z" id="Path-35" fill="#445C28" transform="translate(9.063721, 29.328447) scale(-1, 1) translate(-9.063721, -29.328447) "></path>
                    <path d="M4.03292402,41.1783424 C4.03292402,43.5220924 4.13368157,44.2164284 5.12664339,44.2164284 C6.11960522,44.2164284 5.76309796,42.8471657 5.59933027,41.9317604 C5.43556257,41.0163551 4.03292402,38.8345924 4.03292402,41.1783424 Z" id="Path-37" fill="#D8D8D8" transform="translate(4.915402, 42.172379) rotate(-36.000000) translate(-4.915402, -42.172379) "></path>
                    <path d="M2.03292402,29.1783424 C2.03292402,31.5220924 2.13368157,32.2164284 3.12664339,32.2164284 C4.11960522,32.2164284 3.76309796,30.8471657 3.59933027,29.9317604 C3.43556257,29.0163551 2.03292402,26.8345924 2.03292402,29.1783424 Z" id="Path-37" fill="#D8D8D8" transform="translate(2.915402, 30.172379) rotate(-36.000000) translate(-2.915402, -30.172379) "></path>
                    <path d="M4.03292402,22.1783424 C4.03292402,24.5220924 4.13368157,25.2164284 5.12664339,25.2164284 C6.11960522,25.2164284 5.76309796,23.8471657 5.59933027,22.9317604 C5.43556257,22.0163551 4.03292402,19.8345924 4.03292402,22.1783424 Z" id="Path-37" fill="#D8D8D8" transform="translate(4.915402, 23.172379) rotate(-36.000000) translate(-4.915402, -23.172379) "></path>
                    <path d="M3.03292402,14.1783424 C3.03292402,16.5220924 3.13368157,17.2164284 4.12664339,17.2164284 C5.11960522,17.2164284 4.76309796,15.8471657 4.59933027,14.9317604 C4.43556257,14.0163551 3.03292402,11.8345924 3.03292402,14.1783424 Z" id="Path-37" fill="#D8D8D8" transform="translate(3.915402, 15.172379) rotate(-36.000000) translate(-3.915402, -15.172379) "></path>
                    <path d="M10.032924,24.1783424 C10.032924,26.5220924 10.1336816,27.2164284 11.1266434,27.2164284 C12.1196052,27.2164284 11.763098,25.8471657 11.5993303,24.9317604 C11.4355626,24.0163551 10.032924,21.8345924 10.032924,24.1783424 Z" id="Path-37" fill="#D8D8D8" transform="translate(10.915402, 25.172379) rotate(-36.000000) translate(-10.915402, -25.172379) "></path>
                    <path d="M13.032924,17.1783424 C13.032924,19.5220924 13.1336816,20.2164284 14.1266434,20.2164284 C15.1196052,20.2164284 14.763098,18.8471657 14.5993303,17.9317604 C14.4355626,17.0163551 13.032924,14.8345924 13.032924,17.1783424 Z" id="Path-37" fill="#D8D8D8" transform="translate(13.915402, 18.172379) rotate(-36.000000) translate(-13.915402, -18.172379) "></path>
                    <path d="M10.032924,5.17834245 C10.032924,7.52209245 10.1336816,8.21642839 11.1266434,8.21642839 C12.1196052,8.21642839 11.763098,6.84716569 11.5993303,5.93176042 C11.4355626,5.01635514 10.032924,2.83459245 10.032924,5.17834245 Z" id="Path-37" fill="#D8D8D8" transform="translate(10.915402, 6.172379) rotate(-36.000000) translate(-10.915402, -6.172379) "></path>
                    <path d="M7.03292402,38.1783424 C7.03292402,40.5220924 7.13368157,41.2164284 8.12664339,41.2164284 C9.11960522,41.2164284 8.76309796,39.8471657 8.59933027,38.9317604 C8.43556257,38.0163551 7.03292402,35.8345924 7.03292402,38.1783424 Z" id="Path-37" fill="#D8D8D8" transform="translate(7.915402, 39.172379) rotate(-36.000000) translate(-7.915402, -39.172379) "></path>
                    <polygon id="Path-43" fill="#2A341D" points="9.68212891 11.1665039 8.62988281 18.1333008 6.63867188 29.8520508 5.72705078 42.1245117 7.76708984 29.7758789 9.15087891 23.5795898 10.019043 18.159668"></polygon>
                </g>
                <g id="Group-4" transform="translate(20.000000, 19.000000)">
                    <path d="M4.37413593,13.873851 C4.37413593,13.873851 2.91483153,10.5857298 1.85421467,12.2297904 C0.793597812,13.873851 0.0637206195,15.0754167 0.0637206195,17.8499023 C0.0637206195,20.6243879 0.865145577,19.9357464 1.35968012,21.1935132 C1.85421467,22.45128 4.07039542,23.5738796 4.07039542,25.2663158 C4.07039542,26.958752 4.05374594,29.5916678 4.82997168,29.5916678 C5.60619743,29.5916678 5.88608868,31.5195796 5.88608868,32.6272396 C5.88608868,33.7348996 5.73624337,37.5942803 6.56151758,38.3939013 C7.38679179,39.1935223 7.74678054,40.7436772 7.74678054,41.9857931 C7.74678054,43.2279089 10.2973008,49.836876 10.2973008,49.836876 C10.2973008,49.836876 11.9820482,54.5492331 11.9820482,55.8696037 C11.9820482,57.1899743 13.0760845,58.6568947 13.0760845,58.6568947 L14.292276,52.6931734 C14.292276,52.6931734 15.2025976,48.1771645 15.2025976,46.6042445 C15.2025976,45.0313246 15.4365903,41.7688425 16.3626613,39.2689314 C17.2887324,36.7690202 16.8090474,36.9817592 16.8090474,35.5354697 C16.8090474,34.0891801 17.909713,31.6149081 17.909713,29.7887274 C17.909713,27.9625467 18.4091974,26.3540565 17.6091224,23.7737848 C16.8090474,21.1935132 16.4139597,19.6006739 16.4139597,17.9082376 C16.4139597,16.2158014 15.7848794,14.1619706 15.4937385,13.1958805 C15.2025976,12.2297904 14.4443713,11.1384927 13.8683893,9.69220314 C13.2924073,8.24591358 11.2733203,7.55015795 11.2733203,4.96490647 C11.2733203,2.37965498 10.6491898,0.182120082 9.19798519,0.182120082 C7.74678054,0.182120082 6.28117634,0 6.28117634,0 C6.28117634,0 5.36635492,1.97557605 5.36635492,3.47024126 C5.36635492,4.96490647 5.04596494,5.99431178 5.04596494,7.84325746 C5.04596494,9.69220314 4.37413593,13.873851 4.37413593,13.873851 Z" id="Path-35" fill="#445C28" transform="translate(9.063721, 29.328447) scale(-1, 1) translate(-9.063721, -29.328447) "></path>
                    <path d="M4.03292402,41.1783424 C4.03292402,43.5220924 4.13368157,44.2164284 5.12664339,44.2164284 C6.11960522,44.2164284 5.76309796,42.8471657 5.59933027,41.9317604 C5.43556257,41.0163551 4.03292402,38.8345924 4.03292402,41.1783424 Z" id="Path-37" fill="#D8D8D8" transform="translate(4.915402, 42.172379) rotate(-36.000000) translate(-4.915402, -42.172379) "></path>
                    <path d="M2.03292402,29.1783424 C2.03292402,31.5220924 2.13368157,32.2164284 3.12664339,32.2164284 C4.11960522,32.2164284 3.76309796,30.8471657 3.59933027,29.9317604 C3.43556257,29.0163551 2.03292402,26.8345924 2.03292402,29.1783424 Z" id="Path-37" fill="#D8D8D8" transform="translate(2.915402, 30.172379) rotate(-36.000000) translate(-2.915402, -30.172379) "></path>
                    <path d="M4.03292402,22.1783424 C4.03292402,24.5220924 4.13368157,25.2164284 5.12664339,25.2164284 C6.11960522,25.2164284 5.76309796,23.8471657 5.59933027,22.9317604 C5.43556257,22.0163551 4.03292402,19.8345924 4.03292402,22.1783424 Z" id="Path-37" fill="#D8D8D8" transform="translate(4.915402, 23.172379) rotate(-36.000000) translate(-4.915402, -23.172379) "></path>
                    <path d="M3.03292402,14.1783424 C3.03292402,16.5220924 3.13368157,17.2164284 4.12664339,17.2164284 C5.11960522,17.2164284 4.76309796,15.8471657 4.59933027,14.9317604 C4.43556257,14.0163551 3.03292402,11.8345924 3.03292402,14.1783424 Z" id="Path-37" fill="#D8D8D8" transform="translate(3.915402, 15.172379) rotate(-36.000000) translate(-3.915402, -15.172379) "></path>
                    <path d="M10.032924,24.1783424 C10.032924,26.5220924 10.1336816,27.2164284 11.1266434,27.2164284 C12.1196052,27.2164284 11.763098,25.8471657 11.5993303,24.9317604 C11.4355626,24.0163551 10.032924,21.8345924 10.032924,24.1783424 Z" id="Path-37" fill="#D8D8D8" transform="translate(10.915402, 25.172379) rotate(-36.000000) translate(-10.915402, -25.172379) "></path>
                    <path d="M13.032924,17.1783424 C13.032924,19.5220924 13.1336816,20.2164284 14.1266434,20.2164284 C15.1196052,20.2164284 14.763098,18.8471657 14.5993303,17.9317604 C14.4355626,17.0163551 13.032924,14.8345924 13.032924,17.1783424 Z" id="Path-37" fill="#D8D8D8" transform="translate(13.915402, 18.172379) rotate(-36.000000) translate(-13.915402, -18.172379) "></path>
                    <path d="M10.032924,5.17834245 C10.032924,7.52209245 10.1336816,8.21642839 11.1266434,8.21642839 C12.1196052,8.21642839 11.763098,6.84716569 11.5993303,5.93176042 C11.4355626,5.01635514 10.032924,2.83459245 10.032924,5.17834245 Z" id="Path-37" fill="#D8D8D8" transform="translate(10.915402, 6.172379) rotate(-36.000000) translate(-10.915402, -6.172379) "></path>
                    <path d="M7.03292402,38.1783424 C7.03292402,40.5220924 7.13368157,41.2164284 8.12664339,41.2164284 C9.11960522,41.2164284 8.76309796,39.8471657 8.59933027,38.9317604 C8.43556257,38.0163551 7.03292402,35.8345924 7.03292402,38.1783424 Z" id="Path-37" fill="#D8D8D8" transform="translate(7.915402, 39.172379) rotate(-36.000000) translate(-7.915402, -39.172379) "></path>
                    <polygon id="Path-43" fill="#2A341D" points="9.68212891 11.1665039 8.62988281 18.1333008 6.63867188 29.8520508 5.72705078 42.1245117 7.76708984 29.7758789 9.15087891 23.5795898 10.019043 18.159668"></polygon>
                </g>
                <g id="Group-5" transform="translate(6.000000, 72.000000)">
                    <path d="M5.4208796,7.36173466 C4.66362756,8.19267483 5.06779517,8.8294533 5.06779517,10.2317323 C5.06779517,11.6340112 4.71471075,11.2564746 5.06779517,11.8921744 C5.4208796,12.5278742 7.00317331,13.0952578 7.00317331,13.950648 C7.00317331,14.8060381 6.99128603,16.1367649 7.54549043,16.1367649 C8.09969482,16.1367649 8.29952969,17.111169 8.29952969,17.6710019 C8.29952969,18.2308348 8.19254414,20.1814408 8.78176783,20.5855848 C9.37099152,20.9897288 9.62801385,21.7732072 9.62801385,22.4009967 C9.62801385,23.0287862 11.4490171,26.3690866 11.4490171,26.3690866 C11.4490171,26.3690866 12.6518816,28.7508035 12.6518816,29.4181445 C12.6518816,30.0854854 13.4329942,30.8268955 13.4329942,30.8268955 L14.3013224,27.8127148 C14.3013224,27.8127148 14.9512676,25.5302361 14.9512676,24.7352518 C14.9512676,23.9402675 15.1183321,22.2913457 15.779522,21.027842 C16.440712,19.7643383 16.0982297,19.8718608 16.0982297,19.1408779 C16.0982297,18.4098951 16.8840755,17.1593499 16.8840755,16.2363627 C16.8840755,15.3133755 17.240694,14.5004132 16.6694618,13.1962938 C16.0982297,11.8921744 15.8161477,11.0871224 15.8161477,10.2317323 C15.8161477,9.3763421 15.3670012,8.33829611 15.1591344,7.85001538 C14.9512676,7.36173466 14.4099143,6.8101716 13.9986786,6.07918875 C13.5874428,5.3482059 12.1458688,4.99655748 12.1458688,3.68992114 C12.1458688,2.38328479 11.7002564,1.27260795 10.6641351,1.27260795 C9.62801385,1.27260795 8.58161169,1.18056092 8.58161169,1.18056092 C8.58161169,1.18056092 7.9284537,2.17905545 7.9284537,2.93448829 C7.9284537,3.68992114 7.00317331,3.26229651 7.00317331,4.19678959 C7.00317331,5.13128267 6.17813163,6.53079448 5.4208796,7.36173466 Z" id="Path-35" fill="#445C28" transform="translate(10.952451, 16.003728) scale(-1, 1) rotate(-21.000000) translate(-10.952451, -16.003728) "></path>
                    <path d="M5.66706959,21.2123147 C5.66706959,23.2898713 6.79214292,22.7423581 7.06693619,22.9420071 C7.34172945,23.1416561 7.25235654,22.3749936 6.98144792,21.5635563 C6.71053929,20.7521189 5.66706959,19.1347581 5.66706959,21.2123147 Z" id="Path-37" fill="#D8D8D8" transform="translate(6.450531, 21.584595) rotate(-36.000000) translate(-6.450531, -21.584595) "></path>
                    <path d="M11.6670696,14.2123147 C11.6670696,16.2898713 12.7921429,15.7423581 13.0669362,15.9420071 C13.3417295,16.1416561 13.2523565,15.3749936 12.9814479,14.5635563 C12.7105393,13.7521189 11.6670696,12.1347581 11.6670696,14.2123147 Z" id="Path-37" fill="#D8D8D8" transform="translate(12.450531, 14.584595) rotate(-36.000000) translate(-12.450531, -14.584595) "></path>
                    <path d="M9.66706959,17.2123147 C9.66706959,19.2898713 10.7921429,18.7423581 11.0669362,18.9420071 C11.3417295,19.1416561 11.2523565,18.3749936 10.9814479,17.5635563 C10.7105393,16.7521189 9.66706959,15.1347581 9.66706959,17.2123147 Z" id="Path-37" fill="#D8D8D8" transform="translate(10.450531, 17.584595) rotate(-36.000000) translate(-10.450531, -17.584595) "></path>
                    <path d="M6.66706959,12.2123147 C6.66706959,14.2898713 7.79214292,13.7423581 8.06693619,13.9420071 C8.34172945,14.1416561 8.25235654,13.3749936 7.98144792,12.5635563 C7.71053929,11.7521189 6.66706959,10.1347581 6.66706959,12.2123147 Z" id="Path-37" fill="#D8D8D8" transform="translate(7.450531, 12.584595) rotate(-36.000000) translate(-7.450531, -12.584595) "></path>
                    <path d="M11.6670696,8.21231471 C11.6670696,10.2898713 12.7921429,9.74235811 13.0669362,9.9420071 C13.3417295,10.1416561 13.2523565,9.37499363 12.9814479,8.56355627 C12.7105393,7.75211891 11.6670696,6.13475807 11.6670696,8.21231471 Z" id="Path-37" fill="#D8D8D8" transform="translate(12.450531, 8.584595) rotate(-36.000000) translate(-12.450531, -8.584595) "></path>
                    <path d="M15.6670696,10.2123147 C15.6670696,12.2898713 16.7921429,11.7423581 17.0669362,11.9420071 C17.3417295,12.1416561 17.2523565,11.3749936 16.9814479,10.5635563 C16.7105393,9.75211891 15.6670696,8.13475807 15.6670696,10.2123147 Z" id="Path-37" fill="#D8D8D8" transform="translate(16.450531, 10.584595) rotate(-36.000000) translate(-16.450531, -10.584595) "></path>
                    <path d="M15.5395508,7.58837891 L11.3295898,10.9736328 L8.55712891,17.1801758 L7.64550781,20.2358398 C7.64550781,20.2358398 11.6054688,13.9697266 12.2460938,12.4716797 C12.8867188,10.9736328 15.5395508,7.58837891 15.5395508,7.58837891 Z" id="Path-44" fill="#2A341D"></path>
                </g>
                <g id="Group-7" transform="translate(35.000000, 39.000000)">
                    <path d="M0.928584461,12.2297904 C-0.450155805,13.873851 0.285718296,15.133752 0.285718296,17.9082376 C0.285718296,20.6827233 -0.35714787,19.9357464 0.285718296,21.1935132 C0.928584461,22.45128 3.80949062,23.5738796 3.80949062,25.2663158 C3.80949062,26.958752 3.78784726,29.5916678 4.79689561,29.5916678 C5.80594396,29.5916678 6.16978632,31.5195796 6.16978632,32.6272396 C6.16978632,33.7348996 5.97499612,37.5942803 7.04780462,38.3939013 C8.12061313,39.1935223 8.58857758,40.7436772 8.58857758,41.9857931 C8.58857758,43.2279089 11.9041057,49.836876 11.9041057,49.836876 C11.9041057,49.836876 14.0941794,54.5492331 14.0941794,55.8696037 C14.0941794,57.1899743 15.516363,58.6568947 15.516363,58.6568947 L17.0973412,52.6931734 C17.0973412,52.6931734 18.2807063,48.1771645 18.2807063,46.6042445 C18.2807063,45.0313246 18.5848832,41.7688425 19.7887218,39.2689314 C20.9925603,36.7690202 20.3689977,36.9817592 20.3689977,35.5354697 C20.3689977,34.0891801 21.799799,31.6149081 21.799799,29.7887274 C21.799799,27.9625467 22.4490997,26.3540565 21.4090487,23.7737848 C20.3689977,21.1935132 19.8554067,19.6006739 19.8554067,17.9082376 C19.8554067,16.2158014 19.0376388,14.1619706 18.6591726,13.1958805 C18.2807063,12.2297904 17.2950562,11.1384927 16.5463131,9.69220314 C15.79757,8.24591358 13.1728743,7.55015795 13.1728743,4.96490647 C13.1728743,2.37965498 12.361541,0.182120082 10.4750593,0.182120082 C8.58857758,0.182120082 6.68337731,0 6.68337731,0 C6.68337731,0 5.49416264,1.97557605 5.49416264,3.47024126 C5.49416264,4.96490647 3.80949062,4.11882776 3.80949062,5.96777344 C3.80949062,7.81671912 2.30732473,10.5857298 0.928584461,12.2297904 Z" id="Path-35" fill="#445C28"></path>
                    <path d="M5.7364502,10.4067383 C5.7364502,12.7504883 5.83720775,13.4448242 6.83016957,13.4448242 C7.8231314,13.4448242 7.46662414,12.0755615 7.30285645,11.1601562 C7.13908875,10.244751 5.7364502,8.06298828 5.7364502,10.4067383 Z" id="Path-37" fill="#D8D8D8" transform="translate(6.618928, 11.400774) rotate(-36.000000) translate(-6.618928, -11.400774) "></path>
                    <path d="M12.6670696,39.2123147 C12.6670696,41.2898713 13.7921429,40.7423581 14.0669362,40.9420071 C14.3417295,41.1416561 14.2523565,40.3749936 13.9814479,39.5635563 C13.7105393,38.7521189 12.6670696,37.1347581 12.6670696,39.2123147 Z" id="Path-37" fill="#D8D8D8" transform="translate(13.450531, 39.584595) rotate(-36.000000) translate(-13.450531, -39.584595) "></path>
                    <path d="M12.6670696,45.2123147 C12.6670696,47.2898713 13.7921429,46.7423581 14.0669362,46.9420071 C14.3417295,47.1416561 14.2523565,46.3749936 13.9814479,45.5635563 C13.7105393,44.7521189 12.6670696,43.1347581 12.6670696,45.2123147 Z" id="Path-37" fill="#D8D8D8" transform="translate(13.450531, 45.584595) rotate(-36.000000) translate(-13.450531, -45.584595) "></path>
                    <path d="M5.79211426,21.260175 C5.79211426,23.603925 5.89287181,24.2982609 6.88583364,24.2982609 C7.87879546,24.2982609 7.38452148,22.6635742 7.38452148,21.7412109 C7.38452148,20.8188477 5.79211426,18.916425 5.79211426,21.260175 Z" id="Path-37" fill="#D8D8D8" transform="translate(6.649827, 22.216925) rotate(65.000000) translate(-6.649827, -22.216925) "></path>
                    <path d="M12.4882812,10.4279322 C12.4882812,12.7716822 13.2400511,13.4660181 13.5820006,13.4660181 C13.9239502,13.4660181 14.2078857,12.1095297 14.2078857,10.2007162 C14.2078857,8.29190271 12.4882812,8.08418216 12.4882812,10.4279322 Z" id="Path-37" fill="#D8D8D8" transform="translate(13.348083, 11.092811) rotate(14.000000) translate(-13.348083, -11.092811) "></path>
                    <path d="M15.1626079,16.3888377 C13.7230327,18.2566787 13.8223979,18.248701 14.3813579,18.4005564 C14.9403179,18.5524119 17.7220561,16.2060984 17.2650249,15.5350779 C16.8079936,14.8640574 16.6021831,14.5209967 15.1626079,16.3888377 Z" id="Path-37" fill="#D8D8D8"></path>
                    <path d="M8.08737298,26.6771366 C8.08737298,29.0208866 8.13125512,29.7152225 8.56371192,29.7152225 C8.99616873,29.7152225 9.09372033,28.4954528 9.09372033,27.4823913 C9.09372033,26.4693298 8.08737298,24.3333866 8.08737298,26.6771366 Z" id="Path-37" fill="#D8D8D8" transform="translate(8.590547, 27.667110) rotate(30.000000) translate(-8.590547, -27.667110) "></path>
                    <path d="M4,16.003217 C4,18.346967 5.05775612,17.8275146 5.54407582,18.1639404 C6.03039551,18.5003662 7.88416516,18.3215763 6.48894227,17.1623966 C5.09371938,16.003217 4,13.659467 4,16.003217 Z" id="Path-37" fill="#D8D8D8"></path>
                    <path d="M15.1071965,23.7867947 C14.3919764,24.6970068 15.4534524,25.1156422 16.2436673,25.6354351 C17.0338822,26.155228 18.9913617,26.1051541 17.5961388,24.9459744 C16.2009159,23.7867947 15.8224167,22.8765827 15.1071965,23.7867947 Z" id="Path-37" fill="#D8D8D8" transform="translate(16.477633, 24.683698) rotate(-24.000000) translate(-16.477633, -24.683698) "></path>
                    <path d="M15,32.003217 C15,34.346967 15.1007576,35.0413029 16.0937194,35.0413029 C17.0866812,35.0413029 16.9603271,32.7591553 16.6201172,31.8354492 C16.2799072,30.9117432 15,29.659467 15,32.003217 Z" id="Path-37" fill="#D8D8D8"></path>
                    <path d="M9.02466771,32.8386174 C9.02466771,35.1823674 9.12542526,35.8767034 10.1183871,35.8767034 C11.1113489,35.8767034 11.9212979,34.567402 11.51361,33.9977971 C11.1059221,33.4281922 9.02466771,30.4948674 9.02466771,32.8386174 Z" id="Path-37" fill="#D8D8D8" transform="translate(10.323057, 33.909986) rotate(47.000000) translate(-10.323057, -33.909986) "></path>
                    <polygon id="Path-40" fill="#2A341D" points="10.7587891 9 10.1513672 16.4985352 10.715332 23.0415039 13.8837891 34.4511719 13.1948242 24.3974609 12.152832 18.5053711"></polygon>
                    <path d="M8,6.00321695 C8,8.34696695 8.0671717,9.04130289 8.72914625,9.04130289 C9.3911208,9.04130289 10.5894434,8.32157633 9.65929485,7.16239664 C8.72914625,6.00321695 8,3.65946695 8,6.00321695 Z" id="Path-37" fill="#D8D8D8"></path>
                </g>
                <g id="Group-6" transform="translate(20.000000, 44.000000)">
                    <path d="M1.6619829,12.2297904 C0.283242633,13.873851 1.01911673,15.133752 1.01911673,17.9082376 C1.01911673,20.6827233 0.376250568,19.9357464 1.01911673,21.1935132 C1.6619829,22.45128 4.54288905,23.5738796 4.54288905,25.2663158 C4.54288905,26.958752 4.5212457,29.5916678 5.53029405,29.5916678 C6.5393424,29.5916678 6.90318476,31.5195796 6.90318476,32.6272396 C6.90318476,33.7348996 6.70839456,37.5942803 7.78120306,38.3939013 C8.85401157,39.1935223 9.32197602,40.7436772 9.32197602,41.9857931 C9.32197602,43.2279089 12.6375042,49.836876 12.6375042,49.836876 C12.6375042,49.836876 14.8275778,54.5492331 14.8275778,55.8696037 C14.8275778,57.1899743 16.2497615,58.6568947 16.2497615,58.6568947 L17.8307397,52.6931734 C17.8307397,52.6931734 19.0141048,48.1771645 19.0141048,46.6042445 C19.0141048,45.0313246 19.3182817,41.7688425 20.5221202,39.2689314 C21.7259588,36.7690202 21.1023961,36.9817592 21.1023961,35.5354697 C21.1023961,34.0891801 22.5331974,31.6149081 22.5331974,29.7887274 C22.5331974,27.9625467 23.1824981,26.3540565 22.1424471,23.7737848 C21.1023961,21.1935132 20.5888051,19.6006739 20.5888051,17.9082376 C20.5888051,16.2158014 19.7710373,14.1619706 19.392571,13.1958805 C19.0141048,12.2297904 18.0284546,11.1384927 17.2797115,9.69220314 C16.5309684,8.24591358 13.9062728,7.55015795 13.9062728,4.96490647 C13.9062728,2.37965498 13.0949394,0.182120082 11.2084577,0.182120082 C9.32197602,0.182120082 7.41677574,0 7.41677574,0 C7.41677574,0 6.22756108,1.97557605 6.22756108,3.47024126 C6.22756108,4.96490647 4.54288905,4.11882776 4.54288905,5.96777344 C4.54288905,7.81671912 3.04072316,10.5857298 1.6619829,12.2297904 Z" id="Path-35" fill="#445C28" transform="translate(11.733398, 29.328447) scale(-1, 1) translate(-11.733398, -29.328447) "></path>
                    <path d="M15.032924,13.1783424 C15.032924,15.5220924 15.1336816,16.2164284 16.1266434,16.2164284 C17.1196052,16.2164284 16.763098,14.8471657 16.5993303,13.9317604 C16.4355626,13.0163551 15.032924,10.8345924 15.032924,13.1783424 Z" id="Path-37" fill="#D8D8D8" transform="translate(15.915402, 14.172379) rotate(-36.000000) translate(-15.915402, -14.172379) "></path>
                    <path d="M13.117522,19.1783424 C13.117522,21.5220924 13.2182795,22.2164284 14.2112413,22.2164284 C15.2042032,22.2164284 14.8476959,20.8471657 14.6839282,19.9317604 C14.5201605,19.0163551 13.117522,16.8345924 13.117522,19.1783424 Z" id="Path-37" fill="#D8D8D8" transform="translate(14.000000, 20.172379) rotate(-36.000000) translate(-14.000000, -20.172379) "></path>
                    <path d="M12.032924,6.17834245 C12.032924,8.52209245 12.1336816,9.21642839 13.1266434,9.21642839 C14.1196052,9.21642839 13.763098,7.84716569 13.5993303,6.93176042 C13.4355626,6.01635514 12.032924,3.83459245 12.032924,6.17834245 Z" id="Path-37" fill="#D8D8D8" transform="translate(12.915402, 7.172379) rotate(-36.000000) translate(-12.915402, -7.172379) "></path>
                    <path d="M12.032924,24.1783424 C12.032924,26.5220924 12.1336816,27.2164284 13.1266434,27.2164284 C14.1196052,27.2164284 13.763098,25.8471657 13.5993303,24.9317604 C13.4355626,24.0163551 12.032924,21.8345924 12.032924,24.1783424 Z" id="Path-37" fill="#D8D8D8" transform="translate(12.915402, 25.172379) rotate(-36.000000) translate(-12.915402, -25.172379) "></path>
                    <path d="M6.03292402,13.1783424 C6.03292402,15.5220924 6.13368157,16.2164284 7.12664339,16.2164284 C8.11960522,16.2164284 7.76309796,14.8471657 7.59933027,13.9317604 C7.43556257,13.0163551 6.03292402,10.8345924 6.03292402,13.1783424 Z" id="Path-37" fill="#D8D8D8" transform="translate(6.915402, 14.172379) rotate(-36.000000) translate(-6.915402, -14.172379) "></path>
                    <path d="M5.03292402,21.1783424 C5.03292402,23.5220924 5.13368157,24.2164284 6.12664339,24.2164284 C7.11960522,24.2164284 6.76309796,22.8471657 6.59933027,21.9317604 C6.43556257,21.0163551 5.03292402,18.8345924 5.03292402,21.1783424 Z" id="Path-37" fill="#D8D8D8" transform="translate(5.915402, 22.172379) rotate(-36.000000) translate(-5.915402, -22.172379) "></path>
                    <path d="M11.032924,30.1783424 C11.032924,32.5220924 11.1336816,33.2164284 12.1266434,33.2164284 C13.1196052,33.2164284 12.763098,31.8471657 12.5993303,30.9317604 C12.4355626,30.0163551 11.032924,27.8345924 11.032924,30.1783424 Z" id="Path-37" fill="#D8D8D8" transform="translate(11.915402, 31.172379) rotate(-36.000000) translate(-11.915402, -31.172379) "></path>
                    <path d="M2.03292402,29.1783424 C2.03292402,31.5220924 2.13368157,32.2164284 3.12664339,32.2164284 C4.11960522,32.2164284 3.76309796,30.8471657 3.59933027,29.9317604 C3.43556257,29.0163551 2.03292402,26.8345924 2.03292402,29.1783424 Z" id="Path-37" fill="#D8D8D8" transform="translate(2.915402, 30.172379) rotate(-36.000000) translate(-2.915402, -30.172379) "></path>
                    <path d="M10.032924,37.1783424 C10.032924,39.5220924 10.1336816,40.2164284 11.1266434,40.2164284 C12.1196052,40.2164284 11.763098,38.8471657 11.5993303,37.9317604 C11.4355626,37.0163551 10.032924,34.8345924 10.032924,37.1783424 Z" id="Path-37" fill="#D8D8D8" transform="translate(10.915402, 38.172379) rotate(-36.000000) translate(-10.915402, -38.172379) "></path>
                    <path d="M4.03292402,36.1783424 C4.03292402,38.5220924 4.13368157,39.2164284 5.12664339,39.2164284 C6.11960522,39.2164284 5.76309796,37.8471657 5.59933027,36.9317604 C5.43556257,36.0163551 4.03292402,33.8345924 4.03292402,36.1783424 Z" id="Path-37" fill="#D8D8D8" transform="translate(4.915402, 37.172379) rotate(-36.000000) translate(-4.915402, -37.172379) "></path>
                    <path d="M7.03292402,45.1783424 C7.03292402,47.5220924 7.13368157,48.2164284 8.12664339,48.2164284 C9.11960522,48.2164284 8.76309796,46.8471657 8.59933027,45.9317604 C8.43556257,45.0163551 7.03292402,42.8345924 7.03292402,45.1783424 Z" id="Path-37" fill="#D8D8D8" transform="translate(7.915402, 46.172379) rotate(-36.000000) translate(-7.915402, -46.172379) "></path>
                    <polygon id="Path-41" fill="#2A341D" points="10.9077148 10.6699219 8.87304688 19.4804688 7.26708984 26.6367188 7.26708984 43.1625977 9.12841797 25.6713867 10.34375 19.8276367"></polygon>
                </g>
            </g>
        </g>
    </g>
</svg>