<?xml version="1.0" encoding="UTF-8" standalone="no"?>
<svg width="50px" height="100px" viewBox="0 0 50 100" version="1.1" xmlns="http://www.w3.org/2000/svg" xmlns:xlink="http://www.w3.org/1999/xlink">
    <!-- Generator: Sketch 40.3 (33839) - http://www.bohemiancoding.com/sketch -->
    <title>spotted_prayer_plant_hero</title>
    <desc>Created with Sketch.</desc>
    <defs></defs>
    <g id="Page-1" stroke="none" stroke-width="1" fill="none" fill-rule="evenodd">
        <g id="spotted_prayer_plant_hero">
            <g id="spotted-prayer-plant" transform="translate(6.000000, 11.000000)">
                <g id="blue_pot" transform="translate(3.769231, 56.831325)">
                    <path d="M0,1.84561488 C0,1.84561488 3.32331731,1.53117116e-15 14.5384615,0 C25.7536058,0 29.0769231,1.84561488 29.0769231,1.84561488 L29.0769231,30.2612775 C29.0769231,30.2612775 25.3571214,31.8550511 14.5384615,31.8550511 C3.71980168,31.8550511 0,30.2612775 0,30.2612775 L0,1.84561488 Z" id="Rectangle-17" fill="#ADDEF6"></path>
                    <ellipse id="Oval-2" fill="#5C3E23" cx="14.8076923" cy="2.14457831" rx="13.1923077" ry="1.60843373"></ellipse>
                    <path d="M0.00022442807,1.60843373 C0.00022442807,1.60843373 -0.114540446,3.33251291 4.84637827,3.95943295 C4.84749569,3.97756186 4.85295129,31.0490017 4.84637827,31.0592115 C3.23204534,31.0592115 0.00022442807,30.0240964 0.00022442807,30.0240964 L0.00022442807,1.60843373 Z" id="Rectangle-17" fill="#8DCAE9"></path>
                </g>
                <g id="leaves">
                    <path d="M22.6153846,23.5903614 C22.6153846,24.8469503 22.6842698,25.2192147 23.363131,25.2192147 C24.0419922,25.2192147 25.2708834,24.8333373 24.3170072,24.2118494 C23.363131,23.5903614 22.6153846,22.3337726 22.6153846,23.5903614 Z" id="Path-37" fill="#D8D8D8"></path>
                    <path d="M22.6153846,23.0542169 C22.6153846,24.3108057 22.6842698,24.6830702 23.363131,24.6830702 C24.0419922,24.6830702 25.2708834,24.2971927 24.3170072,23.6757048 C23.363131,23.0542169 22.6153846,21.797628 22.6153846,23.0542169 Z" id="Path-37" fill="#D8D8D8"></path>
                    <path d="M22.7132956,32.9988301 C21.7684247,33.614949 22.27273,34.0871024 22.27273,35.126853 C22.27273,36.1666036 21.8321644,35.8866708 22.27273,36.3580244 C22.7132956,36.829378 24.6876229,37.2500771 24.6876229,37.884325 C24.6876229,38.5185728 24.6727904,39.5052695 25.3643061,39.5052695 C26.0558217,39.5052695 26.3051682,40.2277629 26.3051682,40.6428633 C26.3051682,41.0579638 26.1716757,42.5042835 26.9068871,42.803945 C27.6420985,43.1036065 27.9628014,43.6845338 27.9628014,44.1500222 C27.9628014,44.6155105 30.2349815,47.0922498 30.2349815,47.0922498 C30.2349815,47.0922498 31.1044873,48.4885897 31.1044873,48.9834043 C31.1044873,49.478219 33.7939821,48.1626597 33.7939821,48.1626597 C33.7939821,48.1626597 34.6049596,46.4702656 34.6049596,45.880807 C34.6049596,45.2913484 34.8134165,44.068719 35.6384247,43.1318664 C36.463433,42.1950137 36.0360963,42.2747386 36.0360963,41.7327353 C36.0360963,41.1907319 37.0166455,40.2634877 37.0166455,39.5791185 C37.0166455,38.8947493 37.4616208,38.2919605 36.7488585,37.3249924 C36.0360963,36.3580244 35.6841249,35.7611009 35.6841249,35.126853 C35.6841249,34.4926051 35.1236965,33.7229231 34.8643281,33.3608766 C34.6049596,32.9988301 33.9294791,32.5898615 33.4163544,32.0478581 C32.9032298,31.5058548 31.1044873,31.2451173 31.1044873,30.2762831 C31.1044873,29.3074488 30.5484686,28.4839129 29.255635,28.4839129 C27.9628014,28.4839129 26.6571397,28.4156627 26.6571397,28.4156627 C26.6571397,28.4156627 25.8421534,29.1560184 25.8421534,29.7161507 C25.8421534,30.2762831 24.6876229,29.9592114 24.6876229,30.6521118 C24.6876229,31.3450123 23.6581666,32.3827112 22.7132956,32.9988301 Z" id="Path-35" fill="#2D040A"></path>
                    <path d="M11.9440649,40.5048542 C10.9991939,41.120973 11.5034993,41.5931265 11.5034993,42.6328771 C11.5034993,43.6726277 11.0629336,43.3926949 11.5034993,43.8640485 C11.9440649,44.3354021 13.9183922,44.7561012 13.9183922,45.3903491 C13.9183922,46.0245969 13.9035597,47.0112936 14.5950753,47.0112936 C15.286591,47.0112936 15.5359375,47.733787 15.5359375,48.1488874 C15.5359375,48.5639879 15.4024449,50.0103076 16.1376563,50.3099691 C16.8728677,50.6096306 17.1935706,51.1905579 17.1935706,51.6560462 C17.1935706,52.1215346 19.4657508,54.5982739 19.4657508,54.5982739 C19.4657508,54.5982739 20.3352565,55.9946138 20.3352565,56.4894284 C20.3352565,56.9842431 23.0247513,55.6686838 23.0247513,55.6686838 C23.0247513,55.6686838 23.8357288,53.9762897 23.8357288,53.3868311 C23.8357288,52.7973725 24.0441857,51.5747431 24.8691939,50.6378904 C25.6942022,49.7010378 25.2668656,49.7807627 25.2668656,49.2387594 C25.2668656,48.696756 26.2474147,47.7695118 26.2474147,47.0851426 C26.2474147,46.4007734 26.69239,45.7979846 25.9796278,44.8310165 C25.2668656,43.8640485 24.9148941,43.267125 24.9148941,42.6328771 C24.9148941,41.9986292 24.3544658,41.2289472 24.0950973,40.8669007 C23.8357288,40.5048542 23.1602483,40.0958856 22.6471237,39.5538822 C22.133999,39.0118789 20.3352565,38.7511414 20.3352565,37.7823072 C20.3352565,36.8134729 19.7792379,35.989937 18.4864043,35.989937 C17.1935706,35.989937 15.8879089,35.9216867 15.8879089,35.9216867 C15.8879089,35.9216867 15.0729227,36.6620425 15.0729227,37.2221748 C15.0729227,37.7823072 13.9183922,37.4652355 13.9183922,38.1581359 C13.9183922,38.8510364 12.8889358,39.8887353 11.9440649,40.5048542 Z" id="Path-35" fill="#2D040A"></path>
                    <polygon id="Path-33" fill="#445C28" points="14.0494291 59.3078525 11.8461538 13.939759 12.6070463 13.939759 14.9333684 59.3078525"></polygon>
                    <polygon id="Path-34" fill="#445C28" points="19.3846154 58.346562 22.9203726 21.4457831 24.0661809 22.2557594 20.4147386 58.6853174"></polygon>
                    <path d="M7.50000702,20.7873326 C6.75760841,21.2754114 7.15384831,21.6494431 7.15384831,22.4731156 C7.15384831,23.2967881 6.80768961,23.0750301 7.15384831,23.4484283 C7.50000702,23.8218265 9.05126418,24.1550971 9.05126418,24.6575373 C9.05126418,25.1599775 9.03961006,25.9416216 9.58294379,25.9416216 C10.1262775,25.9416216 10.3221926,26.5139684 10.3221926,26.8428038 C10.3221926,27.1716392 10.2173056,28.3173888 10.7949717,28.5547754 C11.3726378,28.792162 11.6246187,29.2523626 11.6246187,29.6211145 C11.6246187,29.9898663 13.4099031,31.9518964 13.4099031,31.9518964 C13.4099031,31.9518964 14.5891735,33.3508725 14.5891735,33.7428561 C14.5891735,34.1348397 15.3549647,34.5703301 15.3549647,34.5703301 L16.2062607,32.7998567 C16.2062607,32.7998567 16.8434573,31.4591713 16.8434573,30.9922124 C16.8434573,30.5252534 17.0072448,29.5567075 17.6554656,28.814549 C18.3036863,28.0723905 17.9679218,28.1355472 17.9679218,27.7061815 C17.9679218,27.2768158 18.7383533,26.5422689 18.7383533,26.0001235 C18.7383533,25.457978 19.0879768,24.9804592 18.5279493,24.2144438 C17.9679218,23.4484283 17.6913728,22.9755559 17.6913728,22.4731156 C17.6913728,21.9706754 17.2510363,21.3609466 17.0472468,21.0741396 C16.8434573,20.7873326 16.3127226,20.4633548 15.9095532,20.0339891 C15.5063838,19.6046234 14.0930862,19.3980717 14.0930862,18.6305779 C14.0930862,17.8630841 13.6562144,17.2106932 12.6404165,17.2106932 C11.6246187,17.2106932 10.5987416,17.1566265 10.5987416,17.1566265 C10.5987416,17.1566265 9.95839527,17.7431236 9.95839527,18.1868507 C9.95839527,18.6305779 9.05126418,18.3793991 9.05126418,18.9283029 C9.05126418,19.4772067 8.24240562,20.2992539 7.50000702,20.7873326 Z" id="Path-35" fill="#2D040A" transform="translate(12.923077, 25.863478) scale(-1, 1) translate(-12.923077, -25.863478) "></path>
                    <path d="M18.2692378,7.91986273 C17.5268392,8.40794148 17.9230791,8.78197327 17.9230791,9.60564576 C17.9230791,10.4293182 17.5769204,10.2075603 17.9230791,10.5809585 C18.2692378,10.9543567 19.8204949,11.2876272 19.8204949,11.7900674 C19.8204949,12.2925077 19.8088408,13.0741517 20.3521746,13.0741517 C20.8955083,13.0741517 21.0914234,13.6464985 21.0914234,13.9753339 C21.0914234,14.3041693 20.9865364,15.4499189 21.5642025,15.6873055 C22.1418686,15.9246921 22.3938495,16.3848928 22.3938495,16.7536446 C22.3938495,17.1223964 24.1791338,19.0844265 24.1791338,19.0844265 C24.1791338,19.0844265 25.3584043,20.4834026 25.3584043,20.8753862 C25.3584043,21.2673698 26.1241955,21.7028603 26.1241955,21.7028603 L26.9754914,19.9323868 C26.9754914,19.9323868 27.612688,18.5917014 27.612688,18.1247425 C27.612688,17.6577835 27.7764756,16.6892376 28.4246963,15.9470791 C29.0729171,15.2049207 28.7371526,15.2680773 28.7371526,14.8387116 C28.7371526,14.409346 29.5075841,13.6747991 29.5075841,13.1326536 C29.5075841,12.5905081 29.8572075,12.1129893 29.2971801,11.3469739 C28.7371526,10.5809585 28.4606036,10.108086 28.4606036,9.60564576 C28.4606036,9.10320554 28.0202671,8.4934767 27.8164775,8.20666971 C27.612688,7.91986273 27.0819533,7.59588488 26.678784,7.16651919 C26.2756146,6.73715351 24.862317,6.53060179 24.862317,5.76310799 C24.862317,4.99561419 24.4254451,4.34322333 23.4096473,4.34322333 C22.3938495,4.34322333 21.3679724,4.28915663 21.3679724,4.28915663 C21.3679724,4.28915663 20.727626,4.87565368 20.727626,5.31938083 C20.727626,5.76310799 19.8204949,5.51192927 19.8204949,6.06083306 C19.8204949,6.60973686 19.0116364,7.43178398 18.2692378,7.91986273 Z" id="Path-35" fill="#2D040A" transform="translate(23.692308, 12.996008) scale(-1, 1) translate(-23.692308, -12.996008) "></path>
                    <g id="Group-2" transform="translate(20.461538, 0.000000)">
                        <path d="M5.28680889,10.489899 C5.28680889,10.489899 3.58150541,8.06991835 2.34209736,9.2799087 C1.1026893,10.489899 0.249774639,11.3742235 0.249774639,13.4161803 C0.249774639,15.4581372 1.18629808,14.9513131 1.76419772,15.8770002 C2.34209736,16.8026873 4.93186599,17.6288945 4.93186599,18.8744882 C4.93186599,20.1200819 4.91240986,22.0578466 5.81948618,22.0578466 C6.7265625,22.0578466 7.05363582,23.4767449 7.05363582,24.2919569 C7.05363582,25.1071689 6.87853065,27.9475833 7.84292368,28.5360857 C8.80731671,29.1245882 9.22798978,30.2654662 9.22798978,31.1796346 C9.22798978,32.0938029 12.2084585,36.957849 12.2084585,36.957849 C12.2084585,36.957849 14.1772085,40.4260342 14.1772085,41.3977963 C14.1772085,42.3695583 15.7084585,45.7393108 15.7084585,45.7393108 L16.876878,39.0600174 C16.876878,39.0600174 17.940655,35.7363399 17.940655,34.5787074 C17.940655,33.4210749 18.2140925,31.019964 19.296274,29.1800875 C20.3784555,27.3402111 19.8179087,27.4967821 19.8179087,26.4323466 C19.8179087,25.3679111 21.1041166,23.5469044 21.1041166,22.2028779 C21.1041166,20.8588514 21.6878005,19.67504 20.7528546,17.7760201 C19.8179087,15.8770002 19.35622,14.7047075 19.35622,13.4591138 C19.35622,12.2135201 18.6210937,10.7019484 18.2808744,9.99092856 C17.940655,9.2799087 17.0546124,8.47673899 16.3815355,7.41230351 C15.7084585,6.34786803 13.3490084,5.83580808 13.3490084,3.93312312 C13.3490084,2.03043816 12.6196665,0.413103586 10.9238281,0.413103586 C9.22798978,0.413103586 7.51532452,0.279067442 7.51532452,0.279067442 C7.51532452,0.279067442 6.44628906,1.73304546 6.44628906,2.83308429 C6.44628906,3.93312312 6.07189002,4.69074148 6.07189002,6.0515225 C6.07189002,7.41230351 5.28680889,10.489899 5.28680889,10.489899 Z" id="Path-35" fill="#445C28"></path>
                        <path d="M8.05453275,11.7951807 C8.05453275,11.7951807 9.88866737,13.7088608 10.6253711,16.112087 C11.3620748,18.5153132 13.6110983,27.4213867 13.6110983,29.080084 C13.6110983,30.7387813 14.5460442,35.3536039 14.5460442,35.3536039 C14.5460442,35.3536039 14.5691812,27.1051452 14.5576127,24.7762672 C14.5460442,22.4473892 12.6879417,15.8848539 11.997817,14.9654497 C11.3076923,14.0460455 8.05453275,11.7951807 8.05453275,11.7951807 Z" id="Path-36" fill="#2A341D"></path>
                        <path d="M14.5384615,8.57831325 C14.5384615,9.83490211 14.6073468,10.2071666 15.2862079,10.2071666 C15.9650691,10.2071666 17.1939603,9.82128906 16.2400841,9.19980116 C15.2862079,8.57831325 14.5384615,7.3217244 14.5384615,8.57831325 Z" id="Path-37" fill="#D8D8D8"></path>
                        <path d="M10.7692308,6.43373494 C10.7692308,7.6903238 10.838116,8.06258824 11.5169772,8.06258824 C12.1958383,8.06258824 13.4247296,7.67671075 12.4708534,7.05522284 C11.5169772,6.43373494 10.7692308,5.17714608 10.7692308,6.43373494 Z" id="Path-37" fill="#D8D8D8"></path>
                        <path d="M8.61538462,1.60843373 C8.61538462,2.86502259 8.68426983,3.23728704 9.36313101,3.23728704 C10.0419922,3.23728704 11.2708834,2.85140954 10.3170072,2.22992164 C9.36313101,1.60843373 8.61538462,0.35184488 8.61538462,1.60843373 Z" id="Path-37" fill="#D8D8D8"></path>
                        <path d="M10.2307692,10.186747 C10.2307692,11.4433358 10.2996544,11.8156003 10.9785156,11.8156003 C11.6573768,11.8156003 12.886268,11.4297228 11.9323918,10.8082349 C10.9785156,10.186747 10.2307692,8.93015813 10.2307692,10.186747 Z" id="Path-37" fill="#D8D8D8"></path>
                        <path d="M13.4615385,15.0120482 C13.4615385,16.268637 13.5304237,16.6409015 14.2092849,16.6409015 C14.888146,16.6409015 16.1170373,16.255024 15.1631611,15.6335361 C14.2092849,15.0120482 13.4615385,13.7554593 13.4615385,15.0120482 Z" id="Path-37" fill="#D8D8D8"></path>
                        <path d="M4.30769231,11.7951807 C4.30769231,13.0517696 4.37657752,13.424034 5.0554387,13.424034 C5.73429988,13.424034 6.96319111,13.0381565 6.0093149,12.4166686 C5.0554387,11.7951807 4.30769231,10.5385919 4.30769231,11.7951807 Z" id="Path-37" fill="#D8D8D8"></path>
                        <path d="M7,18.2289157 C7,19.4855045 7.06888522,19.857769 7.74774639,19.857769 C8.42660757,19.857769 9.6554988,19.4718915 8.7016226,18.8504036 C7.74774639,18.2289157 7,16.9723268 7,18.2289157 Z" id="Path-37" fill="#D8D8D8"></path>
                        <path d="M8.61538462,23.0542169 C8.61538462,24.3108057 8.68426983,24.6830702 9.36313101,24.6830702 C10.0419922,24.6830702 11.2708834,24.2971927 10.3170072,23.6757048 C9.36313101,23.0542169 8.61538462,21.797628 8.61538462,23.0542169 Z" id="Path-37" fill="#D8D8D8"></path>
                        <path d="M16.6923077,17.6927711 C16.6923077,18.9493599 16.7611929,19.3216244 17.4400541,19.3216244 C18.1189153,19.3216244 19.3478065,18.9357469 18.3939303,18.314259 C17.4400541,17.6927711 16.6923077,16.4361822 16.6923077,17.6927711 Z" id="Path-37" fill="#D8D8D8"></path>
                        <path d="M15.6153846,22.5180723 C15.6153846,23.7746611 15.6842698,24.1469256 16.363131,24.1469256 C17.0419922,24.1469256 18.2708834,23.7610481 17.3170072,23.1395602 C16.363131,22.5180723 15.6153846,21.2614834 15.6153846,22.5180723 Z" id="Path-37" fill="#D8D8D8"></path>
                        <path d="M10.2307692,28.9518072 C10.2307692,30.2083961 10.2996544,30.5806605 10.9785156,30.5806605 C11.6573768,30.5806605 12.886268,30.194783 11.9323918,29.5732951 C10.9785156,28.9518072 10.2307692,27.6952184 10.2307692,28.9518072 Z" id="Path-37" fill="#D8D8D8"></path>
                        <path d="M12.3846154,33.7771084 C12.3846154,35.0336973 12.4535006,35.4059617 13.1323618,35.4059617 C13.811223,35.4059617 15.0401142,35.0200842 14.086238,34.3985963 C13.1323618,33.7771084 12.3846154,32.5205196 12.3846154,33.7771084 Z" id="Path-37" fill="#D8D8D8"></path>
                        <path d="M15.0769231,32.1686747 C15.0769231,33.4252636 15.1458083,33.797528 15.8246695,33.797528 C16.5035306,33.797528 17.7324219,33.4116505 16.7785457,32.7901626 C15.8246695,32.1686747 15.0769231,30.9120858 15.0769231,32.1686747 Z" id="Path-37" fill="#D8D8D8"></path>
                        <path d="M14.5384615,27.3433735 C14.5384615,28.5999623 14.6073468,28.9722268 15.2862079,28.9722268 C15.9650691,28.9722268 17.1939603,28.5863493 16.2400841,27.9648614 C15.2862079,27.3433735 14.5384615,26.0867846 14.5384615,27.3433735 Z" id="Path-37" fill="#D8D8D8"></path>
                        <path d="M14.5384615,36.9939759 C14.5384615,38.2505648 14.6073468,38.6228292 15.2862079,38.6228292 C15.9650691,38.6228292 17.1939603,38.2369517 16.2400841,37.6154638 C15.2862079,36.9939759 14.5384615,35.737387 14.5384615,36.9939759 Z" id="Path-37" fill="#D8D8D8"></path>
                    </g>
                    <polygon id="Path-38" fill="#445C28" points="7.91233474 20.9096386 7.53846154 21.8814006 13.1967773 36.6319212 13.4802058 34.9211279"></polygon>
                    <path d="M21.5514497,26.3521131 C21.5514497,27.608702 21.6057038,27.9809664 22.1403756,27.9809664 C22.6750473,27.9809664 22.4830819,27.2468437 22.3948993,26.7560541 C22.3067167,26.2652645 21.5514497,25.0955243 21.5514497,26.3521131 Z" id="Path-37" fill="#D8D8D8" transform="translate(22.051450, 26.885060) rotate(-36.000000) translate(-22.051450, -26.885060) "></path>
                    <g id="Group-8" transform="translate(15.076923, 51.542169)">
                        <path d="M1.55385396,4.52319722 C0.811455351,4.74860657 1.20769525,4.92134563 1.20769525,5.3017422 C1.20769525,5.68213877 0.861536546,5.57972431 1.20769525,5.75217075 C1.55385396,5.92461719 3.10511112,6.0785315 3.10511112,6.31057341 C3.10511112,6.54261531 3.093457,6.9036019 3.63679073,6.9036019 C4.18012445,6.9036019 4.37603957,7.16792875 4.37603957,7.31979476 C4.37603957,7.47166078 4.27115254,8.00080216 4.84881866,8.1104344 C5.42648478,8.22006664 5.67846563,8.43260103 5.67846563,8.60290165 C5.67846563,8.77320226 7.46375002,9.6793264 7.46375002,9.6793264 C7.46375002,9.6793264 8.64302044,10.3254153 8.64302044,10.5064451 C8.64302044,10.6874748 9.40881164,10.8885973 9.40881164,10.8885973 L10.2601076,10.0709398 C10.2601076,10.0709398 10.8973042,9.45177122 10.8973042,9.23611563 C10.8973042,9.02046003 11.0610918,8.57315659 11.7093125,8.23040562 C12.3575333,7.88765466 12.0217688,7.9168223 12.0217688,7.71852839 C12.0217688,7.52023449 12.7922002,7.18099878 12.7922002,6.93061981 C12.7922002,6.68024084 13.1418237,6.45970837 12.5817962,6.10593956 C12.0217688,5.75217075 11.7452198,5.53378411 11.7452198,5.3017422 C11.7452198,5.06970029 11.3048832,4.78810929 11.1010937,4.65565326 C10.8973042,4.52319722 10.3665695,4.37357457 9.96340014,4.17528067 C9.56023076,3.97698677 8.14693312,3.88159501 8.14693312,3.52714344 C8.14693312,3.17269187 7.71006131,2.87139828 6.69426347,2.87139828 C5.67846563,2.87139828 4.65258856,2.84642866 4.65258856,2.84642866 C4.65258856,2.84642866 4.01224221,3.11729052 4.01224221,3.32221698 C4.01224221,3.52714344 3.10511112,3.4111416 3.10511112,3.66464177 C3.10511112,3.91814195 2.29625256,4.29778787 1.55385396,4.52319722 Z" id="Path-35" fill="#445C28" transform="translate(6.976924, 6.867513) rotate(-21.000000) translate(-6.976924, -6.867513) "></path>
                        <path d="M7.8553811,7.52656591 C7.8553811,8.64043663 8.46118982,8.34689038 8.60915543,8.4539311 C8.75712103,8.56097183 8.70899716,8.1499299 8.56312328,7.71488216 C8.41724941,7.27983443 7.8553811,6.41269518 7.8553811,7.52656591 Z" id="Path-37" fill="#D8D8D8" transform="translate(8.355381, 7.726162) rotate(-36.000000) translate(-8.355381, -7.726162) "></path>
                        <path d="M8.95965328,6.42934996 C8.95965328,7.54322068 9.56546199,7.24967443 9.7134276,7.35671516 C9.86139321,7.46375588 9.81326933,7.05271395 9.66739546,6.61766622 C9.52152158,6.18261848 8.95965328,5.31547923 8.95965328,6.42934996 Z" id="Path-37" fill="#D8D8D8" transform="translate(9.459653, 6.628946) rotate(-36.000000) translate(-9.459653, -6.628946) "></path>
                        <path d="M6.80580712,5.3570608 C6.80580712,6.47093153 7.41161584,6.17738527 7.55958145,6.284426 C7.70754705,6.39146673 7.65942318,5.9804248 7.5135493,5.54537706 C7.36767543,5.11032932 6.80580712,4.24319007 6.80580712,5.3570608 Z" id="Path-37" fill="#D8D8D8" transform="translate(7.305807, 5.556657) rotate(-36.000000) translate(-7.305807, -5.556657) "></path>
                        <path d="M3.57503789,5.89320538 C3.57503789,7.00707611 4.18084661,6.71352985 4.32881222,6.82057058 C4.47677782,6.9276113 4.42865395,6.51656938 4.28278007,6.08152164 C4.1369062,5.6464739 3.57503789,4.77933465 3.57503789,5.89320538 Z" id="Path-37" fill="#D8D8D8" transform="translate(4.075038, 6.092801) rotate(-36.000000) translate(-4.075038, -6.092801) "></path>
                        <path d="M8.95965328,4.28477164 C8.95965328,5.39864237 9.56546199,5.10509612 9.7134276,5.21213684 C9.86139321,5.31917757 9.81326933,4.90813564 9.66739546,4.4730879 C9.52152158,4.03804016 8.95965328,3.17090092 8.95965328,4.28477164 Z" id="Path-37" fill="#D8D8D8" transform="translate(9.459653, 4.484368) rotate(-36.000000) translate(-9.459653, -4.484368) "></path>
                    </g>
                    <polygon id="Path-39" fill="#445C28" points="22.4741962 9.11445783 22.0769231 9.79223045 26.0209961 16.8896014 26.4043344 16.0982122 24.543119 13.0020296"></polygon>
                    <g id="Group-3" transform="translate(11.846154, 2.753012)">
                        <path d="M3.87001909,3.8510145 C3.46226799,4.19765378 3.67989671,4.46329556 3.67989671,5.04827747 C3.67989671,5.63325938 3.48977433,5.47576425 3.67989671,5.74095605 C3.87001909,6.00614785 4.7220234,6.24284053 4.7220234,6.5996795 C4.7220234,6.95651846 4.71562256,7.5116513 5.01404031,7.5116513 C5.31245806,7.5116513 5.42006145,7.91813873 5.42006145,8.1516815 C5.42006145,8.38522428 5.36245385,9.19894912 5.67972814,9.36754391 C5.99700244,9.53613869 6.13539907,9.86297858 6.13539907,10.1248705 C6.13539907,10.3867624 7.11593926,11.7802193 7.11593926,11.7802193 C7.11593926,11.7802193 7.76363553,12.7737886 7.76363553,13.05218 C7.76363553,13.3305714 8.18423465,13.6398618 8.18423465,13.6398618 L8.65179596,12.3824507 C8.65179596,12.3824507 9.00176646,11.4302801 9.00176646,11.0986404 C9.00176646,10.7670006 9.09172428,10.0791279 9.44774963,9.5520382 C9.80377498,9.0249485 9.61936146,9.06980311 9.61936146,8.76486254 C9.61936146,8.45992197 10.0425092,7.93823811 10.0425092,7.55320001 C10.0425092,7.16816192 10.2345345,6.82902241 9.92694799,6.28498923 C9.61936146,5.74095605 9.46747115,5.40511644 9.46747115,5.04827747 C9.46747115,4.69143851 9.22562303,4.2584019 9.11369474,4.0547082 C9.00176646,3.8510145 8.71026854,3.62092161 8.48883392,3.31598104 C8.2673993,3.01104047 7.49116715,2.86434501 7.49116715,2.31926186 C7.49116715,1.77417872 7.25122198,1.31084305 6.69331053,1.31084305 C6.13539907,1.31084305 5.57195176,1.27244424 5.57195176,1.27244424 C5.57195176,1.27244424 5.2202513,1.68898136 5.2202513,2.00412161 C5.2202513,2.31926186 4.7220234,2.14087178 4.7220234,2.53070972 C4.7220234,2.92054767 4.27777019,3.50437522 3.87001909,3.8510145 Z" id="Path-35" fill="#445C28" transform="translate(6.848557, 7.456153) scale(-1, 1) rotate(-50.000000) translate(-6.848557, -7.456153) "></path>
                        <path d="M4.09169184,8.14997401 C4.09169184,9.26384474 4.69750056,8.97029848 4.84546616,9.07733921 C4.99343177,9.18437994 4.9453079,8.77333801 4.79943402,8.33829027 C4.65356015,7.90324253 4.09169184,7.03610328 4.09169184,8.14997401 Z" id="Path-37" fill="#D8D8D8" transform="translate(4.591692, 8.349570) rotate(58.000000) translate(-4.591692, -8.349570) "></path>
                        <path d="M5.23300461,5.70491004 C5.23300461,6.81878076 5.83881333,6.52523451 5.98677893,6.63227523 C6.13474454,6.73931596 6.08662067,6.32827403 5.94074679,5.89322629 C5.79487292,5.45817856 5.23300461,4.59103931 5.23300461,5.70491004 Z" id="Path-37" fill="#D8D8D8" transform="translate(5.733005, 5.904506) rotate(-66.000000) translate(-5.733005, -5.904506) "></path>
                        <path d="M6.79784426,7.60281684 C6.79784426,8.71668756 7.40365298,8.42314131 7.55161859,8.53018204 C7.69958419,8.63722276 7.65146032,8.22618083 7.50558644,7.7911331 C7.35971257,7.35608536 6.79784426,6.48894611 6.79784426,7.60281684 Z" id="Path-37" fill="#D8D8D8" transform="translate(7.297844, 7.802413) rotate(45.000000) translate(-7.297844, -7.802413) "></path>
                        <path d="M7.34426866,4.28477164 C7.34426866,5.39864237 7.95007738,5.10509612 8.09804298,5.21213684 C8.24600859,5.31917757 8.19788472,4.90813564 8.05201084,4.4730879 C7.90613697,4.03804016 7.34426866,3.17090092 7.34426866,4.28477164 Z" id="Path-37" fill="#D8D8D8" transform="translate(7.844269, 4.484368) rotate(-36.000000) translate(-7.844269, -4.484368) "></path>
                        <path d="M9.97352812,5.48260524 C9.97352812,6.59647596 10.5793368,6.30292971 10.7273024,6.40997044 C10.875268,6.51701116 10.8271442,6.10596923 10.6812703,5.6709215 C10.5353964,5.23587376 9.97352812,4.36873451 9.97352812,5.48260524 Z" id="Path-37" fill="#D8D8D8" transform="translate(10.473528, 5.682201) rotate(-86.000000) translate(-10.473528, -5.682201) "></path>
                        <polygon id="Path-42" fill="#2A341D" points="8.78996394 5.40643825 7.09517728 5.93865599 5.24894832 7.79186276 7.85528095 6.54103327"></polygon>
                    </g>
                    <g id="Group-4" transform="translate(0.000000, 10.186747)">
                        <path d="M2.35530396,7.43838998 C2.35530396,7.43838998 1.56952467,5.67548164 0.998423284,6.55693581 C0.427321899,7.43838998 0.0343111028,8.08260291 0.0343111028,9.57012834 C0.0343111028,11.0576538 0.465847618,10.6884423 0.732135451,11.3627872 C0.998423284,12.0371321 2.19175138,12.6390077 2.19175138,13.5463982 C2.19175138,14.4537887 2.18278628,15.8654122 2.60075398,15.8654122 C3.01872169,15.8654122 3.16943237,16.8990517 3.16943237,17.4929176 C3.16943237,18.0867835 3.08874643,20.1559696 3.53312485,20.584682 C3.97750327,21.0133945 4.17134337,21.8445016 4.17134337,22.5104553 C4.17134337,23.176409 5.54470045,26.7197709 5.54470045,26.7197709 C5.54470045,26.7197709 6.45187211,29.2462756 6.45187211,29.9541851 C6.45187211,30.6620947 7.0409686,31.4485761 7.0409686,31.4485761 L7.69584093,28.2511592 C7.69584093,28.2511592 8.18601407,25.8299255 8.18601407,24.986613 C8.18601407,24.1433005 8.31201013,22.3941385 8.81066378,21.0538247 C9.30931743,19.7135108 9.0510255,19.8275697 9.0510255,19.0521494 C9.0510255,18.2767291 9.6436916,16.9501616 9.6436916,15.9710647 C9.6436916,14.9919678 9.91264473,14.1295845 9.48183512,12.7461858 C9.0510255,11.3627872 8.838286,10.508795 8.838286,9.60140452 C8.838286,8.69401401 8.49955043,7.59286377 8.34278225,7.07489979 C8.18601407,6.55693581 7.77773837,5.97184247 7.46759421,5.19642216 C7.15745006,4.42100186 6.07024942,4.04797625 6.07024942,2.66190768 C6.07024942,1.27583912 5.73417915,0.0976426948 4.95276126,0.0976426948 C4.17134337,0.0976426948 3.38217187,0 3.38217187,0 C3.38217187,0 2.88957573,1.05919439 2.88957573,1.86055104 C2.88957573,2.66190768 2.71705804,3.21381776 2.71705804,4.20511996 C2.71705804,5.19642216 2.35530396,7.43838998 2.35530396,7.43838998 Z" id="Path-35" fill="#445C28" transform="translate(4.880465, 15.724288) scale(-1, 1) translate(-4.880465, -15.724288) "></path>
                        <path d="M2.16683436,22.0629565 C2.16683436,23.3195454 2.22108843,23.6918098 2.75576018,23.6918098 C3.29043194,23.6918098 3.09846649,22.957687 3.01028388,22.4668975 C2.92210128,21.9761079 2.16683436,20.8063676 2.16683436,22.0629565 Z" id="Path-37" fill="#D8D8D8" transform="translate(2.666834, 22.595904) rotate(-36.000000) translate(-2.666834, -22.595904) "></path>
                        <path d="M1.08991129,15.6292216 C1.08991129,16.8858104 1.14416535,17.2580749 1.67883711,17.2580749 C2.21350886,17.2580749 2.02154341,16.5239521 1.93336081,16.0331625 C1.8451782,15.5423729 1.08991129,14.3726327 1.08991129,15.6292216 Z" id="Path-37" fill="#D8D8D8" transform="translate(1.589911, 16.162169) rotate(-36.000000) translate(-1.589911, -16.162169) "></path>
                        <path d="M2.16683436,11.8762095 C2.16683436,13.1327984 2.22108843,13.5050628 2.75576018,13.5050628 C3.29043194,13.5050628 3.09846649,12.77094 3.01028388,12.2801505 C2.92210128,11.7893609 2.16683436,10.6196207 2.16683436,11.8762095 Z" id="Path-37" fill="#D8D8D8" transform="translate(2.666834, 12.409157) rotate(-36.000000) translate(-2.666834, -12.409157) "></path>
                        <path d="M1.62837282,7.58705288 C1.62837282,8.84364174 1.68262689,9.21590619 2.21729864,9.21590619 C2.7519704,9.21590619 2.56000495,8.48178342 2.47182234,7.99099384 C2.38363974,7.50020427 1.62837282,6.33046403 1.62837282,7.58705288 Z" id="Path-37" fill="#D8D8D8" transform="translate(2.128373, 8.120000) rotate(-36.000000) translate(-2.128373, -8.120000) "></path>
                        <path d="M5.39760359,12.9484987 C5.39760359,14.2050875 5.45185766,14.577352 5.98652941,14.577352 C6.52120117,14.577352 6.32923572,13.8432292 6.24105311,13.3524396 C6.15287051,12.8616501 5.39760359,11.6919098 5.39760359,12.9484987 Z" id="Path-37" fill="#D8D8D8" transform="translate(5.897604, 13.481446) rotate(-36.000000) translate(-5.897604, -13.481446) "></path>
                        <path d="M7.01298821,9.19548662 C7.01298821,10.4520755 7.06724228,10.8243399 7.60191403,10.8243399 C8.13658578,10.8243399 7.94462033,10.0902172 7.85643773,9.59942758 C7.76825513,9.108638 7.01298821,7.93889776 7.01298821,9.19548662 Z" id="Path-37" fill="#D8D8D8" transform="translate(7.512988, 9.728434) rotate(-36.000000) translate(-7.512988, -9.728434) "></path>
                        <path d="M5.39760359,2.76175168 C5.39760359,4.01834054 5.45185766,4.39060498 5.98652941,4.39060498 C6.52120117,4.39060498 6.32923572,3.65648221 6.24105311,3.16569264 C6.15287051,2.67490306 5.39760359,1.50516282 5.39760359,2.76175168 Z" id="Path-37" fill="#D8D8D8" transform="translate(5.897604, 3.294699) rotate(-36.000000) translate(-5.897604, -3.294699) "></path>
                        <path d="M3.78221898,20.4545228 C3.78221898,21.7111116 3.83647305,22.0833761 4.3711448,22.0833761 C4.90581655,22.0833761 4.7138511,21.3492533 4.6256685,20.8584637 C4.5374859,20.3676741 3.78221898,19.1979339 3.78221898,20.4545228 Z" id="Path-37" fill="#D8D8D8" transform="translate(4.282219, 20.987470) rotate(-36.000000) translate(-4.282219, -20.987470) "></path>
                        <polygon id="Path-43" fill="#2A341D" points="5.21345403 5.98686053 4.64685998 9.7220709 3.57466947 16.0050152 3.08379657 22.5848286 4.18227915 15.964176 4.92739633 12.6420693 5.39486929 9.73620753"></polygon>
                    </g>
                    <g id="Group-4" transform="translate(10.769231, 10.186747)">
                        <path d="M2.35530396,7.43838998 C2.35530396,7.43838998 1.56952467,5.67548164 0.998423284,6.55693581 C0.427321899,7.43838998 0.0343111028,8.08260291 0.0343111028,9.57012834 C0.0343111028,11.0576538 0.465847618,10.6884423 0.732135451,11.3627872 C0.998423284,12.0371321 2.19175138,12.6390077 2.19175138,13.5463982 C2.19175138,14.4537887 2.18278628,15.8654122 2.60075398,15.8654122 C3.01872169,15.8654122 3.16943237,16.8990517 3.16943237,17.4929176 C3.16943237,18.0867835 3.08874643,20.1559696 3.53312485,20.584682 C3.97750327,21.0133945 4.17134337,21.8445016 4.17134337,22.5104553 C4.17134337,23.176409 5.54470045,26.7197709 5.54470045,26.7197709 C5.54470045,26.7197709 6.45187211,29.2462756 6.45187211,29.9541851 C6.45187211,30.6620947 7.0409686,31.4485761 7.0409686,31.4485761 L7.69584093,28.2511592 C7.69584093,28.2511592 8.18601407,25.8299255 8.18601407,24.986613 C8.18601407,24.1433005 8.31201013,22.3941385 8.81066378,21.0538247 C9.30931743,19.7135108 9.0510255,19.8275697 9.0510255,19.0521494 C9.0510255,18.2767291 9.6436916,16.9501616 9.6436916,15.9710647 C9.6436916,14.9919678 9.91264473,14.1295845 9.48183512,12.7461858 C9.0510255,11.3627872 8.838286,10.508795 8.838286,9.60140452 C8.838286,8.69401401 8.49955043,7.59286377 8.34278225,7.07489979 C8.18601407,6.55693581 7.77773837,5.97184247 7.46759421,5.19642216 C7.15745006,4.42100186 6.07024942,4.04797625 6.07024942,2.66190768 C6.07024942,1.27583912 5.73417915,0.0976426948 4.95276126,0.0976426948 C4.17134337,0.0976426948 3.38217187,0 3.38217187,0 C3.38217187,0 2.88957573,1.05919439 2.88957573,1.86055104 C2.88957573,2.66190768 2.71705804,3.21381776 2.71705804,4.20511996 C2.71705804,5.19642216 2.35530396,7.43838998 2.35530396,7.43838998 Z" id="Path-35" fill="#445C28" transform="translate(4.880465, 15.724288) scale(-1, 1) translate(-4.880465, -15.724288) "></path>
                        <path d="M2.16683436,22.0629565 C2.16683436,23.3195454 2.22108843,23.6918098 2.75576018,23.6918098 C3.29043194,23.6918098 3.09846649,22.957687 3.01028388,22.4668975 C2.92210128,21.9761079 2.16683436,20.8063676 2.16683436,22.0629565 Z" id="Path-37" fill="#D8D8D8" transform="translate(2.666834, 22.595904) rotate(-36.000000) translate(-2.666834, -22.595904) "></path>
                        <path d="M1.08991129,15.6292216 C1.08991129,16.8858104 1.14416535,17.2580749 1.67883711,17.2580749 C2.21350886,17.2580749 2.02154341,16.5239521 1.93336081,16.0331625 C1.8451782,15.5423729 1.08991129,14.3726327 1.08991129,15.6292216 Z" id="Path-37" fill="#D8D8D8" transform="translate(1.589911, 16.162169) rotate(-36.000000) translate(-1.589911, -16.162169) "></path>
                        <path d="M2.16683436,11.8762095 C2.16683436,13.1327984 2.22108843,13.5050628 2.75576018,13.5050628 C3.29043194,13.5050628 3.09846649,12.77094 3.01028388,12.2801505 C2.92210128,11.7893609 2.16683436,10.6196207 2.16683436,11.8762095 Z" id="Path-37" fill="#D8D8D8" transform="translate(2.666834, 12.409157) rotate(-36.000000) translate(-2.666834, -12.409157) "></path>
                        <path d="M1.62837282,7.58705288 C1.62837282,8.84364174 1.68262689,9.21590619 2.21729864,9.21590619 C2.7519704,9.21590619 2.56000495,8.48178342 2.47182234,7.99099384 C2.38363974,7.50020427 1.62837282,6.33046403 1.62837282,7.58705288 Z" id="Path-37" fill="#D8D8D8" transform="translate(2.128373, 8.120000) rotate(-36.000000) translate(-2.128373, -8.120000) "></path>
                        <path d="M5.39760359,12.9484987 C5.39760359,14.2050875 5.45185766,14.577352 5.98652941,14.577352 C6.52120117,14.577352 6.32923572,13.8432292 6.24105311,13.3524396 C6.15287051,12.8616501 5.39760359,11.6919098 5.39760359,12.9484987 Z" id="Path-37" fill="#D8D8D8" transform="translate(5.897604, 13.481446) rotate(-36.000000) translate(-5.897604, -13.481446) "></path>
                        <path d="M7.01298821,9.19548662 C7.01298821,10.4520755 7.06724228,10.8243399 7.60191403,10.8243399 C8.13658578,10.8243399 7.94462033,10.0902172 7.85643773,9.59942758 C7.76825513,9.108638 7.01298821,7.93889776 7.01298821,9.19548662 Z" id="Path-37" fill="#D8D8D8" transform="translate(7.512988, 9.728434) rotate(-36.000000) translate(-7.512988, -9.728434) "></path>
                        <path d="M5.39760359,2.76175168 C5.39760359,4.01834054 5.45185766,4.39060498 5.98652941,4.39060498 C6.52120117,4.39060498 6.32923572,3.65648221 6.24105311,3.16569264 C6.15287051,2.67490306 5.39760359,1.50516282 5.39760359,2.76175168 Z" id="Path-37" fill="#D8D8D8" transform="translate(5.897604, 3.294699) rotate(-36.000000) translate(-5.897604, -3.294699) "></path>
                        <path d="M3.78221898,20.4545228 C3.78221898,21.7111116 3.83647305,22.0833761 4.3711448,22.0833761 C4.90581655,22.0833761 4.7138511,21.3492533 4.6256685,20.8584637 C4.5374859,20.3676741 3.78221898,19.1979339 3.78221898,20.4545228 Z" id="Path-37" fill="#D8D8D8" transform="translate(4.282219, 20.987470) rotate(-36.000000) translate(-4.282219, -20.987470) "></path>
                        <polygon id="Path-43" fill="#2A341D" points="5.21345403 5.98686053 4.64685998 9.7220709 3.57466947 16.0050152 3.08379657 22.5848286 4.18227915 15.964176 4.92739633 12.6420693 5.39486929 9.73620753"></polygon>
                    </g>
                    <g id="Group-5" transform="translate(3.230769, 37.602410)">
                        <path d="M2.91893517,4.94695412 C2.51118407,5.39245819 2.72881279,5.73386352 2.72881279,6.48568778 C2.72881279,7.23751204 2.5386904,7.03509782 2.72881279,7.37592481 C2.91893517,7.71675181 3.77093948,8.02095148 3.77093948,8.47956427 C3.77093948,8.93817707 3.76453863,9.65163902 4.06295638,9.65163902 C4.36137414,9.65163902 4.46897752,10.1740605 4.46897752,10.4742119 C4.46897752,10.7743633 4.41136992,11.8201701 4.72864422,12.0368497 C5.04591851,12.2535293 5.18431515,12.673587 5.18431515,13.0101729 C5.18431515,13.3467589 6.16485534,15.1376428 6.16485534,15.1376428 C6.16485534,15.1376428 6.81255161,16.4145874 6.81255161,16.7723787 C6.81255161,17.1301699 7.23315073,17.5276729 7.23315073,17.5276729 L7.70071204,15.9116363 C7.70071204,15.9116363 8.05068254,14.6878977 8.05068254,14.2616712 C8.05068254,13.8354446 8.14064035,12.9513841 8.49666571,12.2739635 C8.85269106,11.5965428 8.66827754,11.6541904 8.66827754,11.2622779 C8.66827754,10.8703654 9.09142526,10.1998924 9.09142526,9.70503782 C9.09142526,9.21018324 9.2834506,8.77431794 8.97586407,8.07512138 C8.66827754,7.37592481 8.51638723,6.94430058 8.51638723,6.48568778 C8.51638723,6.02707498 8.2745391,5.47053225 8.16261082,5.20874319 C8.05068254,4.94695412 7.75918462,4.65123658 7.53774999,4.25932409 C7.31631537,3.86741159 6.54008322,3.6788772 6.54008322,2.97833121 C6.54008322,2.27778522 6.30013805,1.68230185 5.7422266,1.68230185 C5.18431515,1.68230185 4.62086783,1.63295133 4.62086783,1.63295133 C4.62086783,1.63295133 4.26916738,2.16828876 4.26916738,2.57330999 C4.26916738,2.97833121 3.77093948,2.74906259 3.77093948,3.25008599 C3.77093948,3.75110939 3.32668626,4.50145005 2.91893517,4.94695412 Z" id="Path-35" fill="#445C28" transform="translate(5.897474, 9.580312) scale(-1, 1) rotate(-21.000000) translate(-5.897474, -9.580312) "></path>
                        <path d="M3.03657635,12.3269403 C3.03657635,13.440811 3.64238507,13.1472648 3.79035068,13.2543055 C3.93831628,13.3613462 3.89019241,12.9503043 3.74431853,12.5152566 C3.59844466,12.0802088 3.03657635,11.2130696 3.03657635,12.3269403 Z" id="Path-37" fill="#D8D8D8" transform="translate(3.536576, 12.526536) rotate(-36.000000) translate(-3.536576, -12.526536) "></path>
                        <path d="M6.26734559,8.57392827 C6.26734559,9.687799 6.8731543,9.39425274 7.02111991,9.50129347 C7.16908551,9.6083342 7.12096164,9.19729227 6.97508776,8.76224453 C6.82921389,8.32719679 6.26734559,7.46005754 6.26734559,8.57392827 Z" id="Path-37" fill="#D8D8D8" transform="translate(6.767346, 8.773524) rotate(-36.000000) translate(-6.767346, -8.773524) "></path>
                        <path d="M5.19042251,10.182362 C5.19042251,11.2962327 5.79623122,11.0026865 5.94419683,11.1097272 C6.09216244,11.2167679 6.04403856,10.805726 5.89816469,10.3706783 C5.75229081,9.93563052 5.19042251,9.06849128 5.19042251,10.182362 Z" id="Path-37" fill="#D8D8D8" transform="translate(5.690423, 10.381958) rotate(-36.000000) translate(-5.690423, -10.381958) "></path>
                        <path d="M3.57503789,7.50163911 C3.57503789,8.61550984 4.18084661,8.32196359 4.32881222,8.42900431 C4.47677782,8.53604504 4.42865395,8.12500311 4.28278007,7.68995537 C4.1369062,7.25490763 3.57503789,6.38776839 3.57503789,7.50163911 Z" id="Path-37" fill="#D8D8D8" transform="translate(4.075038, 7.701235) rotate(-36.000000) translate(-4.075038, -7.701235) "></path>
                        <path d="M6.26734559,5.3570608 C6.26734559,6.47093153 6.8731543,6.17738527 7.02111991,6.284426 C7.16908551,6.39146673 7.12096164,5.9804248 6.97508776,5.54537706 C6.82921389,5.11032932 6.26734559,4.24319007 6.26734559,5.3570608 Z" id="Path-37" fill="#D8D8D8" transform="translate(6.767346, 5.556657) rotate(-36.000000) translate(-6.767346, -5.556657) "></path>
                        <path d="M8.42119174,6.42934996 C8.42119174,7.54322068 9.02700046,7.24967443 9.17496606,7.35671516 C9.32293167,7.46375588 9.27480779,7.05271395 9.12893392,6.61766622 C8.98306004,6.18261848 8.42119174,5.31547923 8.42119174,6.42934996 Z" id="Path-37" fill="#D8D8D8" transform="translate(8.921192, 6.628946) rotate(-36.000000) translate(-8.921192, -6.628946) "></path>
                        <path d="M8.36745042,5.06846821 L6.10054838,6.88345374 L4.6076848,10.2110581 L4.1168119,11.8493358 C4.1168119,11.8493358 6.24909856,8.48979316 6.59405048,7.68662345 C6.9390024,6.88345374 8.36745042,5.06846821 8.36745042,5.06846821 Z" id="Path-44" fill="#2A341D"></path>
                    </g>
                    <g id="Group-7" transform="translate(18.846154, 20.909639)">
                        <path d="M0.500007018,6.55693581 C-0.242391587,7.43838998 0.153848313,8.11387909 0.153848313,9.60140452 C0.153848313,11.0889299 -0.192310391,10.6884423 0.153848313,11.3627872 C0.500007018,12.0371321 2.05126418,12.6390077 2.05126418,13.5463982 C2.05126418,14.4537887 2.03961006,15.8654122 2.58294379,15.8654122 C3.12627752,15.8654122 3.32219263,16.8990517 3.32219263,17.4929176 C3.32219263,18.0867835 3.2173056,20.1559696 3.79497172,20.584682 C4.37263784,21.0133945 4.6246187,21.8445016 4.6246187,22.5104553 C4.6246187,23.176409 6.40990308,26.7197709 6.40990308,26.7197709 C6.40990308,26.7197709 7.5891735,29.2462756 7.5891735,29.9541851 C7.5891735,30.6620947 8.3549647,31.4485761 8.3549647,31.4485761 L9.20626066,28.2511592 C9.20626066,28.2511592 9.84345726,25.8299255 9.84345726,24.986613 C9.84345726,24.1433005 10.0072448,22.3941385 10.6554656,21.0538247 C11.3036863,19.7135108 10.9679218,19.8275697 10.9679218,19.0521494 C10.9679218,18.2767291 11.7383533,16.9501616 11.7383533,15.9710647 C11.7383533,14.9919678 12.0879768,14.1295845 11.5279493,12.7461858 C10.9679218,11.3627872 10.6913728,10.508795 10.6913728,9.60140452 C10.6913728,8.69401401 10.2510363,7.59286377 10.0472468,7.07489979 C9.84345726,6.55693581 9.31272257,5.97184247 8.9095532,5.19642216 C8.50638382,4.42100186 7.09308618,4.04797625 7.09308618,2.66190768 C7.09308618,1.27583912 6.65621437,0.0976426948 5.64041653,0.0976426948 C4.6246187,0.0976426948 3.59874163,0 3.59874163,0 C3.59874163,0 2.95839527,1.05919439 2.95839527,1.86055104 C2.95839527,2.66190768 2.05126418,2.20828717 2.05126418,3.19958937 C2.05126418,4.19089158 1.24240562,5.67548164 0.500007018,6.55693581 Z" id="Path-35" fill="#445C28"></path>
                        <path d="M3.08411769,5.56492776 C3.08411769,6.82151661 3.13837176,7.19378106 3.67304351,7.19378106 C4.20771526,7.19378106 4.01574981,6.45965829 3.92756721,5.96886872 C3.83938461,5.47807914 3.08411769,4.3083389 3.08411769,5.56492776 Z" id="Path-37" fill="#D8D8D8" transform="translate(3.584118, 6.097875) rotate(-36.000000) translate(-3.584118, -6.097875) "></path>
                        <path d="M6.80580712,20.9775427 C6.80580712,22.0914135 7.41161584,21.7978672 7.55958145,21.9049079 C7.70754705,22.0119487 7.65942318,21.6009067 7.5135493,21.165859 C7.36767543,20.7308112 6.80580712,19.863672 6.80580712,20.9775427 Z" id="Path-37" fill="#D8D8D8" transform="translate(7.305807, 21.177139) rotate(-36.000000) translate(-7.305807, -21.177139) "></path>
                        <path d="M6.80580712,24.1944102 C6.80580712,25.3082809 7.41161584,25.0147347 7.55958145,25.1217754 C7.70754705,25.2288161 7.65942318,24.8177742 7.5135493,24.3827265 C7.36767543,23.9476787 6.80580712,23.0805395 6.80580712,24.1944102 Z" id="Path-37" fill="#D8D8D8" transform="translate(7.305807, 24.394006) rotate(-36.000000) translate(-7.305807, -24.394006) "></path>
                        <path d="M3.09680099,11.4331073 C3.09680099,12.6896962 3.15105506,13.0619606 3.68572681,13.0619606 C4.22039857,13.0619606 3.95425104,12.1855322 3.95425104,11.6910122 C3.95425104,11.1964921 3.09680099,10.1765185 3.09680099,11.4331073 Z" id="Path-37" fill="#D8D8D8" transform="translate(3.596801, 11.946064) rotate(65.000000) translate(-3.596801, -11.946064) "></path>
                        <path d="M6.7233592,5.59983755 C6.7233592,6.85642641 7.12815833,7.22869086 7.31228502,7.22869086 C7.49641171,7.22869086 7.64930008,6.50141694 7.64930008,5.47801694 C7.64930008,4.45461694 6.7233592,4.3432487 6.7233592,5.59983755 Z" id="Path-37" fill="#D8D8D8" transform="translate(7.223359, 5.956309) rotate(14.000000) translate(-7.223359, -5.956309) "></path>
                        <path d="M8.16448118,8.78678647 C7.3893253,9.78821928 7.44282966,9.78394209 7.7438081,9.86535857 C8.04478654,9.94677506 9.54264562,8.68881181 9.29655187,8.3290478 C9.05045812,7.9692838 8.93963705,7.78535366 8.16448118,8.78678647 Z" id="Path-37" fill="#D8D8D8"></path>
                        <path d="M4.32405103,14.4173323 C4.32405103,15.6739211 4.34767988,16.0461856 4.58054123,16.0461856 C4.81340259,16.0461856 4.86593038,15.3922127 4.86593038,14.8490652 C4.86593038,14.3059178 4.32405103,13.1607434 4.32405103,14.4173323 Z" id="Path-37" fill="#D8D8D8" transform="translate(4.824051, 14.948101) rotate(30.000000) translate(-4.824051, -14.948101) "></path>
                        <path d="M2.15384615,8.580038 C2.15384615,9.83662686 2.72340714,9.55812532 2.98527159,9.73849818 C3.24713604,9.91887104 4.2453197,9.82301381 3.49404584,9.20152591 C2.74277197,8.580038 2.15384615,7.32344915 2.15384615,8.580038 Z" id="Path-37" fill="#D8D8D8"></path>
                        <path d="M8.13464428,12.753161 C7.74952574,13.2411663 8.32108978,13.4656154 8.74659009,13.7442995 C9.17209041,14.0229837 10.2261178,13.9961368 9.47484396,13.3746489 C8.72357009,12.753161 8.51976281,12.2651558 8.13464428,12.753161 Z" id="Path-37" fill="#D8D8D8" transform="translate(8.872571, 13.234031) rotate(-24.000000) translate(-8.872571, -13.234031) "></path>
                        <path d="M8.07692308,17.1583513 C8.07692308,18.4149401 8.13117714,18.7872046 8.6658489,18.7872046 C9.20052065,18.7872046 9.13248385,17.5636435 8.94929387,17.0684035 C8.76610389,16.5731635 8.07692308,15.9017624 8.07692308,17.1583513 Z" id="Path-37" fill="#D8D8D8"></path>
                        <path d="M4.85943646,17.6062467 C4.85943646,18.8628355 4.91369052,19.2351 5.44836228,19.2351 C5.98303403,19.2351 6.4191604,18.5331252 6.19963614,18.2277346 C5.98011188,17.922344 4.85943646,16.3496578 4.85943646,17.6062467 Z" id="Path-37" fill="#D8D8D8" transform="translate(5.558569, 18.180655) rotate(47.000000) translate(-5.558569, -18.180655) "></path>
                        <polygon id="Path-40" fill="#2A341D" points="5.79319411 4.8253012 5.46612079 8.84560017 5.76979417 12.3535774 7.47588642 18.470809 7.10490535 13.0805664 6.54383263 9.92155438"></polygon>
                        <path d="M4.30769231,3.21859222 C4.30769231,4.47518108 4.34386169,4.84744552 4.70030952,4.84744552 C5.05675736,4.84744552 5.70200801,4.46156803 5.20115876,3.84008012 C4.70030952,3.21859222 4.30769231,1.96200336 4.30769231,3.21859222 Z" id="Path-37" fill="#D8D8D8"></path>
                    </g>
                    <g id="Group-6" transform="translate(10.769231, 23.590361)">
                        <path d="M0.894913869,6.55693581 C0.152515264,7.43838998 0.548755164,8.11387909 0.548755164,9.60140452 C0.548755164,11.0889299 0.20259646,10.6884423 0.548755164,11.3627872 C0.894913869,12.0371321 2.44617103,12.6390077 2.44617103,13.5463982 C2.44617103,14.4537887 2.43451691,15.8654122 2.97785064,15.8654122 C3.52118437,15.8654122 3.71709949,16.8990517 3.71709949,17.4929176 C3.71709949,18.0867835 3.61221245,20.1559696 4.18987857,20.584682 C4.76754469,21.0133945 5.01952555,21.8445016 5.01952555,22.5104553 C5.01952555,23.176409 6.80480993,26.7197709 6.80480993,26.7197709 C6.80480993,26.7197709 7.98408035,29.2462756 7.98408035,29.9541851 C7.98408035,30.6620947 8.74987155,31.4485761 8.74987155,31.4485761 L9.60116751,28.2511592 C9.60116751,28.2511592 10.2383641,25.8299255 10.2383641,24.986613 C10.2383641,24.1433005 10.4021517,22.3941385 11.0503724,21.0538247 C11.6985932,19.7135108 11.3628287,19.8275697 11.3628287,19.0521494 C11.3628287,18.2767291 12.1332602,16.9501616 12.1332602,15.9710647 C12.1332602,14.9919678 12.4828836,14.1295845 11.9228561,12.7461858 C11.3628287,11.3627872 11.0862797,10.508795 11.0862797,9.60140452 C11.0862797,8.69401401 10.6459431,7.59286377 10.4421536,7.07489979 C10.2383641,6.55693581 9.70762942,5.97184247 9.30446005,5.19642216 C8.90129068,4.42100186 7.48799303,4.04797625 7.48799303,2.66190768 C7.48799303,1.27583912 7.05112122,0.0976426948 6.03532338,0.0976426948 C5.01952555,0.0976426948 3.99364848,0 3.99364848,0 C3.99364848,0 3.35330212,1.05919439 3.35330212,1.86055104 C3.35330212,2.66190768 2.44617103,2.20828717 2.44617103,3.19958937 C2.44617103,4.19089158 1.63731247,5.67548164 0.894913869,6.55693581 Z" id="Path-35" fill="#445C28" transform="translate(6.317984, 15.724288) scale(-1, 1) translate(-6.317984, -15.724288) "></path>
                        <path d="M8.08991129,7.05090831 C8.08991129,8.30749716 8.14416535,8.67976161 8.67883711,8.67976161 C9.21350886,8.67976161 9.02154341,7.94563884 8.93336081,7.45484927 C8.8451782,6.96405969 8.08991129,5.79431945 8.08991129,7.05090831 Z" id="Path-37" fill="#D8D8D8" transform="translate(8.589911, 7.583855) rotate(-36.000000) translate(-8.589911, -7.583855) "></path>
                        <path d="M7.05854095,10.2677758 C7.05854095,11.5243646 7.11279502,11.8966291 7.64746677,11.8966291 C8.18213852,11.8966291 7.99017307,11.1625063 7.90199047,10.6717167 C7.81380787,10.1809272 7.05854095,9.01118692 7.05854095,10.2677758 Z" id="Path-37" fill="#D8D8D8" transform="translate(7.558541, 10.800723) rotate(-36.000000) translate(-7.558541, -10.800723) "></path>
                        <path d="M6.47452667,3.29789626 C6.47452667,4.55448511 6.52878074,4.92674956 7.06345249,4.92674956 C7.59812424,4.92674956 7.40615879,4.19262679 7.31797619,3.70183722 C7.22979359,3.21104764 6.47452667,2.0413074 6.47452667,3.29789626 Z" id="Path-37" fill="#D8D8D8" transform="translate(6.974527, 3.830843) rotate(-36.000000) translate(-6.974527, -3.830843) "></path>
                        <path d="M6.47452667,12.9484987 C6.47452667,14.2050875 6.52878074,14.577352 7.06345249,14.577352 C7.59812424,14.577352 7.40615879,13.8432292 7.31797619,13.3524396 C7.22979359,12.8616501 6.47452667,11.6919098 6.47452667,12.9484987 Z" id="Path-37" fill="#D8D8D8" transform="translate(6.974527, 13.481446) rotate(-36.000000) translate(-6.974527, -13.481446) "></path>
                        <path d="M3.24375744,7.05090831 C3.24375744,8.30749716 3.29801151,8.67976161 3.83268326,8.67976161 C4.36735501,8.67976161 4.17538956,7.94563884 4.08720696,7.45484927 C3.99902436,6.96405969 3.24375744,5.79431945 3.24375744,7.05090831 Z" id="Path-37" fill="#D8D8D8" transform="translate(3.743757, 7.583855) rotate(-36.000000) translate(-3.743757, -7.583855) "></path>
                        <path d="M2.7052959,11.3400649 C2.7052959,12.5966538 2.75954997,12.9689182 3.29422172,12.9689182 C3.82889347,12.9689182 3.63692802,12.2347955 3.54874542,11.7440059 C3.46056282,11.2532163 2.7052959,10.0834761 2.7052959,11.3400649 Z" id="Path-37" fill="#D8D8D8" transform="translate(3.205296, 11.873012) rotate(-36.000000) translate(-3.205296, -11.873012) "></path>
                        <path d="M5.93606513,16.1653661 C5.93606513,17.421955 5.9903192,17.7942194 6.52499095,17.7942194 C7.0596627,17.7942194 6.86769725,17.0600967 6.77951465,16.5693071 C6.69133205,16.0785175 5.93606513,14.9087773 5.93606513,16.1653661 Z" id="Path-37" fill="#D8D8D8" transform="translate(6.436065, 16.698313) rotate(-36.000000) translate(-6.436065, -16.698313) "></path>
                        <path d="M1.08991129,15.6292216 C1.08991129,16.8858104 1.14416535,17.2580749 1.67883711,17.2580749 C2.21350886,17.2580749 2.02154341,16.5239521 1.93336081,16.0331625 C1.8451782,15.5423729 1.08991129,14.3726327 1.08991129,15.6292216 Z" id="Path-37" fill="#D8D8D8" transform="translate(1.589911, 16.162169) rotate(-36.000000) translate(-1.589911, -16.162169) "></path>
                        <path d="M5.39760359,19.9183782 C5.39760359,21.174967 5.45185766,21.5472315 5.98652941,21.5472315 C6.52120117,21.5472315 6.32923572,20.8131087 6.24105311,20.3223191 C6.15287051,19.8315296 5.39760359,18.6617893 5.39760359,19.9183782 Z" id="Path-37" fill="#D8D8D8" transform="translate(5.897604, 20.451325) rotate(-36.000000) translate(-5.897604, -20.451325) "></path>
                        <path d="M2.16683436,19.3822336 C2.16683436,20.6388225 2.22108843,21.0110869 2.75576018,21.0110869 C3.29043194,21.0110869 3.09846649,20.2769641 3.01028388,19.7861746 C2.92210128,19.295385 2.16683436,18.1256448 2.16683436,19.3822336 Z" id="Path-37" fill="#D8D8D8" transform="translate(2.666834, 19.915181) rotate(-36.000000) translate(-2.666834, -19.915181) "></path>
                        <path d="M3.78221898,24.2075348 C3.78221898,25.4641237 3.83647305,25.8363881 4.3711448,25.8363881 C4.90581655,25.8363881 4.7138511,25.1022653 4.6256685,24.6114758 C4.5374859,24.1206862 3.78221898,22.950946 3.78221898,24.2075348 Z" id="Path-37" fill="#D8D8D8" transform="translate(4.282219, 24.740482) rotate(-36.000000) translate(-4.282219, -24.740482) "></path>
                        <polygon id="Path-41" fill="#2A341D" points="5.87338492 5.72062076 4.77779447 10.4443477 3.91304838 14.2811323 3.91304838 23.1413927 4.91530198 13.7635748 5.56971154 10.6304799"></polygon>
                    </g>
                </g>
            </g>
        </g>
    </g>
</svg>