<?xml version="1.0" encoding="UTF-8" standalone="no"?>
<svg width="67px" height="110px" viewBox="0 0 67 110" version="1.1" xmlns="http://www.w3.org/2000/svg" xmlns:xlink="http://www.w3.org/1999/xlink">
    <!-- Generator: Sketch 40.3 (33839) - http://www.bohemiancoding.com/sketch -->
    <title>stringy_plant</title>
    <desc>Created with Sketch.</desc>
    <defs></defs>
    <g id="Page-1" stroke="none" stroke-width="1" fill="none" fill-rule="evenodd">
        <g id="stringy_plant">
            <g id="strings" transform="translate(7.000000, 4.000000)" stroke="#3E8578">
                <path d="M8.04394531,5.62890625 C4.23535156,8.72110538 2.16210938,7.01281969 2.16210938,13.0748768 C2.16210938,19.136934 3.1171875,97.9863281 3.1171875,97.9863281" id="Path-95"></path>
                <path d="M12.0439453,2.62890625 C8.23535156,5.31933594 6.16210938,3.83300781 6.16210938,9.10742188 C6.16210938,14.3818359 7.1171875,82.9863281 7.1171875,82.9863281" id="Path-95"></path>
                <path d="M6.04394531,6.62890625 C2.23535156,8.98452807 0.162109375,7.68316458 0.162109375,12.3012094 C0.162109375,16.9192542 1.1171875,76.9863281 1.1171875,76.9863281" id="Path-95"></path>
                <path d="M30.0439453,3.62890625 C26.2353516,6.31933594 24.1621094,4.83300781 24.1621094,10.1074219 C24.1621094,15.3818359 25.1171875,83.9863281 25.1171875,83.9863281" id="Path-95" transform="translate(27.103027, 43.807617) scale(-1, 1) translate(-27.103027, -43.807617) "></path>
                <path d="M34.0439453,0.62890625 C30.2353516,3.31933594 28.1621094,1.83300781 28.1621094,7.10742187 C28.1621094,12.3818359 29.1171875,80.9863281 29.1171875,80.9863281" id="Path-95" transform="translate(31.103027, 40.807617) scale(-1, 1) translate(-31.103027, -40.807617) "></path>
                <path d="M28.0439453,4.62890625 C24.2353516,6.98452807 22.1621094,5.68316458 22.1621094,10.3012094 C22.1621094,14.9192542 23.1171875,74.9863281 23.1171875,74.9863281" id="Path-95" transform="translate(25.103027, 39.807617) scale(-1, 1) translate(-25.103027, -39.807617) "></path>
                <path d="M46.0439453,5.62890625 C42.2353516,8.98895167 40.1621094,7.13269427 40.1621094,13.7198468 C40.1621094,20.3069994 41.1171875,105.986328 41.1171875,105.986328" id="Path-95" transform="translate(43.103027, 55.807617) scale(-1, 1) translate(-43.103027, -55.807617) "></path>
                <path d="M50.0439453,2.62890625 C46.2353516,5.98895167 44.1621094,4.13269427 44.1621094,10.7198468 C44.1621094,17.3069994 45.1171875,102.986328 45.1171875,102.986328" id="Path-95" transform="translate(47.103027, 52.807617) scale(-1, 1) translate(-47.103027, -52.807617) "></path>
                <path d="M44.0439453,6.62890625 C40.2353516,9.6541438 38.1621094,7.98285104 38.1621094,13.9136344 C38.1621094,19.8444177 39.1171875,96.9863281 39.1171875,96.9863281" id="Path-95" transform="translate(41.103027, 51.807617) scale(-1, 1) translate(-41.103027, -51.807617) "></path>
            </g>
            <g id="Group-18">
                <g id="Group-16" transform="translate(12.000000, 11.000000)">
                    <polygon id="Rectangle-33" fill="#5A4532" points="0 0 44 0 38 30 6 30"></polygon>
                    <polygon id="Rectangle-33" fill="#493524" points="0 0 7 0 13 30 6 30"></polygon>
                </g>
                <g id="Group-17" transform="translate(41.000000, 1.000000)">
                    <path d="M3.39160156,1.90234375 C0.471679687,3.96015625 0.312494183,6.41523437 1.15527344,7.13769531 C1.99805269,7.86015625 7.10351562,9.74160156 7.10351562,9.74160156 L10.0126953,9.94375 C10.0126953,9.94375 16.1757812,8.02480469 17.3808594,6.28515625 C18.5859375,4.54550781 16.5478516,1.55195312 14.8222656,1.55195312 C13.0966797,1.55195312 9.52636719,1.3375 9.52636719,1.3375 C9.52636719,1.3375 6.31152344,-0.15546875 3.39160156,1.90234375 Z" id="Path-94" stroke="#45A896" fill="#98D5CA"></path>
                    <ellipse id="Oval-10" fill="#45A896" cx="13.5" cy="4" rx="1.5" ry="0.6"></ellipse>
                    <ellipse id="Oval-11" fill="#45A896" cx="14" cy="6.1" rx="1" ry="0.3"></ellipse>
                    <ellipse id="Oval-12" fill="#45A896" cx="8.5" cy="2.8" rx="1.5" ry="0.6"></ellipse>
                    <ellipse id="Oval-13" fill="#45A896" cx="5" cy="4.6" rx="1" ry="0.6"></ellipse>
                    <ellipse id="Oval-14" fill="#45A896" cx="6" cy="7" rx="2" ry="0.6"></ellipse>
                    <ellipse id="Oval-15" fill="#45A896" cx="12" cy="7.6" rx="1" ry="0.6"></ellipse>
                    <ellipse id="Oval-16" fill="#45A896" cx="9" cy="5.2" rx="1" ry="0.6"></ellipse>
                </g>
                <g id="Group-17" transform="translate(48.000000, 15.000000)">
                    <path d="M3.39160156,1.50390625 C0.471679687,4.93359375 0.312494183,9.02539062 1.15527344,10.2294922 C1.99805269,11.4335937 7.10351562,14.5693359 7.10351562,14.5693359 L10.0126953,14.90625 C10.0126953,14.90625 16.1757812,11.7080078 17.3808594,8.80859375 C18.5859375,5.90917969 16.5478516,0.919921875 14.8222656,0.919921875 C13.0966797,0.919921875 9.52636719,0.5625 9.52636719,0.5625 C9.52636719,0.5625 6.31152344,-1.92578125 3.39160156,1.50390625 Z" id="Path-94" stroke="#45A896" fill="#84C3B7"></path>
                    <ellipse id="Oval-10" fill="#45A896" cx="13.5" cy="5" rx="1.5" ry="1"></ellipse>
                    <ellipse id="Oval-11" fill="#45A896" cx="14" cy="8.5" rx="1" ry="0.5"></ellipse>
                    <ellipse id="Oval-12" fill="#45A896" cx="8.5" cy="3" rx="1.5" ry="1"></ellipse>
                    <circle id="Oval-13" fill="#45A896" cx="5" cy="6" r="1"></circle>
                    <ellipse id="Oval-14" fill="#45A896" cx="6" cy="10" rx="2" ry="1"></ellipse>
                    <circle id="Oval-15" fill="#45A896" cx="12" cy="11" r="1"></circle>
                    <circle id="Oval-16" fill="#45A896" cx="9" cy="7" r="1"></circle>
                </g>
                <g id="Group-17" transform="translate(0.000000, 20.000000)">
                    <path d="M3.39160156,1.50390625 C0.471679687,4.93359375 0.312494183,9.02539062 1.15527344,10.2294922 C1.99805269,11.4335937 7.10351562,14.5693359 7.10351562,14.5693359 L10.0126953,14.90625 C10.0126953,14.90625 16.1757812,11.7080078 17.3808594,8.80859375 C18.5859375,5.90917969 16.5478516,0.919921875 14.8222656,0.919921875 C13.0966797,0.919921875 9.52636719,0.5625 9.52636719,0.5625 C9.52636719,0.5625 6.31152344,-1.92578125 3.39160156,1.50390625 Z" id="Path-94" stroke="#45A896" fill="#84C3B7"></path>
                    <ellipse id="Oval-10" fill="#45A896" cx="13.5" cy="5" rx="1.5" ry="1"></ellipse>
                    <ellipse id="Oval-11" fill="#45A896" cx="14" cy="8.5" rx="1" ry="0.5"></ellipse>
                    <ellipse id="Oval-12" fill="#45A896" cx="8.5" cy="3" rx="1.5" ry="1"></ellipse>
                    <circle id="Oval-13" fill="#45A896" cx="5" cy="6" r="1"></circle>
                    <ellipse id="Oval-14" fill="#45A896" cx="6" cy="10" rx="2" ry="1"></ellipse>
                    <circle id="Oval-15" fill="#45A896" cx="12" cy="11" r="1"></circle>
                    <circle id="Oval-16" fill="#45A896" cx="9" cy="7" r="1"></circle>
                </g>
                <g id="Group-17" transform="translate(41.000000, 25.000000)">
                    <path d="M2.63791233,1.90234375 C0.366861979,3.96015625 0.243051031,6.41523438 0.898546007,7.13769531 C1.55404098,7.86015625 5.5249566,9.74160156 5.5249566,9.74160156 L7.78765191,9.94375 C7.78765191,9.94375 12.5811632,8.02480469 13.5184462,6.28515625 C14.4557292,4.54550781 12.8705512,1.55195313 11.5284288,1.55195313 C10.1863064,1.55195313 7.4093967,1.3375 7.4093967,1.3375 C7.4093967,1.3375 4.90896267,-0.15546875 2.63791233,1.90234375 Z" id="Path-94" stroke="#45A896" fill="#84C3B7"></path>
                    <ellipse id="Oval-10" fill="#45A896" cx="10.5" cy="4" rx="1.16666667" ry="0.6"></ellipse>
                    <ellipse id="Oval-11" fill="#45A896" cx="10.8888889" cy="6.1" rx="0.777777778" ry="0.3"></ellipse>
                    <ellipse id="Oval-12" fill="#45A896" cx="6.61111111" cy="2.8" rx="1.16666667" ry="0.6"></ellipse>
                    <ellipse id="Oval-13" fill="#45A896" cx="3.88888889" cy="4.6" rx="0.777777778" ry="0.6"></ellipse>
                    <ellipse id="Oval-14" fill="#45A896" cx="4.66666667" cy="7" rx="1.55555556" ry="0.6"></ellipse>
                    <ellipse id="Oval-15" fill="#45A896" cx="9.33333333" cy="7.6" rx="0.777777778" ry="0.6"></ellipse>
                    <ellipse id="Oval-16" fill="#45A896" cx="7" cy="5.2" rx="0.777777778" ry="0.6"></ellipse>
                </g>
                <g id="Group-17" transform="translate(51.000000, 30.000000)">
                    <path d="M1.69580078,1.90234375 C0.235839844,3.96015625 0.156247091,6.41523438 0.577636719,7.13769531 C0.999026346,7.86015625 3.55175781,9.74160156 3.55175781,9.74160156 L5.00634766,9.94375 C5.00634766,9.94375 8.08789063,8.02480469 8.69042969,6.28515625 C9.29296875,4.54550781 8.27392578,1.55195313 7.41113281,1.55195313 C6.54833984,1.55195313 4.76318359,1.3375 4.76318359,1.3375 C4.76318359,1.3375 3.15576172,-0.15546875 1.69580078,1.90234375 Z" id="Path-94" stroke="#45A896" fill="#98D5CA"></path>
                    <ellipse id="Oval-10" fill="#45A896" cx="6.75" cy="4" rx="0.75" ry="0.6"></ellipse>
                    <ellipse id="Oval-11" fill="#45A896" cx="7" cy="6.1" rx="0.5" ry="0.3"></ellipse>
                    <ellipse id="Oval-12" fill="#45A896" cx="4.25" cy="2.8" rx="0.75" ry="0.6"></ellipse>
                    <ellipse id="Oval-13" fill="#45A896" cx="2.5" cy="4.6" rx="0.5" ry="0.6"></ellipse>
                    <ellipse id="Oval-14" fill="#45A896" cx="3" cy="7" rx="1" ry="0.6"></ellipse>
                    <ellipse id="Oval-15" fill="#45A896" cx="6" cy="7.6" rx="0.5" ry="0.6"></ellipse>
                    <ellipse id="Oval-16" fill="#45A896" cx="4.5" cy="5.2" rx="0.5" ry="0.6"></ellipse>
                </g>
                <g id="Group-17" transform="translate(46.000000, 50.000000)">
                    <path d="M1.31895616,2.2828125 C0.18343099,4.7521875 0.121525515,7.69828125 0.449273003,8.56523438 C0.777020492,9.4321875 2.7624783,11.6899219 2.7624783,11.6899219 L3.89382595,11.9325 C3.89382595,11.9325 6.2905816,9.62976563 6.75922309,7.5421875 C7.22786458,5.45460938 6.43527561,1.86234375 5.76421441,1.86234375 C5.09315321,1.86234375 3.70469835,1.605 3.70469835,1.605 C3.70469835,1.605 2.45448134,-0.1865625 1.31895616,2.2828125 Z" id="Path-94" stroke="#45A896" fill="#98D5CA"></path>
                    <ellipse id="Oval-10" fill="#45A896" cx="5.25" cy="4.8" rx="0.583333333" ry="0.72"></ellipse>
                    <ellipse id="Oval-11" fill="#45A896" cx="5.44444444" cy="7.32" rx="0.388888889" ry="0.36"></ellipse>
                    <ellipse id="Oval-12" fill="#45A896" cx="3.30555556" cy="3.36" rx="0.583333333" ry="0.72"></ellipse>
                    <ellipse id="Oval-13" fill="#45A896" cx="1.94444444" cy="5.52" rx="0.388888889" ry="0.72"></ellipse>
                    <ellipse id="Oval-14" fill="#45A896" cx="2.33333333" cy="8.4" rx="0.777777778" ry="0.72"></ellipse>
                    <ellipse id="Oval-15" fill="#45A896" cx="4.66666667" cy="9.12" rx="0.388888889" ry="0.72"></ellipse>
                    <ellipse id="Oval-16" fill="#45A896" cx="3.5" cy="6.24" rx="0.388888889" ry="0.72"></ellipse>
                </g>
                <g id="Group-17" transform="translate(53.000000, 60.000000)">
                    <path d="M1.31895616,1.521875 C0.18343099,3.168125 0.121525515,5.1321875 0.449273003,5.71015625 C0.777020492,6.288125 2.7624783,7.79328125 2.7624783,7.79328125 L3.89382595,7.955 C3.89382595,7.955 6.2905816,6.41984375 6.75922309,5.028125 C7.22786458,3.63640625 6.43527561,1.2415625 5.76421441,1.2415625 C5.09315321,1.2415625 3.70469835,1.07 3.70469835,1.07 C3.70469835,1.07 2.45448134,-0.124375 1.31895616,1.521875 Z" id="Path-94" stroke="#45A896" fill="#98D5CA"></path>
                    <ellipse id="Oval-10" fill="#45A896" cx="5.25" cy="3.2" rx="0.583333333" ry="0.48"></ellipse>
                    <ellipse id="Oval-11" fill="#45A896" cx="5.44444444" cy="4.88" rx="0.388888889" ry="0.24"></ellipse>
                    <ellipse id="Oval-12" fill="#45A896" cx="3.30555556" cy="2.24" rx="0.583333333" ry="0.48"></ellipse>
                    <ellipse id="Oval-13" fill="#45A896" cx="1.94444444" cy="3.68" rx="0.388888889" ry="0.48"></ellipse>
                    <ellipse id="Oval-14" fill="#45A896" cx="2.33333333" cy="5.6" rx="0.777777778" ry="0.48"></ellipse>
                    <ellipse id="Oval-15" fill="#45A896" cx="4.66666667" cy="6.08" rx="0.388888889" ry="0.48"></ellipse>
                    <ellipse id="Oval-16" fill="#45A896" cx="3.5" cy="4.16" rx="0.388888889" ry="0.48"></ellipse>
                </g>
                <g id="Group-17" transform="translate(2.000000, 8.000000)">
                    <path d="M2.63791233,1.90234375 C0.366861979,3.96015625 0.243051031,6.41523438 0.898546007,7.13769531 C1.55404098,7.86015625 5.5249566,9.74160156 5.5249566,9.74160156 L7.78765191,9.94375 C7.78765191,9.94375 12.5811632,8.02480469 13.5184462,6.28515625 C14.4557292,4.54550781 12.8705512,1.55195313 11.5284288,1.55195313 C10.1863064,1.55195313 7.4093967,1.3375 7.4093967,1.3375 C7.4093967,1.3375 4.90896267,-0.15546875 2.63791233,1.90234375 Z" id="Path-94" stroke="#45A896" fill="#84C3B7"></path>
                    <ellipse id="Oval-10" fill="#45A896" cx="10.5" cy="4" rx="1.16666667" ry="0.6"></ellipse>
                    <ellipse id="Oval-11" fill="#45A896" cx="10.8888889" cy="6.1" rx="0.777777778" ry="0.3"></ellipse>
                    <ellipse id="Oval-12" fill="#45A896" cx="6.61111111" cy="2.8" rx="1.16666667" ry="0.6"></ellipse>
                    <ellipse id="Oval-13" fill="#45A896" cx="3.88888889" cy="4.6" rx="0.777777778" ry="0.6"></ellipse>
                    <ellipse id="Oval-14" fill="#45A896" cx="4.66666667" cy="7" rx="1.55555556" ry="0.6"></ellipse>
                    <ellipse id="Oval-15" fill="#45A896" cx="9.33333333" cy="7.6" rx="0.777777778" ry="0.6"></ellipse>
                    <ellipse id="Oval-16" fill="#45A896" cx="7" cy="5.2" rx="0.777777778" ry="0.6"></ellipse>
                </g>
                <g id="Group-17" transform="translate(10.000000, 15.000000)">
                    <path d="M1.69580078,1.90234375 C0.235839844,3.96015625 0.156247091,6.41523438 0.577636719,7.13769531 C0.999026346,7.86015625 3.55175781,9.74160156 3.55175781,9.74160156 L5.00634766,9.94375 C5.00634766,9.94375 8.08789063,8.02480469 8.69042969,6.28515625 C9.29296875,4.54550781 8.27392578,1.55195313 7.41113281,1.55195313 C6.54833984,1.55195313 4.76318359,1.3375 4.76318359,1.3375 C4.76318359,1.3375 3.15576172,-0.15546875 1.69580078,1.90234375 Z" id="Path-94" stroke="#45A896" fill="#98D5CA"></path>
                    <ellipse id="Oval-10" fill="#45A896" cx="6.75" cy="4" rx="0.75" ry="0.6"></ellipse>
                    <ellipse id="Oval-11" fill="#45A896" cx="7" cy="6.1" rx="0.5" ry="0.3"></ellipse>
                    <ellipse id="Oval-12" fill="#45A896" cx="4.25" cy="2.8" rx="0.75" ry="0.6"></ellipse>
                    <ellipse id="Oval-13" fill="#45A896" cx="2.5" cy="4.6" rx="0.5" ry="0.6"></ellipse>
                    <ellipse id="Oval-14" fill="#45A896" cx="3" cy="7" rx="1" ry="0.6"></ellipse>
                    <ellipse id="Oval-15" fill="#45A896" cx="6" cy="7.6" rx="0.5" ry="0.6"></ellipse>
                    <ellipse id="Oval-16" fill="#45A896" cx="4.5" cy="5.2" rx="0.5" ry="0.6"></ellipse>
                </g>
                <g id="Group-17" transform="translate(11.000000, 5.000000)">
                    <path d="M2.63791233,1.33164063 C0.366861979,2.77210938 0.243051031,4.49066406 0.898546007,4.99638672 C1.55404098,5.50210938 5.5249566,6.81912109 5.5249566,6.81912109 L7.78765191,6.960625 C7.78765191,6.960625 12.5811632,5.61736328 13.5184462,4.39960938 C14.4557292,3.18185547 12.8705512,1.08636719 11.5284288,1.08636719 C10.1863064,1.08636719 7.4093967,0.93625 7.4093967,0.93625 C7.4093967,0.93625 4.90896267,-0.108828125 2.63791233,1.33164063 Z" id="Path-94" stroke="#45A896" fill="#84C3B7"></path>
                    <ellipse id="Oval-10" fill="#45A896" cx="10.5" cy="2.8" rx="1.16666667" ry="0.42"></ellipse>
                    <ellipse id="Oval-11" fill="#45A896" cx="10.8888889" cy="4.27" rx="0.777777778" ry="0.21"></ellipse>
                    <ellipse id="Oval-12" fill="#45A896" cx="6.61111111" cy="1.96" rx="1.16666667" ry="0.42"></ellipse>
                    <ellipse id="Oval-13" fill="#45A896" cx="3.88888889" cy="3.22" rx="0.777777778" ry="0.42"></ellipse>
                    <ellipse id="Oval-14" fill="#45A896" cx="4.66666667" cy="4.9" rx="1.55555556" ry="0.42"></ellipse>
                    <ellipse id="Oval-15" fill="#45A896" cx="9.33333333" cy="5.32" rx="0.777777778" ry="0.42"></ellipse>
                    <ellipse id="Oval-16" fill="#45A896" cx="7" cy="3.64" rx="0.777777778" ry="0.42"></ellipse>
                </g>
                <g id="Group-17" transform="translate(29.000000, 5.000000)">
                    <path d="M2.63791233,1.33164063 C0.366861979,2.77210938 0.243051031,4.49066406 0.898546007,4.99638672 C1.55404098,5.50210938 5.5249566,6.81912109 5.5249566,6.81912109 L7.78765191,6.960625 C7.78765191,6.960625 12.5811632,5.61736328 13.5184462,4.39960938 C14.4557292,3.18185547 12.8705512,1.08636719 11.5284288,1.08636719 C10.1863064,1.08636719 7.4093967,0.93625 7.4093967,0.93625 C7.4093967,0.93625 4.90896267,-0.108828125 2.63791233,1.33164063 Z" id="Path-94" stroke="#45A896" fill="#84C3B7"></path>
                    <ellipse id="Oval-10" fill="#45A896" cx="10.5" cy="2.8" rx="1.16666667" ry="0.42"></ellipse>
                    <ellipse id="Oval-11" fill="#45A896" cx="10.8888889" cy="4.27" rx="0.777777778" ry="0.21"></ellipse>
                    <ellipse id="Oval-12" fill="#45A896" cx="6.61111111" cy="1.96" rx="1.16666667" ry="0.42"></ellipse>
                    <ellipse id="Oval-13" fill="#45A896" cx="3.88888889" cy="3.22" rx="0.777777778" ry="0.42"></ellipse>
                    <ellipse id="Oval-14" fill="#45A896" cx="4.66666667" cy="4.9" rx="1.55555556" ry="0.42"></ellipse>
                    <ellipse id="Oval-15" fill="#45A896" cx="9.33333333" cy="5.32" rx="0.777777778" ry="0.42"></ellipse>
                    <ellipse id="Oval-16" fill="#45A896" cx="7" cy="3.64" rx="0.777777778" ry="0.42"></ellipse>
                </g>
                <g id="Group-17" transform="translate(19.000000, 7.000000)">
                    <path d="M3.39160156,1.40104167 C0.471679687,2.315625 0.312494183,3.40677083 1.15527344,3.72786458 C1.99805269,4.04895833 7.10351562,4.88515625 7.10351562,4.88515625 L10.0126953,4.975 C10.0126953,4.975 16.1757812,4.12213542 17.3808594,3.34895833 C18.5859375,2.57578125 16.5478516,1.2453125 14.8222656,1.2453125 C13.0966797,1.2453125 9.52636719,1.15 9.52636719,1.15 C9.52636719,1.15 6.31152344,0.486458333 3.39160156,1.40104167 Z" id="Path-94" stroke="#45A896" fill="#98D5CA"></path>
                    <ellipse id="Oval-10" fill="#45A896" cx="13.5" cy="2.33333333" rx="1.5" ry="0.266666667"></ellipse>
                    <ellipse id="Oval-11" fill="#45A896" cx="14" cy="3.38333333" rx="1" ry="0.25"></ellipse>
                    <ellipse id="Oval-12" fill="#45A896" cx="8.5" cy="1.8" rx="1.5" ry="0.266666667"></ellipse>
                    <ellipse id="Oval-13" fill="#45A896" cx="5" cy="2.6" rx="1" ry="0.266666667"></ellipse>
                    <ellipse id="Oval-14" fill="#45A896" cx="6" cy="3.66666667" rx="2" ry="0.266666667"></ellipse>
                    <ellipse id="Oval-15" fill="#45A896" cx="12" cy="3.93333333" rx="1" ry="0.266666667"></ellipse>
                    <ellipse id="Oval-16" fill="#45A896" cx="9" cy="2.86666667" rx="1" ry="0.266666667"></ellipse>
                </g>
                <g id="Group-17" transform="translate(21.000000, 2.000000)">
                    <path d="M1.69580078,1.33164063 C0.235839844,2.77210938 0.156247091,4.49066406 0.577636719,4.99638672 C0.999026346,5.50210938 3.55175781,6.81912109 3.55175781,6.81912109 L5.00634766,6.960625 C5.00634766,6.960625 8.08789063,5.61736328 8.69042969,4.39960938 C9.29296875,3.18185547 8.27392578,1.08636719 7.41113281,1.08636719 C6.54833984,1.08636719 4.76318359,0.93625 4.76318359,0.93625 C4.76318359,0.93625 3.15576172,-0.108828125 1.69580078,1.33164063 Z" id="Path-94" stroke="#45A896" fill="#98D5CA"></path>
                    <ellipse id="Oval-10" fill="#45A896" cx="6.75" cy="2.8" rx="0.75" ry="0.42"></ellipse>
                    <ellipse id="Oval-11" fill="#45A896" cx="7" cy="4.27" rx="0.5" ry="0.21"></ellipse>
                    <ellipse id="Oval-12" fill="#45A896" cx="4.25" cy="1.96" rx="0.75" ry="0.42"></ellipse>
                    <ellipse id="Oval-13" fill="#45A896" cx="2.5" cy="3.22" rx="0.5" ry="0.42"></ellipse>
                    <ellipse id="Oval-14" fill="#45A896" cx="3" cy="4.9" rx="1" ry="0.42"></ellipse>
                    <ellipse id="Oval-15" fill="#45A896" cx="6" cy="5.32" rx="0.5" ry="0.42"></ellipse>
                    <ellipse id="Oval-16" fill="#45A896" cx="4.5" cy="3.64" rx="0.5" ry="0.42"></ellipse>
                </g>
                <g id="Group-17" transform="translate(8.000000, 42.000000)">
                    <path d="M1.69580078,1.33164063 C0.235839844,2.77210938 0.156247091,4.49066406 0.577636719,4.99638672 C0.999026346,5.50210938 3.55175781,6.81912109 3.55175781,6.81912109 L5.00634766,6.960625 C5.00634766,6.960625 8.08789063,5.61736328 8.69042969,4.39960938 C9.29296875,3.18185547 8.27392578,1.08636719 7.41113281,1.08636719 C6.54833984,1.08636719 4.76318359,0.93625 4.76318359,0.93625 C4.76318359,0.93625 3.15576172,-0.108828125 1.69580078,1.33164063 Z" id="Path-94" stroke="#45A896" fill="#98D5CA"></path>
                    <ellipse id="Oval-10" fill="#45A896" cx="6.75" cy="2.8" rx="0.75" ry="0.42"></ellipse>
                    <ellipse id="Oval-11" fill="#45A896" cx="7" cy="4.27" rx="0.5" ry="0.21"></ellipse>
                    <ellipse id="Oval-12" fill="#45A896" cx="4.25" cy="1.96" rx="0.75" ry="0.42"></ellipse>
                    <ellipse id="Oval-13" fill="#45A896" cx="2.5" cy="3.22" rx="0.5" ry="0.42"></ellipse>
                    <ellipse id="Oval-14" fill="#45A896" cx="3" cy="4.9" rx="1" ry="0.42"></ellipse>
                    <ellipse id="Oval-15" fill="#45A896" cx="6" cy="5.32" rx="0.5" ry="0.42"></ellipse>
                    <ellipse id="Oval-16" fill="#45A896" cx="4.5" cy="3.64" rx="0.5" ry="0.42"></ellipse>
                </g>
                <g id="Group-17" transform="translate(36.000000, 2.000000)">
                    <path d="M1.69580078,1.33164063 C0.235839844,2.77210938 0.156247091,4.49066406 0.577636719,4.99638672 C0.999026346,5.50210938 3.55175781,6.81912109 3.55175781,6.81912109 L5.00634766,6.960625 C5.00634766,6.960625 8.08789063,5.61736328 8.69042969,4.39960938 C9.29296875,3.18185547 8.27392578,1.08636719 7.41113281,1.08636719 C6.54833984,1.08636719 4.76318359,0.93625 4.76318359,0.93625 C4.76318359,0.93625 3.15576172,-0.108828125 1.69580078,1.33164063 Z" id="Path-94" stroke="#45A896" fill="#98D5CA"></path>
                    <ellipse id="Oval-10" fill="#45A896" cx="6.75" cy="2.8" rx="0.75" ry="0.42"></ellipse>
                    <ellipse id="Oval-11" fill="#45A896" cx="7" cy="4.27" rx="0.5" ry="0.21"></ellipse>
                    <ellipse id="Oval-12" fill="#45A896" cx="4.25" cy="1.96" rx="0.75" ry="0.42"></ellipse>
                    <ellipse id="Oval-13" fill="#45A896" cx="2.5" cy="3.22" rx="0.5" ry="0.42"></ellipse>
                    <ellipse id="Oval-14" fill="#45A896" cx="3" cy="4.9" rx="1" ry="0.42"></ellipse>
                    <ellipse id="Oval-15" fill="#45A896" cx="6" cy="5.32" rx="0.5" ry="0.42"></ellipse>
                    <ellipse id="Oval-16" fill="#45A896" cx="4.5" cy="3.64" rx="0.5" ry="0.42"></ellipse>
                </g>
                <g id="Group-17" transform="translate(29.000000, 13.000000)">
                    <path d="M2.63791233,1.47304688 C0.366861979,4.14820313 0.243051031,7.33980469 0.898546007,8.27900391 C1.55404098,9.21820313 5.5249566,11.664082 5.5249566,11.664082 L7.78765191,11.926875 C7.78765191,11.926875 12.5811632,9.43224609 13.5184462,7.17070313 C14.4557292,4.90916016 12.8705512,1.01753906 11.5284288,1.01753906 C10.1863064,1.01753906 7.4093967,0.73875 7.4093967,0.73875 C7.4093967,0.73875 4.90896267,-1.20210937 2.63791233,1.47304688 Z" id="Path-94" stroke="#45A896" fill="#98D5CA"></path>
                    <ellipse id="Oval-10" fill="#45A896" cx="10.5" cy="4.2" rx="1.16666667" ry="0.78"></ellipse>
                    <ellipse id="Oval-11" fill="#45A896" cx="10.8888889" cy="6.93" rx="0.777777778" ry="0.39"></ellipse>
                    <ellipse id="Oval-12" fill="#45A896" cx="6.61111111" cy="2.64" rx="1.16666667" ry="0.78"></ellipse>
                    <ellipse id="Oval-13" fill="#45A896" cx="3.88888889" cy="4.98" rx="0.777777778" ry="0.78"></ellipse>
                    <ellipse id="Oval-14" fill="#45A896" cx="4.66666667" cy="8.1" rx="1.55555556" ry="0.78"></ellipse>
                    <ellipse id="Oval-15" fill="#45A896" cx="9.33333333" cy="8.88" rx="0.777777778" ry="0.78"></ellipse>
                    <ellipse id="Oval-16" fill="#45A896" cx="7" cy="5.76" rx="0.777777778" ry="0.78"></ellipse>
                </g>
                <g id="Group-17" transform="translate(36.000000, 33.000000)">
                    <path d="M1.88422309,0.736523438 C0.262044271,2.07410156 0.173607879,3.66990234 0.641818576,4.13950195 C1.11002927,4.60910156 3.94639757,5.83204102 3.94639757,5.83204102 L5.56260851,5.9634375 C5.56260851,5.9634375 8.98654514,4.71612305 9.65603299,3.58535156 C10.3255208,2.45458008 9.19325087,0.508769531 8.23459201,0.508769531 C7.27593316,0.508769531 5.29242622,0.369375 5.29242622,0.369375 C5.29242622,0.369375 3.50640191,-0.601054687 1.88422309,0.736523438 Z" id="Path-94" stroke="#45A896" fill="#98D5CA"></path>
                    <ellipse id="Oval-10" fill="#45A896" cx="7.5" cy="2.1" rx="0.833333333" ry="0.39"></ellipse>
                    <ellipse id="Oval-11" fill="#45A896" cx="7.77777778" cy="3.465" rx="0.555555556" ry="0.195"></ellipse>
                    <ellipse id="Oval-12" fill="#45A896" cx="4.72222222" cy="1.32" rx="0.833333333" ry="0.39"></ellipse>
                    <ellipse id="Oval-13" fill="#45A896" cx="2.77777778" cy="2.49" rx="0.555555556" ry="0.39"></ellipse>
                    <ellipse id="Oval-14" fill="#45A896" cx="3.33333333" cy="4.05" rx="1.11111111" ry="0.39"></ellipse>
                    <ellipse id="Oval-15" fill="#45A896" cx="6.66666667" cy="4.44" rx="0.555555556" ry="0.39"></ellipse>
                    <ellipse id="Oval-16" fill="#45A896" cx="5" cy="2.88" rx="0.555555556" ry="0.39"></ellipse>
                </g>
                <g id="Group-17" transform="translate(27.000000, 0.000000)">
                    <path d="M1.69580078,1.70182292 C0.235839844,3.30234375 0.156247091,5.21184896 0.577636719,5.77376302 C0.999026346,6.33567708 3.55175781,7.79902344 3.55175781,7.79902344 L5.00634766,7.95625 C5.00634766,7.95625 8.08789063,6.46373698 8.69042969,5.11067708 C9.29296875,3.75761719 8.27392578,1.42929688 7.41113281,1.42929688 C6.54833984,1.42929688 4.76318359,1.2625 4.76318359,1.2625 C4.76318359,1.2625 3.15576172,0.101302083 1.69580078,1.70182292 Z" id="Path-94" stroke="#45A896" fill="#84C3B7"></path>
                    <ellipse id="Oval-10" fill="#45A896" cx="6.75" cy="3.33333333" rx="0.75" ry="0.466666667"></ellipse>
                    <ellipse id="Oval-11" fill="#45A896" cx="7" cy="4.98333333" rx="0.5" ry="0.25"></ellipse>
                    <ellipse id="Oval-12" fill="#45A896" cx="4.25" cy="2.4" rx="0.75" ry="0.466666667"></ellipse>
                    <ellipse id="Oval-13" fill="#45A896" cx="2.5" cy="3.8" rx="0.5" ry="0.466666667"></ellipse>
                    <ellipse id="Oval-14" fill="#45A896" cx="3" cy="5.66666667" rx="1" ry="0.466666667"></ellipse>
                    <ellipse id="Oval-15" fill="#45A896" cx="6" cy="6.13333333" rx="0.5" ry="0.466666667"></ellipse>
                    <ellipse id="Oval-16" fill="#45A896" cx="4.5" cy="4.26666667" rx="0.5" ry="0.466666667"></ellipse>
                </g>
                <g id="Group-17" transform="translate(40.000000, 6.000000)">
                    <path d="M3.39160156,1.50390625 C0.471679687,4.93359375 0.312494183,9.02539062 1.15527344,10.2294922 C1.99805269,11.4335937 7.10351562,14.5693359 7.10351562,14.5693359 L10.0126953,14.90625 C10.0126953,14.90625 16.1757812,11.7080078 17.3808594,8.80859375 C18.5859375,5.90917969 16.5478516,0.919921875 14.8222656,0.919921875 C13.0966797,0.919921875 9.52636719,0.5625 9.52636719,0.5625 C9.52636719,0.5625 6.31152344,-1.92578125 3.39160156,1.50390625 Z" id="Path-94" stroke="#45A896" fill="#98D5CA"></path>
                    <ellipse id="Oval-10" fill="#45A896" cx="13.5" cy="5" rx="1.5" ry="1"></ellipse>
                    <ellipse id="Oval-11" fill="#45A896" cx="14" cy="8.5" rx="1" ry="0.5"></ellipse>
                    <ellipse id="Oval-12" fill="#45A896" cx="8.5" cy="3" rx="1.5" ry="1"></ellipse>
                    <circle id="Oval-13" fill="#45A896" cx="5" cy="6" r="1"></circle>
                    <ellipse id="Oval-14" fill="#45A896" cx="6" cy="10" rx="2" ry="1"></ellipse>
                    <circle id="Oval-15" fill="#45A896" cx="12" cy="11" r="1"></circle>
                    <circle id="Oval-16" fill="#45A896" cx="9" cy="7" r="1"></circle>
                </g>
                <g id="Group-17" transform="translate(3.000000, 32.000000)">
                    <path d="M1.31895616,1.47304688 C0.18343099,4.14820313 0.121525515,7.33980469 0.449273003,8.27900391 C0.777020492,9.21820313 2.7624783,11.664082 2.7624783,11.664082 L3.89382595,11.926875 C3.89382595,11.926875 6.2905816,9.43224609 6.75922309,7.17070313 C7.22786458,4.90916016 6.43527561,1.01753906 5.76421441,1.01753906 C5.09315321,1.01753906 3.70469835,0.73875 3.70469835,0.73875 C3.70469835,0.73875 2.45448134,-1.20210937 1.31895616,1.47304688 Z" id="Path-94" stroke="#45A896" fill="#84C3B7"></path>
                    <ellipse id="Oval-10" fill="#45A896" cx="5.25" cy="4.2" rx="0.583333333" ry="0.78"></ellipse>
                    <ellipse id="Oval-11" fill="#45A896" cx="5.44444444" cy="6.93" rx="0.388888889" ry="0.39"></ellipse>
                    <ellipse id="Oval-12" fill="#45A896" cx="3.30555556" cy="2.64" rx="0.583333333" ry="0.78"></ellipse>
                    <ellipse id="Oval-13" fill="#45A896" cx="1.94444444" cy="4.98" rx="0.388888889" ry="0.78"></ellipse>
                    <ellipse id="Oval-14" fill="#45A896" cx="2.33333333" cy="8.1" rx="0.777777778" ry="0.78"></ellipse>
                    <ellipse id="Oval-15" fill="#45A896" cx="4.66666667" cy="8.88" rx="0.388888889" ry="0.78"></ellipse>
                    <ellipse id="Oval-16" fill="#45A896" cx="3.5" cy="5.76" rx="0.388888889" ry="0.78"></ellipse>
                </g>
                <g id="Group-17" transform="translate(4.000000, 62.000000)">
                    <path d="M1.31895616,0.613769531 C0.18343099,1.72841797 0.121525515,3.05825195 0.449273003,3.44958496 C0.777020492,3.84091797 2.7624783,4.86003418 2.7624783,4.86003418 L3.89382595,4.96953125 C3.89382595,4.96953125 6.2905816,3.93010254 6.75922309,2.98779297 C7.22786458,2.0454834 6.43527561,0.423974609 5.76421441,0.423974609 C5.09315321,0.423974609 3.70469835,0.3078125 3.70469835,0.3078125 C3.70469835,0.3078125 2.45448134,-0.500878906 1.31895616,0.613769531 Z" id="Path-94" stroke="#45A896" fill="#84C3B7"></path>
                    <ellipse id="Oval-10" fill="#45A896" cx="5.25" cy="1.75" rx="0.583333333" ry="0.325"></ellipse>
                    <ellipse id="Oval-11" fill="#45A896" cx="5.44444444" cy="2.92" rx="0.388888889" ry="0.195"></ellipse>
                    <ellipse id="Oval-12" fill="#45A896" cx="3.30555556" cy="1.1" rx="0.583333333" ry="0.325"></ellipse>
                    <ellipse id="Oval-13" fill="#45A896" cx="1.94444444" cy="2.075" rx="0.388888889" ry="0.325"></ellipse>
                    <ellipse id="Oval-14" fill="#45A896" cx="2.33333333" cy="3.375" rx="0.777777778" ry="0.325"></ellipse>
                    <ellipse id="Oval-15" fill="#45A896" cx="4.66666667" cy="3.7" rx="0.388888889" ry="0.325"></ellipse>
                    <ellipse id="Oval-16" fill="#45A896" cx="3.5" cy="2.4" rx="0.388888889" ry="0.325"></ellipse>
                </g>
                <g id="Group-17" transform="translate(32.000000, 35.000000)">
                    <path d="M1.31895616,1.47304688 C0.18343099,4.14820313 0.121525515,7.33980469 0.449273003,8.27900391 C0.777020492,9.21820313 2.7624783,11.664082 2.7624783,11.664082 L3.89382595,11.926875 C3.89382595,11.926875 6.2905816,9.43224609 6.75922309,7.17070313 C7.22786458,4.90916016 6.43527561,1.01753906 5.76421441,1.01753906 C5.09315321,1.01753906 3.70469835,0.73875 3.70469835,0.73875 C3.70469835,0.73875 2.45448134,-1.20210937 1.31895616,1.47304688 Z" id="Path-94" stroke="#45A896" fill="#84C3B7"></path>
                    <ellipse id="Oval-10" fill="#45A896" cx="5.25" cy="4.2" rx="0.583333333" ry="0.78"></ellipse>
                    <ellipse id="Oval-11" fill="#45A896" cx="5.44444444" cy="6.93" rx="0.388888889" ry="0.39"></ellipse>
                    <ellipse id="Oval-12" fill="#45A896" cx="3.30555556" cy="2.64" rx="0.583333333" ry="0.78"></ellipse>
                    <ellipse id="Oval-13" fill="#45A896" cx="1.94444444" cy="4.98" rx="0.388888889" ry="0.78"></ellipse>
                    <ellipse id="Oval-14" fill="#45A896" cx="2.33333333" cy="8.1" rx="0.777777778" ry="0.78"></ellipse>
                    <ellipse id="Oval-15" fill="#45A896" cx="4.66666667" cy="8.88" rx="0.388888889" ry="0.78"></ellipse>
                    <ellipse id="Oval-16" fill="#45A896" cx="3.5" cy="5.76" rx="0.388888889" ry="0.78"></ellipse>
                </g>
            </g>
        </g>
    </g>
</svg>