<?xml version="1.0" encoding="UTF-8" standalone="no"?>
<svg width="50px" height="100px" viewBox="0 0 50 100" version="1.1" xmlns="http://www.w3.org/2000/svg" xmlns:xlink="http://www.w3.org/1999/xlink">
    <!-- Generator: Sketch 40.3 (33839) - http://www.bohemiancoding.com/sketch -->
    <title>stringy_plant_hero</title>
    <desc>Created with Sketch.</desc>
    <defs></defs>
    <g id="Page-1" stroke="none" stroke-width="1" fill="none" fill-rule="evenodd">
        <g id="stringy_plant_hero">
            <g id="leaves" transform="translate(1.000000, 20.000000)">
                <g id="strings" transform="translate(4.984848, 2.836364)" stroke="#3E8578">
                    <path d="M5.72826409,3.99140625 C3.01608369,6.18405654 1.53968395,4.97272669 1.53968395,9.27127631 C1.53968395,13.5698259 2.21981534,69.4812145 2.21981534,69.4812145" id="Path-95"></path>
                    <path d="M8.57674893,1.86413352 C5.86456854,3.77189276 4.3881688,2.71795099 4.3881688,6.45799006 C4.3881688,10.1980291 5.06830019,58.8448509 5.06830019,58.8448509" id="Path-95"></path>
                    <path d="M4.30402166,4.70049716 C1.59184126,6.37084718 0.115441525,5.44806216 0.115441525,8.72267575 C0.115441525,11.9972893 0.795572917,54.5903054 0.795572917,54.5903054" id="Path-95"></path>
                    <path d="M21.3949308,2.57322443 C18.6827504,4.48098366 17.2063506,3.4270419 17.2063506,7.16708097 C17.2063506,10.90712 17.886482,59.5539418 17.886482,59.5539418" id="Path-95" transform="translate(19.300641, 31.063583) scale(-1, 1) translate(-19.300641, -31.063583) "></path>
                    <path d="M24.2434156,0.445951705 C21.5312352,2.35371094 20.0548355,1.29976918 20.0548355,5.03980824 C20.0548355,8.7798473 20.7349669,57.426669 20.7349669,57.426669" id="Path-95" transform="translate(22.149126, 28.936310) scale(-1, 1) translate(-22.149126, -28.936310) "></path>
                    <path d="M19.9706883,3.28231534 C17.2585079,4.95266536 15.7821082,4.02988034 15.7821082,7.30449394 C15.7821082,10.5791075 16.4622396,53.1721236 16.4622396,53.1721236" id="Path-95" transform="translate(17.876398, 28.227219) scale(-1, 1) translate(-17.876398, -28.227219) "></path>
                    <path d="M32.7888701,3.99140625 C30.0766897,6.37398391 28.60029,5.05772867 28.60029,9.72861866 C28.60029,14.3995087 29.2804214,75.1539418 29.2804214,75.1539418" id="Path-95" transform="translate(30.694580, 39.572674) scale(-1, 1) translate(-30.694580, -39.572674) "></path>
                    <path d="M35.637355,1.86413352 C32.9251746,4.24671118 31.4487749,2.93045594 31.4487749,7.60134594 C31.4487749,12.2722359 32.1289063,73.026669 32.1289063,73.026669" id="Path-95" transform="translate(33.543065, 37.445401) scale(-1, 1) translate(-33.543065, -37.445401) "></path>
                    <path d="M31.3646277,4.70049716 C28.6524473,6.84566561 27.1760476,5.6605671 27.1760476,9.86603163 C27.1760476,14.0714962 27.856179,68.7721236 27.856179,68.7721236" id="Path-95" transform="translate(29.270338, 36.736310) scale(-1, 1) translate(-29.270338, -36.736310) "></path>
                </g>
                <g id="Group-18">
                    <g id="Group-16" transform="translate(8.545455, 7.800000)">
                        <polygon id="Rectangle-33" fill="#5A4532" points="0 0 31.3333333 0 27.0606061 21.2727273 4.27272727 21.2727273"></polygon>
                        <polygon id="Rectangle-33" fill="#493524" points="0 0 4.98484848 0 9.25757576 21.2727273 4.27272727 21.2727273"></polygon>
                    </g>
                    <g id="Group-17" transform="translate(29.196970, 0.709091)">
                        <path d="M2.41523142,1.34893466 C0.335893111,2.8081108 0.222533736,4.54898437 0.822694721,5.06127486 C1.42285571,5.57356534 5.05856416,6.90768111 5.05856416,6.90768111 L7.13025272,7.05102273 C7.13025272,7.05102273 11.519117,5.69031605 12.3772786,4.45674716 C13.2354403,3.22317827 11.7840761,1.10047585 10.5552498,1.10047585 C9.32642341,1.10047585 6.78392815,0.948409091 6.78392815,0.948409091 C6.78392815,0.948409091 4.49456972,-0.110241477 2.41523142,1.34893466 Z" id="Path-94" stroke="#45A896" fill="#98D5CA"></path>
                        <ellipse id="Oval-10" fill="#45A896" cx="9.61363636" cy="2.83636364" rx="1.06818182" ry="0.425454545"></ellipse>
                        <ellipse id="Oval-11" fill="#45A896" cx="9.96969697" cy="4.32545455" rx="0.712121212" ry="0.212727273"></ellipse>
                        <ellipse id="Oval-12" fill="#45A896" cx="6.0530303" cy="1.98545455" rx="1.06818182" ry="0.425454545"></ellipse>
                        <ellipse id="Oval-13" fill="#45A896" cx="3.56060606" cy="3.26181818" rx="0.712121212" ry="0.425454545"></ellipse>
                        <ellipse id="Oval-14" fill="#45A896" cx="4.27272727" cy="4.96363636" rx="1.42424242" ry="0.425454545"></ellipse>
                        <ellipse id="Oval-15" fill="#45A896" cx="8.54545455" cy="5.38909091" rx="0.712121212" ry="0.425454545"></ellipse>
                        <ellipse id="Oval-16" fill="#45A896" cx="6.40909091" cy="3.68727273" rx="0.712121212" ry="0.425454545"></ellipse>
                    </g>
                    <g id="Group-17" transform="translate(34.181818, 9.636364)">
                        <path d="M2.41523142,2.06640625 C0.335893111,4.49836648 0.222533736,7.39982244 0.822694721,8.25363991 C1.42285571,9.10745739 5.05856416,11.3309837 5.05856416,11.3309837 L7.13025272,11.5698864 C7.13025272,11.5698864 11.519117,9.3020419 12.3772786,7.24609375 C13.2354403,5.1901456 11.7840761,1.65230824 10.5552498,1.65230824 C9.32642341,1.65230824 6.78392815,1.39886364 6.78392815,1.39886364 C6.78392815,1.39886364 4.49456972,-0.365553977 2.41523142,2.06640625 Z" id="Path-94" stroke="#45A896" fill="#84C3B7"></path>
                        <ellipse id="Oval-10" fill="#45A896" cx="9.61363636" cy="4.54545455" rx="1.06818182" ry="0.709090909"></ellipse>
                        <ellipse id="Oval-11" fill="#45A896" cx="9.96969697" cy="7.02727273" rx="0.712121212" ry="0.354545455"></ellipse>
                        <ellipse id="Oval-12" fill="#45A896" cx="6.0530303" cy="3.12727273" rx="1.06818182" ry="0.709090909"></ellipse>
                        <ellipse id="Oval-13" fill="#45A896" cx="3.56060606" cy="5.25454545" rx="0.712121212" ry="0.709090909"></ellipse>
                        <ellipse id="Oval-14" fill="#45A896" cx="4.27272727" cy="8.09090909" rx="1.42424242" ry="0.709090909"></ellipse>
                        <ellipse id="Oval-15" fill="#45A896" cx="8.54545455" cy="8.8" rx="0.712121212" ry="0.709090909"></ellipse>
                        <ellipse id="Oval-16" fill="#45A896" cx="6.40909091" cy="5.96363636" rx="0.712121212" ry="0.709090909"></ellipse>
                    </g>
                    <g id="Group-17" transform="translate(0.000000, 13.181818)">
                        <path d="M2.41523142,2.06640625 C0.335893111,4.49836648 0.222533736,7.39982244 0.822694721,8.25363991 C1.42285571,9.10745739 5.05856416,11.3309837 5.05856416,11.3309837 L7.13025272,11.5698864 C7.13025272,11.5698864 11.519117,9.3020419 12.3772786,7.24609375 C13.2354403,5.1901456 11.7840761,1.65230824 10.5552498,1.65230824 C9.32642341,1.65230824 6.78392815,1.39886364 6.78392815,1.39886364 C6.78392815,1.39886364 4.49456972,-0.365553977 2.41523142,2.06640625 Z" id="Path-94" stroke="#45A896" fill="#84C3B7"></path>
                        <ellipse id="Oval-10" fill="#45A896" cx="9.61363636" cy="4.54545455" rx="1.06818182" ry="0.709090909"></ellipse>
                        <ellipse id="Oval-11" fill="#45A896" cx="9.96969697" cy="7.02727273" rx="0.712121212" ry="0.354545455"></ellipse>
                        <ellipse id="Oval-12" fill="#45A896" cx="6.0530303" cy="3.12727273" rx="1.06818182" ry="0.709090909"></ellipse>
                        <ellipse id="Oval-13" fill="#45A896" cx="3.56060606" cy="5.25454545" rx="0.712121212" ry="0.709090909"></ellipse>
                        <ellipse id="Oval-14" fill="#45A896" cx="4.27272727" cy="8.09090909" rx="1.42424242" ry="0.709090909"></ellipse>
                        <ellipse id="Oval-15" fill="#45A896" cx="8.54545455" cy="8.8" rx="0.712121212" ry="0.709090909"></ellipse>
                        <ellipse id="Oval-16" fill="#45A896" cx="6.40909091" cy="5.96363636" rx="0.712121212" ry="0.709090909"></ellipse>
                    </g>
                    <g id="Group-17" transform="translate(29.196970, 17.727273)">
                        <path d="M1.87851332,1.34893466 C0.261250197,2.8081108 0.173081795,4.54898438 0.639873672,5.06127486 C1.10666555,5.57356534 3.93443879,6.90768111 3.93443879,6.90768111 L5.54575212,7.05102273 C5.54575212,7.05102273 8.95931318,5.69031605 9.62677228,4.45674716 C10.2942314,3.22317827 9.16539253,1.10047585 8.2096387,1.10047585 C7.25388488,1.10047585 5.27638856,0.948409091 5.27638856,0.948409091 C5.27638856,0.948409091 3.49577645,-0.110241477 1.87851332,1.34893466 Z" id="Path-94" stroke="#45A896" fill="#84C3B7"></path>
                        <ellipse id="Oval-10" fill="#45A896" cx="7.47727273" cy="2.83636364" rx="0.830808081" ry="0.425454545"></ellipse>
                        <ellipse id="Oval-11" fill="#45A896" cx="7.75420875" cy="4.32545455" rx="0.553872054" ry="0.212727273"></ellipse>
                        <ellipse id="Oval-12" fill="#45A896" cx="4.70791246" cy="1.98545455" rx="0.830808081" ry="0.425454545"></ellipse>
                        <ellipse id="Oval-13" fill="#45A896" cx="2.76936027" cy="3.26181818" rx="0.553872054" ry="0.425454545"></ellipse>
                        <ellipse id="Oval-14" fill="#45A896" cx="3.32323232" cy="4.96363636" rx="1.10774411" ry="0.425454545"></ellipse>
                        <ellipse id="Oval-15" fill="#45A896" cx="6.64646465" cy="5.38909091" rx="0.553872054" ry="0.425454545"></ellipse>
                        <ellipse id="Oval-16" fill="#45A896" cx="4.98484848" cy="3.68727273" rx="0.553872054" ry="0.425454545"></ellipse>
                    </g>
                    <g id="Group-17" transform="translate(36.318182, 21.272727)">
                        <path d="M1.20761571,1.34893466 C0.167946555,2.8081108 0.111266868,4.54898438 0.41134736,5.06127486 C0.711427853,5.57356534 2.52928208,6.90768111 2.52928208,6.90768111 L3.56512636,7.05102273 C3.56512636,7.05102273 5.75955848,5.69031605 6.18863932,4.45674716 C6.61772017,3.22317827 5.89203806,1.10047585 5.27762488,1.10047585 C4.66321171,1.10047585 3.39196407,0.948409091 3.39196407,0.948409091 C3.39196407,0.948409091 2.24728486,-0.110241477 1.20761571,1.34893466 Z" id="Path-94" stroke="#45A896" fill="#98D5CA"></path>
                        <ellipse id="Oval-10" fill="#45A896" cx="4.80681818" cy="2.83636364" rx="0.534090909" ry="0.425454545"></ellipse>
                        <ellipse id="Oval-11" fill="#45A896" cx="4.98484848" cy="4.32545455" rx="0.356060606" ry="0.212727273"></ellipse>
                        <ellipse id="Oval-12" fill="#45A896" cx="3.02651515" cy="1.98545455" rx="0.534090909" ry="0.425454545"></ellipse>
                        <ellipse id="Oval-13" fill="#45A896" cx="1.78030303" cy="3.26181818" rx="0.356060606" ry="0.425454545"></ellipse>
                        <ellipse id="Oval-14" fill="#45A896" cx="2.13636364" cy="4.96363636" rx="0.712121212" ry="0.425454545"></ellipse>
                        <ellipse id="Oval-15" fill="#45A896" cx="4.27272727" cy="5.38909091" rx="0.356060606" ry="0.425454545"></ellipse>
                        <ellipse id="Oval-16" fill="#45A896" cx="3.20454545" cy="3.68727273" rx="0.356060606" ry="0.425454545"></ellipse>
                    </g>
                    <g id="Group-17" transform="translate(32.757576, 35.454545)">
                        <path d="M0.939256662,1.61872159 C0.130625099,3.36973295 0.0865408973,5.45878125 0.319936836,6.07352983 C0.553332774,6.68827841 1.96721939,8.28921733 1.96721939,8.28921733 L2.77287606,8.46122727 C2.77287606,8.46122727 4.47965659,6.82837926 4.81338614,5.34809659 C5.14711569,3.86781392 4.58269627,1.32057102 4.10481935,1.32057102 C3.62694244,1.32057102 2.63819428,1.13809091 2.63819428,1.13809091 C2.63819428,1.13809091 1.74788822,-0.132289773 0.939256662,1.61872159 Z" id="Path-94" stroke="#45A896" fill="#98D5CA"></path>
                        <ellipse id="Oval-10" fill="#45A896" cx="3.73863636" cy="3.40363636" rx="0.41540404" ry="0.510545455"></ellipse>
                        <ellipse id="Oval-11" fill="#45A896" cx="3.87710438" cy="5.19054545" rx="0.276936027" ry="0.255272727"></ellipse>
                        <ellipse id="Oval-12" fill="#45A896" cx="2.35395623" cy="2.38254545" rx="0.41540404" ry="0.510545455"></ellipse>
                        <ellipse id="Oval-13" fill="#45A896" cx="1.38468013" cy="3.91418182" rx="0.276936027" ry="0.510545455"></ellipse>
                        <ellipse id="Oval-14" fill="#45A896" cx="1.66161616" cy="5.95636364" rx="0.553872054" ry="0.510545455"></ellipse>
                        <ellipse id="Oval-15" fill="#45A896" cx="3.32323232" cy="6.46690909" rx="0.276936027" ry="0.510545455"></ellipse>
                        <ellipse id="Oval-16" fill="#45A896" cx="2.49242424" cy="4.42472727" rx="0.276936027" ry="0.510545455"></ellipse>
                    </g>
                    <g id="Group-17" transform="translate(37.742424, 42.545455)">
                        <path d="M0.939256662,1.07914773 C0.130625099,2.24648864 0.0865408973,3.6391875 0.319936836,4.04901989 C0.553332774,4.45885227 1.96721939,5.52614489 1.96721939,5.52614489 L2.77287606,5.64081818 C2.77287606,5.64081818 4.47965659,4.55225284 4.81338614,3.56539773 C5.14711569,2.57854261 4.58269627,0.880380682 4.10481935,0.880380682 C3.62694244,0.880380682 2.63819428,0.758727273 2.63819428,0.758727273 C2.63819428,0.758727273 1.74788822,-0.0881931818 0.939256662,1.07914773 Z" id="Path-94" stroke="#45A896" fill="#98D5CA"></path>
                        <ellipse id="Oval-10" fill="#45A896" cx="3.73863636" cy="2.26909091" rx="0.41540404" ry="0.340363636"></ellipse>
                        <ellipse id="Oval-11" fill="#45A896" cx="3.87710438" cy="3.46036364" rx="0.276936027" ry="0.170181818"></ellipse>
                        <ellipse id="Oval-12" fill="#45A896" cx="2.35395623" cy="1.58836364" rx="0.41540404" ry="0.340363636"></ellipse>
                        <ellipse id="Oval-13" fill="#45A896" cx="1.38468013" cy="2.60945455" rx="0.276936027" ry="0.340363636"></ellipse>
                        <ellipse id="Oval-14" fill="#45A896" cx="1.66161616" cy="3.97090909" rx="0.553872054" ry="0.340363636"></ellipse>
                        <ellipse id="Oval-15" fill="#45A896" cx="3.32323232" cy="4.31127273" rx="0.276936027" ry="0.340363636"></ellipse>
                        <ellipse id="Oval-16" fill="#45A896" cx="2.49242424" cy="2.94981818" rx="0.276936027" ry="0.340363636"></ellipse>
                    </g>
                    <g id="Group-17" transform="translate(1.424242, 5.672727)">
                        <path d="M1.87851332,1.34893466 C0.261250197,2.8081108 0.173081795,4.54898438 0.639873672,5.06127486 C1.10666555,5.57356534 3.93443879,6.90768111 3.93443879,6.90768111 L5.54575212,7.05102273 C5.54575212,7.05102273 8.95931318,5.69031605 9.62677228,4.45674716 C10.2942314,3.22317827 9.16539253,1.10047585 8.2096387,1.10047585 C7.25388488,1.10047585 5.27638856,0.948409091 5.27638856,0.948409091 C5.27638856,0.948409091 3.49577645,-0.110241477 1.87851332,1.34893466 Z" id="Path-94" stroke="#45A896" fill="#84C3B7"></path>
                        <ellipse id="Oval-10" fill="#45A896" cx="7.47727273" cy="2.83636364" rx="0.830808081" ry="0.425454545"></ellipse>
                        <ellipse id="Oval-11" fill="#45A896" cx="7.75420875" cy="4.32545455" rx="0.553872054" ry="0.212727273"></ellipse>
                        <ellipse id="Oval-12" fill="#45A896" cx="4.70791246" cy="1.98545455" rx="0.830808081" ry="0.425454545"></ellipse>
                        <ellipse id="Oval-13" fill="#45A896" cx="2.76936027" cy="3.26181818" rx="0.553872054" ry="0.425454545"></ellipse>
                        <ellipse id="Oval-14" fill="#45A896" cx="3.32323232" cy="4.96363636" rx="1.10774411" ry="0.425454545"></ellipse>
                        <ellipse id="Oval-15" fill="#45A896" cx="6.64646465" cy="5.38909091" rx="0.553872054" ry="0.425454545"></ellipse>
                        <ellipse id="Oval-16" fill="#45A896" cx="4.98484848" cy="3.68727273" rx="0.553872054" ry="0.425454545"></ellipse>
                    </g>
                    <g id="Group-17" transform="translate(7.121212, 10.636364)">
                        <path d="M1.20761571,1.34893466 C0.167946555,2.8081108 0.111266868,4.54898438 0.41134736,5.06127486 C0.711427853,5.57356534 2.52928208,6.90768111 2.52928208,6.90768111 L3.56512636,7.05102273 C3.56512636,7.05102273 5.75955848,5.69031605 6.18863932,4.45674716 C6.61772017,3.22317827 5.89203806,1.10047585 5.27762488,1.10047585 C4.66321171,1.10047585 3.39196407,0.948409091 3.39196407,0.948409091 C3.39196407,0.948409091 2.24728486,-0.110241477 1.20761571,1.34893466 Z" id="Path-94" stroke="#45A896" fill="#98D5CA"></path>
                        <ellipse id="Oval-10" fill="#45A896" cx="4.80681818" cy="2.83636364" rx="0.534090909" ry="0.425454545"></ellipse>
                        <ellipse id="Oval-11" fill="#45A896" cx="4.98484848" cy="4.32545455" rx="0.356060606" ry="0.212727273"></ellipse>
                        <ellipse id="Oval-12" fill="#45A896" cx="3.02651515" cy="1.98545455" rx="0.534090909" ry="0.425454545"></ellipse>
                        <ellipse id="Oval-13" fill="#45A896" cx="1.78030303" cy="3.26181818" rx="0.356060606" ry="0.425454545"></ellipse>
                        <ellipse id="Oval-14" fill="#45A896" cx="2.13636364" cy="4.96363636" rx="0.712121212" ry="0.425454545"></ellipse>
                        <ellipse id="Oval-15" fill="#45A896" cx="4.27272727" cy="5.38909091" rx="0.356060606" ry="0.425454545"></ellipse>
                        <ellipse id="Oval-16" fill="#45A896" cx="3.20454545" cy="3.68727273" rx="0.356060606" ry="0.425454545"></ellipse>
                    </g>
                    <g id="Group-17" transform="translate(7.833333, 3.545455)">
                        <path d="M1.87851332,0.944254261 C0.261250197,1.96567756 0.173081795,3.18428906 0.639873672,3.5428924 C1.10666555,3.90149574 3.93443879,4.83537678 3.93443879,4.83537678 L5.54575212,4.93571591 C5.54575212,4.93571591 8.95931318,3.98322124 9.62677228,3.11972301 C10.2942314,2.25622479 9.16539253,0.770333097 8.2096387,0.770333097 C7.25388488,0.770333097 5.27638856,0.663886364 5.27638856,0.663886364 C5.27638856,0.663886364 3.49577645,-0.0771690341 1.87851332,0.944254261 Z" id="Path-94" stroke="#45A896" fill="#84C3B7"></path>
                        <ellipse id="Oval-10" fill="#45A896" cx="7.47727273" cy="1.98545455" rx="0.830808081" ry="0.297818182"></ellipse>
                        <ellipse id="Oval-11" fill="#45A896" cx="7.75420875" cy="3.02781818" rx="0.553872054" ry="0.148909091"></ellipse>
                        <ellipse id="Oval-12" fill="#45A896" cx="4.70791246" cy="1.38981818" rx="0.830808081" ry="0.297818182"></ellipse>
                        <ellipse id="Oval-13" fill="#45A896" cx="2.76936027" cy="2.28327273" rx="0.553872054" ry="0.297818182"></ellipse>
                        <ellipse id="Oval-14" fill="#45A896" cx="3.32323232" cy="3.47454545" rx="1.10774411" ry="0.297818182"></ellipse>
                        <ellipse id="Oval-15" fill="#45A896" cx="6.64646465" cy="3.77236364" rx="0.553872054" ry="0.297818182"></ellipse>
                        <ellipse id="Oval-16" fill="#45A896" cx="4.98484848" cy="2.58109091" rx="0.553872054" ry="0.297818182"></ellipse>
                    </g>
                    <g id="Group-17" transform="translate(20.651515, 3.545455)">
                        <path d="M1.87851332,0.944254261 C0.261250197,1.96567756 0.173081795,3.18428906 0.639873672,3.5428924 C1.10666555,3.90149574 3.93443879,4.83537678 3.93443879,4.83537678 L5.54575212,4.93571591 C5.54575212,4.93571591 8.95931318,3.98322124 9.62677228,3.11972301 C10.2942314,2.25622479 9.16539253,0.770333097 8.2096387,0.770333097 C7.25388488,0.770333097 5.27638856,0.663886364 5.27638856,0.663886364 C5.27638856,0.663886364 3.49577645,-0.0771690341 1.87851332,0.944254261 Z" id="Path-94" stroke="#45A896" fill="#84C3B7"></path>
                        <ellipse id="Oval-10" fill="#45A896" cx="7.47727273" cy="1.98545455" rx="0.830808081" ry="0.297818182"></ellipse>
                        <ellipse id="Oval-11" fill="#45A896" cx="7.75420875" cy="3.02781818" rx="0.553872054" ry="0.148909091"></ellipse>
                        <ellipse id="Oval-12" fill="#45A896" cx="4.70791246" cy="1.38981818" rx="0.830808081" ry="0.297818182"></ellipse>
                        <ellipse id="Oval-13" fill="#45A896" cx="2.76936027" cy="2.28327273" rx="0.553872054" ry="0.297818182"></ellipse>
                        <ellipse id="Oval-14" fill="#45A896" cx="3.32323232" cy="3.47454545" rx="1.10774411" ry="0.297818182"></ellipse>
                        <ellipse id="Oval-15" fill="#45A896" cx="6.64646465" cy="3.77236364" rx="0.553872054" ry="0.297818182"></ellipse>
                        <ellipse id="Oval-16" fill="#45A896" cx="4.98484848" cy="2.58109091" rx="0.553872054" ry="0.297818182"></ellipse>
                    </g>
                    <g id="Group-17" transform="translate(13.530303, 4.963636)">
                        <path d="M2.41523142,0.993465909 C0.335893111,1.64198864 0.222533736,2.41571023 0.822694721,2.64339489 C1.42285571,2.87107955 5.05856416,3.46401989 5.05856416,3.46401989 L7.13025272,3.52772727 C7.13025272,3.52772727 11.519117,2.92296875 12.3772786,2.37471591 C13.2354403,1.82646307 11.7840761,0.883039773 10.5552498,0.883039773 C9.32642341,0.883039773 6.78392815,0.815454545 6.78392815,0.815454545 C6.78392815,0.815454545 4.49456972,0.344943182 2.41523142,0.993465909 Z" id="Path-94" stroke="#45A896" fill="#98D5CA"></path>
                        <ellipse id="Oval-10" fill="#45A896" cx="9.61363636" cy="1.65454545" rx="1.06818182" ry="0.189090909"></ellipse>
                        <ellipse id="Oval-11" fill="#45A896" cx="9.96969697" cy="2.39909091" rx="0.712121212" ry="0.177272727"></ellipse>
                        <ellipse id="Oval-12" fill="#45A896" cx="6.0530303" cy="1.27636364" rx="1.06818182" ry="0.189090909"></ellipse>
                        <ellipse id="Oval-13" fill="#45A896" cx="3.56060606" cy="1.84363636" rx="0.712121212" ry="0.189090909"></ellipse>
                        <ellipse id="Oval-14" fill="#45A896" cx="4.27272727" cy="2.6" rx="1.42424242" ry="0.189090909"></ellipse>
                        <ellipse id="Oval-15" fill="#45A896" cx="8.54545455" cy="2.78909091" rx="0.712121212" ry="0.189090909"></ellipse>
                        <ellipse id="Oval-16" fill="#45A896" cx="6.40909091" cy="2.03272727" rx="0.712121212" ry="0.189090909"></ellipse>
                    </g>
                    <g id="Group-17" transform="translate(14.954545, 1.418182)">
                        <path d="M1.20761571,0.944254261 C0.167946555,1.96567756 0.111266868,3.18428906 0.41134736,3.5428924 C0.711427853,3.90149574 2.52928208,4.83537678 2.52928208,4.83537678 L3.56512636,4.93571591 C3.56512636,4.93571591 5.75955848,3.98322124 6.18863932,3.11972301 C6.61772017,2.25622479 5.89203806,0.770333097 5.27762488,0.770333097 C4.66321171,0.770333097 3.39196407,0.663886364 3.39196407,0.663886364 C3.39196407,0.663886364 2.24728486,-0.0771690341 1.20761571,0.944254261 Z" id="Path-94" stroke="#45A896" fill="#98D5CA"></path>
                        <ellipse id="Oval-10" fill="#45A896" cx="4.80681818" cy="1.98545455" rx="0.534090909" ry="0.297818182"></ellipse>
                        <ellipse id="Oval-11" fill="#45A896" cx="4.98484848" cy="3.02781818" rx="0.356060606" ry="0.148909091"></ellipse>
                        <ellipse id="Oval-12" fill="#45A896" cx="3.02651515" cy="1.38981818" rx="0.534090909" ry="0.297818182"></ellipse>
                        <ellipse id="Oval-13" fill="#45A896" cx="1.78030303" cy="2.28327273" rx="0.356060606" ry="0.297818182"></ellipse>
                        <ellipse id="Oval-14" fill="#45A896" cx="2.13636364" cy="3.47454545" rx="0.712121212" ry="0.297818182"></ellipse>
                        <ellipse id="Oval-15" fill="#45A896" cx="4.27272727" cy="3.77236364" rx="0.356060606" ry="0.297818182"></ellipse>
                        <ellipse id="Oval-16" fill="#45A896" cx="3.20454545" cy="2.58109091" rx="0.356060606" ry="0.297818182"></ellipse>
                    </g>
                    <g id="Group-17" transform="translate(5.696970, 29.781818)">
                        <path d="M1.20761571,0.944254261 C0.167946555,1.96567756 0.111266868,3.18428906 0.41134736,3.5428924 C0.711427853,3.90149574 2.52928208,4.83537678 2.52928208,4.83537678 L3.56512636,4.93571591 C3.56512636,4.93571591 5.75955848,3.98322124 6.18863932,3.11972301 C6.61772017,2.25622479 5.89203806,0.770333097 5.27762488,0.770333097 C4.66321171,0.770333097 3.39196407,0.663886364 3.39196407,0.663886364 C3.39196407,0.663886364 2.24728486,-0.0771690341 1.20761571,0.944254261 Z" id="Path-94" stroke="#45A896" fill="#98D5CA"></path>
                        <ellipse id="Oval-10" fill="#45A896" cx="4.80681818" cy="1.98545455" rx="0.534090909" ry="0.297818182"></ellipse>
                        <ellipse id="Oval-11" fill="#45A896" cx="4.98484848" cy="3.02781818" rx="0.356060606" ry="0.148909091"></ellipse>
                        <ellipse id="Oval-12" fill="#45A896" cx="3.02651515" cy="1.38981818" rx="0.534090909" ry="0.297818182"></ellipse>
                        <ellipse id="Oval-13" fill="#45A896" cx="1.78030303" cy="2.28327273" rx="0.356060606" ry="0.297818182"></ellipse>
                        <ellipse id="Oval-14" fill="#45A896" cx="2.13636364" cy="3.47454545" rx="0.712121212" ry="0.297818182"></ellipse>
                        <ellipse id="Oval-15" fill="#45A896" cx="4.27272727" cy="3.77236364" rx="0.356060606" ry="0.297818182"></ellipse>
                        <ellipse id="Oval-16" fill="#45A896" cx="3.20454545" cy="2.58109091" rx="0.356060606" ry="0.297818182"></ellipse>
                    </g>
                    <g id="Group-17" transform="translate(25.636364, 1.418182)">
                        <path d="M1.20761571,0.944254261 C0.167946555,1.96567756 0.111266868,3.18428906 0.41134736,3.5428924 C0.711427853,3.90149574 2.52928208,4.83537678 2.52928208,4.83537678 L3.56512636,4.93571591 C3.56512636,4.93571591 5.75955848,3.98322124 6.18863932,3.11972301 C6.61772017,2.25622479 5.89203806,0.770333097 5.27762488,0.770333097 C4.66321171,0.770333097 3.39196407,0.663886364 3.39196407,0.663886364 C3.39196407,0.663886364 2.24728486,-0.0771690341 1.20761571,0.944254261 Z" id="Path-94" stroke="#45A896" fill="#98D5CA"></path>
                        <ellipse id="Oval-10" fill="#45A896" cx="4.80681818" cy="1.98545455" rx="0.534090909" ry="0.297818182"></ellipse>
                        <ellipse id="Oval-11" fill="#45A896" cx="4.98484848" cy="3.02781818" rx="0.356060606" ry="0.148909091"></ellipse>
                        <ellipse id="Oval-12" fill="#45A896" cx="3.02651515" cy="1.38981818" rx="0.534090909" ry="0.297818182"></ellipse>
                        <ellipse id="Oval-13" fill="#45A896" cx="1.78030303" cy="2.28327273" rx="0.356060606" ry="0.297818182"></ellipse>
                        <ellipse id="Oval-14" fill="#45A896" cx="2.13636364" cy="3.47454545" rx="0.712121212" ry="0.297818182"></ellipse>
                        <ellipse id="Oval-15" fill="#45A896" cx="4.27272727" cy="3.77236364" rx="0.356060606" ry="0.297818182"></ellipse>
                        <ellipse id="Oval-16" fill="#45A896" cx="3.20454545" cy="2.58109091" rx="0.356060606" ry="0.297818182"></ellipse>
                    </g>
                    <g id="Group-17" transform="translate(20.651515, 9.218182)">
                        <path d="M1.87851332,1.04452415 C0.261250197,2.94145313 0.173081795,5.20458878 0.639873672,5.87056641 C1.10666555,6.53654403 3.93443879,8.27089453 3.93443879,8.27089453 L5.54575212,8.45723864 C5.54575212,8.45723864 8.95931318,6.68831996 9.62677228,5.0846804 C10.2942314,3.48104084 9.16539253,0.721527699 8.2096387,0.721527699 C7.25388488,0.721527699 5.27638856,0.523840909 5.27638856,0.523840909 C5.27638856,0.523840909 3.49577645,-0.85240483 1.87851332,1.04452415 Z" id="Path-94" stroke="#45A896" fill="#98D5CA"></path>
                        <ellipse id="Oval-10" fill="#45A896" cx="7.47727273" cy="2.97818182" rx="0.830808081" ry="0.553090909"></ellipse>
                        <ellipse id="Oval-11" fill="#45A896" cx="7.75420875" cy="4.914" rx="0.553872054" ry="0.276545455"></ellipse>
                        <ellipse id="Oval-12" fill="#45A896" cx="4.70791246" cy="1.872" rx="0.830808081" ry="0.553090909"></ellipse>
                        <ellipse id="Oval-13" fill="#45A896" cx="2.76936027" cy="3.53127273" rx="0.553872054" ry="0.553090909"></ellipse>
                        <ellipse id="Oval-14" fill="#45A896" cx="3.32323232" cy="5.74363636" rx="1.10774411" ry="0.553090909"></ellipse>
                        <ellipse id="Oval-15" fill="#45A896" cx="6.64646465" cy="6.29672727" rx="0.553872054" ry="0.553090909"></ellipse>
                        <ellipse id="Oval-16" fill="#45A896" cx="4.98484848" cy="4.08436364" rx="0.553872054" ry="0.553090909"></ellipse>
                    </g>
                    <g id="Group-17" transform="translate(25.636364, 23.400000)">
                        <path d="M1.34179523,0.522262074 C0.186607284,1.47072656 0.123629853,2.60229439 0.457052623,2.9352832 C0.790475392,3.26827202 2.81031342,4.13544727 2.81031342,4.13544727 L3.96125151,4.22861932 C3.96125151,4.22861932 6.39950942,3.34415998 6.87626591,2.5423402 C7.35302241,1.74052042 6.54670895,0.360763849 5.86402765,0.360763849 C5.18134634,0.360763849 3.76884897,0.261920455 3.76884897,0.261920455 C3.76884897,0.261920455 2.49698318,-0.426202415 1.34179523,0.522262074 Z" id="Path-94" stroke="#45A896" fill="#98D5CA"></path>
                        <ellipse id="Oval-10" fill="#45A896" cx="5.34090909" cy="1.48909091" rx="0.593434343" ry="0.276545455"></ellipse>
                        <ellipse id="Oval-11" fill="#45A896" cx="5.53872054" cy="2.51372727" rx="0.395622896" ry="0.195"></ellipse>
                        <ellipse id="Oval-12" fill="#45A896" cx="3.36279461" cy="0.936" rx="0.593434343" ry="0.276545455"></ellipse>
                        <ellipse id="Oval-13" fill="#45A896" cx="1.97811448" cy="1.76563636" rx="0.395622896" ry="0.276545455"></ellipse>
                        <ellipse id="Oval-14" fill="#45A896" cx="2.37373737" cy="2.87181818" rx="0.791245791" ry="0.276545455"></ellipse>
                        <ellipse id="Oval-15" fill="#45A896" cx="4.74747475" cy="3.14836364" rx="0.395622896" ry="0.276545455"></ellipse>
                        <ellipse id="Oval-16" fill="#45A896" cx="3.56060606" cy="2.04218182" rx="0.395622896" ry="0.276545455"></ellipse>
                    </g>
                    <g id="Group-17" transform="translate(19.227273, 0.000000)">
                        <path d="M1.20761571,1.20674716 C0.167946555,2.34166193 0.111266868,3.69567472 0.41134736,4.09412287 C0.711427853,4.49257102 2.52928208,5.53021662 2.52928208,5.53021662 L3.56512636,5.64170455 C3.56512636,5.64170455 5.75955848,4.58337713 6.18863932,3.62393466 C6.61772017,2.66449219 5.89203806,1.01350142 5.27762488,1.01350142 C4.66321171,1.01350142 3.39196407,0.895227273 3.39196407,0.895227273 C3.39196407,0.895227273 2.24728486,0.0718323864 1.20761571,1.20674716 Z" id="Path-94" stroke="#45A896" fill="#84C3B7"></path>
                        <ellipse id="Oval-10" fill="#45A896" cx="4.80681818" cy="2.36363636" rx="0.534090909" ry="0.330909091"></ellipse>
                        <ellipse id="Oval-11" fill="#45A896" cx="4.98484848" cy="3.53363636" rx="0.356060606" ry="0.177272727"></ellipse>
                        <ellipse id="Oval-12" fill="#45A896" cx="3.02651515" cy="1.70181818" rx="0.534090909" ry="0.330909091"></ellipse>
                        <ellipse id="Oval-13" fill="#45A896" cx="1.78030303" cy="2.69454545" rx="0.356060606" ry="0.330909091"></ellipse>
                        <ellipse id="Oval-14" fill="#45A896" cx="2.13636364" cy="4.01818182" rx="0.712121212" ry="0.330909091"></ellipse>
                        <ellipse id="Oval-15" fill="#45A896" cx="4.27272727" cy="4.34909091" rx="0.356060606" ry="0.330909091"></ellipse>
                        <ellipse id="Oval-16" fill="#45A896" cx="3.20454545" cy="3.02545455" rx="0.356060606" ry="0.330909091"></ellipse>
                    </g>
                    <g id="Group-17" transform="translate(28.484848, 3.254545)">
                        <path d="M2.41523142,2.06640625 C0.335893111,4.49836648 0.222533736,7.39982244 0.822694721,8.25363991 C1.42285571,9.10745739 5.05856416,11.3309837 5.05856416,11.3309837 L7.13025272,11.5698864 C7.13025272,11.5698864 11.519117,9.3020419 12.3772786,7.24609375 C13.2354403,5.1901456 11.7840761,1.65230824 10.5552498,1.65230824 C9.32642341,1.65230824 6.78392815,1.39886364 6.78392815,1.39886364 C6.78392815,1.39886364 4.49456972,-0.365553977 2.41523142,2.06640625 Z" id="Path-94" stroke="#45A896" fill="#98D5CA"></path>
                        <ellipse id="Oval-10" fill="#45A896" cx="9.61363636" cy="4.54545455" rx="1.06818182" ry="0.709090909"></ellipse>
                        <ellipse id="Oval-11" fill="#45A896" cx="9.96969697" cy="7.02727273" rx="0.712121212" ry="0.354545455"></ellipse>
                        <ellipse id="Oval-12" fill="#45A896" cx="6.0530303" cy="3.12727273" rx="1.06818182" ry="0.709090909"></ellipse>
                        <ellipse id="Oval-13" fill="#45A896" cx="3.56060606" cy="5.25454545" rx="0.712121212" ry="0.709090909"></ellipse>
                        <ellipse id="Oval-14" fill="#45A896" cx="4.27272727" cy="8.09090909" rx="1.42424242" ry="0.709090909"></ellipse>
                        <ellipse id="Oval-15" fill="#45A896" cx="8.54545455" cy="8.8" rx="0.712121212" ry="0.709090909"></ellipse>
                        <ellipse id="Oval-16" fill="#45A896" cx="6.40909091" cy="5.96363636" rx="0.712121212" ry="0.709090909"></ellipse>
                    </g>
                    <g id="Group-17" transform="translate(2.136364, 22.690909)">
                        <path d="M0.939256662,1.04452415 C0.130625099,2.94145313 0.0865408973,5.20458878 0.319936836,5.87056641 C0.553332774,6.53654403 1.96721939,8.27089453 1.96721939,8.27089453 L2.77287606,8.45723864 C2.77287606,8.45723864 4.47965659,6.68831996 4.81338614,5.0846804 C5.14711569,3.48104084 4.58269627,0.721527699 4.10481935,0.721527699 C3.62694244,0.721527699 2.63819428,0.523840909 2.63819428,0.523840909 C2.63819428,0.523840909 1.74788822,-0.85240483 0.939256662,1.04452415 Z" id="Path-94" stroke="#45A896" fill="#84C3B7"></path>
                        <ellipse id="Oval-10" fill="#45A896" cx="3.73863636" cy="2.97818182" rx="0.41540404" ry="0.553090909"></ellipse>
                        <ellipse id="Oval-11" fill="#45A896" cx="3.87710438" cy="4.914" rx="0.276936027" ry="0.276545455"></ellipse>
                        <ellipse id="Oval-12" fill="#45A896" cx="2.35395623" cy="1.872" rx="0.41540404" ry="0.553090909"></ellipse>
                        <ellipse id="Oval-13" fill="#45A896" cx="1.38468013" cy="3.53127273" rx="0.276936027" ry="0.553090909"></ellipse>
                        <ellipse id="Oval-14" fill="#45A896" cx="1.66161616" cy="5.74363636" rx="0.553872054" ry="0.553090909"></ellipse>
                        <ellipse id="Oval-15" fill="#45A896" cx="3.32323232" cy="6.29672727" rx="0.276936027" ry="0.553090909"></ellipse>
                        <ellipse id="Oval-16" fill="#45A896" cx="2.49242424" cy="4.08436364" rx="0.276936027" ry="0.553090909"></ellipse>
                    </g>
                    <g id="Group-17" transform="translate(2.848485, 43.963636)">
                        <path d="M0.939256662,0.435218395 C0.130625099,1.22560547 0.0865408973,2.16857866 0.319936836,2.44606934 C0.553332774,2.72356001 1.96721939,3.44620605 1.96721939,3.44620605 L2.77287606,3.52384943 C2.77287606,3.52384943 4.47965659,2.78679998 4.81338614,2.11861683 C5.14711569,1.45043368 4.58269627,0.300636541 4.10481935,0.300636541 C3.62694244,0.300636541 2.63819428,0.218267045 2.63819428,0.218267045 C2.63819428,0.218267045 1.74788822,-0.355168679 0.939256662,0.435218395 Z" id="Path-94" stroke="#45A896" fill="#84C3B7"></path>
                        <ellipse id="Oval-10" fill="#45A896" cx="3.73863636" cy="1.26045455" rx="0.41540404" ry="0.25"></ellipse>
                        <ellipse id="Oval-11" fill="#45A896" cx="3.87710438" cy="2.12727273" rx="0.276936027" ry="0.195"></ellipse>
                        <ellipse id="Oval-12" fill="#45A896" cx="2.35395623" cy="0.799545455" rx="0.41540404" ry="0.25"></ellipse>
                        <ellipse id="Oval-13" fill="#45A896" cx="1.38468013" cy="1.49090909" rx="0.276936027" ry="0.25"></ellipse>
                        <ellipse id="Oval-14" fill="#45A896" cx="1.66161616" cy="2.41272727" rx="0.553872054" ry="0.25"></ellipse>
                        <ellipse id="Oval-15" fill="#45A896" cx="3.32323232" cy="2.64318182" rx="0.276936027" ry="0.25"></ellipse>
                        <ellipse id="Oval-16" fill="#45A896" cx="2.49242424" cy="1.72136364" rx="0.276936027" ry="0.25"></ellipse>
                    </g>
                    <g id="Group-17" transform="translate(22.787879, 24.818182)">
                        <path d="M0.939256662,1.04452415 C0.130625099,2.94145313 0.0865408973,5.20458878 0.319936836,5.87056641 C0.553332774,6.53654403 1.96721939,8.27089453 1.96721939,8.27089453 L2.77287606,8.45723864 C2.77287606,8.45723864 4.47965659,6.68831996 4.81338614,5.0846804 C5.14711569,3.48104084 4.58269627,0.721527699 4.10481935,0.721527699 C3.62694244,0.721527699 2.63819428,0.523840909 2.63819428,0.523840909 C2.63819428,0.523840909 1.74788822,-0.85240483 0.939256662,1.04452415 Z" id="Path-94" stroke="#45A896" fill="#84C3B7"></path>
                        <ellipse id="Oval-10" fill="#45A896" cx="3.73863636" cy="2.97818182" rx="0.41540404" ry="0.553090909"></ellipse>
                        <ellipse id="Oval-11" fill="#45A896" cx="3.87710438" cy="4.914" rx="0.276936027" ry="0.276545455"></ellipse>
                        <ellipse id="Oval-12" fill="#45A896" cx="2.35395623" cy="1.872" rx="0.41540404" ry="0.553090909"></ellipse>
                        <ellipse id="Oval-13" fill="#45A896" cx="1.38468013" cy="3.53127273" rx="0.276936027" ry="0.553090909"></ellipse>
                        <ellipse id="Oval-14" fill="#45A896" cx="1.66161616" cy="5.74363636" rx="0.553872054" ry="0.553090909"></ellipse>
                        <ellipse id="Oval-15" fill="#45A896" cx="3.32323232" cy="6.29672727" rx="0.276936027" ry="0.553090909"></ellipse>
                        <ellipse id="Oval-16" fill="#45A896" cx="2.49242424" cy="4.08436364" rx="0.276936027" ry="0.553090909"></ellipse>
                    </g>
                </g>
            </g>
        </g>
    </g>
</svg>