<?xml version="1.0" encoding="UTF-8" standalone="no"?>
<svg width="90px" height="126px" viewBox="0 0 90 126" version="1.1" xmlns="http://www.w3.org/2000/svg" xmlns:xlink="http://www.w3.org/1999/xlink">
    <!-- Generator: Sketch 40.3 (33839) - http://www.bohemiancoding.com/sketch -->
    <title>supplybook</title>
    <desc>Created with Sketch.</desc>
    <defs></defs>
    <g id="Page-1" stroke="none" stroke-width="1" fill="none" fill-rule="evenodd">
        <g id="greenhouse-copy" transform="translate(-61.000000, -788.000000)">
            <g id="supplybook" transform="translate(61.000000, 788.000000)">
                <rect id="Rectangle-12" fill="#B2B2B2" x="0" y="121" width="90" height="5"></rect>
                <path d="M6.546875,1 C6.546875,1 29.725057,0.386577579 46.9511719,1 C55.5999561,1.30798344 62.7961646,3.0703125 64.7089844,3.0703125 C70.4316406,3.0703125 90,1 90,1 L90,124.416016 C90,124.416016 79.1212073,124.998183 66.8769531,124.416016 C54.887573,123.845967 41.6035894,122.111328 34.5820312,122.111328 C20.3896484,122.111328 6.546875,124.416016 6.546875,124.416016 L6.546875,1 Z" id="Rectangle-10" fill="#316AAC"></path>
                <g id="pot" transform="translate(32.000000, 82.000000)">
                    <polygon id="Rectangle" fill="#D99264" points="0.37037037 0 29.6296296 0 29.6296296 5.08622056 28.4780093 5.46303216 23.9484127 26 5.68121693 26 1.65581597 5.46303216 0.37037037 5.08622056"></polygon>
                    <polygon id="Rectangle-3" fill="#9C6744" points="0.354546441 5.06257784 29.6524161 5.06257784 28.4863281 5.46192822 1.68438947 5.46192822"></polygon>
                </g>
                <polygon id="Rectangle-11" fill="#74B0F5" points="0 4.20898438 7 1 7 124.445312 0 126"></polygon>
                <g id="title" transform="translate(19.000000, 10.000000)">
                    <path d="M0.620881637,19.0048329 L0.620881637,31.0194813 L3.46463164,31.0194813 L3.46463164,25.5819813 C3.46463164,25.5819813 6.09552446,26.3551534 7.25271757,25.0097407 C8.40991069,23.6643279 8.07424024,22.2965287 7.25271757,20.5639149 C6.43119491,18.8313011 4.18045195,19.0048329 4.18045195,19.0048329 L0.620881637,19.0048329 Z" id="Path-2" fill="#D8D8D8"></path>
                    <polygon id="Path-3" fill="#D8D8D8" points="12.1621094 19.0351562 12.0644531 30.6884766 19.2460938 30.8828125 19.2460938 27.7373047 14.8183594 27.7373047 14.8183594 19.0351562"></polygon>
                    <path d="M22.109375,31.0390625 L24.8634304,19.1928711 L28.236204,19.1928711 L31.5005889,31.0390625 L28.9530466,31.0390625 L27.8129137,26.8911133 C27.8129137,26.8911133 26.2619815,26.5849066 26.1004562,26.8911133 C25.7661585,27.524848 24.8634304,31.0390625 24.8634304,31.0390625 L22.109375,31.0390625 Z" id="Path-4" fill="#D8D8D8"></path>
                    <polygon id="Path-5" fill="#D8D8D8" points="14.8325195 12.5693359 16.2734375 1.16601562 19.2338867 1.16601562 22.5654297 4.9921875 25.6303711 1.44726562 27.859375 1.44726562 30.0449219 12.5693359 26.4960938 12.5693359 25.6303711 5.98681641 22.5654297 9.33300781 18.5058594 4.9921875 18.5058594 12.5693359"></polygon>
                    <path d="M40.5722656,2.17431641 C40.5722656,2.17431641 39.7466614,0.91237804 37.7539062,0.447265625 C35.7611511,-0.0178467897 34.7459891,0.195882258 33.5205078,1.20703125 C32.2950265,2.21818024 31.9169448,2.75784629 31.7714844,5.09277344 C31.6260239,7.42770059 32.1953125,8.9609375 32.7402344,10.1469727 C33.2851563,11.3330078 34.9052734,12.7875977 37.0136719,12.7875977 C39.1220703,12.7875977 41.1396484,10.1469727 41.1396484,10.1469727 L39.6938477,8.20800781 C39.6938477,8.20800781 38.2072799,10.1756714 37.0136719,10.1469727 C35.8200638,10.1182739 35.3222158,9.68795403 34.6806641,8.20800781 C34.0391123,6.7280616 34.218957,5.28767879 34.6806641,4.12792969 C35.1423711,2.96818059 35.644803,2.72669664 36.8193359,2.8359375 C37.9938689,2.94517836 39.1220703,4.12792969 39.1220703,4.12792969 L40.5722656,2.17431641 Z" id="Path-6" fill="#D8D8D8"></path>
                    <polygon id="Path-7" fill="#D8D8D8" points="34 30.8359375 34 19 37.1499023 19 39.9140625 25.9692383 39.9140625 19 42.5878906 19 42.5878906 30.8359375 39.9140625 30.8359375 36.6259766 24.5087891 36.6259766 30.8359375"></polygon>
                    <polygon id="Path-8" fill="#D8D8D8" points="46 19 46 21.6962891 49.59375 21.6962891 49.59375 31.2109375 52.4682617 31.2109375 52.4682617 21.6962891 56.3339844 21.6962891 56.3339844 19"></polygon>
                    <path d="M3,21.113547 L3,23.4524142 C3,23.4524142 5.453125,24.254172 5.453125,22.3498751 C5.453125,20.4455782 3,21.113547 3,21.113547 Z" id="Path-9" fill="#316AAC"></path>
                    <polygon id="Path-10" fill="#316AAC" points="26.6345215 22.3642578 26.1623535 24.5563965 27.3967285 24.5615234"></polygon>
                </g>
                <polygon id="Path-11" fill="#B8E986" points="35.3632812 83.6816406 32.2578125 73.2851562 22.0566406 77.625 16.5 83.2304688 20.1464844 71.4863281 26.0292969 67.5136719 31.890625 67.5136719 36.9042969 69.75 38.7929688 75.1328125 42.4394531 64.5625 36.4042969 58.0058594 31.0644531 53.5546875 41.5917969 54.4238281 46.5644531 58.7421875 46.5644531 67.1875 46.5644531 74.4589844 52.6210937 69.7929688 52.6210937 62.7148438 52.6210937 55.6386719 56.59375 61.1953125 56.59375 69.3125 54.5507812 77.953125 59.9335938 70.8554688 68.4003906 67.3828125 74.2617188 67.3828125 66.9902344 73.0917969 63.4277344 73.0917969 60.3652344 77.5625 57.6074219 82.3828125"></polygon>
            </g>
        </g>
    </g>
</svg>