<?xml version="1.0" encoding="UTF-8" standalone="no"?>
<svg width="50px" height="100px" viewBox="0 0 50 100" version="1.1" xmlns="http://www.w3.org/2000/svg" xmlns:xlink="http://www.w3.org/1999/xlink">
    <!-- Generator: Sketch 40.3 (33839) - http://www.bohemiancoding.com/sketch -->
    <title>tall_skinny_cactus_grey_hero</title>
    <desc>Created with Sketch.</desc>
    <defs></defs>
    <g id="Page-1" stroke="none" stroke-width="1" fill="none" fill-rule="evenodd">
        <g id="tall_skinny_cactus_grey_hero">
            <g id="tall-skinny-cactus" transform="translate(11.000000, 37.000000)">
                <g id="pot" transform="translate(0.000000, 34.000000)">
                    <polygon id="Rectangle-31" fill="#666666" points="0 2 15 5 15 29 0 26"></polygon>
                    <polygon id="Rectangle-31" fill="#999999" transform="translate(22.500000, 15.500000) scale(-1, 1) translate(-22.500000, -15.500000) " points="15 2 30 5 30 29 15 26"></polygon>
                    <polygon id="Rectangle-10" fill="#7F7F7F" points="15.0449219 0 30 2 15.0153809 5 0 2"></polygon>
                    <polygon id="Rectangle-10" fill="#7F7F7F" points="15.0449219 1 27.5088501 2.52148438 15.0153809 5 2.78521729 2.52148438"></polygon>
                </g>
                <g id="leaves" transform="translate(7.000000, 0.000000)">
                    <path d="M2.39306641,2.25683594 C2.91796875,0.112304688 5.72509766,-1.13686838e-13 5.72509766,-1.13686838e-13 C5.72509766,-1.13686838e-13 8.36181641,0.291503906 9.11572266,2.25683594 C9.86962891,4.22216797 10.1630859,38.5612793 10.1630859,38.5612793 L8.03881836,38.9875488 L0.985595703,37.4423828 C0.985595703,37.4423828 1.86816406,4.40136719 2.39306641,2.25683594 Z" id="Rectangle-11" fill="#1B9F88"></path>
                    <path d="M5.5,36.5 L5.5,4.5" id="Line" stroke="#F0E0E3" stroke-linecap="square"></path>
                    <path d="M2.5,35.5 L3.5,3.5" id="Line" stroke="#F0E0E3" stroke-linecap="square"></path>
                    <path d="M8.5,36.5 L7.44165039,4.5" id="Line" stroke="#F0E0E3" stroke-linecap="square"></path>
                    <path d="M7.39306641,22.2568359 C7.91796875,20.1123047 10.7250977,20 10.7250977,20 C10.7250977,20 13.3618164,20.2915039 14.1157227,22.2568359 C14.8696289,24.222168 15.0246582,37.5654297 15.0246582,37.5654297 L7.94677734,39.0307617 L5.94165039,38.6184082 C5.94165039,38.6184082 6.86816406,24.4013672 7.39306641,22.2568359 Z" id="Rectangle-11" fill="#24D9BA"></path>
                    <path d="M12.5583496,36.5 L11.5,23.5" id="Line" stroke="#F0E0E3" stroke-linecap="square"></path>
                    <path d="M8.5,36.5 L9.5,23.5" id="Line" stroke="#F0E0E3" stroke-linecap="square"></path>
                </g>
            </g>
        </g>
    </g>
</svg>