<?xml version="1.0" encoding="UTF-8" standalone="no"?>
<svg width="60px" height="161px" viewBox="0 0 60 161" version="1.1" xmlns="http://www.w3.org/2000/svg" xmlns:xlink="http://www.w3.org/1999/xlink">
    <!-- Generator: Sketch 40.3 (33839) - http://www.bohemiancoding.com/sketch -->
    <title>tall_fern</title>
    <desc>Created with Sketch.</desc>
    <defs></defs>
    <g id="Page-1" stroke="none" stroke-width="1" fill="none" fill-rule="evenodd">
        <g id="tall_fern">
            <g id="pot" transform="translate(18.000000, 131.000000)">
                <path d="M0.382716049,1.66666667 C0.382716049,1.66666667 2.41619873,0.32796224 15.5,0.32796224 C28.5838013,0.32796224 30.617284,1.66666667 30.617284,1.66666667 L30.617284,6.88330314 L29.4272762,7.26977657 L24.7466931,28.3333333 C24.7466931,28.3333333 20.4596772,29.5282661 15.5,29.5282661 C10.5403228,29.5282661 5.87059083,28.3333333 5.87059083,28.3333333 L1.71100984,7.26977657 L0.382716049,6.88330314 L0.382716049,1.66666667 Z" id="Rectangle" fill="#D99264"></path>
                <path d="M0.382716049,1.66666667 C0.382716049,1.66666667 0.382716049,3.20203993 6.08482579,3.75759549 C6.11509923,4.38286675 6.08482579,7.80626085 6.08482579,7.80626085 L6.62447684,7.84342448 L10.7961295,29.0865072 L5.87059083,28.3333333 L1.71100984,7.26977657 L0.382716049,6.88330314 L0.382716049,1.66666667 Z" id="Rectangle" fill="#BC7A4E"></path>
                <path d="M0.366364656,6.8590542 C0.366364656,6.8590542 5.76103983,7.97016531 15.5035973,7.97016531 C25.2461548,7.97016531 30.64083,6.8590542 30.64083,6.8590542 L29.4358724,7.26864432 C29.4358724,7.26864432 25.4834769,8.37975543 15.5567627,8.37975543 C5.63004848,8.37975543 1.74053578,7.26864432 1.74053578,7.26864432 L0.366364656,6.8590542 Z" id="Rectangle-3" fill="#9C6744"></path>
                <ellipse id="Oval-2" fill="#5C3E23" cx="15.7767857" cy="2.22222222" rx="13.0089286" ry="1.11111111"></ellipse>
            </g>
            <g id="leaves">
                <g id="Group-15" transform="translate(12.000000, 0.000000)" fill="#24D9BA">
                    <path d="M23,133.16748 L23.5478516,129 C23.5478516,129 37.3789062,129.997559 45.8818359,133.025879 C35.1914062,132.633301 23,133.16748 23,133.16748 Z" id="Path-78"></path>
                    <path d="M24,124.201172 L24.78125,120 C24.78125,120 38.3789062,121.03125 46.8818359,124.05957 C36.1914062,123.666992 24,124.201172 24,124.201172 Z" id="Path-78"></path>
                    <path d="M26,115.201172 L26.7511416,111 C26.7511416,111 39.8247621,112.03125 48,115.05957 C37.7215654,114.666992 26,115.201172 26,115.201172 Z" id="Path-78"></path>
                    <path d="M0.897460938,128.450195 L0.325195312,124.338379 C0.325195312,124.338379 15.2763672,125.280273 23.7792969,128.308594 C13.0888672,127.916016 0.897460938,128.450195 0.897460938,128.450195 Z" id="Path-78" transform="translate(12.052246, 126.394287) scale(-1, 1) translate(-12.052246, -126.394287) "></path>
                    <path d="M2.57226562,119.111816 L2,115 C2,115 16.9511719,115.941895 25.4541016,118.970215 C14.7636719,118.577637 2.57226562,119.111816 2.57226562,119.111816 Z" id="Path-78" transform="translate(13.727051, 117.055908) scale(-1, 1) translate(-13.727051, -117.055908) "></path>
                    <path d="M5.99088801,110.111816 L5.45410156,106 C5.45410156,106 19.4783344,106.941895 27.4541016,109.970215 C17.4264545,109.577637 5.99088801,110.111816 5.99088801,110.111816 Z" id="Path-78" transform="translate(16.454102, 108.055908) scale(-1, 1) translate(-16.454102, -108.055908) "></path>
                    <path d="M8.51238706,101.611816 L8,97.5 C8,97.5 21.3867677,98.4418945 29,101.470215 C19.4281551,101.077637 8.51238706,101.611816 8.51238706,101.611816 Z" id="Path-78" transform="translate(18.500000, 99.555908) scale(-1, 1) translate(-18.500000, -99.555908) "></path>
                    <path d="M10.4879877,92.6118164 L10,88.5 C10,88.5 22.7493026,89.4418945 30,92.4702148 C20.8839572,92.0776367 10.4879877,92.6118164 10.4879877,92.6118164 Z" id="Path-78" transform="translate(20.000000, 90.555908) scale(-1, 1) translate(-20.000000, -90.555908) "></path>
                    <path d="M12.4635883,83.6118164 L12,79.5 C12,79.5 24.1118374,80.4418945 31,83.4702148 C22.3397593,83.0776367 12.4635883,83.6118164 12.4635883,83.6118164 Z" id="Path-78" transform="translate(21.500000, 81.555908) scale(-1, 1) translate(-21.500000, -81.555908) "></path>
                    <path d="M14.4391889,74.6118164 L14,70.5 C14,70.5 25.4743723,71.4418945 32,74.4702148 C23.7955615,74.0776367 14.4391889,74.6118164 14.4391889,74.6118164 Z" id="Path-78" transform="translate(23.000000, 72.555908) scale(-1, 1) translate(-23.000000, -72.555908) "></path>
                    <path d="M16.4147895,65.6118164 L16,61.5 C16,61.5 26.8369072,62.4418945 33,65.4702148 C25.2513636,65.0776367 16.4147895,65.6118164 16.4147895,65.6118164 Z" id="Path-78" transform="translate(24.500000, 63.555908) scale(-1, 1) translate(-24.500000, -63.555908) "></path>
                    <path d="M18.3903901,57.6118164 L18,54.5 C18,54.5 28.1994421,55.2128243 34,57.5046526 C26.7071658,57.20755 18.3903901,57.6118164 18.3903901,57.6118164 Z" id="Path-78" transform="translate(26.000000, 56.055908) scale(-1, 1) translate(-26.000000, -56.055908) "></path>
                    <path d="M19.3903901,50.6118164 L19,47.5 C19,47.5 29.1994421,48.2128243 35,50.5046526 C27.7071658,50.20755 19.3903901,50.6118164 19.3903901,50.6118164 Z" id="Path-78" transform="translate(27.000000, 49.055908) scale(-1, 1) translate(-27.000000, -49.055908) "></path>
                    <path d="M21.3659908,43.6118164 L21,40.5 C21,40.5 30.5619769,41.2128243 36,43.5046526 C29.1629679,43.20755 21.3659908,43.6118164 21.3659908,43.6118164 Z" id="Path-78" transform="translate(28.500000, 42.055908) scale(-1, 1) translate(-28.500000, -42.055908) "></path>
                    <path d="M23.3415914,36.6118164 L23,33.5 C23,33.5 31.9245118,34.2128243 37,36.5046526 C30.61877,36.20755 23.3415914,36.6118164 23.3415914,36.6118164 Z" id="Path-78" transform="translate(30.000000, 35.055908) scale(-1, 1) translate(-30.000000, -35.055908) "></path>
                    <path d="M26.2927926,29.6118164 L26,26.5 C26,26.5 33.6495815,27.2128243 38,29.5046526 C32.5303743,29.20755 26.2927926,29.6118164 26.2927926,29.6118164 Z" id="Path-78" transform="translate(32.000000, 28.055908) scale(-1, 1) translate(-32.000000, -28.055908) "></path>
                    <path d="M28.2683932,22.6118164 L28,19.5 C28,19.5 35.0121164,20.2128243 39,22.5046526 C33.9861765,22.20755 28.2683932,22.6118164 28.2683932,22.6118164 Z" id="Path-78" transform="translate(33.500000, 21.055908) scale(-1, 1) translate(-33.500000, -21.055908) "></path>
                    <path d="M31.2195945,15.6118164 L31,12.5 C31,12.5 36.7371862,13.2128243 40,15.5046526 C35.8977807,15.20755 31.2195945,15.6118164 31.2195945,15.6118164 Z" id="Path-78" transform="translate(35.500000, 14.055908) scale(-1, 1) translate(-35.500000, -14.055908) "></path>
                    <path d="M32.2195945,9.61181641 L32,7.5 C32,7.5 37.7371862,7.98375417 41,9.53909027 C36.8977807,9.33746334 32.2195945,9.61181641 32.2195945,9.61181641 Z" id="Path-78" transform="translate(36.500000, 8.555908) scale(-1, 1) translate(-36.500000, -8.555908) "></path>
                    <path d="M36.1463963,4.61181641 L36,2.5 C36,2.5 39.8247908,2.98375417 42,4.53909027 C39.2651872,4.33746334 36.1463963,4.61181641 36.1463963,4.61181641 Z" id="Path-78" transform="translate(39.000000, 3.555908) scale(-1, 1) translate(-39.000000, -3.555908) "></path>
                    <path d="M28,106.201172 L28.682856,102 C28.682856,102 40.5679655,103.03125 48,106.05957 C38.6559686,105.666992 28,106.201172 28,106.201172 Z" id="Path-78"></path>
                    <path d="M29,97.2011719 L29.6487132,93 C29.6487132,93 40.9395672,94.03125 48,97.0595703 C39.1231702,96.6669922 29,97.2011719 29,97.2011719 Z" id="Path-78"></path>
                    <path d="M30,88.2011719 L30.6145704,84 C30.6145704,84 41.311169,85.03125 48,88.0595703 C39.5903717,87.6669922 30,88.2011719 30,88.2011719 Z" id="Path-78"></path>
                    <path d="M31,79.2011719 L31.5804276,75 C31.5804276,75 41.6827707,76.03125 48,79.0595703 C40.0575733,78.6669922 31,79.2011719 31,79.2011719 Z" id="Path-78"></path>
                    <path d="M32,70.2011719 L32.5462848,66 C32.5462848,66 42.0543724,67.03125 48,70.0595703 C40.5247749,69.6669922 32,70.2011719 32,70.2011719 Z" id="Path-78"></path>
                    <path d="M33,61.2011719 L33.512142,58 C33.512142,58 42.4259741,58.7857828 48,61.0932756 C40.9919764,60.7941424 33,61.2011719 33,61.2011719 Z" id="Path-78"></path>
                    <path d="M34,54.2011719 L34.4779992,51 C34.4779992,51 42.7975759,51.7857828 48,54.0932756 C41.459178,53.7941424 34,54.2011719 34,54.2011719 Z" id="Path-78"></path>
                    <path d="M35,47.2011719 L35.4438564,44 C35.4438564,44 43.1691776,44.7857828 48,47.0932756 C41.9263796,46.7941424 35,47.2011719 35,47.2011719 Z" id="Path-78"></path>
                    <path d="M36,40.2011719 L36.4097136,37 C36.4097136,37 43.5407793,37.7857828 48,40.0932756 C42.3935812,39.7941424 36,40.2011719 36,40.2011719 Z" id="Path-78"></path>
                    <path d="M37,33.2011719 L37.3755708,30 C37.3755708,30 43.912381,30.7857828 48,33.0932756 C42.8607827,32.7941424 37,33.2011719 37,33.2011719 Z" id="Path-78"></path>
                    <path d="M38,26.2011719 L38.341428,23 C38.341428,23 44.2839828,23.7857828 48,26.0932756 C43.3279843,25.7941424 38,26.2011719 38,26.2011719 Z" id="Path-78"></path>
                    <path d="M39,19.2011719 L39.3072852,16 C39.3072852,16 44.6555845,16.7857828 48,19.0932756 C43.7951859,18.7941424 39,19.2011719 39,19.2011719 Z" id="Path-78"></path>
                    <path d="M40,12.2011719 L40.2731424,10 C40.2731424,10 45.0271862,10.5403156 48,12.1269808 C44.2623874,11.9212925 40,12.2011719 40,12.2011719 Z" id="Path-78"></path>
                    <path d="M41,7.20117188 L41.2048568,5 C41.2048568,5 44.7703897,5.54031555 47,7.12698082 C44.1967906,6.92129251 41,7.20117188 41,7.20117188 Z" id="Path-78"></path>
                    <path d="M42,2.20117188 L42.1365712,0 C42.1365712,0 44.5135931,0.540315551 46,2.12698082 C44.1311937,1.92129251 42,2.20117188 42,2.20117188 Z" id="Path-78"></path>
                </g>
                <path d="M37.7930839,133.53125 L18,126.25 L56.6139456,135.277344 L21.5600907,117.90625 L58,128.94043 L24.2230726,113.413086 L56.5034014,119.683594 L29.2195295,106.739258 L56.2886905,113.770508 L34.2032313,100.836914 L56.1703515,106.739258 L42.7689909,95.8017578 L51.5019841,97.1142578 L48.7079082,94 C48.7079082,94 41.6305164,107.502913 39.6602891,114.638672 C37.9922417,120.679997 37.7930839,133.53125 37.7930839,133.53125 Z" id="Path-79" fill="#189580"></path>
                <path d="M32.5159093,134.964177 C32.5159093,134.964177 31.8412087,131.649636 29.5905901,131.460938 C26.6554423,131.214846 21.3997545,134.333971 15.1289063,137.183594 C22.6393428,130.151304 34.0988617,126.639472 49,118.570607 C43.5337206,118.751866 15.0608062,129.701052 11.662263,133.833195 C16.7282888,126.367583 33.2224942,115.227697 43.4925393,111.88101 C33.9803751,110.598979 13.7430037,119.692148 8.11488897,125.348 C11.1825366,114.56308 30.2451564,108.396492 40.2095928,106.456452 C27.1421073,102.97571 9.71590339,111.656325 4.8579517,118.570607 C3.71715667,110.937896 24.5939223,99.2193022 36.6058654,99.2193022 C32.1026511,94.5301652 7.71391289,103.322179 3.74027602,109.447228 C8.1560703,98.9039867 21.8203238,94.9096766 29.5905901,93.4728201 C24.8251157,87.2231549 6.16563947,97.4709064 3.74027602,103.24099 C4.73946507,94.8492569 19.0785143,86.0817886 24.3034856,86.0817886 C18.6370794,80.0700262 5.76683082,89.4454679 2.17827549,93.4728201 C1.14079502,88.7836831 14.2725812,80.2541175 18.5034207,80.2541175 C12.8594114,75.4715188 4.60580638,83.0674109 0.97895963,86.4537475 C5.09636991,77.454985 11.133408,74.9976016 12.9880127,74.9976016 C8.96524726,71.0004593 0.873477633,78.9418766 0,80.2541175 C2.19128012,74.7360975 6.85343989,71.0438859 8.11488897,71.0438859 C6.09844888,69.9525547 4.8579517,69 4.8579517,69 C4.8579517,69 6.64598451,78.2073625 10.4167084,86.4537475 C13.9834254,94.2539794 19.4768496,100.951627 21.7040046,106.456452 C26.4230256,118.120385 32.5159093,134.964177 32.5159093,134.964177 Z" id="Path-80" fill="#189580"></path>
            </g>
        </g>
    </g>
</svg>