<?xml version="1.0" encoding="UTF-8" standalone="no"?>
<svg width="50px" height="100px" viewBox="0 0 50 100" version="1.1" xmlns="http://www.w3.org/2000/svg" xmlns:xlink="http://www.w3.org/1999/xlink">
    <!-- Generator: Sketch 40.3 (33839) - http://www.bohemiancoding.com/sketch -->
    <title>tall_cactus_hero</title>
    <desc>Created with Sketch.</desc>
    <defs></defs>
    <g id="Page-1" stroke="none" stroke-width="1" fill="none" fill-rule="evenodd">
        <g id="tall_cactus_hero">
            <g id="leaves" transform="translate(6.000000, 14.000000)">
                <path d="M3.62841669,48.4425863 L34.7626161,48.4425863 L33.5861645,44.6329466 C33.5861645,44.6329466 34.6801183,44.0509722 34.7626161,43.4409984 C34.8341134,42.9123598 34.04815,41.2171094 34.04815,41.2171094 L35.8640245,38.8202393 L33.5861645,37.0423173 L35.1819173,34.4243557 L34.04815,31.6912534 L34.7626161,28.276227 L33.5861645,25.6936725 L34.7626161,23.1373353 L33.5861645,20.4274774 L33.5861645,17.4153646 L32.1632216,15.2445296 L33.1086968,12.9496257 L32.1632216,10.8740234 L32.688954,8.79801432 L31.8452528,6.78014277 C31.8452528,6.78014277 31.8995499,5.52473755 31.6346788,5.13875326 C30.5841546,3.60787347 26.5112467,2.99804687 26.5112467,2.99804687 L21.2717882,2.36816406 L17.2275228,2.36816406 C17.2275228,2.36816406 13.5475976,2.81679848 11.211811,3.68184408 C11.141248,3.7079767 10.4217523,3.81543027 10.0541558,4.07185872 C9.31207528,4.58952027 8.70921224,5.42826335 8.70921224,5.42826335 C8.70921224,5.42826335 7.2415382,7.05215595 6.90417752,7.26786296 C6.57575237,7.47785663 7.45741102,8.79801432 7.45741102,8.79801432 L6.90417752,11.8182373 L5.33740404,14.8350508 L3.9642971,16.7215983 L4.42647027,20.4274774 L4.42647027,23.4519448 L3.62841669,24.5841605 L2.67124454,28.4446134 L3.62841669,30.7701288 L1.91594871,33.8573018 L3.62841669,37.0423173 L1.79760742,40.1294904 L3.62841669,42.5625784 L3.9642971,45.0616155 L3.62841669,48.4425863 Z" id="Path-15" fill="#59733D"></path>
                <path d="M8.02951389,48.3970133 L7.4074273,46.5616828 L7.65313043,44.9003149 L6.61812609,42.8985647 L7.54593641,39.299563 L5.90871853,37.3350568 L7.69287652,32.7719526 L6.02434353,31.0954985 L8.51389431,28.413455 L7.80007053,26.0194635 L9.40597331,22.7976168 L7.62583008,21.0843902 L9.19640299,17.5320614 L8.6954617,15.5216471 L9.40597331,13.9408366 L8.86518555,12.4375407 L10.3554633,10.5784098 C10.3554633,10.5784098 9.51945035,9.58443443 9.78456489,9.4736735 C9.91542871,9.41900054 10.2632266,7.8718044 10.7794217,8.00577799 C10.7932705,8.00937233 9.78456489,6.54520671 9.78456489,6.54520671 L10.7794217,4.65270996 C10.7794217,4.65270996 11.5505046,4.01319624 11.9035536,4.33878581 C12.1532879,4.56909635 11.4158895,5.11266251 11.4822049,5.53466797 C11.5332869,5.85973441 12.4113957,6.11252323 12.4258735,6.0953776 C12.5821949,5.9102513 11.4822049,7.2454834 11.4822049,7.2454834 L12.4258735,8.59822591 L11.9035536,9.93164062 L12.4258735,11.3677979 L10.7794217,12.9164632 L11.4822049,14.6600342 L10.3554633,16.6666667 L10.0527507,19.6695874 L11.4822049,22.3905251 L10.5212728,25.1444639 L10.7794217,27.9545044 L10.7794217,30.6462126 L8.99927843,31.8248221 L9.78456489,33.5800072 L8.86518555,36.2417787 L9.68580187,38.7880465 L8.75799154,41.6280237 L9.7215332,44.1742915 L9.29356011,45.7248701 L10.3554633,48.3970133 L8.02951389,48.3970133 Z" id="Path-14" fill="#85A95E"></path>
                <path d="M18.380561,48.1581624 L17.274094,46.4872226 L17.5197971,44.8529781 L16.4847928,42.8839084 L17.4126031,39.3436638 L15.7753852,37.41123 L17.5595432,32.9226228 L16.4847928,30.4777486 L18.380561,28.6352818 L17.6667372,26.2803745 L18.7318522,23.9083086 L17.4126031,22.1729673 L18.2107368,19.0848761 C18.2107368,19.0848761 16.2059513,17.2689796 16.4847928,16.9568005 C16.6717964,16.7474392 17.6667372,14.1666667 17.6667372,14.1666667 L17.0661296,12.1785482 L17.274094,10.0807699 C17.274094,10.0807699 17.5023974,8.07575382 17.8857422,7.88269043 C17.9415483,7.85458488 17.5197971,5.51879883 17.5197971,5.51879883 C17.5197971,5.51879883 18.6290439,2.99163628 19.1602268,3.24869792 C19.4140786,3.37154743 20.0432903,3.88634957 20.106505,4.39025879 C20.1357416,4.62331508 19.2560946,5.08286477 19.1602268,5.51879883 C19.036885,6.07966315 19.6870804,6.60824775 19.7118544,6.63696289 C19.9762782,6.94345298 19.1602268,9.13085937 19.1602268,9.13085937 L19.7118544,10.9486898 L19.1602268,12.6328532 L19.7118544,15.2921806 L18.6126139,16.9568005 L19.9194173,18.7781668 L19.1602268,21.5863868 L20.9431803,25.2638411 L19.9194173,27.059297 L20.9431803,31.2735385 L19.7118544,32.9226228 L20.22213,34.3792521 L19.1602268,36.3942329 L20.106505,39.3436638 L19.1602268,41.9712543 L20.9431803,44.0636807 L19.9194173,45.9701447 L21.3422472,48.1581624 L18.380561,48.1581624 Z" id="Path-14" fill="#85A95E"></path>
                <path d="M26.358686,48.3970133 L27.1487901,46.548931 L25.9931424,44.8236418 L27.3093804,42.5901742 L25.7412164,40.9998251 L26.6156304,39.1371665 L25.2058485,37.2376258 L27.3828505,34.7859572 L25.9397461,33.54897 L27.242334,31.2543266 L26.0330892,30.0418538 L26.7270399,28.0661194 L25.4443251,27.5579409 L26.4572483,25.2485005 L25.3393392,23.4814705 L26.622054,22.2886534 L24.8198296,20.0481186 L26.2494846,18.3402767 L25.5912652,16.6666667 L25.9397461,13.9770508 L25.5912652,10.8410645 C25.5912652,10.8410645 26.3629812,9.77161685 26.6156304,8.88753255 C26.7915601,8.27190959 26.4105828,7.79579603 26.622054,7.62512207 C26.6625638,7.59242753 27.3491607,7.41169677 27.5600016,6.69209798 C27.6732435,6.30560419 26.752485,5.97945141 26.7270399,5.55053711 C26.6990707,5.07907417 27.5600016,4.52189128 27.5600016,4.52189128 L28.9576389,6.32161458 L28.0117622,8.88753255 C28.0117622,8.88753255 26.7510133,10.0900389 27.1487901,10.8410645 C27.5084639,11.5201491 27.973767,12.5583269 28.0117622,12.5705973 C28.4128771,12.7001357 28.0117622,14.6461995 28.0117622,14.6461995 L27.3828505,16.6666667 L28.9576389,18.065317 L27.2266764,20.2791289 L28.8283637,20.9072295 L28.0117622,23.2608402 L29.3657389,25.3984584 L28.6384657,27.580026 L29.4215441,29.1876015 L28.5334798,31.2512346 L30.1195095,33.6220717 L28.9596463,35.9410087 L29.6377387,37.4699612 L28.4443522,38.3268636 L30.1552409,40.032497 L29.1403103,41.9101735 L30.3001736,43.87089 L28.8925998,44.6758924 L29.7312826,46.440493 L29.3657389,48.3970133 L26.358686,48.3970133 Z" id="Path-22" fill="#85A95E"></path>
                <polygon id="Path-23" fill="#FEF1BC" points="9.40898438 19.9157715 8.10418837 21.7234294 9.94324816 20.1713053 11.7267036 21.8383789 10.2121365 19.6691895 12.3333333 18.8767497 10.2121365 19.2319743 10.2655328 17.5 9.67102661 19.2319743 7.55316298 19.2319743"></polygon>
                <polygon id="Path-23" fill="#FEF1BC" points="8.58676215 22.4157715 7.28196615 24.2234294 9.12102593 22.6713053 10.9044813 24.3383789 9.38991428 22.1691895 11.5111111 21.3767497 9.38991428 21.7319743 9.44331055 20 8.84880439 21.7319743 6.73094076 21.7319743"></polygon>
                <polygon id="Path-23" fill="#FEF1BC" points="9.40898438 25.7491048 8.10418837 27.5567627 9.94324816 26.0046387 11.7267036 27.6717122 10.2121365 25.5025228 12.3333333 24.710083 10.2121365 25.0653076 10.2655328 23.3333333 9.67102661 25.0653076 7.55316298 25.0653076"></polygon>
                <polygon id="Path-23" fill="#FEF1BC" points="7.76453993 29.0824382 6.45974392 30.890096 8.29880371 29.337972 10.0822591 31.0050456 8.56769206 28.8358561 10.6888889 28.0434163 8.56769206 28.398641 8.62108832 26.6666667 8.02658217 28.398641 5.90871853 28.398641"></polygon>
                <polygon id="Path-23" fill="#FEF1BC" points="7.76453993 33.2491048 6.45974392 35.0567627 8.29880371 33.5046387 10.0822591 35.1717122 8.56769206 33.0025228 10.6888889 32.210083 8.56769206 32.5653076 8.62108832 30.8333333 8.02658217 32.5653076 5.90871853 32.5653076"></polygon>
                <polygon id="Path-23" fill="#FEF1BC" points="6.12009549 37.4157715 4.81529948 39.2234294 6.65435927 37.6713053 8.43781467 39.3383789 6.92324761 37.1691895 9.04444444 36.3767497 6.92324761 36.7319743 6.97664388 35 6.38213772 36.7319743 4.26427409 36.7319743"></polygon>
                <polygon id="Path-23" fill="#FEF1BC" points="6.12009549 41.5824382 4.81529948 43.390096 6.65435927 41.837972 8.43781467 43.5050456 6.92324761 41.3358561 9.04444444 40.5434163 6.92324761 40.898641 6.97664388 39.1666667 6.38213772 40.898641 4.26427409 40.898641"></polygon>
                <polygon id="Path-23" fill="#FEF1BC" points="6.94231771 45.7491048 5.6375217 47.5567627 7.47658149 46.0046387 9.26003689 47.6717122 7.74546984 45.5025228 9.86666667 44.710083 7.74546984 45.0653076 7.7988661 43.3333333 7.20435994 45.0653076 5.08649631 45.0653076"></polygon>
                <polygon id="Path-23" fill="#FEF1BC" points="4.47565104 28.2491048 3.17085503 30.0567627 5.00991482 28.5046387 6.79337023 30.1717122 5.27880317 28.0025228 7.4 27.210083 5.27880317 27.5653076 5.33219944 25.8333333 4.73769328 27.5653076 2.61982964 27.5653076"></polygon>
                <polygon id="Path-23" fill="#FEF1BC" points="9.40898438 19.9157715 8.10418837 21.7234294 9.94324816 20.1713053 11.7267036 21.8383789 10.2121365 19.6691895 12.3333333 18.8767497 10.2121365 19.2319743 10.2655328 17.5 9.67102661 19.2319743 7.55316298 19.2319743"></polygon>
                <polygon id="Path-23" fill="#FEF1BC" points="4.47565104 24.0824382 3.17085503 25.890096 5.00991482 24.337972 6.79337023 26.0050456 5.27880317 23.8358561 7.4 23.0434163 5.27880317 23.398641 5.33219944 21.6666667 4.73769328 23.398641 2.61982964 23.398641"></polygon>
                <polygon id="Path-23" fill="#FEF1BC" points="2.8312066 33.2491048 1.52641059 35.0567627 3.36547038 33.5046387 5.14892578 35.1717122 3.63435872 33.0025228 5.75555556 32.210083 3.63435872 32.5653076 3.68775499 30.8333333 3.09324883 32.5653076 0.9753852 32.5653076"></polygon>
                <polygon id="Path-23" fill="#FEF1BC" points="2.00898438 43.2491048 0.704188368 45.0567627 2.54324816 43.5046387 4.32670356 45.1717122 2.8121365 43.0025228 4.93333333 42.210083 2.8121365 42.5653076 2.86553277 40.8333333 2.27102661 42.5653076 0.153162977 42.5653076"></polygon>
                <polygon id="Path-23" fill="#FEF1BC" points="16.8089844 19.9157715 15.5041884 21.7234294 17.3432482 20.1713053 19.1267036 21.8383789 17.6121365 19.6691895 19.7333333 18.8767497 17.6121365 19.2319743 17.6655328 17.5 17.0710266 19.2319743 14.953163 19.2319743"></polygon>
                <polygon id="Path-23" fill="#FEF1BC" points="17.6312066 23.2491048 16.3264106 25.0567627 18.1654704 23.5046387 19.9489258 25.1717122 18.4343587 23.0025228 20.5555556 22.210083 18.4343587 22.5653076 18.487755 20.8333333 17.8932488 22.5653076 15.7753852 22.5653076"></polygon>
                <polygon id="Path-23" fill="#FEF1BC" points="17.6312066 24.9157715 16.3264106 26.7234294 18.1654704 25.1713053 19.9489258 26.8383789 18.4343587 24.6691895 20.5555556 23.8767497 18.4343587 24.2319743 18.487755 22.5 17.8932488 24.2319743 15.7753852 24.2319743"></polygon>
                <polygon id="Path-23" fill="#FEF1BC" points="18.4534288 29.0824382 17.1486328 30.890096 18.9876926 29.337972 20.771148 31.0050456 19.2565809 28.8358561 21.3777778 28.0434163 19.2565809 28.398641 19.3099772 26.6666667 18.7154711 28.398641 16.5976074 28.398641"></polygon>
                <polygon id="Path-23" fill="#FEF1BC" points="16.8089844 32.4157715 15.5041884 34.2234294 17.3432482 32.6713053 19.1267036 34.3383789 17.6121365 32.1691895 19.7333333 31.3767497 17.6121365 31.7319743 17.6655328 30 17.0710266 31.7319743 14.953163 31.7319743"></polygon>
                <polygon id="Path-23" fill="#FEF1BC" points="17.6312066 34.9157715 16.3264106 36.7234294 18.1654704 35.1713053 19.9489258 36.8383789 18.4343587 34.6691895 20.5555556 33.8767497 18.4343587 34.2319743 18.487755 32.5 17.8932488 34.2319743 15.7753852 34.2319743"></polygon>
                <polygon id="Path-23" fill="#FEF1BC" points="16.8089844 38.2491048 15.5041884 40.0567627 17.3432482 38.5046387 19.1267036 40.1717122 17.6121365 38.0025228 19.7333333 37.210083 17.6121365 37.5653076 17.6655328 35.8333333 17.0710266 37.5653076 14.953163 37.5653076"></polygon>
                <polygon id="Path-23" fill="#FEF1BC" points="17.6312066 41.5824382 16.3264106 43.390096 18.1654704 41.837972 19.9489258 43.5050456 18.4343587 41.3358561 20.5555556 40.5434163 18.4343587 40.898641 18.487755 39.1666667 17.8932488 40.898641 15.7753852 40.898641"></polygon>
                <polygon id="Path-23" fill="#FEF1BC" points="16.8089844 44.0824382 15.5041884 45.890096 17.3432482 44.337972 19.1267036 46.0050456 17.6121365 43.8358561 19.7333333 43.0434163 17.6121365 43.398641 17.6655328 41.6666667 17.0710266 43.398641 14.953163 43.398641"></polygon>
                <polygon id="Path-23" fill="#FEF1BC" points="25.8534288 19.9157715 24.5486328 21.7234294 26.3876926 20.1713053 28.171148 21.8383789 26.6565809 19.6691895 28.7777778 18.8767497 26.6565809 19.2319743 26.7099772 17.5 26.1154711 19.2319743 23.9976074 19.2319743"></polygon>
                <polygon id="Path-23" fill="#FEF1BC" points="25.8534288 22.4157715 24.5486328 24.2234294 26.3876926 22.6713053 28.171148 24.3383789 26.6565809 22.1691895 28.7777778 21.3767497 26.6565809 21.7319743 26.7099772 20 26.1154711 21.7319743 23.9976074 21.7319743"></polygon>
                <polygon id="Path-23" fill="#FEF1BC" points="26.675651 26.5824382 25.370855 28.390096 27.2099148 26.837972 28.9933702 28.5050456 27.4788032 26.3358561 29.6 25.5434163 27.4788032 25.898641 27.5321994 24.1666667 26.9376933 25.898641 24.8198296 25.898641"></polygon>
                <polygon id="Path-23" fill="#FEF1BC" points="28.3200955 29.0824382 27.0152995 30.890096 28.8543593 29.337972 30.6378147 31.0050456 29.1232476 28.8358561 31.2444444 28.0434163 29.1232476 28.398641 29.1766439 26.6666667 28.5821377 28.398641 26.4642741 28.398641"></polygon>
                <polygon id="Path-23" fill="#FEF1BC" points="28.3200955 32.4157715 27.0152995 34.2234294 28.8543593 32.6713053 30.6378147 34.3383789 29.1232476 32.1691895 31.2444444 31.3767497 29.1232476 31.7319743 29.1766439 30 28.5821377 31.7319743 26.4642741 31.7319743"></polygon>
                <polygon id="Path-23" fill="#FEF1BC" points="29.1423177 34.0824382 27.8375217 35.890096 29.6765815 34.337972 31.4600369 36.0050456 29.9454698 33.8358561 32.0666667 33.0434163 29.9454698 33.398641 29.9988661 31.6666667 29.4043599 33.398641 27.2864963 33.398641"></polygon>
                <polygon id="Path-23" fill="#FEF1BC" points="29.1423177 35.7491048 27.8375217 37.5567627 29.6765815 36.0046387 31.4600369 37.6717122 29.9454698 35.5025228 32.0666667 34.710083 29.9454698 35.0653076 29.9988661 33.3333333 29.4043599 35.0653076 27.2864963 35.0653076"></polygon>
                <polygon id="Path-23" fill="#FEF1BC" points="28.3200955 39.0824382 27.0152995 40.890096 28.8543593 39.337972 30.6378147 41.0050456 29.1232476 38.8358561 31.2444444 38.0434163 29.1232476 38.398641 29.1766439 36.6666667 28.5821377 38.398641 26.4642741 38.398641"></polygon>
                <polygon id="Path-23" fill="#FEF1BC" points="29.1423177 40.7491048 27.8375217 42.5567627 29.6765815 41.0046387 31.4600369 42.6717122 29.9454698 40.5025228 32.0666667 39.710083 29.9454698 40.0653076 29.9988661 38.3333333 29.4043599 40.0653076 27.2864963 40.0653076"></polygon>
                <polygon id="Path-23" fill="#FEF1BC" points="29.1423177 44.0824382 27.8375217 45.890096 29.6765815 44.337972 31.4600369 46.0050456 29.9454698 43.8358561 32.0666667 43.0434163 29.9454698 43.398641 29.9988661 41.6666667 29.4043599 43.398641 27.2864963 43.398641"></polygon>
                <polygon id="Path-23" fill="#FEF1BC" points="28.3200955 46.5824382 27.0152995 48.390096 28.8543593 46.837972 30.6378147 48.5050456 29.1232476 46.3358561 31.2444444 45.5434163 29.1232476 45.898641 29.1766439 44.1666667 28.5821377 45.898641 26.4642741 45.898641"></polygon>
                <polygon id="Path-23" fill="#FEF1BC" points="22.411377 3.24910482 21.1065809 5.0567627 22.9456407 3.50463867 24.7290961 5.17171224 23.2145291 3.00252279 25.3357259 2.21008301 23.2145291 2.56530762 23.2679253 0.833333333 22.6734192 2.56530762 20.5555556 2.56530762"></polygon>
                <polygon id="Path-23" fill="#FEF1BC" points="9.40898438 16.5824382 8.10418837 18.390096 9.94324816 16.837972 11.7267036 18.5050456 10.2121365 16.3358561 12.3333333 15.5434163 10.2121365 15.898641 10.2655328 14.1666667 9.67102661 15.898641 7.55316298 15.898641"></polygon>
                <polygon id="Path-23" fill="#FEF1BC" points="30.7867622 22.4157715 29.4819661 24.2234294 31.3210259 22.6713053 33.1044813 24.3383789 31.5899143 22.1691895 33.7111111 21.3767497 31.5899143 21.7319743 31.6433105 20 31.0488044 21.7319743 28.9309408 21.7319743"></polygon>
                <polygon id="Path-23" fill="#FEF1BC" points="32.4312066 26.5824382 31.1264106 28.390096 32.9654704 26.837972 34.7489258 28.5050456 33.2343587 26.3358561 35.3555556 25.5434163 33.2343587 25.898641 33.287755 24.1666667 32.6932488 25.898641 30.5753852 25.898641"></polygon>
                <polygon id="Path-23" fill="#FEF1BC" points="33.2534288 31.5824382 31.9486328 33.390096 33.7876926 31.837972 35.571148 33.5050456 34.0565809 31.3358561 36.1777778 30.5434163 34.0565809 30.898641 34.1099772 29.1666667 33.5154711 30.898641 31.3976074 30.898641"></polygon>
                <polygon id="Path-23" fill="#FEF1BC" points="33.2534288 34.9157715 31.9486328 36.7234294 33.7876926 35.1713053 35.571148 36.8383789 34.0565809 34.6691895 36.1777778 33.8767497 34.0565809 34.2319743 34.1099772 32.5 33.5154711 34.2319743 31.3976074 34.2319743"></polygon>
                <polygon id="Path-23" fill="#FEF1BC" points="34.075651 38.2491048 32.770855 40.0567627 34.6099148 38.5046387 36.3933702 40.1717122 34.8788032 38.0025228 37 37.210083 34.8788032 37.5653076 34.9321994 35.8333333 34.3376933 37.5653076 32.2198296 37.5653076"></polygon>
                <polygon id="Path-23" fill="#FEF1BC" points="34.075651 42.4157715 32.770855 44.2234294 34.6099148 42.6713053 36.3933702 44.3383789 34.8788032 42.1691895 37 41.3767497 34.8788032 41.7319743 34.9321994 40 34.3376933 41.7319743 32.2198296 41.7319743"></polygon>
                <polygon id="Path-23" fill="#FEF1BC" points="33.2534288 46.5824382 31.9486328 48.390096 33.7876926 46.837972 35.571148 48.5050456 34.0565809 46.3358561 36.1777778 45.5434163 34.0565809 45.898641 34.1099772 44.1666667 33.5154711 45.898641 31.3976074 45.898641"></polygon>
                <polygon id="Path-23" fill="#FEF1BC" points="13.3669325 3.24910482 12.0621365 5.0567627 13.9011963 3.50463867 15.6846517 5.17171224 14.1700846 3.00252279 16.2912815 2.21008301 14.1700846 2.56530762 14.2234809 0.833333333 13.6289747 2.56530762 11.5111111 2.56530762"></polygon>
                <polygon id="Path-23" fill="#FEF1BC" points="27.3447103 9.91577148 26.0399143 11.7234294 27.8789741 10.1713053 29.6624295 11.8383789 28.1478624 9.66918945 30.2690592 8.87674967 28.1478624 9.23197428 28.2012587 7.5 27.6067525 9.23197428 25.4888889 9.23197428"></polygon>
                <polygon id="Path-23" fill="#FEF1BC" points="27.3447103 3.24910482 26.0399143 5.0567627 27.8789741 3.50463867 29.6624295 5.17171224 28.1478624 3.00252279 30.2690592 2.21008301 28.1478624 2.56530762 28.2012587 0.833333333 27.6067525 2.56530762 25.4888889 2.56530762"></polygon>
                <polygon id="Path-23" fill="#FEF1BC" points="27.3447103 6.58243815 26.0399143 8.39009603 27.8789741 6.83797201 29.6624295 8.50504557 28.1478624 6.33585612 30.2690592 5.54341634 28.1478624 5.89864095 28.2012587 4.16666667 27.6067525 5.89864095 25.4888889 5.89864095"></polygon>
                <polygon id="Path-23" fill="#FEF1BC" points="31.4558214 6.58243815 30.1510254 8.39009603 31.9900852 6.83797201 33.7735406 8.50504557 32.2589735 6.33585612 34.3801704 5.54341634 32.2589735 5.89864095 32.3123698 4.16666667 31.7178636 5.89864095 29.6 5.89864095"></polygon>
                <polygon id="Path-23" fill="#FEF1BC" points="31.4558214 9.91577148 30.1510254 11.7234294 31.9900852 10.1713053 33.7735406 11.8383789 32.2589735 9.66918945 34.3801704 8.87674967 32.2589735 9.23197428 32.3123698 7.5 31.7178636 9.23197428 29.6 9.23197428"></polygon>
                <polygon id="Path-23" fill="#FEF1BC" points="30.7867622 13.2491048 29.4819661 15.0567627 31.3210259 13.5046387 33.1044813 15.1717122 31.5899143 13.0025228 33.7111111 12.210083 31.5899143 12.5653076 31.6433105 10.8333333 31.0488044 12.5653076 28.9309408 12.5653076"></polygon>
                <polygon id="Path-23" fill="#FEF1BC" points="29.9645399 17.4157715 28.6597439 19.2234294 30.4988037 17.6713053 32.2822591 19.3383789 30.7676921 17.1691895 32.8888889 16.3767497 30.7676921 16.7319743 30.8210883 15 30.2265822 16.7319743 28.1087185 16.7319743"></polygon>
                <polygon id="Path-23" fill="#FEF1BC" points="25.0312066 14.9157715 23.7264106 16.7234294 25.5654704 15.1713053 27.3489258 16.8383789 25.8343587 14.6691895 27.9555556 13.8767497 25.8343587 14.2319743 25.887755 12.5 25.2932488 14.2319743 23.1753852 14.2319743"></polygon>
                <polygon id="Path-23" fill="#FEF1BC" points="5.14471029 14.9157715 3.83991428 16.7234294 5.67897407 15.1713053 7.46242947 16.8383789 5.94786241 14.6691895 8.06905924 13.8767497 5.94786241 14.2319743 6.00125868 12.5 5.40675252 14.2319743 3.28888889 14.2319743"></polygon>
                <polygon id="Path-23" fill="#FEF1BC" points="5.14471029 19.0824382 3.83991428 20.890096 5.67897407 19.337972 7.46242947 21.0050456 5.94786241 18.8358561 8.06905924 18.0434163 5.94786241 18.398641 6.00125868 16.6666667 5.40675252 18.398641 3.28888889 18.398641"></polygon>
                <polygon id="Path-23" fill="#FEF1BC" points="6.78915473 11.5824382 5.48435872 13.390096 7.32341851 11.837972 9.10687391 13.5050456 7.59230686 11.3358561 9.71350369 10.5434163 7.59230686 10.898641 7.64570313 9.16666667 7.05119697 10.898641 4.93333333 10.898641"></polygon>
                <polygon id="Path-23" fill="#FEF1BC" points="16.6558214 12.4157715 15.3510254 14.2234294 17.1900852 12.6713053 18.9735406 14.3383789 17.4589735 12.1691895 19.5801704 11.3767497 17.4589735 11.7319743 17.5123698 10 16.9178636 11.7319743 14.8 11.7319743"></polygon>
                <polygon id="Path-23" fill="#FEF1BC" points="18.3002658 9.08243815 16.9954698 10.890096 18.8345296 9.33797201 20.617985 11.0050456 19.103418 8.83585612 21.2246148 8.04341634 19.103418 8.39864095 19.1568142 6.66666667 18.5623081 8.39864095 16.4444444 8.39864095"></polygon>
                <polygon id="Path-23" fill="#FEF1BC" points="18.3002658 5.74910482 16.9954698 7.5567627 18.8345296 6.00463867 20.617985 7.67171224 19.103418 5.50252279 21.2246148 4.71008301 19.103418 5.06530762 19.1568142 3.33333333 18.5623081 5.06530762 16.4444444 5.06530762"></polygon>
                <polygon id="Path-23" fill="#FEF1BC" points="18.3002658 2.41577148 16.9954698 4.22342936 18.8345296 2.67130534 20.617985 4.33837891 19.103418 2.16918945 21.2246148 1.37674967 19.103418 1.73197428 19.1568142 0 18.5623081 1.73197428 16.4444444 1.73197428"></polygon>
                <polygon id="Path-23" fill="#FEF1BC" points="25.7002658 12.4157715 24.3954698 14.2234294 26.2345296 12.6713053 28.017985 14.3383789 26.503418 12.1691895 28.6246148 11.3767497 26.503418 11.7319743 26.5568142 10 25.9623081 11.7319743 23.8444444 11.7319743"></polygon>
                <polygon id="Path-23" fill="#FEF1BC" points="16.8089844 14.9157715 15.5041884 16.7234294 17.3432482 15.1713053 19.1267036 16.8383789 17.6121365 14.6691895 19.7333333 13.8767497 17.6121365 14.2319743 17.6655328 12.5 17.0710266 14.2319743 14.953163 14.2319743"></polygon>
                <polygon id="Path-23" fill="#FEF1BC" points="17.6312066 47.4157715 16.3264106 49.2234294 18.1654704 47.6713053 19.9489258 49.3383789 18.4343587 47.1691895 20.5555556 46.3767497 18.4343587 46.7319743 18.487755 45 17.8932488 46.7319743 15.7753852 46.7319743"></polygon>
                <polygon id="Path-23" fill="#FEF1BC" points="9.2558214 13.2491048 7.95102539 15.0567627 9.79008518 13.5046387 11.5735406 15.1717122 10.0589735 13.0025228 12.1801704 12.210083 10.0589735 12.5653076 10.1123698 10.8333333 9.51786363 12.5653076 7.4 12.5653076"></polygon>
                <polygon id="Path-23" fill="#FEF1BC" points="10.9002658 9.91577148 9.59546984 11.7234294 11.4345296 10.1713053 13.217985 11.8383789 11.703418 9.66918945 13.8246148 8.87674967 11.703418 9.23197428 11.7568142 7.5 11.1623081 9.23197428 9.04444444 9.23197428"></polygon>
                <polygon id="Path-23" fill="#FEF1BC" points="10.0780436 7.41577148 8.77324761 9.22342936 10.6123074 7.67130534 12.3957628 9.33837891 10.8811957 7.16918945 13.0023926 6.37674967 10.8811957 6.73197428 10.934592 5 10.3400859 6.73197428 8.22222222 6.73197428"></polygon>
                <polygon id="Path-23" fill="#FEF1BC" points="10.0780436 4.08243815 8.77324761 5.89009603 10.6123074 4.33797201 12.3957628 6.00504557 10.8811957 3.83585612 13.0023926 3.04341634 10.8811957 3.39864095 10.934592 1.66666667 10.3400859 3.39864095 8.22222222 3.39864095"></polygon>
                <polygon id="Path-23" fill="#FEF1BC" points="6.78915473 7.41577148 5.48435872 9.22342936 7.32341851 7.67130534 9.10687391 9.33837891 7.59230686 7.16918945 9.71350369 6.37674967 7.59230686 6.73197428 7.64570313 5 7.05119697 6.73197428 4.93333333 6.73197428"></polygon>
            </g>
            <g id="plant" transform="translate(3.000000, 62.000000)">
                <g id="pot">
                    <polygon id="Rectangle" fill="#D99264" points="0.555555556 0 44.4444444 0 44.4444444 7.62933084 42.7170139 8.19454823 35.922619 39 8.5218254 39 2.48372396 8.19454823 0.555555556 7.62933084"></polygon>
                    <polygon id="Rectangle" fill="#BC7A4E" points="0.555555556 0 8.78886632 0.0460205078 8.83281163 8.16665649 9.61617606 8.2210083 15.6770979 39 8.5218254 39 2.48372396 8.19454823 0.555555556 7.62933084"></polygon>
                    <polygon id="Rectangle-3" fill="#9C6744" points="0.531819661 7.59386676 44.4786241 7.59386676 42.7294922 8.19919786 2.5265842 8.19919786"></polygon>
                </g>
            </g>
        </g>
    </g>
</svg>