<?xml version="1.0" encoding="UTF-8" standalone="no"?>
<svg width="50px" height="100px" viewBox="0 0 50 100" version="1.1" xmlns="http://www.w3.org/2000/svg" xmlns:xlink="http://www.w3.org/1999/xlink">
    <!-- Generator: Sketch 40.3 (33839) - http://www.bohemiancoding.com/sketch -->
    <title>tall_fern_hero</title>
    <desc>Created with Sketch.</desc>
    <defs></defs>
    <g id="Page-1" stroke="none" stroke-width="1" fill="none" fill-rule="evenodd">
        <g id="tall_fern_hero">
            <g id="fern" transform="translate(6.000000, 4.000000)">
                <g id="pot" transform="translate(10.622951, 78.144026)">
                    <path d="M0.225865209,0.994198799 C0.225865209,0.994198799 1.42595335,0.195635799 9.14754098,0.195635799 C16.8691286,0.195635799 18.0692168,0.994198799 18.0692168,0.994198799 L18.0692168,4.10602303 L17.3669171,4.33656188 L14.6046058,16.9013796 C14.6046058,16.9013796 12.0745636,17.61418 9.14754098,17.61418 C6.22051837,17.61418 3.46461098,16.9013796 3.46461098,16.9013796 L1.0097763,4.33656188 L0.225865209,4.10602303 L0.225865209,0.994198799 Z" id="Rectangle" fill="#D99264"></path>
                    <path d="M0.225865209,0.994198799 C0.225865209,0.994198799 0.225865209,1.91007855 3.59104473,2.24147815 C3.60891102,2.61446452 3.59104473,4.6565851 3.59104473,4.6565851 L3.90952732,4.67875392 L6.37148626,17.3506623 L3.46461098,16.9013796 L1.0097763,4.33656188 L0.225865209,4.10602303 L0.225865209,0.994198799 Z" id="Rectangle" fill="#BC7A4E"></path>
                    <path d="M0.216215207,4.09155807 C0.216215207,4.09155807 3.39995793,4.75435727 9.14966398,4.75435727 C14.89937,4.75435727 18.0831128,4.09155807 18.0831128,4.09155807 L17.3719903,4.33588647 C17.3719903,4.33588647 15.039429,4.99868567 9.18104028,4.99868567 C3.32265156,4.99868567 1.02720145,4.33588647 1.02720145,4.33588647 L0.216215207,4.09155807 Z" id="Rectangle-3" fill="#9C6744"></path>
                    <ellipse id="Oval-2" fill="#5C3E23" cx="9.31088993" cy="1.3255984" rx="7.67740047" ry="0.662799199"></ellipse>
                </g>
                <g id="leaves">
                    <g id="Group-15" transform="translate(7.081967, 0.000000)" fill="#24D9BA">
                        <path d="M13.5737705,79.4369695 L13.8970927,76.950987 C13.8970927,76.950987 22.0596824,77.54605 27.0778048,79.3525014 C20.7686988,79.118321 13.5737705,79.4369695 13.5737705,79.4369695 Z" id="Path-78"></path>
                        <path d="M14.1639344,74.0883935 L14.625,71.5823135 C14.625,71.5823135 22.6498463,72.197474 27.6679688,74.0039255 C21.3588627,73.769745 14.1639344,74.0883935 14.1639344,74.0883935 Z" id="Path-78"></path>
                        <path d="M15.3442623,68.71972 L15.787559,66.21364 C15.787559,66.21364 23.5031383,66.8288005 28.3278689,68.635252 C22.2619075,68.4010715 15.3442623,68.71972 15.3442623,68.71972 Z" id="Path-78"></path>
                        <path d="M0.529649078,76.6230179 L0.191918545,74.1702402 C0.191918545,74.1702402 9.01556096,74.7320984 14.0336834,76.5385499 C7.72457736,76.3043694 0.529649078,76.6230179 0.529649078,76.6230179 Z" id="Path-78" transform="translate(7.112801, 75.396629) scale(-1, 1) translate(-7.112801, -75.396629) "></path>
                        <path d="M1.5180584,71.0524949 L1.18032787,68.5997171 C1.18032787,68.5997171 10.0039703,69.1615754 15.0220927,70.9680268 C8.71298668,70.7338464 1.5180584,71.0524949 1.5180584,71.0524949 Z" id="Path-78" transform="translate(8.101210, 69.826106) scale(-1, 1) translate(-8.101210, -69.826106) "></path>
                        <path d="M3.53560604,65.6838214 L3.21881404,63.2310436 C3.21881404,63.2310436 11.4954105,63.7929018 16.2024206,65.5993533 C10.2844649,65.3651729 3.53560604,65.6838214 3.53560604,65.6838214 Z" id="Path-78" transform="translate(9.710617, 64.457432) scale(-1, 1) translate(-9.710617, -64.457432) "></path>
                        <path d="M5.02370384,60.6134075 L4.72131148,58.1606297 C4.72131148,58.1606297 12.621699,58.722488 17.1147541,60.5289394 C11.4657964,60.294759 5.02370384,60.6134075 5.02370384,60.6134075 Z" id="Path-78" transform="translate(10.918033, 59.387019) scale(-1, 1) translate(-10.918033, -59.387019) "></path>
                        <path d="M6.18963207,55.244734 L5.90163934,52.7919562 C5.90163934,52.7919562 13.4258179,53.3538145 17.704918,55.1602659 C12.3249583,54.9260855 6.18963207,55.244734 6.18963207,55.244734 Z" id="Path-78" transform="translate(11.803279, 54.018345) scale(-1, 1) translate(-11.803279, -54.018345) "></path>
                        <path d="M7.3555603,49.8760605 L7.08196721,47.4232827 C7.08196721,47.4232827 14.2299369,47.9851409 18.295082,49.7915924 C13.1841203,49.557412 7.3555603,49.8760605 7.3555603,49.8760605 Z" id="Path-78" transform="translate(12.688525, 48.649672) scale(-1, 1) translate(-12.688525, -48.649672) "></path>
                        <path d="M8.52148854,44.5073869 L8.26229508,42.0546092 C8.26229508,42.0546092 15.0340558,42.6164674 18.8852459,44.4229189 C14.0432822,44.1887385 8.52148854,44.5073869 8.52148854,44.5073869 Z" id="Path-78" transform="translate(13.573770, 43.280998) scale(-1, 1) translate(-13.573770, -43.280998) "></path>
                        <path d="M9.68741677,39.1387134 L9.44262295,36.6859357 C9.44262295,36.6859357 15.8381747,37.2477939 19.4754098,39.0542454 C14.9024441,38.820065 9.68741677,39.1387134 9.68741677,39.1387134 Z" id="Path-78" transform="translate(14.459016, 37.912325) scale(-1, 1) translate(-14.459016, -37.912325) "></path>
                        <path d="M10.853345,34.3665592 L10.6229508,32.5103007 C10.6229508,32.5103007 16.6422937,32.9355142 20.0655738,34.3026339 C15.761606,34.1254065 10.853345,34.3665592 10.853345,34.3665592 Z" id="Path-78" transform="translate(15.344262, 33.438430) scale(-1, 1) translate(-15.344262, -33.438430) "></path>
                        <path d="M11.4435089,30.1909242 L11.2131148,28.3346658 C11.2131148,28.3346658 17.2324576,28.7598792 20.6557377,30.1269989 C16.35177,29.9497716 11.4435089,30.1909242 11.4435089,30.1909242 Z" id="Path-78" transform="translate(15.934426, 29.262795) scale(-1, 1) translate(-15.934426, -29.262795) "></path>
                        <path d="M12.6094372,26.0152893 L12.3934426,24.1590308 C12.3934426,24.1590308 18.0365766,24.5842443 21.2459016,25.951364 C17.2109319,25.7741366 12.6094372,26.0152893 12.6094372,26.0152893 Z" id="Path-78" transform="translate(16.819672, 25.087160) scale(-1, 1) translate(-16.819672, -25.087160) "></path>
                        <path d="M13.7753654,21.8396543 L13.5737705,19.9833959 C13.5737705,19.9833959 18.8406955,20.4086093 21.8360656,21.775729 C18.0700938,21.5985016 13.7753654,21.8396543 13.7753654,21.8396543 Z" id="Path-78" transform="translate(17.704918, 20.911525) scale(-1, 1) translate(-17.704918, -20.911525) "></path>
                        <path d="M15.5170579,17.6640194 L15.3442623,15.8077609 C15.3442623,15.8077609 19.8587694,16.2329744 22.4262295,17.6000941 C19.1982537,17.4228667 15.5170579,17.6640194 15.5170579,17.6640194 Z" id="Path-78" transform="translate(18.885246, 16.735890) scale(-1, 1) translate(-18.885246, -16.735890) "></path>
                        <path d="M16.6829862,13.4883844 L16.5245902,11.6321259 C16.5245902,11.6321259 20.6628884,12.0573394 23.0163934,13.4244591 C20.0574156,13.2472317 16.6829862,13.4883844 16.6829862,13.4883844 Z" id="Path-78" transform="translate(19.770492, 12.560255) scale(-1, 1) translate(-19.770492, -12.560255) "></path>
                        <path d="M18.4246787,9.31274947 L18.295082,7.45649099 C18.295082,7.45649099 21.6809623,7.88170446 23.6065574,9.24882417 C21.1855755,9.07159678 18.4246787,9.31274947 18.4246787,9.31274947 Z" id="Path-78" transform="translate(20.950820, 8.384620) scale(-1, 1) translate(-20.950820, -8.384620) "></path>
                        <path d="M19.0148426,5.7336338 L18.8852459,4.47389459 C18.8852459,4.47389459 22.2711263,4.76246328 24.1967213,5.69025126 C21.7757395,5.5699769 19.0148426,5.7336338 19.0148426,5.7336338 Z" id="Path-78" transform="translate(21.540984, 5.103764) scale(-1, 1) translate(-21.540984, -5.103764) "></path>
                        <path d="M21.3322995,2.7510374 L21.2459016,1.4912982 C21.2459016,1.4912982 23.5031552,1.77986689 24.7868852,2.70765486 C23.1728973,2.58738051 21.3322995,2.7510374 21.3322995,2.7510374 Z" id="Path-78" transform="translate(23.016393, 2.121168) scale(-1, 1) translate(-23.016393, -2.121168) "></path>
                        <path d="M16.5245902,63.3510465 L16.9275872,60.8449665 C16.9275872,60.8449665 23.9417501,61.460127 28.3278689,63.2665784 C22.8133585,63.032398 16.5245902,63.3510465 16.5245902,63.3510465 Z" id="Path-78"></path>
                        <path d="M17.1147541,57.982373 L17.4976013,55.476293 C17.4976013,55.476293 24.1610561,56.0914535 28.3278689,57.8979049 C23.089084,57.6637245 17.1147541,57.982373 17.1147541,57.982373 Z" id="Path-78"></path>
                        <path d="M17.704918,52.6136995 L18.0676153,50.1076195 C18.0676153,50.1076195 24.380362,50.72278 28.3278689,52.5292314 C23.3648095,52.295051 17.704918,52.6136995 17.704918,52.6136995 Z" id="Path-78"></path>
                        <path d="M18.295082,47.245026 L18.6376294,44.7389459 C18.6376294,44.7389459 24.5996679,45.3541065 28.3278689,47.1605579 C23.6405351,46.9263775 18.295082,47.245026 18.295082,47.245026 Z" id="Path-78"></path>
                        <path d="M18.8852459,41.8763524 L19.2076435,39.3702724 C19.2076435,39.3702724 24.8189739,39.9854329 28.3278689,41.7918844 C23.9162606,41.557704 18.8852459,41.8763524 18.8852459,41.8763524 Z" id="Path-78"></path>
                        <path d="M19.4754098,36.5076789 L19.7776576,34.5981182 C19.7776576,34.5981182 25.0382798,35.0668528 28.3278689,36.4433167 C24.1919861,36.264878 19.4754098,36.5076789 19.4754098,36.5076789 Z" id="Path-78"></path>
                        <path d="M20.0655738,32.332044 L20.3476717,30.4224832 C20.3476717,30.4224832 25.2575858,30.8912178 28.3278689,32.2676818 C24.4677116,32.089243 20.0655738,32.332044 20.0655738,32.332044 Z" id="Path-78"></path>
                        <path d="M20.6557377,28.156409 L20.9176858,26.2468483 C20.9176858,26.2468483 25.4768917,26.7155829 28.3278689,28.0920468 C24.7434371,27.9136081 20.6557377,28.156409 20.6557377,28.156409 Z" id="Path-78"></path>
                        <path d="M21.2459016,23.9807741 L21.4876998,22.0712133 C21.4876998,22.0712133 25.6961976,22.5399479 28.3278689,23.9164118 C25.0191626,23.7379731 21.2459016,23.9807741 21.2459016,23.9807741 Z" id="Path-78"></path>
                        <path d="M21.8360656,19.8051391 L22.0577139,17.8955784 C22.0577139,17.8955784 25.9155036,18.364313 28.3278689,19.7407769 C25.2948882,19.5623382 21.8360656,19.8051391 21.8360656,19.8051391 Z" id="Path-78"></path>
                        <path d="M22.4262295,15.6295042 L22.627728,13.7199434 C22.627728,13.7199434 26.1348095,14.188678 28.3278689,15.5651419 C25.5706137,15.3867032 22.4262295,15.6295042 22.4262295,15.6295042 Z" id="Path-78"></path>
                        <path d="M23.0163934,11.4538692 L23.1977421,9.54430847 C23.1977421,9.54430847 26.3541154,10.013043 28.3278689,11.389507 C25.8463392,11.2110682 23.0163934,11.4538692 23.0163934,11.4538692 Z" id="Path-78"></path>
                        <path d="M23.6065574,7.27823425 L23.7677562,5.96519279 C23.7677562,5.96519279 26.5734214,6.28750144 28.3278689,7.23397786 C26.1220647,7.11128082 23.6065574,7.27823425 23.6065574,7.27823425 Z" id="Path-78"></path>
                        <path d="M24.1967213,4.29563786 L24.3176204,2.9825964 C24.3176204,2.9825964 26.4218693,3.30490504 27.7377049,4.25138146 C26.0833518,4.12868442 24.1967213,4.29563786 24.1967213,4.29563786 Z" id="Path-78"></path>
                        <path d="M24.7868852,1.31304146 L24.8674846,0 C24.8674846,0 26.2703172,0.322308643 27.147541,1.26878507 C26.0446389,1.14608803 24.7868852,1.31304146 24.7868852,1.31304146 Z" id="Path-78"></path>
                    </g>
                    <path d="M22.3041151,79.653965 L10.6229508,75.310559 L33.4115089,80.6955436 L12.723988,70.3333513 L34.2295082,76.9154522 L14.2955838,67.6530923 L33.3462697,71.3935711 L17.2443125,63.6720251 L33.219555,67.8663013 L20.1855135,60.1511633 L33.1497156,63.6720251 L25.240716,57.1475955 L30.3946136,57.9305271 L28.7456507,56.0728123 C28.7456507,56.0728123 24.5688294,64.1275605 23.4060723,68.3841779 C22.4216508,71.9879447 22.3041151,79.653965 22.3041151,79.653965 Z" id="Path-79" fill="#189580"></path>
                    <path d="M19.189717,80.5087335 C19.189717,80.5087335 18.791533,78.531546 17.4632991,78.4189837 C15.7310807,78.2721853 12.6293633,80.1328036 8.92853484,81.8326585 C13.3609236,77.6377623 20.1239184,75.5428865 28.9180328,70.7296528 C25.6920318,70.8377774 8.88834466,77.3691784 6.88264701,79.8340811 C9.87243271,75.3806996 19.6067179,68.7355425 25.6677281,66.7391797 C20.0539919,65.9744235 8.11062516,71.3986737 4.7891148,74.7724988 C6.59952982,68.3390857 17.8496005,64.6605971 23.7302515,63.5033261 C16.0182928,61.4269961 5.73397577,66.6051502 2.86698789,70.7296528 C2.19373181,66.1765939 14.514446,59.1862266 21.6034615,59.1862266 C18.9458269,56.389066 4.55247318,61.6336717 2.20737601,65.2873818 C4.81341854,58.9981349 12.8775681,56.6154519 17.4632991,55.7583392 C14.650888,52.0302935 3.63873805,58.1432748 2.20737601,61.5852409 C2.79706135,56.5794103 11.2594511,51.3494465 14.3430407,51.3494465 C10.9989321,47.7633143 3.40337557,53.355946 1.28553963,55.7583392 C0.673256079,52.9611787 8.42316266,47.8731283 10.9200516,47.8731283 C7.58916083,45.020216 2.71818081,49.5513121 0.577746667,51.5713272 C3.00769372,46.2033918 6.57053589,44.7375152 7.6650567,44.7375152 C5.2909656,42.3531428 0.515494996,47.0903514 0,47.8731283 C1.29321449,44.581523 4.04465305,42.3790476 4.7891148,42.3790476 C3.59908459,41.7280475 2.86698789,41.1598303 2.86698789,41.1598303 C2.86698789,41.1598303 3.92222036,46.6521995 6.14756564,51.5713272 C8.25251333,56.2243158 11.4945342,60.2195915 12.8089207,63.5033261 C15.5939167,70.461087 19.189717,80.5087335 19.189717,80.5087335 Z" id="Path-80" fill="#189580"></path>
                </g>
            </g>
        </g>
    </g>
</svg>