<?xml version="1.0" encoding="UTF-8" standalone="no"?>
<svg width="50px" height="100px" viewBox="0 0 50 100" version="1.1" xmlns="http://www.w3.org/2000/svg" xmlns:xlink="http://www.w3.org/1999/xlink">
    <!-- Generator: Sketch 40.3 (33839) - http://www.bohemiancoding.com/sketch -->
    <title>orchid_hero</title>
    <desc>Created with Sketch.</desc>
    <defs></defs>
    <g id="Page-1" stroke="none" stroke-width="1" fill="none" fill-rule="evenodd">
        <g id="orchid_hero">
            <g id="plant" transform="translate(1.000000, 37.000000)">
                <g transform="translate(4.454545, 27.423529)" id="pot">
                    <g>
                        <polygon id="Rectangle" fill="#D99264" points="0.513280958 0 41.0624766 0 41.0624766 6.95960678 39.4664936 7.4752078 33.1891134 35.5764706 7.87336326 35.5764706 2.29472678 7.4752078 0.513280958 6.95960678"></polygon>
                        <polygon id="Rectangle" fill="#BC7A4E" points="0.513280958 0 8.1200839 0.0419806985 8.16068522 7.44976448 8.8844401 7.49934513 14.4841605 35.5764706 7.87336326 35.5764706 2.29472678 7.4752078 0.513280958 6.95960678"></polygon>
                        <polygon id="Rectangle-3" fill="#9C6744" points="0.491351229 6.92725583 41.0940554 6.92725583 39.4780224 7.47369725 2.33432561 7.47369725"></polygon>
                    </g>
                </g>
                <g id="leaves" stroke-width="0.741" stroke="#BD0FE1">
                    <g id="leaf" transform="translate(32.666667, 15.194118) scale(-1, 1) translate(-32.666667, -15.194118) translate(21.530303, 2.964706)">
                        <polygon id="Path-16" fill="#611025" points="20.4052475 24.0325023 18.1939253 24.0325023 14.2459902 22.6807962 5.54498106 14.1145623 0.998720111 5.79514591 0.252308239 0.358283548 5.54498106 1.87393153 12.2246242 5.79514591 16.4333866 9.48329504 21.1692412 14.6856445 21.9674923 19.4718061"></polygon>
                        <path d="M19.8721739,23.777361 C19.8721739,23.777361 19.1855765,17.1400678 16.9695416,13.7323932 C14.7535067,10.3247185 11.5195386,6.95214844 11.5195386,6.95214844" id="Path-18"></path>
                        <path d="M19.6742424,24.0882353 C19.6742424,24.0882353 17.0553142,19.5568045 16.2064542,18.3148035 C14.4802718,15.7891574 1.83394738,1.78671301 1.83394738,1.78671301" id="Path-19"></path>
                        <path d="M19.1893828,23.822056 C19.1893828,23.822056 15.2771034,19.2213155 13.4749275,17.8428826 C11.9120268,16.6474644 2.62277314,6.17731503 2.62277314,6.17731503" id="Path-20"></path>
                    </g>
                    <g id="leaf" transform="translate(8.166667, 0.000000)">
                        <polygon id="Path-16" fill="#611025" points="12.9810051 24.7736788 10.7696829 24.7736788 6.47627397 21.3584042 2.15440785 13.5253849 0.241432884 6.70134995 1.16438802 0.0340188419 5.09564764 1.52541935 10.2685103 5.50309053 13.3621863 9.61321806 16.6168176 17.6394933 16.1981164 22.6388155"></polygon>
                        <path d="M14.9387503,23.2214786 C14.9387503,23.2214786 14.024858,15.3642119 11.8088231,11.9565372 C9.59278823,8.54886259 7.42424242,5.92941176 7.42424242,5.92941176" id="Path-18"></path>
                        <path d="M14.1281738,23.7838752 C14.1281738,23.7838752 11.5092457,19.2524444 10.6603856,18.0104435 C8.93420324,15.4847974 2.05109197,1.38934398 2.05109197,1.38934398" id="Path-19"></path>
                        <path d="M13.4731149,24.423719 C13.4731149,24.423719 9.3314172,21.1781767 6.73918568,17.6597599 C4.14695416,14.1413431 1.71323094,6.87361558 1.71323094,6.87361558" id="Path-20"></path>
                    </g>
                    <g id="leaf" transform="translate(0.000000, 12.600000)">
                        <polygon id="Path-16" fill="#611025" points="23.3749445 14.3972082 21.1636223 14.3972082 17.1620354 10.9794003 10.7325254 9.24226792 4.68220289 8.85575597 0 10.3127757 4.05288234 6.79725414 9.91759884 3.58790211 13.6971473 0 18.7092359 1.28692555 21.529578 3.34542739 22.6896159 6.30579044 24.9371893 9.83651195"></polygon>
                        <path d="M22.6439394,14.4529412 L23.0318271,8.02410386" id="Path-17"></path>
                        <path d="M22.6439394,13.7117647 L20.1882842,4.7532284" id="Path-18"></path>
                        <path d="M22.6439394,14.4529412 C22.6439394,14.4529412 21.1052965,11.2232739 20.2564364,9.98127298 C18.5302541,7.45562686 13.9938632,1.95011202 13.9938632,1.95011202" id="Path-19"></path>
                        <path d="M22.1590798,14.1867618 C22.1590798,14.1867618 17.7017638,8.4972375 15.8995879,7.11880457 C14.3366872,5.92338639 10.7854522,3.930081 10.7854522,3.930081" id="Path-20"></path>
                        <path d="M22.1130408,13.9898868 C22.1130408,13.9898868 18.7571639,10.0587875 17.7110596,9.57938017 C16.381352,8.97000353 13.2742438,7.11352311 11.6862941,6.7360926 C8.47200721,5.97210746 5.68527314,7.24691808 5.68527314,7.24691808" id="Path-21"></path>
                    </g>
                    <g id="leaf" transform="translate(36.378788, 22.235294) scale(-1, 1) translate(-36.378788, -22.235294) translate(23.757576, 17.047059)">
                        <polygon id="Path-16" fill="#611025" points="23.3749445 9.95014936 21.1636223 9.95014936 17.2156871 8.59844324 9.91759884 8.59844324 2.28237453 7.73747702 0 5.86571691 4.10762163 4.53572495 9.45684629 1.00464154 17.2156871 0.60329159 22.6896159 1.85873162 24.9371893 5.38945312"></polygon>
                        <path d="M22.6439394,10.0058824 C22.6439394,10.0058824 22.974452,7.88082164 22.9840017,6.81752068 C22.9907047,6.07118814 22.6926972,4.57698185 22.6926972,4.57698185" id="Path-17"></path>
                        <path d="M22.6439394,9.26470588 C22.6439394,9.26470588 21.6295552,6.55819476 20.7976666,5.28992992 C20.0861006,4.20510423 18.0135757,2.20543428 18.0135757,2.20543428" id="Path-18"></path>
                        <path d="M22.6439394,10.0058824 C22.6439394,10.0058824 20.5339778,7.99618867 19.6851178,6.75418773 C17.9589354,4.22854161 12.2645005,1.87972197 12.2645005,1.87972197" id="Path-19"></path>
                        <path d="M22.1590798,9.73970301 C22.1590798,9.73970301 18.9573235,7.0979412 17.1551477,5.71950827 C15.592247,4.52409009 7.54677143,3.95812845 7.54677143,3.95812845" id="Path-20"></path>
                        <path d="M22.1130408,9.54282801 C22.1130408,9.54282801 17.0357764,6.74357897 15.9896721,6.26417165 C14.6599646,5.654795 12.1223958,5.73289867 8.85108902,6.26417165 C5.5797822,6.79544462 1.82234701,6.26417165 1.82234701,6.26417165" id="Path-21"></path>
                    </g>
                </g>
            </g>
        </g>
    </g>
</svg>