<?xml version="1.0" encoding="UTF-8" standalone="no"?>
<svg width="49px" height="45px" viewBox="0 0 49 45" version="1.1" xmlns="http://www.w3.org/2000/svg" xmlns:xlink="http://www.w3.org/1999/xlink">
    <!-- Generator: Sketch 40.3 (33839) - http://www.bohemiancoding.com/sketch -->
    <title>leaves</title>
    <desc>Created with Sketch.</desc>
    <defs></defs>
    <g id="Page-1" stroke="none" stroke-width="1" fill="none" fill-rule="evenodd">
        <g id="greenhouse-copy-3" transform="translate(-16.000000, -330.000000)">
            <g id="leaves" transform="translate(16.000000, 330.000000)">
                <path d="M2.70139793,11.1262357 C6.90967701,8.82493622 7.54902705,5.62724211 7.54902705,5.62724211 C7.54902705,5.62724211 8.5324661,6.05909355 9.53398076,5.62724211 C13.4285663,3.94790338 15.9589392,1.36006258 15.9589392,1.36006258 C15.9589392,1.36006258 16.9168509,2.04074926 17.3638347,1.91960644 C20.2327906,1.14205388 23.1361565,0.699986049 25.7352792,0.699986049 C26.1226663,0.699986049 26.5788845,2.84217094e-14 26.5788845,2.84217094e-14 C26.5788845,2.84217094e-14 33.4501646,3.16452625 36.2140891,3.16452625 C37.1401635,3.16452625 38.376067,3.16452625 38.376067,3.16452625 C38.376067,3.16452625 40.1421441,6.73843072 44.8333695,10.4845444 C45.4514309,10.9780888 46.1165003,10.4845444 46.1165003,10.4845444 C46.1165003,10.4845444 46.2059381,14.4609633 47.3987449,17.9731844 C47.5411495,18.3924947 48.2042462,18.4453723 48.2042462,18.4453723 C48.2042462,18.4453723 47.6693697,19.7191772 47.3987449,23.6223992 C47.3772417,23.9325401 48.2042462,24.2748525 48.2042462,24.2748525 C48.2042462,24.2748525 47.3987449,29.1393296 46.943712,29.9110631 C46.671645,30.3724873 46.5715332,32.0271644 47.3987449,35.3311344 C47.5542506,35.9522403 46.1165003,36.1378448 46.1165003,36.1378448 C46.1165003,36.1378448 45.0348009,39.7199785 43.9622892,41.8108971 C42.8897774,43.9018156 42.4746812,44.9729462 42.4746812,44.9729462 L8.40569791,44.9729462 C8.40569791,44.9729462 7.87124973,44.037351 7.4766826,42.9657036 C6.55381102,40.459177 4.43792535,38.9310627 4.43792535,38.9310627 C4.43792535,38.9310627 4.65791327,38.0007524 4.43792535,36.9349302 C3.5638842,32.7002774 1.11121962,30.7442303 1.11121962,30.7442303 C1.11121962,30.7442303 1.74170826,29.6777128 1.74170826,29.1393296 C1.74170826,26.9568618 0,19.5435567 0,19.5435567 C0,19.5435567 1.71124141,19.7850606 1.74170826,18.9265286 C1.90796157,14.2416401 1.11121962,11.1262357 1.11121962,11.1262357 C1.11121962,11.1262357 1.85725328,11.5878566 2.70139793,11.1262357 Z" id="Rectangle-6" fill="#85A95E"></path>
                <path d="M11.1031399,8.65158824 L14.5185185,4.81335698 C14.5185185,4.81335698 12.5731834,7.53165847 11.1031399,11.1524285 C10.9615471,11.5011766 11.3814247,11.704463 11.239376,12.0714921 C9.70868958,16.0265208 8.21877774,20.9648247 8.21877774,25.2033477 C8.21877774,29.7268302 14.2782537,43.9777222 14.2782537,43.9777222 C14.2782537,43.9777222 10.7346291,37.0330043 9.33810861,34.9931183 C9.15543292,34.7262854 8.21877774,34.9931183 8.21877774,34.9931183 L8.21877774,33.1803715 C8.21877774,33.1803715 8.43614907,31.4676679 7.33797442,28.1207104 C7.1768623,27.6296816 6.84099804,26.9148148 6.75814801,26.463147 C6.59457302,25.5713965 6.79650039,24.6744483 6.75814801,23.866383 C6.7057154,22.7616542 7.26139127,21.8500433 7.26051956,20.1403316 C7.25954447,18.2278599 8.16850034,16.9023796 8.21877774,15.876143 C8.24845166,15.2704543 6.57867357,15.008566 6.75814801,14.2889238 C6.85561418,13.8981117 8.05160282,14.2251857 8.21877774,13.8263579 C8.81916771,12.3940124 8.86655024,13.0025643 9.33810861,11.675533 C9.63128115,10.8505043 9.478394,10.6462204 9.78092988,10.1607895 C10.141091,9.5828966 11.1031399,8.65158824 11.1031399,8.65158824 Z" id="Rectangle-7" fill="#59733D"></path>
                <path d="M32.0220587,5.01405231 L35.0474866,0.918367347 C35.0474866,0.918367347 29.9455353,11.7347505 29.9455353,21.034923 C29.9455353,25.8618232 35.0474866,43.2995855 35.0474866,43.2995855 C35.0474866,43.2995855 33.2591316,39.2051654 32.0220587,37.0284517 C31.86024,36.7437207 30.850812,35.9152515 30.850812,35.9152515 L30.850812,33.8125907 C30.850812,33.8125907 29.6595715,29.3605464 28.6867809,25.7890879 C28.5440637,25.2651227 27.3064766,25.0127307 27.233086,24.5307668 C27.0881871,23.5792011 28.7207544,22.9712436 28.6867809,22.1089764 C28.5883805,19.6115159 28.6024287,18.1686931 28.6867809,16.0946475 C28.7130668,15.4483315 27.074103,14.3536521 27.233086,13.5857391 C27.3194239,13.1687129 28.5386932,12.7984902 28.6867809,12.3729105 C29.2186214,10.8444888 30.7171362,8.66241017 31.1348544,7.24636666 C31.394554,6.36599828 30.5828181,6.0611212 30.850812,5.54312946 C31.1698517,4.92647378 32.0220587,5.01405231 32.0220587,5.01405231 Z" id="Rectangle-7" fill="#59733D" transform="translate(31.134854, 22.108976) scale(-1, 1) translate(-31.134854, -22.108976) "></path>
                <path d="M40.2948615,8.17651865 L43.3871889,3.67346939 C43.3871889,3.67346939 37.7770491,14.5013552 37.7770491,23.6685866 C37.7770491,26.5685842 39.2286215,33.6445504 41.2746311,38.4283821 C42.585422,41.4931787 44.8289388,43.390615 44.8289388,43.390615 C44.8289388,43.390615 41.559289,41.6824788 40.2948615,39.5368802 C40.1294646,39.2562193 39.0977156,36.719896 39.0977156,36.719896 L39.0977156,34.6472915 C39.0977156,34.6472915 37.9773995,32.1401072 36.8858325,29.6415617 C36.692932,29.2000215 35.5095436,28.7957235 35.3999929,28.3658024 C35.2502861,27.7782931 36.9924659,27.9877525 36.8858325,27.3994539 C36.5409063,25.4964887 37.2389833,23.8759176 36.8858325,22.625558 C36.7399596,22.1090827 35.4750063,21.8697153 35.3999929,21.3946409 C35.25189,20.4566773 36.9205573,20.7396797 36.8858325,19.8897381 C36.7852562,17.4279775 36.7996151,17.9427361 36.8858325,15.8983379 C36.9126997,15.2612606 35.2374944,15.4665084 35.3999929,14.7095723 C35.48824,14.2985073 37.6256867,14.1367117 37.7770491,13.7172154 C38.3206498,12.2106417 38.6707607,11.6592745 39.0977156,10.2634726 C39.3631578,9.39568861 38.8237958,9.48888371 39.0977156,8.9782964 C39.4238101,8.37045549 40.2948615,8.17651865 40.2948615,8.17651865 Z" id="Rectangle-7" fill="#59733D" transform="translate(40.108914, 23.532042) scale(-1, 1) translate(-40.108914, -23.532042) "></path>
                <path d="M20.3088272,5.72852274 L22.3205386,1.70041454 C22.3205386,1.70041454 21.5323837,4.31934424 20.3088272,8.34115779 C19.544029,10.8550388 18.1202347,13.7434054 18.1202347,17.4183785 C18.1202347,19.5423877 17.7071811,26.0335206 18.8958874,31.2394309 C20.4823962,38.1875082 23.6536255,43.8462982 23.6536255,43.8462982 C23.6536255,43.8462982 21.8011767,41.667627 20.3088272,39.4314227 C20.1136163,39.1389098 18.8958874,36.4954811 18.8958874,36.4954811 L18.8958874,34.3353534 C18.8958874,34.3353534 17.5736264,31.722294 16.2852968,29.1182384 C16.0576246,28.6580525 14.6609221,28.2366816 14.5316241,27.7886055 C14.3549316,27.1762865 16.4111516,27.3945911 16.2852968,26.7814495 C15.8781952,24.7981246 16.7021055,23.109119 16.2852968,21.8059585 C16.1131292,21.2676731 14.6201592,21.0181976 14.5316241,20.5230614 C14.3568246,19.5454889 16.3262809,19.840442 16.2852968,18.9546086 C16.1665909,16.3888912 16.1835381,16.9253873 16.2852968,14.794657 C16.3170069,14.1306768 14.3398341,14.344592 14.5316241,13.5556915 C14.6357783,13.1272677 17.1585149,12.9586397 17.3371614,12.5214287 C17.97875,10.9512344 18.3919708,10.3765837 18.8958874,8.92183902 C19.2091774,8.01740971 18.5725915,8.11454032 18.8958874,7.5823916 C19.2807626,6.9488824 20.3088272,5.72852274 20.3088272,5.72852274 Z" id="Rectangle-7" fill="#59733D"></path>
            </g>
        </g>
    </g>
</svg>