<?xml version="1.0" encoding="UTF-8" standalone="no"?>
<svg width="41px" height="59px" viewBox="0 0 41 59" version="1.1" xmlns="http://www.w3.org/2000/svg" xmlns:xlink="http://www.w3.org/1999/xlink">
    <!-- Generator: Sketch 40.3 (33839) - http://www.bohemiancoding.com/sketch -->
    <title>leaves</title>
    <desc>Created with Sketch.</desc>
    <defs></defs>
    <g id="Page-1" stroke="none" stroke-width="1" fill="none" fill-rule="evenodd">
        <g id="greenhouse-copy-3" transform="translate(-591.000000, -453.000000)">
            <g id="plant" transform="translate(583.000000, 453.000000)">
                <g id="leaves" transform="translate(8.000000, 0.000000)">
                    <g id="leaf" transform="translate(7.000000, 29.500000) scale(-1, 1) translate(-7.000000, -29.500000) ">
                        <path d="M4,1 C4,1 6.6295521,0.04296875 10.0898438,2.60351563 C13.5501354,5.1640625 13.1699219,14.1181641 13.1699219,20.4453125 L13.1699219,34.453125 C13.1699219,34.453125 10.0898438,44.2223307 10.0898438,47.8359375 C10.0898438,52.4046224 13.1699219,58.9326172 13.1699219,58.9326172 L10.0898438,58.9326172 L4,46.3144531 C4,46.3144531 10.0898437,31.891276 10.0898437,24.6796875 C10.0898437,16.7864583 4,1 4,1 Z" id="Rectangle-4" fill="#85A95E"></path>
                        <path d="M4.578125,5.07128906 L4.08813477,1.00720215 C4.08813477,1.00720215 10.0957031,17.0511475 10.0957031,24.6972656 C10.0957031,32.3433838 4.08813477,46.3837891 4.08813477,46.3837891 L10.0957031,58.9489136 L5.78417969,58.9489136 L0.28125,46.3837891 C0.28125,46.3837891 5.24619349,32.801399 5.78417969,27.6289063 C6.67848516,19.0305656 4.578125,5.07128906 4.578125,5.07128906 Z" id="Rectangle-5" fill="#B8E986"></path>
                    </g>
                    <g id="leaf" transform="translate(18.000000, 1.000000)">
                        <path d="M0,-1.70530257e-13 C0,-1.70530257e-13 1.97216408,2.44140625 4.56738281,5.00195312 C7.16260155,7.5625 11.6264648,18.359375 11.6264648,23.6796875 C11.6264648,29 13.7548828,42.7373047 13.7548828,42.7373047 L13.7548828,58 L4.56738281,58 L6.87744141,50.265625 C6.87744141,50.265625 4.56738281,30.891276 4.56738281,23.6796875 C4.56738281,15.7864583 0,-1.70530257e-13 0,-1.70530257e-13 Z" id="Rectangle-4" fill="#85A95E"></path>
                        <path d="M0.43359375,4.07128906 L0.0661010742,0.00720214844 C0.0661010742,0.00720214844 4.57177734,16.0511475 4.57177734,23.6972656 C4.57177734,31.3433838 7.04150391,50.1816406 7.04150391,50.1816406 L4.57177734,57.9380493 L1.46289062,57.9380493 L4.57177734,39.8251953 C4.57177734,39.8251953 0.93464512,31.801399 1.33813477,26.6289063 C2.00886387,18.0305656 0.43359375,4.07128906 0.43359375,4.07128906 Z" id="Rectangle-5" fill="#B8E986"></path>
                    </g>
                    <g id="leaf" transform="translate(27.000000, 1.000000)">
                        <path d="M2.33333333,0 C2.33333333,0 7.68245443,0 9.70095789,2.56054688 C11.7194613,5.12109375 13.0315755,10.4365234 13.0315755,16.7636719 C13.0315755,23.0908203 9.70095789,38.6953125 9.70095789,38.6953125 L13.0315755,58 L5.88574219,58 L2.33333333,45.3144531 C2.33333333,45.3144531 5.88574219,30.891276 5.88574219,23.6796875 C5.88574219,15.7864583 2.33333333,0 2.33333333,0 Z" id="Rectangle-4" fill="#85A95E"></path>
                        <path d="M2.67057292,4.07128906 L2.38474528,0.00720214844 C2.38474528,0.00720214844 5.88916016,16.0511475 5.88916016,23.6972656 C5.88916016,31.3433838 2.38474528,45.3837891 2.38474528,45.3837891 L5.88916016,57.9428101 L0.1640625,45.3837891 C0.1640625,45.3837891 3.06027954,31.801399 3.37410482,26.6289063 C3.89578301,18.0305656 2.67057292,4.07128906 2.67057292,4.07128906 Z" id="Rectangle-5" fill="#B8E986"></path>
                    </g>
                    <g id="leaf" transform="translate(9.000000, 0.000000)">
                        <path d="M-2.7533531e-14,1 C-2.7533531e-14,1 0.455991021,0.161621094 3.44442472,2.72216797 C6.43285841,5.28271484 10.9079117,22.2441406 7.91947798,28.375 C4.93104429,34.5058594 6.75221946,49.0219727 6.75221946,49.0219727 L15.838956,59 L5.25941051,59 L-2.7533531e-14,46.3144531 C-2.7533531e-14,46.3144531 5.25941051,31.891276 5.25941051,24.6796875 C5.25941051,16.7864583 -2.7533531e-14,1 -2.7533531e-14,1 Z" id="Rectangle-4" fill="#85A95E"></path>
                        <path d="M0.499289773,5.07128906 L0.0761163885,1.00720215 C0.0761163885,1.00720215 5.75701349,18.7888184 5.26447088,24.6972656 C4.77192827,30.6057129 4.46788441,30.2126465 4.46788441,30.2126465 C4.46788441,30.2126465 1.57301761,22.9322583 2.03764205,17.7597656 C2.80999677,9.16142501 0.499289773,5.07128906 0.499289773,5.07128906 Z" id="Rectangle-5" fill="#B8E986"></path>
                        <path d="M6.62697532,48.8903809 C6.62697532,48.8903809 6.17575906,44.0992239 6.17575906,40.307373 C6.17575906,36.5155222 6.62697532,32.7385254 6.62697532,32.7385254 C6.62697532,32.7385254 5.93539151,44.1027832 12.0234375,49.8305664 C15.9618317,53.5359044 18.187561,58.9185791 18.187561,58.9185791 L15.7039185,58.9185791 L6.62697532,48.8903809 Z" id="Rectangle-5" fill="#B8E986"></path>
                    </g>
                </g>
            </g>
        </g>
    </g>
</svg>