<?xml version="1.0" encoding="UTF-8" standalone="no"?>
<svg width="56px" height="96px" viewBox="0 0 56 96" version="1.1" xmlns="http://www.w3.org/2000/svg" xmlns:xlink="http://www.w3.org/1999/xlink">
    <!-- Generator: Sketch 40.3 (33839) - http://www.bohemiancoding.com/sketch -->
    <title>plant</title>
    <desc>Created with Sketch.</desc>
    <defs></defs>
    <g id="Page-1" stroke="none" stroke-width="1" fill="none" fill-rule="evenodd">
        <g id="greenhouse-copy" transform="translate(-33.000000, -260.000000)">
            <g id="plant" transform="translate(33.000000, 260.000000)">
                <g id="leaves">
                    <path d="M3.22998047,12.3110352 C7.86767578,9.80517578 8.57226563,6.32324219 8.57226563,6.32324219 C8.57226563,6.32324219 9.65605559,6.79348042 10.7597656,6.32324219 C15.0517578,4.49462891 17.840332,1.67675781 17.840332,1.67675781 C17.840332,1.67675781 18.8959898,2.41794998 19.3885843,2.2860389 C22.5502908,1.43937056 25.7499185,0.958007812 28.6142578,0.958007812 C29.0411742,0.958007812 29.5439453,0.195800781 29.5439453,0.195800781 C29.5439453,0.195800781 37.1163764,3.64161826 40.162334,3.64161826 C41.1829058,3.64161826 42.5449219,3.64161826 42.5449219,3.64161826 C42.5449219,3.64161826 44.4912109,7.53320312 49.6611328,11.6123047 C50.3422617,12.1497198 51.0751953,11.6123047 51.0751953,11.6123047 C51.0751953,11.6123047 51.1737594,15.942183 52.4882813,19.7666016 C52.6452169,20.2231839 53.3759766,20.2807617 53.3759766,20.2807617 C53.3759766,20.2807617 52.7865208,21.6677938 52.4882813,25.9179687 C52.4645838,26.2556778 53.3759766,26.628418 53.3759766,26.628418 C53.3759766,26.628418 52.4882813,31.925293 51.9868164,32.765625 C51.6869875,33.2680648 51.5766602,35.0698242 52.4882813,38.6674805 C52.6596549,39.3437958 51.0751953,39.5458984 51.0751953,39.5458984 C51.0751953,39.5458984 50.2143555,42.5874023 48.7011667,45.723222 C47.187978,48.8590417 46.7348633,48 46.7348633,48 L9.26953125,48 C9.26953125,48 8.92736816,48.147583 8.49253909,46.980678 C7.47549694,44.251349 5.14370457,42.5874023 5.14370457,42.5874023 C5.14370457,42.5874023 5.38614023,41.5743979 5.14370457,40.4138359 C4.18047554,35.8027695 1.47753906,33.6728516 1.47753906,33.6728516 C1.47753906,33.6728516 2.17236328,32.5115325 2.17236328,31.925293 C2.17236328,29.5488281 0.252929688,21.4765625 0.252929688,21.4765625 C0.252929688,21.4765625 2.13878757,21.7395334 2.17236328,20.8046875 C2.35558121,15.7033644 1.47753906,12.3110352 1.47753906,12.3110352 C1.47753906,12.3110352 2.2996986,12.813689 3.22998047,12.3110352 Z" id="Rectangle-6" fill="#85A95E"></path>
                    <path d="M12.2361133,9.42061831 L16,5.24121094 C16,5.24121094 13.8561613,8.20113922 12.2361133,12.1437554 C12.0800723,12.5235035 12.5427946,12.7448597 12.3862511,13.1445136 C10.6993722,17.4511004 9.05742853,22.8283647 9.05742853,27.4436453 C9.05742853,32.3692151 16,48.4887695 16,48.4887695 C16,48.4887695 11.8299995,40.3248269 10.2909768,38.1036177 C10.0896608,37.8130663 9.05742853,38.1036177 9.05742853,38.1036177 L9.05742853,36.1297378 C9.05742853,36.1297378 9.29698061,34.264794 8.08674732,30.6203291 C7.90919519,30.0856533 7.53905907,29.3072428 7.44775495,28.8154268 C7.26748863,27.8444096 7.49002083,26.8677326 7.44775495,25.9878393 C7.38997207,24.7849123 8.00234957,23.7922694 8.0013889,21.9305833 C8.00031431,19.8481142 9.00202078,18.4048133 9.05742853,17.2873558 C9.0901304,16.627828 7.24996679,16.3426608 7.44775495,15.5590503 C7.55516665,15.1334994 8.87319494,15.4896467 9.05742853,15.0553675 C9.71908278,13.4957024 9.77130026,14.1583478 10.2909768,12.7133581 C10.6140649,11.8149936 10.4455771,11.5925511 10.778984,11.0639708 C11.1758962,10.4347096 12.2361133,9.42061831 12.2361133,9.42061831 Z" id="Rectangle-7" fill="#59733D"></path>
                    <path d="M35.2896157,5.45974585 L38.6237608,1 C38.6237608,1 33.0012022,12.7778394 33.0012022,22.9046939 C33.0012022,28.1606519 38.6237608,47.1484375 38.6237608,47.1484375 C38.6237608,47.1484375 36.6529205,42.690069 35.2896157,40.3198696 C35.1112849,40.0098292 33.998854,39.1077183 33.998854,39.1077183 L33.998854,36.8181543 C33.998854,36.8181543 32.6860584,31.9703727 31.6140034,28.0814512 C31.4567233,27.5109114 30.0928518,27.2360845 30.0119723,26.7112794 C29.8522879,25.6751301 31.6514436,25.0131319 31.6140034,24.0742188 C31.5055621,21.3547617 31.5210439,19.7836881 31.6140034,17.5252828 C31.6429716,16.8215165 29.8367666,15.6295323 30.0119723,14.7933603 C30.1071203,14.3392651 31.4508047,13.9361337 31.6140034,13.4727247 C32.2001133,11.8084433 33.8515379,9.43240219 34.3118804,7.89048814 C34.5980799,6.93186479 33.7035139,6.59988753 33.998854,6.03585208 C34.3504488,5.36438256 35.2896157,5.45974585 35.2896157,5.45974585 Z" id="Rectangle-7" fill="#59733D" transform="translate(34.311880, 24.074219) scale(-1, 1) translate(-34.311880, -24.074219) "></path>
                    <path d="M44.406582,8.90332031 L47.8144531,4 C47.8144531,4 41.63185,15.7903646 41.63185,25.7724609 C41.63185,28.9302361 43.2315421,36.6351772 45.4863281,41.8442383 C46.9308733,45.1814613 49.4033203,47.2475586 49.4033203,47.2475586 C49.4033203,47.2475586 45.8000328,45.3875881 44.406582,43.0512695 C44.2243079,42.745661 43.0872784,39.9838867 43.0872784,39.9838867 L43.0872784,37.7270508 C43.0872784,37.7270508 41.8526443,34.9970056 40.649693,32.2763672 C40.4371087,31.7955789 39.1329664,31.3553434 39.012237,30.887207 C38.8472541,30.2474747 40.7672073,30.4755527 40.649693,29.8349609 C40.2695702,27.7628432 41.0388796,25.9982214 40.649693,24.6367187 C40.488935,24.0743345 39.0949049,23.81369 39.012237,23.2963867 C38.8490216,22.2750487 40.6879611,22.5832068 40.649693,21.6577148 C40.5388538,18.977131 40.5546779,19.5376459 40.649693,17.3115234 C40.6793017,16.6178171 38.8331571,16.8413092 39.012237,16.0170898 C39.109489,15.5694857 41.4650425,15.3933082 41.63185,14.9365234 C42.2309202,13.2960321 42.6167566,12.6956544 43.0872784,11.1757812 C43.3798066,10.2308609 42.7854076,10.33234 43.0872784,9.77636719 C43.4466478,9.11449597 44.406582,8.90332031 44.406582,8.90332031 Z" id="Rectangle-7" fill="#59733D" transform="translate(44.201660, 25.623779) scale(-1, 1) translate(-44.201660, -25.623779) "></path>
                    <path d="M22.3811565,6.23772476 L24.5981445,1.8515625 C24.5981445,1.8515625 23.7295657,4.70328596 22.3811565,9.08259404 C21.5383177,11.8199312 19.9692383,14.9650414 19.9692383,18.9666788 C19.9692383,21.2794888 19.5140364,28.3476114 20.8240391,34.0162692 C22.5724367,41.5819534 26.4033203,48 26.4033203,48 C26.4033203,48 24.0257865,45.3714161 22.3811565,42.936438 C22.1660261,42.6179241 20.8240391,39.7395238 20.8240391,39.7395238 L20.8240391,37.3873848 C20.8240391,37.3873848 19.3668535,34.5420535 17.9470617,31.7065263 C17.6961577,31.205435 16.1569346,30.7466089 16.0144428,30.2587038 C15.8197206,29.5919564 18.0857589,29.8296659 17.9470617,29.1620228 C17.4984192,27.0024024 18.4064019,25.1632629 17.9470617,23.7442659 C17.757326,23.1581329 16.1120122,22.8864818 16.0144428,22.3473335 C15.8218067,21.2828657 17.9922279,21.6040369 17.9470617,20.6394627 C17.816243,17.8456815 17.8349195,18.4298662 17.9470617,16.1097376 C17.9820076,15.386737 15.8030825,15.6196668 16.0144428,14.7606418 C16.1292251,14.294136 18.9093838,14.1105188 19.1062595,13.6344446 C19.8133163,11.9246775 20.2687025,11.2989467 20.8240391,9.71489137 C21.1692975,8.73006835 20.4677539,8.8358328 20.8240391,8.25638196 C21.2481874,7.56656083 22.3811565,6.23772476 22.3811565,6.23772476 Z" id="Rectangle-7" fill="#59733D"></path>
                </g>
                <g id="pot" transform="translate(0.000000, 48.000000)">
                    <polygon id="Rectangle" fill="#D99264" points="0.691358025 0 55.308642 0 55.308642 9.38994565 53.1589506 10.0855978 44.7037037 48 10.6049383 48 3.09085648 10.0855978 0.691358025 9.38994565"></polygon>
                    <polygon id="Rectangle" fill="#BC7A4E" points="0.691358025 0 10.9372559 0.056640625 10.9919434 10.0512695 11.9667969 10.1181641 19.5092773 48 10.6049383 48 3.09085648 10.0855978 0.691358025 9.38994565"></polygon>
                    <polygon id="Rectangle-3" fill="#9C6744" points="0.661820023 9.34629755 55.3511767 9.34629755 53.1744792 10.0835598 3.14419367 10.0835598"></polygon>
                </g>
            </g>
        </g>
    </g>
</svg>