<?xml version="1.0" encoding="UTF-8" standalone="no"?>
<svg width="66px" height="38px" viewBox="0 0 66 38" version="1.1" xmlns="http://www.w3.org/2000/svg" xmlns:xlink="http://www.w3.org/1999/xlink">
    <!-- Generator: Sketch 40.3 (33839) - http://www.bohemiancoding.com/sketch -->
    <title>leaves</title>
    <desc>Created with Sketch.</desc>
    <defs></defs>
    <g id="Page-1" stroke="none" stroke-width="1" fill="none" fill-rule="evenodd">
        <g id="greenhouse-copy" transform="translate(-230.000000, -270.000000)" stroke="#BD0FE1">
            <g id="plant" transform="translate(230.000000, 271.000000)">
                <g id="leaves">
                    <g id="leaf" transform="translate(44.000000, 20.500000) scale(-1, 1) translate(-44.000000, -20.500000) translate(29.000000, 4.000000)">
                        <polygon id="Path-16" fill="#611025" points="27.4846191 32.4248047 24.5061035 32.4248047 19.1884766 30.6010742 7.46875 19.043457 1.34521484 7.81884766 0.33984375 0.483398438 7.46875 2.52832031 16.4658203 7.81884766 22.1347656 12.7949219 28.5136719 19.8139648 29.5888672 26.2714844"></polygon>
                        <path d="M26.7666016,32.0805664 C26.7666016,32.0805664 25.8417969,23.1254883 22.8569336,18.527832 C19.8720703,13.9301758 15.5161133,9.37988281 15.5161133,9.37988281" id="Path-18"></path>
                        <path d="M26.5,32.5 C26.5,32.5 22.9724641,26.3861648 21.8291016,24.7104492 C19.5040396,21.3028314 2.47021484,2.41064453 2.47021484,2.41064453" id="Path-19"></path>
                        <path d="M25.8469238,32.1408691 C25.8469238,32.1408691 20.5773229,25.9335209 18.1499023,24.0737305 C16.0447708,22.4608647 3.53271484,8.33447266 3.53271484,8.33447266" id="Path-20"></path>
                    </g>
                    <g id="leaf" transform="translate(11.000000, 0.000000)">
                        <polygon id="Path-16" fill="#611025" points="17.4846191 33.4248047 14.5061035 33.4248047 8.72314453 28.8168945 2.90185547 18.2485352 0.325195312 9.04150391 1.56835938 0.0458984375 6.86352539 2.05810547 13.8310547 7.42480469 17.9980469 12.9702148 22.3818359 23.7993164 21.8178711 30.5444336"></polygon>
                        <path d="M20.121582,31.3305664 C20.121582,31.3305664 18.890625,20.7294922 15.9057617,16.1318359 C12.9208984,11.5341797 10,8 10,8" id="Path-18"></path>
                        <path d="M19.0297852,32.0893555 C19.0297852,32.0893555 15.5022492,25.9755202 14.3588867,24.2998047 C12.0338248,20.8921869 2.76269531,1.87451172 2.76269531,1.87451172" id="Path-19"></path>
                        <path d="M18.1474609,32.9526367 C18.1474609,32.9526367 12.5688477,28.5737305 9.07727051,23.8266602 C5.58569336,19.0795898 2.30761719,9.27392578 2.30761719,9.27392578" id="Path-20"></path>
                    </g>
                    <g id="leaf" transform="translate(0.000000, 17.000000)">
                        <polygon id="Path-16" fill="#611025" points="31.4846191 19.4248047 28.5061035 19.4248047 23.1162109 14.8134766 14.4560547 12.4697266 6.30664062 11.9482422 0 13.9140625 5.45898438 9.17089844 13.3583984 4.84082031 18.4492187 0 25.2001953 1.73632812 28.9990234 4.51367187 30.5615234 8.5078125 33.5888672 13.2714844"></polygon>
                        <path d="M30.5,19.5 L31.0224609,10.8261719" id="Path-17"></path>
                        <path d="M30.5,18.5 L27.1923828,6.41308594" id="Path-18"></path>
                        <path d="M30.5,19.5 C30.5,19.5 28.4275422,15.1425124 27.2841797,13.4667969 C24.9591177,10.0591791 18.848877,2.63110352 18.848877,2.63110352" id="Path-19"></path>
                        <path d="M29.8469238,19.1408691 C29.8469238,19.1408691 23.843192,11.4645268 21.4157715,9.60473633 C19.3106399,7.99187053 14.5273438,5.30249023 14.5273438,5.30249023" id="Path-20"></path>
                        <path d="M29.7849121,18.8752441 C29.7849121,18.8752441 25.2647514,13.57138 23.8557129,12.9245605 C22.0646782,12.1023857 17.8795936,9.59761055 15.7407227,9.08837891 C11.411275,8.0576053 7.65771484,9.77758789 7.65771484,9.77758789" id="Path-21"></path>
                    </g>
                    <g id="leaf" transform="translate(49.000000, 30.000000) scale(-1, 1) translate(-49.000000, -30.000000) translate(32.000000, 23.000000)">
                        <polygon id="Path-16" fill="#611025" points="31.4846191 13.4248047 28.5061035 13.4248047 23.1884766 11.6010742 13.3583984 11.6010742 3.07421875 10.4394531 0 7.9140625 5.53271484 6.11962891 12.737793 1.35546875 23.1884766 0.813964844 30.5615234 2.5078125 33.5888672 7.27148437"></polygon>
                        <path d="M30.5,13.5 C30.5,13.5 30.9451803,10.6328546 30.9580431,9.19824219 C30.9670716,8.19128558 30.5656738,6.17529297 30.5656738,6.17529297" id="Path-17"></path>
                        <path d="M30.5,12.5 C30.5,12.5 29.1336866,8.84835801 28.0131836,7.13720703 C27.0547478,5.67355332 24.2631836,2.97558594 24.2631836,2.97558594" id="Path-18"></path>
                        <path d="M30.5,13.5 C30.5,13.5 27.658011,10.7885085 26.5146484,9.11279297 C24.1895865,5.70517519 16.5195312,2.53613281 16.5195312,2.53613281" id="Path-19"></path>
                        <path d="M29.8469238,13.1408691 C29.8469238,13.1408691 25.5343541,9.57658733 23.1069336,7.71679688 C21.001802,6.10393108 10.1650391,5.34033203 10.1650391,5.34033203" id="Path-20"></path>
                        <path d="M29.7849121,12.8752441 C29.7849121,12.8752441 22.9461479,9.09847957 21.5371094,8.45166016 C19.7460747,7.62948532 16.328125,7.73486328 11.921875,8.45166016 C7.515625,9.16845703 2.45458984,8.45166016 2.45458984,8.45166016" id="Path-21"></path>
                    </g>
                </g>
            </g>
        </g>
    </g>
</svg>