<?xml version="1.0" encoding="UTF-8" standalone="no"?>
<svg width="45px" height="52px" viewBox="0 0 45 52" version="1.1" xmlns="http://www.w3.org/2000/svg" xmlns:xlink="http://www.w3.org/1999/xlink">
    <!-- Generator: Sketch 40.3 (33839) - http://www.bohemiancoding.com/sketch -->
    <title>leaves</title>
    <desc>Created with Sketch.</desc>
    <defs></defs>
    <g id="Page-1" stroke="none" stroke-width="1" fill="none" fill-rule="evenodd">
        <g id="greenhouse-copy" transform="translate(-539.000000, -445.000000)">
            <g id="leaves" transform="translate(539.000000, 445.000000)">
                <path d="M4.41293921,50.1311035 L42.2788574,50.1311035 L40.8480379,45.5595359 C40.8480379,45.5595359 42.1785222,44.8611666 42.2788574,44.129198 C42.3658136,43.4948317 41.4099121,41.4605313 41.4099121,41.4605313 L43.6184082,38.5842871 L40.8480379,36.4507808 L42.7888184,33.3092268 L41.4099121,30.0295041 L42.2788574,25.9314725 L40.8480379,22.832407 L42.2788574,19.7648024 L40.8480379,16.5129729 L40.8480379,12.8984375 L39.1174316,10.2934355 L36.4992676,5.61094378 L32.376709,3.11839346 L21.5148926,2.13110352 C21.5148926,2.13110352 15.2968762,3.09811661 12.4560547,4.13617132 C11.0691744,4.64294644 8.39697266,6.18188477 8.39697266,6.18188477 L6.49143735,9.80206093 L4.82144241,12.065918 L5.38354492,16.5129729 L5.38354492,20.1423338 L4.41293921,21.5009926 L3.24881093,26.1335361 L4.41293921,28.9241545 L2.33020788,32.6287622 L4.41293921,36.4507808 L2.1862793,40.1553884 L4.41293921,43.0750941 L4.82144241,46.0739386 L4.41293921,50.1311035 Z" id="Path-15" fill="#59733D"></path>
                <polygon id="Path-14" fill="#85A95E" points="9.765625 50.076416 9.0090332 47.8740193 9.30786133 45.8803779 8.04907227 43.4782776 9.17749023 39.1594756 7.1862793 36.8020682 9.35620117 31.3263431 7.3269043 29.3145983 10.3547363 26.0961459 9.48657227 23.2233562 11.4396973 19.3571402 9.2746582 17.3012682 11.1848145 13.0384736 10.5755615 10.6259766 11.4396973 8.72900391 10.7819824 6.92504883 12.5944824 4.6940918 14.4772949 3.91796875 15.1125488 5.64135742 13.1101074 7.49975586 13.9648438 9.59204102 12.5944824 12 12.2263184 15.6035049 13.9648438 18.8686301 12.7961426 22.1733566 13.1101074 25.5454053 13.1101074 28.7754552 10.9450684 30.1897865 11.9001465 32.2960086 10.7819824 35.4901344 11.7800293 38.5456558 10.6516113 41.9536285 11.8234863 45.0091498 11.3029785 46.8698441 12.5944824 50.076416"></polygon>
                <path d="M22.3547363,49.7897949 L21.0090332,47.7846671 L21.3078613,45.8235738 L20.0490723,43.4606901 L21.1774902,39.2123965 L19.1862793,36.893476 L21.3562012,31.5071474 L20.0490723,28.5732983 L22.3547363,26.3623381 L21.4865723,23.5364494 L22.7819824,20.6899703 L21.1774902,18.6075608 L22.1481934,14.9018513 C22.1481934,14.9018513 19.7099407,12.7227755 20.0490723,12.3481606 C20.2765092,12.096927 21.4865723,9 21.4865723,9 L20.7561035,6.61425781 L21.0090332,4.09692383 L23.3029785,2.95703125 L23.973877,5.13842773 L23.3029785,7.15942383 L23.973877,10.3506168 L22.6369629,12.3481606 L24.2263184,14.5338002 L23.3029785,17.9036642 L25.4714355,22.3166093 L24.2263184,24.4711564 L25.4714355,29.5282462 L23.973877,31.5071474 L24.5944824,33.2551026 L23.3029785,35.6730794 L24.4538574,39.2123965 L23.3029785,42.3655051 L25.4714355,44.8764169 L24.2263184,47.1641736 L25.9567871,49.7897949 L22.3547363,49.7897949 Z" id="Path-14" fill="#85A95E"></path>
                <path d="M32.0578613,50.076416 L33.0187988,47.8587171 L31.6132812,45.7883702 L33.2141113,43.108209 L31.3068848,41.1997901 L32.3703613,38.9645998 L30.6557617,36.685151 L33.3034668,33.7431487 L31.5483398,32.258764 L33.1325684,29.5051919 L31.6618652,28.0502245 L32.5058594,25.6793433 L30.9458008,25.0695291 L32.1777344,22.2982006 L30.8181152,20.1777646 L32.3781738,18.7463841 L30.1862793,16.0577423 L31.9250488,14.008332 L31.1245117,12 L31.5483398,8.77246094 L31.1245117,5.00927734 L32.1777344,3.62988281 C32.1777344,3.62988281 33.9710432,7.05370799 34.0683594,7.0847168 C34.5562019,7.24016284 34.0683594,9.57543945 34.0683594,9.57543945 L33.3034668,12 L35.21875,13.6783804 L33.1135254,16.3349546 L35.0615234,17.0886754 L34.0683594,19.9130082 L35.7150879,22.4781501 L34.8305664,25.0960312 L35.782959,27.0251218 L34.7028809,29.5014816 L36.6318359,32.346486 L35.2211914,35.1292105 L36.0458984,36.9639534 L34.5944824,37.9922364 L36.675293,40.0389965 L35.440918,42.2922082 L36.8515625,44.645068 L35.1396484,45.6110709 L36.159668,47.7285917 L35.7150879,50.076416 L32.0578613,50.076416 Z" id="Path-22" fill="#85A95E"></path>
                <polygon id="Path-23" fill="#FEF1BC" points="11.4433594 15.8989258 9.85644531 18.0681152 12.0931396 16.2055664 14.262207 18.2060547 12.420166 15.6030273 15 14.6520996 12.420166 15.0783691 12.4851074 13 11.7620594 15.0783691 9.1862793 15.0783691"></polygon>
                <polygon id="Path-23" fill="#FEF1BC" points="10.4433594 18.8989258 8.85644531 21.0681152 11.0931396 19.2055664 13.262207 21.2060547 11.420166 18.6030273 14 17.6520996 11.420166 18.0783691 11.4851074 16 10.7620594 18.0783691 8.1862793 18.0783691"></polygon>
                <polygon id="Path-23" fill="#FEF1BC" points="11.4433594 22.8989258 9.85644531 25.0681152 12.0931396 23.2055664 14.262207 25.2060547 12.420166 22.6030273 15 21.6520996 12.420166 22.0783691 12.4851074 20 11.7620594 22.0783691 9.1862793 22.0783691"></polygon>
                <polygon id="Path-23" fill="#FEF1BC" points="9.44335938 26.8989258 7.85644531 29.0681152 10.0931396 27.2055664 12.262207 29.2060547 10.420166 26.6030273 13 25.6520996 10.420166 26.0783691 10.4851074 24 9.76205939 26.0783691 7.1862793 26.0783691"></polygon>
                <polygon id="Path-23" fill="#FEF1BC" points="9.44335938 31.8989258 7.85644531 34.0681152 10.0931396 32.2055664 12.262207 34.2060547 10.420166 31.6030273 13 30.6520996 10.420166 31.0783691 10.4851074 29 9.76205939 31.0783691 7.1862793 31.0783691"></polygon>
                <polygon id="Path-23" fill="#FEF1BC" points="7.44335938 36.8989258 5.85644531 39.0681152 8.09313965 37.2055664 10.262207 39.2060547 8.42016602 36.6030273 11 35.6520996 8.42016602 36.0783691 8.48510742 34 7.76205939 36.0783691 5.1862793 36.0783691"></polygon>
                <polygon id="Path-23" fill="#FEF1BC" points="7.44335938 41.8989258 5.85644531 44.0681152 8.09313965 42.2055664 10.262207 44.2060547 8.42016602 41.6030273 11 40.6520996 8.42016602 41.0783691 8.48510742 39 7.76205939 41.0783691 5.1862793 41.0783691"></polygon>
                <polygon id="Path-23" fill="#FEF1BC" points="8.44335938 46.8989258 6.85644531 49.0681152 9.09313965 47.2055664 11.262207 49.2060547 9.42016602 46.6030273 12 45.6520996 9.42016602 46.0783691 9.48510742 44 8.76205939 46.0783691 6.1862793 46.0783691"></polygon>
                <polygon id="Path-23" fill="#FEF1BC" points="5.44335938 25.8989258 3.85644531 28.0681152 6.09313965 26.2055664 8.26220703 28.2060547 6.42016602 25.6030273 9 24.6520996 6.42016602 25.0783691 6.48510742 23 5.76205939 25.0783691 3.1862793 25.0783691"></polygon>
                <polygon id="Path-23" fill="#FEF1BC" points="11.4433594 15.8989258 9.85644531 18.0681152 12.0931396 16.2055664 14.262207 18.2060547 12.420166 15.6030273 15 14.6520996 12.420166 15.0783691 12.4851074 13 11.7620594 15.0783691 9.1862793 15.0783691"></polygon>
                <polygon id="Path-23" fill="#FEF1BC" points="5.44335938 20.8989258 3.85644531 23.0681152 6.09313965 21.2055664 8.26220703 23.2060547 6.42016602 20.6030273 9 19.6520996 6.42016602 20.0783691 6.48510742 18 5.76205939 20.0783691 3.1862793 20.0783691"></polygon>
                <polygon id="Path-23" fill="#FEF1BC" points="3.44335938 31.8989258 1.85644531 34.0681152 4.09313965 32.2055664 6.26220703 34.2060547 4.42016602 31.6030273 7 30.6520996 4.42016602 31.0783691 4.48510742 29 3.76205939 31.0783691 1.1862793 31.0783691"></polygon>
                <polygon id="Path-23" fill="#FEF1BC" points="2.44335938 43.8989258 0.856445312 46.0681152 3.09313965 44.2055664 5.26220703 46.2060547 3.42016602 43.6030273 6 42.6520996 3.42016602 43.0783691 3.48510742 41 2.76205939 43.0783691 0.186279297 43.0783691"></polygon>
                <polygon id="Path-23" fill="#FEF1BC" points="20.4433594 15.8989258 18.8564453 18.0681152 21.0931396 16.2055664 23.262207 18.2060547 21.420166 15.6030273 24 14.6520996 21.420166 15.0783691 21.4851074 13 20.7620594 15.0783691 18.1862793 15.0783691"></polygon>
                <polygon id="Path-23" fill="#FEF1BC" points="21.4433594 19.8989258 19.8564453 22.0681152 22.0931396 20.2055664 24.262207 22.2060547 22.420166 19.6030273 25 18.6520996 22.420166 19.0783691 22.4851074 17 21.7620594 19.0783691 19.1862793 19.0783691"></polygon>
                <polygon id="Path-23" fill="#FEF1BC" points="21.4433594 21.8989258 19.8564453 24.0681152 22.0931396 22.2055664 24.262207 24.2060547 22.420166 21.6030273 25 20.6520996 22.420166 21.0783691 22.4851074 19 21.7620594 21.0783691 19.1862793 21.0783691"></polygon>
                <polygon id="Path-23" fill="#FEF1BC" points="22.4433594 26.8989258 20.8564453 29.0681152 23.0931396 27.2055664 25.262207 29.2060547 23.420166 26.6030273 26 25.6520996 23.420166 26.0783691 23.4851074 24 22.7620594 26.0783691 20.1862793 26.0783691"></polygon>
                <polygon id="Path-23" fill="#FEF1BC" points="20.4433594 30.8989258 18.8564453 33.0681152 21.0931396 31.2055664 23.262207 33.2060547 21.420166 30.6030273 24 29.6520996 21.420166 30.0783691 21.4851074 28 20.7620594 30.0783691 18.1862793 30.0783691"></polygon>
                <polygon id="Path-23" fill="#FEF1BC" points="21.4433594 33.8989258 19.8564453 36.0681152 22.0931396 34.2055664 24.262207 36.2060547 22.420166 33.6030273 25 32.6520996 22.420166 33.0783691 22.4851074 31 21.7620594 33.0783691 19.1862793 33.0783691"></polygon>
                <polygon id="Path-23" fill="#FEF1BC" points="20.4433594 37.8989258 18.8564453 40.0681152 21.0931396 38.2055664 23.262207 40.2060547 21.420166 37.6030273 24 36.6520996 21.420166 37.0783691 21.4851074 35 20.7620594 37.0783691 18.1862793 37.0783691"></polygon>
                <polygon id="Path-23" fill="#FEF1BC" points="21.4433594 41.8989258 19.8564453 44.0681152 22.0931396 42.2055664 24.262207 44.2060547 22.420166 41.6030273 25 40.6520996 22.420166 41.0783691 22.4851074 39 21.7620594 41.0783691 19.1862793 41.0783691"></polygon>
                <polygon id="Path-23" fill="#FEF1BC" points="20.4433594 44.8989258 18.8564453 47.0681152 21.0931396 45.2055664 23.262207 47.2060547 21.420166 44.6030273 24 43.6520996 21.420166 44.0783691 21.4851074 42 20.7620594 44.0783691 18.1862793 44.0783691"></polygon>
                <polygon id="Path-23" fill="#FEF1BC" points="31.4433594 15.8989258 29.8564453 18.0681152 32.0931396 16.2055664 34.262207 18.2060547 32.420166 15.6030273 35 14.6520996 32.420166 15.0783691 32.4851074 13 31.7620594 15.0783691 29.1862793 15.0783691"></polygon>
                <polygon id="Path-23" fill="#FEF1BC" points="31.4433594 18.8989258 29.8564453 21.0681152 32.0931396 19.2055664 34.262207 21.2060547 32.420166 18.6030273 35 17.6520996 32.420166 18.0783691 32.4851074 16 31.7620594 18.0783691 29.1862793 18.0783691"></polygon>
                <polygon id="Path-23" fill="#FEF1BC" points="32.4433594 23.8989258 30.8564453 26.0681152 33.0931396 24.2055664 35.262207 26.2060547 33.420166 23.6030273 36 22.6520996 33.420166 23.0783691 33.4851074 21 32.7620594 23.0783691 30.1862793 23.0783691"></polygon>
                <polygon id="Path-23" fill="#FEF1BC" points="34.4433594 26.8989258 32.8564453 29.0681152 35.0931396 27.2055664 37.262207 29.2060547 35.420166 26.6030273 38 25.6520996 35.420166 26.0783691 35.4851074 24 34.7620594 26.0783691 32.1862793 26.0783691"></polygon>
                <polygon id="Path-23" fill="#FEF1BC" points="34.4433594 30.8989258 32.8564453 33.0681152 35.0931396 31.2055664 37.262207 33.2060547 35.420166 30.6030273 38 29.6520996 35.420166 30.0783691 35.4851074 28 34.7620594 30.0783691 32.1862793 30.0783691"></polygon>
                <polygon id="Path-23" fill="#FEF1BC" points="35.4433594 32.8989258 33.8564453 35.0681152 36.0931396 33.2055664 38.262207 35.2060547 36.420166 32.6030273 39 31.6520996 36.420166 32.0783691 36.4851074 30 35.7620594 32.0783691 33.1862793 32.0783691"></polygon>
                <polygon id="Path-23" fill="#FEF1BC" points="35.4433594 34.8989258 33.8564453 37.0681152 36.0931396 35.2055664 38.262207 37.2060547 36.420166 34.6030273 39 33.6520996 36.420166 34.0783691 36.4851074 32 35.7620594 34.0783691 33.1862793 34.0783691"></polygon>
                <polygon id="Path-23" fill="#FEF1BC" points="34.4433594 38.8989258 32.8564453 41.0681152 35.0931396 39.2055664 37.262207 41.2060547 35.420166 38.6030273 38 37.6520996 35.420166 38.0783691 35.4851074 36 34.7620594 38.0783691 32.1862793 38.0783691"></polygon>
                <polygon id="Path-23" fill="#FEF1BC" points="35.4433594 40.8989258 33.8564453 43.0681152 36.0931396 41.2055664 38.262207 43.2060547 36.420166 40.6030273 39 39.6520996 36.420166 40.0783691 36.4851074 38 35.7620594 40.0783691 33.1862793 40.0783691"></polygon>
                <polygon id="Path-23" fill="#FEF1BC" points="35.4433594 44.8989258 33.8564453 47.0681152 36.0931396 45.2055664 38.262207 47.2060547 36.420166 44.6030273 39 43.6520996 36.420166 44.0783691 36.4851074 42 35.7620594 44.0783691 33.1862793 44.0783691"></polygon>
                <polygon id="Path-23" fill="#FEF1BC" points="34.4433594 47.8989258 32.8564453 50.0681152 35.0931396 48.2055664 37.262207 50.2060547 35.420166 47.6030273 38 46.6520996 35.420166 47.0783691 35.4851074 45 34.7620594 47.0783691 32.1862793 47.0783691"></polygon>
                <polygon id="Path-23" fill="#FEF1BC" points="27.2570801 2.89892578 25.670166 5.06811523 27.9068604 3.20556641 30.0759277 5.20605469 28.2338867 2.60302734 30.8137207 1.65209961 28.2338867 2.07836914 28.2988281 0 27.5757801 2.07836914 25 2.07836914"></polygon>
                <polygon id="Path-23" fill="#FEF1BC" points="11.4433594 11.8989258 9.85644531 14.0681152 12.0931396 12.2055664 14.262207 14.2060547 12.420166 11.6030273 15 10.6520996 12.420166 11.0783691 12.4851074 9 11.7620594 11.0783691 9.1862793 11.0783691"></polygon>
                <polygon id="Path-23" fill="#FEF1BC" points="37.4433594 18.8989258 35.8564453 21.0681152 38.0931396 19.2055664 40.262207 21.2060547 38.420166 18.6030273 41 17.6520996 38.420166 18.0783691 38.4851074 16 37.7620594 18.0783691 35.1862793 18.0783691"></polygon>
                <polygon id="Path-23" fill="#FEF1BC" points="39.4433594 23.8989258 37.8564453 26.0681152 40.0931396 24.2055664 42.262207 26.2060547 40.420166 23.6030273 43 22.6520996 40.420166 23.0783691 40.4851074 21 39.7620594 23.0783691 37.1862793 23.0783691"></polygon>
                <polygon id="Path-23" fill="#FEF1BC" points="40.4433594 29.8989258 38.8564453 32.0681152 41.0931396 30.2055664 43.262207 32.2060547 41.420166 29.6030273 44 28.6520996 41.420166 29.0783691 41.4851074 27 40.7620594 29.0783691 38.1862793 29.0783691"></polygon>
                <polygon id="Path-23" fill="#FEF1BC" points="40.4433594 33.8989258 38.8564453 36.0681152 41.0931396 34.2055664 43.262207 36.2060547 41.420166 33.6030273 44 32.6520996 41.420166 33.0783691 41.4851074 31 40.7620594 33.0783691 38.1862793 33.0783691"></polygon>
                <polygon id="Path-23" fill="#FEF1BC" points="41.4433594 37.8989258 39.8564453 40.0681152 42.0931396 38.2055664 44.262207 40.2060547 42.420166 37.6030273 45 36.6520996 42.420166 37.0783691 42.4851074 35 41.7620594 37.0783691 39.1862793 37.0783691"></polygon>
                <polygon id="Path-23" fill="#FEF1BC" points="41.4433594 42.8989258 39.8564453 45.0681152 42.0931396 43.2055664 44.262207 45.2060547 42.420166 42.6030273 45 41.6520996 42.420166 42.0783691 42.4851074 40 41.7620594 42.0783691 39.1862793 42.0783691"></polygon>
                <polygon id="Path-23" fill="#FEF1BC" points="40.4433594 47.8989258 38.8564453 50.0681152 41.0931396 48.2055664 43.262207 50.2060547 41.420166 47.6030273 44 46.6520996 41.420166 47.0783691 41.4851074 45 40.7620594 47.0783691 38.1862793 47.0783691"></polygon>
                <polygon id="Path-23" fill="#FEF1BC" points="16.2570801 2.89892578 14.670166 5.06811523 16.9068604 3.20556641 19.0759277 5.20605469 17.2338867 2.60302734 19.8137207 1.65209961 17.2338867 2.07836914 17.2988281 0 16.5757801 2.07836914 14 2.07836914"></polygon>
                <polygon id="Path-23" fill="#FEF1BC" points="33.2570801 3.89892578 31.670166 6.06811523 33.9068604 4.20556641 36.0759277 6.20605469 34.2338867 3.60302734 36.8137207 2.65209961 34.2338867 3.07836914 34.2988281 1 33.5757801 3.07836914 31 3.07836914"></polygon>
                <polygon id="Path-23" fill="#FEF1BC" points="37.4433594 7.89892578 35.8564453 10.0681152 38.0931396 8.20556641 40.262207 10.2060547 38.420166 7.60302734 41 6.65209961 38.420166 7.07836914 38.4851074 5 37.7620594 7.07836914 35.1862793 7.07836914"></polygon>
                <polygon id="Path-23" fill="#FEF1BC" points="36.4433594 12.8989258 34.8564453 15.0681152 37.0931396 13.2055664 39.262207 15.2060547 37.420166 12.6030273 40 11.6520996 37.420166 12.0783691 37.4851074 10 36.7620594 12.0783691 34.1862793 12.0783691"></polygon>
                <polygon id="Path-23" fill="#FEF1BC" points="30.4433594 9.89892578 28.8564453 12.0681152 31.0931396 10.2055664 33.262207 12.2060547 31.420166 9.60302734 34 8.65209961 31.420166 9.07836914 31.4851074 7 30.7620594 9.07836914 28.1862793 9.07836914"></polygon>
                <polygon id="Path-23" fill="#FEF1BC" points="6.25708008 9.89892578 4.67016602 12.0681152 6.90686035 10.2055664 9.07592773 12.2060547 7.23388672 9.60302734 9.8137207 8.65209961 7.23388672 9.07836914 7.29882812 7 6.57578009 9.07836914 4 9.07836914"></polygon>
                <polygon id="Path-23" fill="#FEF1BC" points="6.25708008 14.8989258 4.67016602 17.0681152 6.90686035 15.2055664 9.07592773 17.2060547 7.23388672 14.6030273 9.8137207 13.6520996 7.23388672 14.0783691 7.29882812 12 6.57578009 14.0783691 4 14.0783691"></polygon>
                <polygon id="Path-23" fill="#FEF1BC" points="8.25708008 5.89892578 6.67016602 8.06811523 8.90686035 6.20556641 11.0759277 8.20605469 9.23388672 5.60302734 11.8137207 4.65209961 9.23388672 5.07836914 9.29882812 3 8.57578009 5.07836914 6 5.07836914"></polygon>
                <polygon id="Path-23" fill="#FEF1BC" points="20.2570801 6.89892578 18.670166 9.06811523 20.9068604 7.20556641 23.0759277 9.20605469 21.2338867 6.60302734 23.8137207 5.65209961 21.2338867 6.07836914 21.2988281 4 20.5757801 6.07836914 18 6.07836914"></polygon>
                <polygon id="Path-23" fill="#FEF1BC" points="22.2570801 2.89892578 20.670166 5.06811523 22.9068604 3.20556641 25.0759277 5.20605469 23.2338867 2.60302734 25.8137207 1.65209961 23.2338867 2.07836914 23.2988281 0 22.5757801 2.07836914 20 2.07836914"></polygon>
                <polygon id="Path-23" fill="#FEF1BC" points="31.2570801 6.89892578 29.670166 9.06811523 31.9068604 7.20556641 34.0759277 9.20605469 32.2338867 6.60302734 34.8137207 5.65209961 32.2338867 6.07836914 32.2988281 4 31.5757801 6.07836914 29 6.07836914"></polygon>
                <polygon id="Path-23" fill="#FEF1BC" points="20.4433594 9.89892578 18.8564453 12.0681152 21.0931396 10.2055664 23.262207 12.2060547 21.420166 9.60302734 24 8.65209961 21.420166 9.07836914 21.4851074 7 20.7620594 9.07836914 18.1862793 9.07836914"></polygon>
                <polygon id="Path-23" fill="#FEF1BC" points="21.4433594 48.8989258 19.8564453 51.0681152 22.0931396 49.2055664 24.262207 51.2060547 22.420166 48.6030273 25 47.6520996 22.420166 48.0783691 22.4851074 46 21.7620594 48.0783691 19.1862793 48.0783691"></polygon>
                <polygon id="Path-23" fill="#FEF1BC" points="11.2570801 7.89892578 9.67016602 10.0681152 11.9068604 8.20556641 14.0759277 10.2060547 12.2338867 7.60302734 14.8137207 6.65209961 12.2338867 7.07836914 12.2988281 5 11.5757801 7.07836914 9 7.07836914"></polygon>
                <polygon id="Path-23" fill="#FEF1BC" points="13.2570801 3.89892578 11.670166 6.06811523 13.9068604 4.20556641 16.0759277 6.20605469 14.2338867 3.60302734 16.8137207 2.65209961 14.2338867 3.07836914 14.2988281 1 13.5757801 3.07836914 11 3.07836914"></polygon>
            </g>
        </g>
    </g>
</svg>