<?xml version="1.0" encoding="UTF-8" standalone="no"?>
<svg width="50px" height="100px" viewBox="0 0 50 100" version="1.1" xmlns="http://www.w3.org/2000/svg" xmlns:xlink="http://www.w3.org/1999/xlink">
    <!-- Generator: Sketch 40.3 (33839) - http://www.bohemiancoding.com/sketch -->
    <title>round_cactus_hero</title>
    <desc>Created with Sketch.</desc>
    <defs></defs>
    <g id="Page-1" stroke="none" stroke-width="1" fill="none" fill-rule="evenodd">
        <g id="round_cactus_hero">
            <g id="leaves" transform="translate(5.000000, 26.000000)">
                <path d="M2.15009223,8.90098852 C5.49953885,7.05994898 6.00840929,4.50179369 6.00840929,4.50179369 C6.00840929,4.50179369 6.79114649,4.84727484 7.5882704,4.50179369 C10.6880425,3.1583227 12.7020128,1.08805006 12.7020128,1.08805006 C12.7020128,1.08805006 13.4644323,1.63259941 13.820195,1.53568515 C16.1036497,0.913643103 18.4144919,0.559988839 20.4831814,0.559988839 C20.7915099,0.559988839 21.1546224,2.13162821e-14 21.1546224,2.13162821e-14 C21.1546224,2.13162821e-14 26.6236004,2.531621 28.8234587,2.531621 C29.5605383,2.531621 30.5442166,2.531621 30.5442166,2.531621 C30.5442166,2.531621 31.9498698,5.39074458 35.6837023,8.38763552 C36.1756287,8.78247108 36.7049696,8.38763552 36.7049696,8.38763552 C36.7049696,8.38763552 36.7761548,11.5687706 37.7255317,14.3785475 C37.8388741,14.7139957 38.366645,14.7562978 38.366645,14.7562978 C38.366645,14.7562978 37.9409269,15.7753418 37.7255317,18.8979193 C37.7084169,19.1460321 38.366645,19.419882 38.366645,19.419882 C38.366645,19.419882 37.7255317,23.3114636 37.3633626,23.9288504 C37.1468195,24.2979899 37.0671387,25.6217315 37.7255317,28.2649075 C37.8493015,28.7617922 36.7049696,28.9102758 36.7049696,28.9102758 C36.7049696,28.9102758 35.8440252,31.7759828 34.9903934,33.4487177 C34.1367616,35.1214525 33.8063789,35.9783569 33.8063789,35.9783569 L6.69024936,35.9783569 C6.69024936,35.9783569 6.26487223,35.2298808 5.95082901,34.3725628 C5.21629857,32.3673416 3.5322263,31.1448501 3.5322263,31.1448501 C3.5322263,31.1448501 3.70731873,30.4006019 3.5322263,29.5479442 C2.83656089,26.1602219 0.884440104,24.5953842 0.884440104,24.5953842 C0.884440104,24.5953842 1.3862576,23.7421703 1.3862576,23.3114636 C1.3862576,21.5654895 0,15.6348453 0,15.6348453 C0,15.6348453 1.36200847,15.8280485 1.3862576,15.1412229 C1.51858166,11.393312 0.884440104,8.90098852 0.884440104,8.90098852 C0.884440104,8.90098852 1.478222,9.27028525 2.15009223,8.90098852 Z" id="Rectangle-6" fill="#85A95E"></path>
                <path d="M8.83719296,6.92127059 L11.5555556,3.85068559 C11.5555556,3.85068559 10.0072276,6.02532678 8.83719296,8.92194277 C8.72449664,9.20094132 9.05868496,9.36357038 8.94562582,9.65719367 C7.72732436,12.8212166 6.54147616,16.7718598 6.54147616,20.1626782 C6.54147616,23.7814642 11.3643244,35.1821777 11.3643244,35.1821777 C11.3643244,35.1821777 8.54388849,29.6264034 7.43237216,27.9944946 C7.28697722,27.7810283 6.54147616,27.9944946 6.54147616,27.9944946 L6.54147616,26.5442972 C6.54147616,26.5442972 6.71448599,25.1741344 5.84042862,22.4965683 C5.71219653,22.1037453 5.44487599,21.5318518 5.37893413,21.1705176 C5.24874179,20.4571172 5.40945949,19.7395587 5.37893413,19.0931064 C5.33720205,18.2093233 5.77947469,17.4800346 5.77878088,16.1122653 C5.77800478,14.582288 6.50145945,13.5219037 6.54147616,12.7009144 C6.56509418,12.2163634 5.23608713,12.0068528 5.37893413,11.431139 C5.45650925,11.1184894 6.40841857,11.3801486 6.54147616,11.0610863 C7.01933757,9.9152099 7.05705019,10.4020515 7.43237216,9.34042637 C7.66571357,8.68040345 7.54402788,8.51697631 7.78482174,8.12863158 C8.07148057,7.66631728 8.83719296,6.92127059 8.83719296,6.92127059 Z" id="Rectangle-7" fill="#59733D"></path>
                <path d="M25.4869447,4.01124185 L27.8949383,0.734693878 C27.8949383,0.734693878 23.8342016,9.38780041 23.8342016,16.8279384 C23.8342016,20.6894586 27.8949383,34.6396684 27.8949383,34.6396684 C27.8949383,34.6396684 26.4715537,31.3641323 25.4869447,29.6227614 C25.3581502,29.3949766 24.5547279,28.7322012 24.5547279,28.7322012 L24.5547279,27.0500725 C24.5547279,27.0500725 23.6065977,23.4884371 22.8323358,20.6312703 C22.7187446,20.2120982 21.7337263,20.0101846 21.6753133,19.6246134 C21.5599857,18.8633609 22.8593759,18.3769949 22.8323358,17.6871811 C22.7540171,15.6892127 22.7651984,14.5349545 22.8323358,12.875718 C22.8532572,12.3586652 21.5487759,11.4829217 21.6753133,10.8685913 C21.7440313,10.5349703 22.7144701,10.2387921 22.8323358,9.89832837 C23.2556374,8.67559101 24.4483329,6.92992814 24.7808025,5.79709333 C24.9875022,5.09279862 24.3414267,4.84889696 24.5547279,4.43450357 C24.8086575,3.94117902 25.4869447,4.01124185 25.4869447,4.01124185 Z" id="Rectangle-7" fill="#59733D" transform="translate(24.780802, 17.687181) scale(-1, 1) translate(-24.780802, -17.687181) "></path>
                <path d="M32.0714203,6.54121492 L34.5326606,2.93877551 C34.5326606,2.93877551 30.0674472,11.6010842 30.0674472,18.9348693 C30.0674472,21.2548673 31.2227804,26.9156404 32.851237,30.7427057 C33.8945196,33.194543 35.6801758,34.712492 35.6801758,34.712492 C35.6801758,34.712492 33.0778014,33.3459831 32.0714203,31.6295041 C31.9397779,31.4049754 31.11859,29.3759168 31.11859,29.3759168 L31.11859,27.7178332 C31.11859,27.7178332 30.2269098,25.7120857 29.3581116,23.7132494 C29.2045785,23.3600172 28.262698,23.0365788 28.1755045,22.6926419 C28.0563502,22.2226345 29.4429831,22.390202 29.3581116,21.9195631 C29.0835785,20.397191 29.6391908,19.1007341 29.3581116,18.1004464 C29.2420086,17.6872662 28.2352091,17.4957723 28.1755045,17.1157127 C28.0576267,16.3653419 29.3857496,16.5917437 29.3581116,15.9117905 C29.2780611,13.942382 29.2894896,14.3541889 29.3581116,12.7186703 C29.3794957,12.2090085 28.046169,12.3732067 28.1755045,11.7676578 C28.245742,11.4388058 29.9469752,11.3093693 30.0674472,10.9737723 C30.500109,9.76851336 30.7787687,9.32741958 31.11859,8.21077806 C31.3298603,7.51655088 30.9005721,7.59110697 31.11859,7.18263712 C31.3781346,6.69636439 32.0714203,6.54121492 32.0714203,6.54121492 Z" id="Rectangle-7" fill="#59733D" transform="translate(31.923421, 18.825634) scale(-1, 1) translate(-31.923421, -18.825634) "></path>
                <path d="M16.1641686,4.58281819 L17.7653266,1.36033163 C17.7653266,1.36033163 17.1380197,3.4554754 16.1641686,6.67292623 C15.5554517,8.68403105 14.4222276,10.9947243 14.4222276,13.9347028 C14.4222276,15.6339102 14.0934707,20.8268165 15.0395838,24.9915447 C16.3023154,30.5500066 18.826355,35.0770386 18.826355,35.0770386 C18.826355,35.0770386 17.3519569,33.3341016 16.1641686,31.5451381 C16.0087966,31.3111279 15.0395838,29.1963848 15.0395838,29.1963848 L15.0395838,27.4682827 C15.0395838,27.4682827 13.987172,25.3778352 12.9617668,23.2945907 C12.7805583,22.926442 11.6688972,22.5893453 11.5659865,22.2308844 C11.4253538,21.7410292 13.061937,21.9156729 12.9617668,21.4251596 C12.6377472,19.8384997 13.2935125,18.4872952 12.9617668,17.4447668 C12.8247355,17.0141385 11.6364533,16.8145581 11.5659865,16.4184491 C11.4268604,15.6363911 12.9943868,15.8723536 12.9617668,15.1636869 C12.8672866,13.111113 12.8807752,13.5403099 12.9617668,11.8357256 C12.9870055,11.3045414 11.4133374,11.4756736 11.5659865,10.8445532 C11.6488848,10.5018142 13.6567772,10.3669118 13.7989652,10.017143 C14.3096173,8.76098755 14.6385073,8.30126698 15.0395838,7.13747121 C15.2889371,6.41392777 14.7822667,6.49163226 15.0395838,6.06591328 C15.3459131,5.55910592 16.1641686,4.58281819 16.1641686,4.58281819 Z" id="Rectangle-7" fill="#59733D"></path>
            </g>
            <g id="pot" transform="translate(3.000000, 62.000000)">
                <polygon id="Rectangle" fill="#D99264" points="0.555555556 0 44.4444444 0 44.4444444 7.43370697 42.7170139 7.98443161 35.922619 38 8.5218254 38 2.48372396 7.98443161 0.555555556 7.43370697"></polygon>
                <polygon id="Rectangle" fill="#BC7A4E" points="0.555555556 0 8.78886632 0.0448404948 8.83281163 7.95725505 9.61617606 8.01021322 15.6770979 38 8.5218254 38 2.48372396 7.98443161 0.555555556 7.43370697"></polygon>
                <polygon id="Rectangle-3" fill="#9C6744" points="0.531819661 7.39915223 44.4786241 7.39915223 42.7294922 7.98281816 2.5265842 7.98281816"></polygon>
            </g>
        </g>
    </g>
</svg>